<svg width="1518" height="861" viewBox="0 0 1518 861" fill="none" xmlns="http://www.w3.org/2000/svg">
<rect width="1518" height="861" fill="#F6F7FF"/>
<path d="M445.057 133.889C478.594 133.889 513.093 127.349 546.476 123.964C591.559 119.392 636.301 111.892 681.405 107.481C757.183 100.071 831.439 103.227 907.115 107.127C927.058 108.154 948.583 108.84 968.108 113.507C981.776 116.774 985.583 136.865 990.271 147.359C1000.79 170.907 1013.51 193.238 1021.48 217.898C1027.31 235.976 1033.11 253.965 1039.21 271.954C1047.62 296.779 1046.43 321.337 1046.65 347.101C1046.91 377.082 1050.88 405.442 1047.89 435.54C1045.63 458.402 1025.16 469.422 1005.52 476.836C948.128 498.495 888.241 506.025 827.327 511.928C770.857 517.4 714.91 522.569 658.178 523.094C618.978 523.456 579.725 524.689 540.448 524.689C516.464 524.689 485.481 527.736 463.852 514.764C451.199 507.175 445.043 492.574 439.738 479.494C430.753 457.341 424.556 430.751 420.767 407.183C417.455 386.586 417.871 365.627 413.142 345.328C409.744 330.739 411.36 314.355 411.547 299.425C411.918 269.703 417.93 240.326 417.93 210.454C417.93 194.15 421.759 184.125 426.263 168.981C432.37 148.449 464.471 142.751 480.164 132.294" stroke="black" stroke-width="3" stroke-linecap="square"/>
<path d="M421 364C458.119 364 495.847 369.694 532.463 375.128C562.531 379.59 592.906 383.495 623.16 386.61C640.879 388.434 659.149 388.51 676.584 392.262C710.337 399.525 731.465 425.901 754.857 449.846C761.808 456.962 769.936 463.573 775.623 471.749C779.18 476.862 785.045 484.712 790 488" stroke="black" stroke-width="3" stroke-linecap="square"/>
<path d="M459 464C481.008 464 502.457 465.847 524.29 467.569C549.108 469.527 574.387 473.636 599.161 473.636C613.288 473.636 622.581 478.615 633.048 488.091C642.421 496.575 646.837 510.185 657 517" stroke="black" stroke-width="3" stroke-linecap="square"/>
<path d="M488 370C487.169 376.442 483.756 383.674 483 391" stroke="black" stroke-width="3" stroke-linecap="square"/>
<path d="M509 370C508.181 376.03 507 381.479 507 388" stroke="black" stroke-width="3" stroke-linecap="square"/>
<path d="M494.583 386C485.213 386 471.909 396.433 468.945 405.104C461.71 426.269 488.274 434.179 504.999 430.487C519.026 427.39 531.613 409.296 521.023 396.436C512.865 386.531 493.832 394.088 484.969 398.736C470.018 406.575 467.228 433.476 484.969 440.127C505.247 447.729 526.275 431.1 524.94 409.88C523.757 391.082 509.22 385.368 492.18 386.088C466.916 387.157 457.21 402.481 468.945 425.799" stroke="black" stroke-width="3" stroke-linecap="square"/>
<path d="M487 432C487 441.819 488.799 450.103 493 459" stroke="black" stroke-width="3" stroke-linecap="square"/>
<path d="M500.477 431C493.097 439.146 504.297 455.045 507 463" stroke="black" stroke-width="3" stroke-linecap="square"/>
<path d="M501 410V408" stroke="black" stroke-width="3" stroke-linecap="square"/>
<path d="M500.999 405C500.999 403.039 501.114 402.793 499 402" stroke="black" stroke-width="3" stroke-linecap="square"/>
<path d="M501 415C501.115 413.157 501.325 413.675 502 413" stroke="black" stroke-width="3" stroke-linecap="square"/>
<path d="M504 418C504.334 415.149 508.795 412.57 510 410" stroke="black" stroke-width="3" stroke-linecap="square"/>
<path d="M729.219 306C714.7 304.189 700.01 293.931 688.498 284.531C678.476 276.348 671.513 268.785 669.022 255.11C667 244.011 668.117 230.217 671.147 219.417C677.202 197.836 695.625 182.328 718.153 180.455C741.911 178.479 767.942 176.167 788.353 190.88C811.185 207.337 813.831 248.626 806.058 273.841C805.082 277.005 804.335 283.238 801.72 285.326C799.749 286.9 794.712 292.629 793.31 294.868C789.654 300.706 776.494 300.692 773.835 306" stroke="black" stroke-width="3" stroke-linecap="square"/>
<path d="M692 290C691.39 294.904 675.851 300.693 677.068 305.176C680.234 316.839 684.095 331.945 684.095 344" stroke="black" stroke-width="3" stroke-linecap="square"/>
<path d="M790 293C790.336 295.758 802.002 296.222 804.143 296.222C807.511 296.222 805.714 295.989 805.714 298.818C805.714 316.119 809.845 333.875 812 351" stroke="black" stroke-width="3" stroke-linecap="square"/>
<path d="M810 338C810 387.875 807.75 438.129 810 488" stroke="black" stroke-width="3" stroke-linecap="square"/>
<path d="M838 289H841" stroke="black" stroke-width="3" stroke-linecap="square"/>
<path d="M826 277.538C831.798 284.038 837.26 288.93 845.734 293.058C867.478 303.651 888.753 283.635 896.088 264.84C904.792 242.537 893.928 195 864.23 195" stroke="black" stroke-width="3" stroke-linecap="square"/>
<path d="M836 290C831.61 290.493 822.653 297.301 820.227 300.367C817.087 304.337 820.923 317.474 821.279 321.544C824.023 352.896 829.691 384.473 829.691 416" stroke="black" stroke-width="3" stroke-linecap="square"/>
<path d="M874 281C882.613 281 879.437 295.057 879.75 301.477C881.295 333.143 877.194 364.891 880.845 396.446C884.026 423.942 890.574 451.071 897 478" stroke="black" stroke-width="3" stroke-linecap="square"/>
<path d="M919 266.629C919.972 275.362 936.634 278.643 943.299 280.614C951.278 282.974 964.535 273.957 969.727 268.576C982.352 255.49 982.44 234.374 974.87 218.831C968.574 205.903 955.072 182.823 939.752 179" stroke="black" stroke-width="3" stroke-linecap="square"/>
<path d="M906 288.942C905.631 285.941 900.376 290.968 898.955 292.123C896.606 294.032 899.32 304.507 899.39 306.26C900.81 341.785 899.265 377.484 898.172 413" stroke="black" stroke-width="3" stroke-linecap="square"/>
<path d="M952.848 287C960.14 287 957.694 293.977 957.25 300.156C953.719 349.279 947.276 398.341 957.602 447" stroke="black" stroke-width="3" stroke-linecap="square"/>
<path d="M893.515 199.379C893.515 201.342 891.772 198.128 892.025 196.972C892.687 193.941 894.236 190.75 895.882 188.147C900.254 181.23 906.797 177.33 914.025 174.063C924.779 169.202 935.359 169.732 944 178.52" stroke="black" stroke-width="3" stroke-linecap="square"/>
<path d="M812 209C812 185.892 842.27 184.166 858 189.529" stroke="black" stroke-width="3" stroke-linecap="square"/>
<path d="M443 298.421C443 291.746 449.139 310.446 453 316" stroke="black" stroke-width="3" stroke-linecap="square"/>
<path d="M488 298.248C488.264 296.459 494.874 304.909 496 306" stroke="black" stroke-width="3" stroke-linecap="square"/>
<path d="M555 285C554.432 290.109 549.667 296.999 547 301" stroke="black" stroke-width="3" stroke-linecap="square"/>
<path d="M580.393 306C584.033 306.447 570.17 320.85 569 322" stroke="black" stroke-width="3" stroke-linecap="square"/>
<path d="M652 173V211" stroke="black" stroke-width="3" stroke-linecap="square"/>
<path d="M652 169C660.673 169 672 165.707 680.342 163.72C708.002 157.133 736.586 154.928 764.577 150.031C780.634 147.222 797.612 147.429 813.432 143.382C824.247 140.616 835.33 138.439 846.432 137.222C863.012 135.405 882.131 132.034 898.162 127.64C901.741 126.659 909.073 125 912.432 125C914.405 125 915.059 131.944 916 133.8" stroke="black" stroke-width="3" stroke-linecap="square"/>
<path d="M469 183.438C469 177.669 473.019 183.626 474.4 186.096C477.233 191.165 483.255 195.533 487 200" stroke="black" stroke-width="3" stroke-linecap="square"/>
<path d="M495.846 176.926C498.013 177.237 490.811 197.709 489.85 198.993C489.584 199.349 487 186.531 487 184.413C487 178.217 490.961 185.165 492.799 186.777C512.766 204.288 506.037 167.863 499.385 158.603C493.064 149.805 505.162 179.642 510 189.339" stroke="black" stroke-width="3" stroke-linecap="square"/>
<path d="M522.93 174.872C522.93 168.536 520.035 169.164 519.221 174.872C517.486 187.03 526.54 189.359 526.54 175.675C526.54 172.107 523.662 171.03 525.938 175.174C530.83 184.078 537.255 183.791 539.974 174.069C544.319 158.535 541.269 177.379 550 180.293" stroke="black" stroke-width="3" stroke-linecap="square"/>
<path d="M538.772 153.775C538.366 150.854 537.114 157.057 537.114 158.036C537.114 161.519 541.28 161.141 539.601 158.036C535.022 149.564 532.087 158.806 535.456 164" stroke="black" stroke-width="3" stroke-linecap="square"/>
<path d="M550 157.011C550.776 156.139 553.383 148.051 554.861 152.154C557.423 159.265 559.225 165.036 564 171" stroke="black" stroke-width="3" stroke-linecap="square"/>
<path d="M556.605 162C549.137 162 569.755 154.758 577 153" stroke="black" stroke-width="3" stroke-linecap="square"/>
<path d="M519.037 212.468C518.43 207.742 515.336 215.246 514.983 216.02C510.602 225.612 521.752 238.64 530.998 228.054C538.917 218.988 529.809 192.755 519.443 205.366C509.594 217.346 521.257 227.436 531.809 232" stroke="black" stroke-width="3" stroke-linecap="square"/>
<path d="M519 230.32C530.378 218.091 543.338 234.544 550 246" stroke="black" stroke-width="3" stroke-linecap="square"/>
<path d="M539 212.17C539 203.847 540.828 211.384 543.494 214.794C546.271 218.347 551.773 222.715 555.999 217.808C558.733 214.634 555.231 202.616 553.068 206.92" stroke="black" stroke-width="3" stroke-linecap="square"/>
<path d="M567.845 206.93C567.496 203.995 567.288 207.184 571.384 206.93C574.679 206.727 573.115 200.902 571.384 199.486C567.172 196.041 564.733 211.915 570.008 215.409C573.501 217.722 579.171 212.636 582 210.653" stroke="black" stroke-width="3" stroke-linecap="square"/>
<path d="M582.007 201.436C582.007 195.541 581.771 205.354 584.053 208.616C592.056 220.053 592.468 186.188 588.705 194.257" stroke="black" stroke-width="3" stroke-linecap="square"/>
<path d="M600 198.346C600.212 196.591 602.025 193.948 603.071 192.599C605.503 189.46 600.798 182.765 600.096 187.842C599.463 192.416 603.388 203.092 609.404 199.139C613.069 196.73 614.779 192.664 619 191.211" stroke="black" stroke-width="3" stroke-linecap="square"/>
<path d="M476.262 621.909V651H472.228L457.441 629.665H457.171V651H452.782V621.909H456.844L471.646 643.273H471.915V621.909H476.262ZM491.514 651.44C489.469 651.44 487.684 650.972 486.159 650.034C484.634 649.097 483.451 647.785 482.608 646.099C481.765 644.414 481.344 642.444 481.344 640.19C481.344 637.927 481.765 635.948 482.608 634.253C483.451 632.558 484.634 631.241 486.159 630.304C487.684 629.366 489.469 628.898 491.514 628.898C493.56 628.898 495.345 629.366 496.869 630.304C498.394 631.241 499.578 632.558 500.42 634.253C501.263 635.948 501.685 637.927 501.685 640.19C501.685 642.444 501.263 644.414 500.42 646.099C499.578 647.785 498.394 649.097 496.869 650.034C495.345 650.972 493.56 651.44 491.514 651.44ZM491.528 647.875C492.854 647.875 493.953 647.525 494.824 646.824C495.695 646.123 496.339 645.19 496.756 644.026C497.182 642.861 497.395 641.578 497.395 640.176C497.395 638.784 497.182 637.506 496.756 636.341C496.339 635.167 495.695 634.224 494.824 633.514C493.953 632.804 492.854 632.449 491.528 632.449C490.193 632.449 489.085 632.804 488.205 633.514C487.333 634.224 486.685 635.167 486.259 636.341C485.842 637.506 485.634 638.784 485.634 640.176C485.634 641.578 485.842 642.861 486.259 644.026C486.685 645.19 487.333 646.123 488.205 646.824C489.085 647.525 490.193 647.875 491.528 647.875ZM516.61 629.182V632.591H504.692V629.182H516.61ZM507.888 623.955H512.136V644.594C512.136 645.418 512.259 646.038 512.505 646.455C512.751 646.862 513.068 647.141 513.457 647.293C513.854 647.435 514.285 647.506 514.749 647.506C515.09 647.506 515.388 647.482 515.644 647.435C515.9 647.387 516.099 647.349 516.241 647.321L517.008 650.83C516.762 650.924 516.411 651.019 515.957 651.114C515.502 651.218 514.934 651.275 514.252 651.284C513.135 651.303 512.093 651.104 511.127 650.688C510.161 650.271 509.38 649.627 508.783 648.756C508.187 647.884 507.888 646.791 507.888 645.474V623.955ZM535.8 643.599L535.772 638.415H536.511L545.204 629.182H550.289L540.374 639.693H539.707L535.8 643.599ZM531.894 651V621.909H536.141V651H531.894ZM545.673 651L537.86 640.631L540.786 637.662L550.886 651H545.673ZM558.407 638.045V651H554.16V629.182H558.237V632.733H558.506C559.008 631.578 559.794 630.65 560.864 629.949C561.944 629.248 563.303 628.898 564.941 628.898C566.428 628.898 567.73 629.21 568.847 629.835C569.965 630.451 570.831 631.369 571.447 632.591C572.062 633.812 572.37 635.323 572.37 637.122V651H568.123V637.634C568.123 636.052 567.711 634.816 566.887 633.926C566.063 633.027 564.932 632.577 563.492 632.577C562.507 632.577 561.631 632.79 560.864 633.216C560.107 633.642 559.505 634.267 559.06 635.091C558.625 635.905 558.407 636.89 558.407 638.045ZM587.256 651.44C585.211 651.44 583.426 650.972 581.901 650.034C580.377 649.097 579.193 647.785 578.35 646.099C577.507 644.414 577.086 642.444 577.086 640.19C577.086 637.927 577.507 635.948 578.35 634.253C579.193 632.558 580.377 631.241 581.901 630.304C583.426 629.366 585.211 628.898 587.256 628.898C589.302 628.898 591.087 629.366 592.612 630.304C594.136 631.241 595.32 632.558 596.163 634.253C597.005 635.948 597.427 637.927 597.427 640.19C597.427 642.444 597.005 644.414 596.163 646.099C595.32 647.785 594.136 649.097 592.612 650.034C591.087 650.972 589.302 651.44 587.256 651.44ZM587.271 647.875C588.596 647.875 589.695 647.525 590.566 646.824C591.437 646.123 592.081 645.19 592.498 644.026C592.924 642.861 593.137 641.578 593.137 640.176C593.137 638.784 592.924 637.506 592.498 636.341C592.081 635.167 591.437 634.224 590.566 633.514C589.695 632.804 588.596 632.449 587.271 632.449C585.935 632.449 584.827 632.804 583.947 633.514C583.076 634.224 582.427 635.167 582.001 636.341C581.584 637.506 581.376 638.784 581.376 640.176C581.376 641.578 581.584 642.861 582.001 644.026C582.427 645.19 583.076 646.123 583.947 646.824C584.827 647.525 585.935 647.875 587.271 647.875ZM606.234 651L599.813 629.182H604.202L608.478 645.205H608.691L612.981 629.182H617.37L621.631 645.134H621.844L626.092 629.182H630.481L624.075 651H619.742L615.31 635.247H614.984L610.552 651H606.234ZM634.511 651V629.182H638.759V651H634.511ZM636.656 625.815C635.918 625.815 635.283 625.569 634.753 625.077C634.232 624.575 633.972 623.978 633.972 623.287C633.972 622.586 634.232 621.99 634.753 621.497C635.283 620.995 635.918 620.744 636.656 620.744C637.395 620.744 638.025 620.995 638.545 621.497C639.076 621.99 639.341 622.586 639.341 623.287C639.341 623.978 639.076 624.575 638.545 625.077C638.025 625.569 637.395 625.815 636.656 625.815ZM648.719 638.045V651H644.472V629.182H648.549V632.733H648.819C649.321 631.578 650.107 630.65 651.177 629.949C652.256 629.248 653.615 628.898 655.254 628.898C656.74 628.898 658.042 629.21 659.16 629.835C660.277 630.451 661.144 631.369 661.759 632.591C662.375 633.812 662.683 635.323 662.683 637.122V651H658.435V637.634C658.435 636.052 658.023 634.816 657.2 633.926C656.376 633.027 655.244 632.577 653.805 632.577C652.82 632.577 651.944 632.79 651.177 633.216C650.419 633.642 649.818 634.267 649.373 635.091C648.937 635.905 648.719 636.89 648.719 638.045ZM677.526 659.636C675.793 659.636 674.302 659.409 673.052 658.955C671.811 658.5 670.798 657.899 670.012 657.151C669.226 656.402 668.639 655.583 668.251 654.693L671.901 653.188C672.157 653.604 672.498 654.045 672.924 654.509C673.36 654.982 673.947 655.384 674.685 655.716C675.433 656.047 676.395 656.213 677.569 656.213C679.179 656.213 680.509 655.82 681.56 655.034C682.612 654.258 683.137 653.017 683.137 651.312V647.023H682.867C682.612 647.487 682.242 648.003 681.759 648.571C681.286 649.139 680.632 649.632 679.799 650.048C678.966 650.465 677.881 650.673 676.546 650.673C674.823 650.673 673.27 650.271 671.887 649.466C670.514 648.652 669.425 647.454 668.62 645.872C667.825 644.281 667.427 642.326 667.427 640.006C667.427 637.686 667.82 635.697 668.606 634.04C669.401 632.383 670.49 631.114 671.873 630.233C673.255 629.343 674.823 628.898 676.575 628.898C677.929 628.898 679.022 629.125 679.856 629.58C680.689 630.025 681.338 630.545 681.802 631.142C682.275 631.739 682.64 632.264 682.896 632.719H683.208V629.182H687.37V651.483C687.37 653.358 686.934 654.897 686.063 656.099C685.192 657.302 684.013 658.192 682.526 658.77C681.049 659.348 679.382 659.636 677.526 659.636ZM677.484 647.151C678.705 647.151 679.737 646.866 680.58 646.298C681.433 645.721 682.076 644.897 682.512 643.827C682.957 642.747 683.18 641.455 683.18 639.949C683.18 638.481 682.962 637.188 682.526 636.071C682.091 634.954 681.451 634.082 680.609 633.457C679.766 632.823 678.724 632.506 677.484 632.506C676.205 632.506 675.14 632.837 674.288 633.5C673.435 634.153 672.791 635.044 672.356 636.17C671.93 637.297 671.717 638.557 671.717 639.949C671.717 641.379 671.934 642.634 672.37 643.713C672.806 644.793 673.45 645.635 674.302 646.241C675.164 646.848 676.224 647.151 677.484 647.151ZM707.899 638.045V651H703.652V621.909H707.842V632.733H708.112C708.624 631.559 709.405 630.626 710.456 629.935C711.507 629.243 712.88 628.898 714.575 628.898C716.071 628.898 717.378 629.205 718.496 629.821C719.623 630.437 720.494 631.355 721.109 632.577C721.734 633.789 722.047 635.304 722.047 637.122V651H717.8V637.634C717.8 636.033 717.388 634.793 716.564 633.912C715.74 633.022 714.594 632.577 713.126 632.577C712.123 632.577 711.223 632.79 710.428 633.216C709.642 633.642 709.021 634.267 708.567 635.091C708.122 635.905 707.899 636.89 707.899 638.045ZM736.905 651.44C734.859 651.44 733.074 650.972 731.55 650.034C730.025 649.097 728.841 647.785 727.999 646.099C727.156 644.414 726.734 642.444 726.734 640.19C726.734 637.927 727.156 635.948 727.999 634.253C728.841 632.558 730.025 631.241 731.55 630.304C733.074 629.366 734.859 628.898 736.905 628.898C738.95 628.898 740.735 629.366 742.26 630.304C743.785 631.241 744.968 632.558 745.811 634.253C746.654 635.948 747.075 637.927 747.075 640.19C747.075 642.444 746.654 644.414 745.811 646.099C744.968 647.785 743.785 649.097 742.26 650.034C740.735 650.972 738.95 651.44 736.905 651.44ZM736.919 647.875C738.245 647.875 739.343 647.525 740.214 646.824C741.086 646.123 741.73 645.19 742.146 644.026C742.572 642.861 742.786 641.578 742.786 640.176C742.786 638.784 742.572 637.506 742.146 636.341C741.73 635.167 741.086 634.224 740.214 633.514C739.343 632.804 738.245 632.449 736.919 632.449C735.584 632.449 734.476 632.804 733.595 633.514C732.724 634.224 732.075 635.167 731.649 636.341C731.232 637.506 731.024 638.784 731.024 640.176C731.024 641.578 731.232 642.861 731.649 644.026C732.075 645.19 732.724 646.123 733.595 646.824C734.476 647.525 735.584 647.875 736.919 647.875ZM755.882 651L749.462 629.182H753.851L758.126 645.205H758.339L762.629 629.182H767.018L771.28 645.134H771.493L775.74 629.182H780.129L773.723 651H769.391L764.959 635.247H764.632L760.2 651H755.882ZM798.993 621.909V651H794.746V621.909H798.993ZM813.897 651.44C811.852 651.44 810.067 650.972 808.542 650.034C807.017 649.097 805.834 647.785 804.991 646.099C804.148 644.414 803.727 642.444 803.727 640.19C803.727 637.927 804.148 635.948 804.991 634.253C805.834 632.558 807.017 631.241 808.542 630.304C810.067 629.366 811.852 628.898 813.897 628.898C815.942 628.898 817.728 629.366 819.252 630.304C820.777 631.241 821.96 632.558 822.803 634.253C823.646 635.948 824.067 637.927 824.067 640.19C824.067 642.444 823.646 644.414 822.803 646.099C821.96 647.785 820.777 649.097 819.252 650.034C817.728 650.972 815.942 651.44 813.897 651.44ZM813.911 647.875C815.237 647.875 816.335 647.525 817.207 646.824C818.078 646.123 818.722 645.19 819.138 644.026C819.565 642.861 819.778 641.578 819.778 640.176C819.778 638.784 819.565 637.506 819.138 636.341C818.722 635.167 818.078 634.224 817.207 633.514C816.335 632.804 815.237 632.449 813.911 632.449C812.576 632.449 811.468 632.804 810.587 633.514C809.716 634.224 809.067 635.167 808.641 636.341C808.225 637.506 808.016 638.784 808.016 640.176C808.016 641.578 808.225 642.861 808.641 644.026C809.067 645.19 809.716 646.123 810.587 646.824C811.468 647.525 812.576 647.875 813.911 647.875ZM833.055 638.045V651H828.808V629.182H832.885V632.733H833.155C833.657 631.578 834.443 630.65 835.513 629.949C836.592 629.248 837.951 628.898 839.589 628.898C841.076 628.898 842.378 629.21 843.496 629.835C844.613 630.451 845.48 631.369 846.095 632.591C846.711 633.812 847.018 635.323 847.018 637.122V651H842.771V637.634C842.771 636.052 842.359 634.816 841.536 633.926C840.712 633.027 839.58 632.577 838.141 632.577C837.156 632.577 836.28 632.79 835.513 633.216C834.755 633.642 834.154 634.267 833.709 635.091C833.273 635.905 833.055 636.89 833.055 638.045ZM861.862 659.636C860.129 659.636 858.638 659.409 857.388 658.955C856.147 658.5 855.134 657.899 854.348 657.151C853.562 656.402 852.975 655.583 852.587 654.693L856.237 653.188C856.493 653.604 856.834 654.045 857.26 654.509C857.696 654.982 858.283 655.384 859.021 655.716C859.769 656.047 860.731 656.213 861.905 656.213C863.515 656.213 864.845 655.82 865.896 655.034C866.947 654.258 867.473 653.017 867.473 651.312V647.023H867.203C866.947 647.487 866.578 648.003 866.095 648.571C865.622 649.139 864.968 649.632 864.135 650.048C863.302 650.465 862.217 650.673 860.882 650.673C859.159 650.673 857.606 650.271 856.223 649.466C854.85 648.652 853.761 647.454 852.956 645.872C852.161 644.281 851.763 642.326 851.763 640.006C851.763 637.686 852.156 635.697 852.942 634.04C853.737 632.383 854.826 631.114 856.209 630.233C857.591 629.343 859.159 628.898 860.911 628.898C862.265 628.898 863.358 629.125 864.192 629.58C865.025 630.025 865.674 630.545 866.138 631.142C866.611 631.739 866.976 632.264 867.232 632.719H867.544V629.182H871.706V651.483C871.706 653.358 871.27 654.897 870.399 656.099C869.528 657.302 868.349 658.192 866.862 658.77C865.385 659.348 863.718 659.636 861.862 659.636ZM861.82 647.151C863.041 647.151 864.073 646.866 864.916 646.298C865.768 645.721 866.412 644.897 866.848 643.827C867.293 642.747 867.516 641.455 867.516 639.949C867.516 638.481 867.298 637.188 866.862 636.071C866.427 634.954 865.787 634.082 864.945 633.457C864.102 632.823 863.06 632.506 861.82 632.506C860.541 632.506 859.476 632.837 858.624 633.5C857.771 634.153 857.127 635.044 856.692 636.17C856.266 637.297 856.053 638.557 856.053 639.949C856.053 641.379 856.27 642.634 856.706 643.713C857.142 644.793 857.786 645.635 858.638 646.241C859.5 646.848 860.56 647.151 861.82 647.151ZM898.173 629.182V632.591H886.255V629.182H898.173ZM889.451 623.955H893.698V644.594C893.698 645.418 893.821 646.038 894.067 646.455C894.314 646.862 894.631 647.141 895.019 647.293C895.417 647.435 895.848 647.506 896.312 647.506C896.653 647.506 896.951 647.482 897.207 647.435C897.462 647.387 897.661 647.349 897.803 647.321L898.57 650.83C898.324 650.924 897.974 651.019 897.519 651.114C897.065 651.218 896.496 651.275 895.815 651.284C894.697 651.303 893.656 651.104 892.69 650.688C891.724 650.271 890.942 649.627 890.346 648.756C889.749 647.884 889.451 646.791 889.451 645.474V623.955ZM907.587 638.045V651H903.339V621.909H907.53V632.733H907.8C908.311 631.559 909.092 630.626 910.143 629.935C911.195 629.243 912.568 628.898 914.263 628.898C915.759 628.898 917.066 629.205 918.183 629.821C919.31 630.437 920.181 631.355 920.797 632.577C921.422 633.789 921.734 635.304 921.734 637.122V651H917.487V637.634C917.487 636.033 917.075 634.793 916.251 633.912C915.428 633.022 914.282 632.577 912.814 632.577C911.81 632.577 910.911 632.79 910.115 633.216C909.329 633.642 908.709 634.267 908.254 635.091C907.809 635.905 907.587 636.89 907.587 638.045ZM936.805 651.44C934.656 651.44 932.804 650.981 931.251 650.062C929.708 649.134 928.515 647.832 927.672 646.156C926.839 644.471 926.422 642.496 926.422 640.233C926.422 637.998 926.839 636.028 927.672 634.324C928.515 632.619 929.689 631.289 931.195 630.332C932.71 629.376 934.481 628.898 936.507 628.898C937.738 628.898 938.931 629.101 940.087 629.509C941.242 629.916 942.279 630.555 943.197 631.426C944.116 632.297 944.84 633.429 945.371 634.821C945.901 636.204 946.166 637.884 946.166 639.864V641.369H928.822V638.188H942.004C942.004 637.07 941.777 636.08 941.322 635.219C940.868 634.348 940.229 633.661 939.405 633.159C938.59 632.657 937.634 632.406 936.536 632.406C935.342 632.406 934.301 632.7 933.411 633.287C932.53 633.865 931.848 634.622 931.365 635.56C930.892 636.488 930.655 637.496 930.655 638.585V641.071C930.655 642.529 930.911 643.77 931.422 644.793C931.943 645.815 932.667 646.597 933.595 647.136C934.523 647.667 935.607 647.932 936.848 647.932C937.653 647.932 938.387 647.818 939.05 647.591C939.713 647.354 940.286 647.004 940.768 646.54C941.251 646.076 941.621 645.503 941.876 644.821L945.896 645.545C945.574 646.729 944.997 647.766 944.163 648.656C943.339 649.537 942.303 650.223 941.053 650.716C939.812 651.199 938.396 651.44 936.805 651.44ZM952.938 659.182C952.304 659.182 951.726 659.13 951.205 659.026C950.684 658.931 950.296 658.827 950.04 658.713L951.063 655.233C951.84 655.441 952.531 655.531 953.137 655.503C953.743 655.474 954.278 655.247 954.742 654.821C955.216 654.395 955.632 653.699 955.992 652.733L956.518 651.284L948.535 629.182H953.08L958.606 646.114H958.833L964.359 629.182H968.918L959.927 653.912C959.51 655.048 958.98 656.009 958.336 656.795C957.692 657.591 956.925 658.188 956.035 658.585C955.145 658.983 954.112 659.182 952.938 659.182ZM988.226 651L981.805 629.182H986.195L990.47 645.205H990.683L994.973 629.182H999.362L1003.62 645.134H1003.84L1008.08 629.182H1012.47L1006.07 651H1001.73L997.303 635.247H996.976L992.544 651H988.226ZM1016.5 651V629.182H1020.75V651H1016.5ZM1018.65 625.815C1017.91 625.815 1017.28 625.569 1016.75 625.077C1016.22 624.575 1015.96 623.978 1015.96 623.287C1015.96 622.586 1016.22 621.99 1016.75 621.497C1017.28 620.995 1017.91 620.744 1018.65 620.744C1019.39 620.744 1020.02 620.995 1020.54 621.497C1021.07 621.99 1021.33 622.586 1021.33 623.287C1021.33 623.978 1021.07 624.575 1020.54 625.077C1020.02 625.569 1019.39 625.815 1018.65 625.815ZM1030.71 621.909V651H1026.46V621.909H1030.71ZM1040.67 621.909V651H1036.43V621.909H1040.67ZM446.585 699L440.165 677.182H444.554L448.83 693.205H449.043L453.332 677.182H457.722L461.983 693.134H462.196L466.443 677.182H470.832L464.426 699H460.094L455.662 683.247H455.335L450.903 699H446.585ZM481.212 699.483C479.83 699.483 478.58 699.227 477.462 698.716C476.345 698.195 475.46 697.442 474.806 696.457C474.162 695.473 473.84 694.265 473.84 692.835C473.84 691.604 474.077 690.591 474.55 689.795C475.024 689 475.663 688.37 476.468 687.906C477.273 687.442 478.173 687.092 479.167 686.855C480.161 686.618 481.174 686.438 482.207 686.315C483.513 686.164 484.574 686.041 485.388 685.946C486.203 685.842 486.795 685.676 487.164 685.449C487.533 685.222 487.718 684.852 487.718 684.341V684.241C487.718 683.001 487.368 682.04 486.667 681.358C485.976 680.676 484.943 680.335 483.57 680.335C482.14 680.335 481.013 680.652 480.19 681.287C479.375 681.912 478.812 682.608 478.499 683.375L474.508 682.466C474.981 681.14 475.673 680.07 476.582 679.256C477.5 678.432 478.556 677.835 479.749 677.466C480.942 677.087 482.197 676.898 483.513 676.898C484.385 676.898 485.308 677.002 486.283 677.21C487.268 677.409 488.187 677.778 489.039 678.318C489.901 678.858 490.606 679.63 491.156 680.634C491.705 681.628 491.979 682.92 491.979 684.511V699H487.832V696.017H487.661C487.387 696.566 486.975 697.106 486.425 697.636C485.876 698.167 485.171 698.607 484.309 698.957C483.447 699.308 482.415 699.483 481.212 699.483ZM482.136 696.074C483.31 696.074 484.314 695.842 485.147 695.378C485.99 694.914 486.629 694.308 487.065 693.56C487.51 692.802 487.732 691.992 487.732 691.131V688.318C487.581 688.47 487.287 688.612 486.852 688.744C486.425 688.867 485.938 688.976 485.388 689.071C484.839 689.156 484.304 689.237 483.783 689.312C483.263 689.379 482.827 689.436 482.477 689.483C481.653 689.587 480.9 689.762 480.218 690.009C479.546 690.255 479.006 690.61 478.599 691.074C478.201 691.528 478.002 692.134 478.002 692.892C478.002 693.943 478.39 694.739 479.167 695.278C479.943 695.809 480.933 696.074 482.136 696.074ZM497.636 699V677.182H501.884V699H497.636ZM499.781 673.815C499.043 673.815 498.408 673.569 497.878 673.077C497.357 672.575 497.097 671.978 497.097 671.287C497.097 670.586 497.357 669.99 497.878 669.497C498.408 668.995 499.043 668.744 499.781 668.744C500.52 668.744 501.15 668.995 501.67 669.497C502.201 669.99 502.466 670.586 502.466 671.287C502.466 671.978 502.201 672.575 501.67 673.077C501.15 673.569 500.52 673.815 499.781 673.815ZM517.782 677.182V680.591H505.864V677.182H517.782ZM509.06 671.955H513.308V692.594C513.308 693.418 513.431 694.038 513.677 694.455C513.923 694.862 514.24 695.141 514.629 695.293C515.026 695.435 515.457 695.506 515.921 695.506C516.262 695.506 516.56 695.482 516.816 695.435C517.072 695.387 517.271 695.349 517.413 695.321L518.18 698.83C517.933 698.924 517.583 699.019 517.129 699.114C516.674 699.218 516.106 699.275 515.424 699.284C514.307 699.303 513.265 699.104 512.299 698.688C511.333 698.271 510.552 697.627 509.955 696.756C509.359 695.884 509.06 694.791 509.06 693.474V671.955ZM542.256 699.44C540.145 699.44 538.326 698.962 536.802 698.006C535.287 697.04 534.122 695.709 533.308 694.014C532.493 692.319 532.086 690.378 532.086 688.19C532.086 685.974 532.503 684.019 533.336 682.324C534.169 680.619 535.344 679.289 536.859 678.332C538.374 677.376 540.159 676.898 542.214 676.898C543.871 676.898 545.348 677.205 546.646 677.821C547.943 678.427 548.989 679.279 549.785 680.378C550.59 681.476 551.068 682.759 551.219 684.227H547.086C546.859 683.205 546.338 682.324 545.523 681.585C544.719 680.847 543.639 680.477 542.285 680.477C541.101 680.477 540.064 680.79 539.174 681.415C538.293 682.03 537.607 682.911 537.114 684.057C536.622 685.193 536.376 686.538 536.376 688.091C536.376 689.682 536.617 691.055 537.1 692.21C537.583 693.366 538.265 694.26 539.146 694.895C540.036 695.529 541.082 695.847 542.285 695.847C543.09 695.847 543.819 695.7 544.472 695.406C545.135 695.103 545.689 694.672 546.134 694.114C546.589 693.555 546.906 692.883 547.086 692.097H551.219C551.068 693.508 550.609 694.767 549.842 695.875C549.075 696.983 548.047 697.854 546.759 698.489C545.481 699.123 543.98 699.44 542.256 699.44ZM555.761 699V677.182H559.866V680.648H560.094C560.491 679.473 561.192 678.55 562.196 677.878C563.209 677.196 564.355 676.855 565.634 676.855C565.899 676.855 566.211 676.865 566.571 676.884C566.94 676.902 567.229 676.926 567.438 676.955V681.017C567.267 680.97 566.964 680.918 566.528 680.861C566.093 680.795 565.657 680.761 565.222 680.761C564.218 680.761 563.323 680.974 562.537 681.401C561.76 681.817 561.145 682.4 560.69 683.148C560.236 683.886 560.009 684.729 560.009 685.676V699H555.761ZM579.735 699.44C577.585 699.44 575.734 698.981 574.181 698.062C572.638 697.134 571.444 695.832 570.602 694.156C569.768 692.471 569.352 690.496 569.352 688.233C569.352 685.998 569.768 684.028 570.602 682.324C571.444 680.619 572.619 679.289 574.124 678.332C575.639 677.376 577.41 676.898 579.437 676.898C580.668 676.898 581.861 677.101 583.016 677.509C584.172 677.916 585.209 678.555 586.127 679.426C587.046 680.297 587.77 681.429 588.3 682.821C588.831 684.204 589.096 685.884 589.096 687.864V689.369H571.752V686.188H584.934C584.934 685.07 584.707 684.08 584.252 683.219C583.798 682.348 583.158 681.661 582.335 681.159C581.52 680.657 580.564 680.406 579.465 680.406C578.272 680.406 577.23 680.7 576.34 681.287C575.46 681.865 574.778 682.622 574.295 683.56C573.821 684.488 573.585 685.496 573.585 686.585V689.071C573.585 690.529 573.84 691.77 574.352 692.793C574.872 693.815 575.597 694.597 576.525 695.136C577.453 695.667 578.537 695.932 579.778 695.932C580.583 695.932 581.317 695.818 581.979 695.591C582.642 695.354 583.215 695.004 583.698 694.54C584.181 694.076 584.55 693.503 584.806 692.821L588.826 693.545C588.504 694.729 587.926 695.766 587.093 696.656C586.269 697.537 585.232 698.223 583.982 698.716C582.742 699.199 581.326 699.44 579.735 699.44ZM600.158 699.483C598.775 699.483 597.525 699.227 596.408 698.716C595.29 698.195 594.405 697.442 593.751 696.457C593.107 695.473 592.786 694.265 592.786 692.835C592.786 691.604 593.022 690.591 593.496 689.795C593.969 689 594.608 688.37 595.413 687.906C596.218 687.442 597.118 687.092 598.112 686.855C599.107 686.618 600.12 686.438 601.152 686.315C602.459 686.164 603.519 686.041 604.334 685.946C605.148 685.842 605.74 685.676 606.109 685.449C606.479 685.222 606.663 684.852 606.663 684.341V684.241C606.663 683.001 606.313 682.04 605.612 681.358C604.921 680.676 603.889 680.335 602.516 680.335C601.086 680.335 599.959 680.652 599.135 681.287C598.321 681.912 597.757 682.608 597.445 683.375L593.453 682.466C593.927 681.14 594.618 680.07 595.527 679.256C596.446 678.432 597.501 677.835 598.695 677.466C599.888 677.087 601.143 676.898 602.459 676.898C603.33 676.898 604.253 677.002 605.229 677.21C606.214 677.409 607.132 677.778 607.984 678.318C608.846 678.858 609.552 679.63 610.101 680.634C610.65 681.628 610.925 682.92 610.925 684.511V699H606.777V696.017H606.607C606.332 696.566 605.92 697.106 605.371 697.636C604.821 698.167 604.116 698.607 603.254 698.957C602.393 699.308 601.36 699.483 600.158 699.483ZM601.081 696.074C602.255 696.074 603.259 695.842 604.092 695.378C604.935 694.914 605.574 694.308 606.01 693.56C606.455 692.802 606.678 691.992 606.678 691.131V688.318C606.526 688.47 606.232 688.612 605.797 688.744C605.371 688.867 604.883 688.976 604.334 689.071C603.785 689.156 603.25 689.237 602.729 689.312C602.208 689.379 601.772 689.436 601.422 689.483C600.598 689.587 599.845 689.762 599.163 690.009C598.491 690.255 597.951 690.61 597.544 691.074C597.146 691.528 596.947 692.134 596.947 692.892C596.947 693.943 597.336 694.739 598.112 695.278C598.889 695.809 599.878 696.074 601.081 696.074ZM626.766 677.182V680.591H614.849V677.182H626.766ZM618.045 671.955H622.292V692.594C622.292 693.418 622.415 694.038 622.661 694.455C622.907 694.862 623.225 695.141 623.613 695.293C624.011 695.435 624.442 695.506 624.906 695.506C625.246 695.506 625.545 695.482 625.8 695.435C626.056 695.387 626.255 695.349 626.397 695.321L627.164 698.83C626.918 698.924 626.567 699.019 626.113 699.114C625.658 699.218 625.09 699.275 624.408 699.284C623.291 699.303 622.249 699.104 621.283 698.688C620.317 698.271 619.536 697.627 618.94 696.756C618.343 695.884 618.045 694.791 618.045 693.474V671.955ZM640.634 699.44C638.484 699.44 636.633 698.981 635.08 698.062C633.536 697.134 632.343 695.832 631.5 694.156C630.667 692.471 630.25 690.496 630.25 688.233C630.25 685.998 630.667 684.028 631.5 682.324C632.343 680.619 633.517 679.289 635.023 678.332C636.538 677.376 638.309 676.898 640.335 676.898C641.566 676.898 642.759 677.101 643.915 677.509C645.07 677.916 646.107 678.555 647.026 679.426C647.944 680.297 648.669 681.429 649.199 682.821C649.729 684.204 649.994 685.884 649.994 687.864V689.369H632.651V686.188H645.832C645.832 685.07 645.605 684.08 645.151 683.219C644.696 682.348 644.057 681.661 643.233 681.159C642.419 680.657 641.462 680.406 640.364 680.406C639.17 680.406 638.129 680.7 637.239 681.287C636.358 681.865 635.676 682.622 635.193 683.56C634.72 684.488 634.483 685.496 634.483 686.585V689.071C634.483 690.529 634.739 691.77 635.25 692.793C635.771 693.815 636.495 694.597 637.423 695.136C638.351 695.667 639.436 695.932 640.676 695.932C641.481 695.932 642.215 695.818 642.878 695.591C643.541 695.354 644.114 695.004 644.597 694.54C645.08 694.076 645.449 693.503 645.705 692.821L649.724 693.545C649.402 694.729 648.825 695.766 647.991 696.656C647.168 697.537 646.131 698.223 644.881 698.716C643.64 699.199 642.224 699.44 640.634 699.44ZM671.056 682.509L667.207 683.19C667.046 682.698 666.79 682.229 666.44 681.784C666.099 681.339 665.635 680.974 665.048 680.69C664.46 680.406 663.727 680.264 662.846 680.264C661.643 680.264 660.639 680.534 659.835 681.074C659.03 681.604 658.627 682.291 658.627 683.134C658.627 683.863 658.897 684.45 659.437 684.895C659.977 685.34 660.848 685.705 662.05 685.989L665.516 686.784C667.524 687.248 669.02 687.963 670.005 688.929C670.99 689.895 671.482 691.15 671.482 692.693C671.482 694 671.103 695.165 670.346 696.188C669.598 697.201 668.551 697.996 667.207 698.574C665.871 699.152 664.323 699.44 662.562 699.44C660.119 699.44 658.125 698.92 656.582 697.878C655.038 696.827 654.091 695.335 653.741 693.403L657.846 692.778C658.102 693.848 658.627 694.658 659.423 695.207C660.218 695.747 661.255 696.017 662.533 696.017C663.925 696.017 665.038 695.728 665.871 695.151C666.705 694.563 667.121 693.848 667.121 693.006C667.121 692.324 666.866 691.751 666.354 691.287C665.853 690.823 665.081 690.473 664.039 690.236L660.346 689.426C658.31 688.962 656.804 688.223 655.829 687.21C654.863 686.197 654.38 684.914 654.38 683.361C654.38 682.073 654.74 680.946 655.46 679.98C656.179 679.014 657.174 678.261 658.442 677.722C659.711 677.172 661.165 676.898 662.803 676.898C665.161 676.898 667.017 677.409 668.371 678.432C669.726 679.445 670.621 680.804 671.056 682.509ZM693.087 699.483C691.705 699.483 690.455 699.227 689.337 698.716C688.22 698.195 687.335 697.442 686.681 696.457C686.037 695.473 685.715 694.265 685.715 692.835C685.715 691.604 685.952 690.591 686.425 689.795C686.899 689 687.538 688.37 688.343 687.906C689.148 687.442 690.048 687.092 691.042 686.855C692.036 686.618 693.049 686.438 694.082 686.315C695.388 686.164 696.449 686.041 697.263 685.946C698.078 685.842 698.67 685.676 699.039 685.449C699.408 685.222 699.593 684.852 699.593 684.341V684.241C699.593 683.001 699.243 682.04 698.542 681.358C697.851 680.676 696.818 680.335 695.445 680.335C694.015 680.335 692.888 680.652 692.065 681.287C691.25 681.912 690.687 682.608 690.374 683.375L686.383 682.466C686.856 681.14 687.548 680.07 688.457 679.256C689.375 678.432 690.431 677.835 691.624 677.466C692.817 677.087 694.072 676.898 695.388 676.898C696.26 676.898 697.183 677.002 698.158 677.21C699.143 677.409 700.062 677.778 700.914 678.318C701.776 678.858 702.481 679.63 703.031 680.634C703.58 681.628 703.854 682.92 703.854 684.511V699H699.707V696.017H699.536C699.262 696.566 698.85 697.106 698.3 697.636C697.751 698.167 697.046 698.607 696.184 698.957C695.322 699.308 694.29 699.483 693.087 699.483ZM694.011 696.074C695.185 696.074 696.189 695.842 697.022 695.378C697.865 694.914 698.504 694.308 698.94 693.56C699.385 692.802 699.607 691.992 699.607 691.131V688.318C699.456 688.47 699.162 688.612 698.727 688.744C698.3 688.867 697.813 688.976 697.263 689.071C696.714 689.156 696.179 689.237 695.658 689.312C695.138 689.379 694.702 689.436 694.352 689.483C693.528 689.587 692.775 689.762 692.093 690.009C691.421 690.255 690.881 690.61 690.474 691.074C690.076 691.528 689.877 692.134 689.877 692.892C689.877 693.943 690.265 694.739 691.042 695.278C691.818 695.809 692.808 696.074 694.011 696.074ZM713.759 686.045V699H709.511V677.182H713.588V680.733H713.858C714.36 679.578 715.146 678.65 716.216 677.949C717.295 677.248 718.654 676.898 720.293 676.898C721.779 676.898 723.081 677.21 724.199 677.835C725.316 678.451 726.183 679.369 726.798 680.591C727.414 681.812 727.722 683.323 727.722 685.122V699H723.474V685.634C723.474 684.052 723.063 682.816 722.239 681.926C721.415 681.027 720.283 680.577 718.844 680.577C717.859 680.577 716.983 680.79 716.216 681.216C715.458 681.642 714.857 682.267 714.412 683.091C713.976 683.905 713.759 684.89 713.759 686.045ZM736.77 677.182L741.585 685.676L746.443 677.182H751.088L744.284 688.091L751.145 699H746.5L741.585 690.847L736.685 699H732.026L738.815 688.091L732.111 677.182H736.77ZM755.449 699V677.182H759.696V699H755.449ZM757.594 673.815C756.855 673.815 756.221 673.569 755.69 673.077C755.17 672.575 754.909 671.978 754.909 671.287C754.909 670.586 755.17 669.99 755.69 669.497C756.221 668.995 756.855 668.744 757.594 668.744C758.332 668.744 758.962 668.995 759.483 669.497C760.013 669.99 760.278 670.586 760.278 671.287C760.278 671.978 760.013 672.575 759.483 673.077C758.962 673.569 758.332 673.815 757.594 673.815ZM774.813 699.44C772.664 699.44 770.812 698.981 769.259 698.062C767.716 697.134 766.522 695.832 765.68 694.156C764.846 692.471 764.43 690.496 764.43 688.233C764.43 685.998 764.846 684.028 765.68 682.324C766.522 680.619 767.697 679.289 769.202 678.332C770.718 677.376 772.488 676.898 774.515 676.898C775.746 676.898 776.939 677.101 778.094 677.509C779.25 677.916 780.287 678.555 781.205 679.426C782.124 680.297 782.848 681.429 783.379 682.821C783.909 684.204 784.174 685.884 784.174 687.864V689.369H766.83V686.188H780.012C780.012 685.07 779.785 684.08 779.33 683.219C778.876 682.348 778.237 681.661 777.413 681.159C776.598 680.657 775.642 680.406 774.543 680.406C773.35 680.406 772.308 680.7 771.418 681.287C770.538 681.865 769.856 682.622 769.373 683.56C768.899 684.488 768.663 685.496 768.663 686.585V689.071C768.663 690.529 768.918 691.77 769.43 692.793C769.951 693.815 770.675 694.597 771.603 695.136C772.531 695.667 773.615 695.932 774.856 695.932C775.661 695.932 776.395 695.818 777.058 695.591C777.72 695.354 778.293 695.004 778.776 694.54C779.259 694.076 779.629 693.503 779.884 692.821L783.904 693.545C783.582 694.729 783.004 695.766 782.171 696.656C781.347 697.537 780.31 698.223 779.06 698.716C777.82 699.199 776.404 699.44 774.813 699.44ZM799.071 677.182V680.591H787.153V677.182H799.071ZM790.349 671.955H794.597V692.594C794.597 693.418 794.72 694.038 794.966 694.455C795.212 694.862 795.529 695.141 795.918 695.293C796.315 695.435 796.746 695.506 797.21 695.506C797.551 695.506 797.849 695.482 798.105 695.435C798.361 695.387 798.56 695.349 798.702 695.321L799.469 698.83C799.223 698.924 798.872 699.019 798.418 699.114C797.963 699.218 797.395 699.275 796.713 699.284C795.596 699.303 794.554 699.104 793.588 698.688C792.622 698.271 791.841 697.627 791.244 696.756C790.648 695.884 790.349 694.791 790.349 693.474V671.955ZM806.454 707.182C805.819 707.182 805.242 707.13 804.721 707.026C804.2 706.931 803.812 706.827 803.556 706.713L804.579 703.233C805.355 703.441 806.047 703.531 806.653 703.503C807.259 703.474 807.794 703.247 808.258 702.821C808.731 702.395 809.148 701.699 809.508 700.733L810.033 699.284L802.05 677.182H806.596L812.121 694.114H812.349L817.874 677.182H822.434L813.442 701.912C813.026 703.048 812.496 704.009 811.852 704.795C811.208 705.591 810.441 706.188 809.55 706.585C808.66 706.983 807.628 707.182 806.454 707.182ZM843.361 699.483C841.978 699.483 840.728 699.227 839.611 698.716C838.493 698.195 837.608 697.442 836.955 696.457C836.311 695.473 835.989 694.265 835.989 692.835C835.989 691.604 836.225 690.591 836.699 689.795C837.172 689 837.812 688.37 838.616 687.906C839.421 687.442 840.321 687.092 841.315 686.855C842.31 686.618 843.323 686.438 844.355 686.315C845.662 686.164 846.723 686.041 847.537 685.946C848.351 685.842 848.943 685.676 849.312 685.449C849.682 685.222 849.866 684.852 849.866 684.341V684.241C849.866 683.001 849.516 682.04 848.815 681.358C848.124 680.676 847.092 680.335 845.719 680.335C844.289 680.335 843.162 680.652 842.338 681.287C841.524 681.912 840.96 682.608 840.648 683.375L836.656 682.466C837.13 681.14 837.821 680.07 838.73 679.256C839.649 678.432 840.705 677.835 841.898 677.466C843.091 677.087 844.346 676.898 845.662 676.898C846.533 676.898 847.456 677.002 848.432 677.21C849.417 677.409 850.335 677.778 851.188 678.318C852.049 678.858 852.755 679.63 853.304 680.634C853.853 681.628 854.128 682.92 854.128 684.511V699H849.98V696.017H849.81C849.535 696.566 849.123 697.106 848.574 697.636C848.025 698.167 847.319 698.607 846.457 698.957C845.596 699.308 844.563 699.483 843.361 699.483ZM844.284 696.074C845.458 696.074 846.462 695.842 847.295 695.378C848.138 694.914 848.777 694.308 849.213 693.56C849.658 692.802 849.881 691.992 849.881 691.131V688.318C849.729 688.47 849.436 688.612 849 688.744C848.574 688.867 848.086 688.976 847.537 689.071C846.988 689.156 846.453 689.237 845.932 689.312C845.411 689.379 844.975 689.436 844.625 689.483C843.801 689.587 843.048 689.762 842.366 690.009C841.694 690.255 841.154 690.61 840.747 691.074C840.349 691.528 840.151 692.134 840.151 692.892C840.151 693.943 840.539 694.739 841.315 695.278C842.092 695.809 843.081 696.074 844.284 696.074ZM864.032 686.045V699H859.785V677.182H863.862V680.733H864.131C864.633 679.578 865.419 678.65 866.489 677.949C867.569 677.248 868.928 676.898 870.566 676.898C872.053 676.898 873.355 677.21 874.472 677.835C875.59 678.451 876.456 679.369 877.072 680.591C877.687 681.812 877.995 683.323 877.995 685.122V699H873.748V685.634C873.748 684.052 873.336 682.816 872.512 681.926C871.688 681.027 870.557 680.577 869.117 680.577C868.132 680.577 867.256 680.79 866.489 681.216C865.732 681.642 865.13 682.267 864.685 683.091C864.25 683.905 864.032 684.89 864.032 686.045ZM891.859 699.426C890.097 699.426 888.525 698.976 887.143 698.077C885.77 697.168 884.69 695.875 883.904 694.199C883.128 692.513 882.739 690.491 882.739 688.134C882.739 685.776 883.132 683.759 883.918 682.082C884.714 680.406 885.803 679.123 887.185 678.233C888.568 677.343 890.135 676.898 891.887 676.898C893.241 676.898 894.33 677.125 895.154 677.58C895.987 678.025 896.631 678.545 897.086 679.142C897.55 679.739 897.91 680.264 898.165 680.719H898.421V669.909H902.668V699H898.521V695.605H898.165C897.91 696.069 897.54 696.599 897.058 697.196C896.584 697.793 895.931 698.313 895.097 698.759C894.264 699.204 893.184 699.426 891.859 699.426ZM892.796 695.804C894.018 695.804 895.05 695.482 895.893 694.838C896.745 694.185 897.389 693.28 897.825 692.125C898.27 690.97 898.492 689.625 898.492 688.091C898.492 686.576 898.274 685.25 897.839 684.114C897.403 682.977 896.764 682.092 895.921 681.457C895.078 680.823 894.037 680.506 892.796 680.506C891.518 680.506 890.452 680.837 889.6 681.5C888.748 682.163 888.104 683.067 887.668 684.213C887.242 685.359 887.029 686.652 887.029 688.091C887.029 689.549 887.247 690.861 887.683 692.026C888.118 693.19 888.762 694.114 889.614 694.795C890.476 695.468 891.537 695.804 892.796 695.804ZM450.023 747.426C448.261 747.426 446.689 746.976 445.307 746.077C443.934 745.168 442.854 743.875 442.068 742.199C441.292 740.513 440.903 738.491 440.903 736.134C440.903 733.776 441.296 731.759 442.082 730.082C442.878 728.406 443.967 727.123 445.349 726.233C446.732 725.343 448.299 724.898 450.051 724.898C451.405 724.898 452.494 725.125 453.318 725.58C454.152 726.025 454.795 726.545 455.25 727.142C455.714 727.739 456.074 728.264 456.33 728.719H456.585V717.909H460.832V747H456.685V743.605H456.33C456.074 744.069 455.705 744.599 455.222 745.196C454.748 745.793 454.095 746.313 453.261 746.759C452.428 747.204 451.348 747.426 450.023 747.426ZM450.96 743.804C452.182 743.804 453.214 743.482 454.057 742.838C454.909 742.185 455.553 741.28 455.989 740.125C456.434 738.97 456.656 737.625 456.656 736.091C456.656 734.576 456.438 733.25 456.003 732.114C455.567 730.977 454.928 730.092 454.085 729.457C453.242 728.823 452.201 728.506 450.96 728.506C449.682 728.506 448.616 728.837 447.764 729.5C446.912 730.163 446.268 731.067 445.832 732.213C445.406 733.359 445.193 734.652 445.193 736.091C445.193 737.549 445.411 738.861 445.847 740.026C446.282 741.19 446.926 742.114 447.778 742.795C448.64 743.468 449.701 743.804 450.96 743.804ZM466.894 747V725.182H471.141V747H466.894ZM469.039 721.815C468.3 721.815 467.666 721.569 467.136 721.077C466.615 720.575 466.354 719.978 466.354 719.287C466.354 718.586 466.615 717.99 467.136 717.497C467.666 716.995 468.3 716.744 469.039 716.744C469.778 716.744 470.407 716.995 470.928 717.497C471.459 717.99 471.724 718.586 471.724 719.287C471.724 719.978 471.459 720.575 470.928 721.077C470.407 721.569 469.778 721.815 469.039 721.815ZM493.205 730.509L489.355 731.19C489.194 730.698 488.938 730.229 488.588 729.784C488.247 729.339 487.783 728.974 487.196 728.69C486.609 728.406 485.875 728.264 484.994 728.264C483.792 728.264 482.788 728.534 481.983 729.074C481.178 729.604 480.776 730.291 480.776 731.134C480.776 731.863 481.045 732.45 481.585 732.895C482.125 733.34 482.996 733.705 484.199 733.989L487.665 734.784C489.672 735.248 491.169 735.963 492.153 736.929C493.138 737.895 493.631 739.15 493.631 740.693C493.631 742 493.252 743.165 492.494 744.188C491.746 745.201 490.7 745.996 489.355 746.574C488.02 747.152 486.472 747.44 484.71 747.44C482.267 747.44 480.274 746.92 478.73 745.878C477.187 744.827 476.24 743.335 475.889 741.403L479.994 740.778C480.25 741.848 480.776 742.658 481.571 743.207C482.366 743.747 483.403 744.017 484.682 744.017C486.074 744.017 487.187 743.728 488.02 743.151C488.853 742.563 489.27 741.848 489.27 741.006C489.27 740.324 489.014 739.751 488.503 739.287C488.001 738.823 487.229 738.473 486.188 738.236L482.494 737.426C480.458 736.962 478.953 736.223 477.977 735.21C477.011 734.197 476.528 732.914 476.528 731.361C476.528 730.073 476.888 728.946 477.608 727.98C478.328 727.014 479.322 726.261 480.591 725.722C481.86 725.172 483.313 724.898 484.952 724.898C487.31 724.898 489.166 725.409 490.52 726.432C491.874 727.445 492.769 728.804 493.205 730.509ZM498.3 747V725.182H502.406V728.648H502.633C503.031 727.473 503.731 726.55 504.735 725.878C505.748 725.196 506.894 724.855 508.173 724.855C508.438 724.855 508.75 724.865 509.11 724.884C509.479 724.902 509.768 724.926 509.977 724.955V729.017C509.806 728.97 509.503 728.918 509.067 728.861C508.632 728.795 508.196 728.761 507.761 728.761C506.757 728.761 505.862 728.974 505.076 729.401C504.299 729.817 503.684 730.4 503.229 731.148C502.775 731.886 502.548 732.729 502.548 733.676V747H498.3ZM527.473 737.952V725.182H531.734V747H527.558V743.222H527.331C526.829 744.386 526.024 745.357 524.916 746.134C523.818 746.901 522.449 747.284 520.811 747.284C519.41 747.284 518.169 746.976 517.089 746.361C516.019 745.736 515.177 744.812 514.561 743.591C513.955 742.369 513.652 740.859 513.652 739.06V725.182H517.899V738.548C517.899 740.035 518.311 741.219 519.135 742.099C519.959 742.98 521.029 743.42 522.345 743.42C523.141 743.42 523.931 743.222 524.717 742.824C525.513 742.426 526.171 741.825 526.692 741.02C527.222 740.215 527.482 739.192 527.473 737.952ZM537.441 755.182V725.182H541.589V728.719H541.944C542.19 728.264 542.545 727.739 543.009 727.142C543.473 726.545 544.117 726.025 544.941 725.58C545.765 725.125 546.854 724.898 548.208 724.898C549.969 724.898 551.541 725.343 552.924 726.233C554.307 727.123 555.391 728.406 556.177 730.082C556.972 731.759 557.37 733.776 557.37 736.134C557.37 738.491 556.977 740.513 556.191 742.199C555.405 743.875 554.326 745.168 552.952 746.077C551.579 746.976 550.012 747.426 548.251 747.426C546.925 747.426 545.841 747.204 544.998 746.759C544.165 746.313 543.511 745.793 543.038 745.196C542.564 744.599 542.2 744.069 541.944 743.605H541.688V755.182H537.441ZM541.603 736.091C541.603 737.625 541.826 738.97 542.271 740.125C542.716 741.28 543.36 742.185 544.202 742.838C545.045 743.482 546.077 743.804 547.299 743.804C548.568 743.804 549.629 743.468 550.481 742.795C551.333 742.114 551.977 741.19 552.413 740.026C552.858 738.861 553.08 737.549 553.08 736.091C553.08 734.652 552.862 733.359 552.427 732.213C552.001 731.067 551.357 730.163 550.495 729.5C549.643 728.837 548.577 728.506 547.299 728.506C546.068 728.506 545.026 728.823 544.174 729.457C543.331 730.092 542.692 730.977 542.256 732.114C541.821 733.25 541.603 734.576 541.603 736.091ZM572.313 725.182V728.591H560.396V725.182H572.313ZM563.592 719.955H567.839V740.594C567.839 741.418 567.962 742.038 568.208 742.455C568.454 742.862 568.772 743.141 569.16 743.293C569.558 743.435 569.988 743.506 570.452 743.506C570.793 743.506 571.092 743.482 571.347 743.435C571.603 743.387 571.802 743.349 571.944 743.321L572.711 746.83C572.465 746.924 572.114 747.019 571.66 747.114C571.205 747.218 570.637 747.275 569.955 747.284C568.838 747.303 567.796 747.104 566.83 746.688C565.864 746.271 565.083 745.627 564.487 744.756C563.89 743.884 563.592 742.791 563.592 741.474V719.955ZM593.009 730.509L589.16 731.19C588.999 730.698 588.743 730.229 588.393 729.784C588.052 729.339 587.588 728.974 587.001 728.69C586.414 728.406 585.68 728.264 584.799 728.264C583.596 728.264 582.593 728.534 581.788 729.074C580.983 729.604 580.58 730.291 580.58 731.134C580.58 731.863 580.85 732.45 581.39 732.895C581.93 733.34 582.801 733.705 584.004 733.989L587.469 734.784C589.477 735.248 590.973 735.963 591.958 736.929C592.943 737.895 593.435 739.15 593.435 740.693C593.435 742 593.057 743.165 592.299 744.188C591.551 745.201 590.504 745.996 589.16 746.574C587.825 747.152 586.276 747.44 584.515 747.44C582.072 747.44 580.078 746.92 578.535 745.878C576.991 744.827 576.044 743.335 575.694 741.403L579.799 740.778C580.055 741.848 580.58 742.658 581.376 743.207C582.171 743.747 583.208 744.017 584.487 744.017C585.879 744.017 586.991 743.728 587.825 743.151C588.658 742.563 589.075 741.848 589.075 741.006C589.075 740.324 588.819 739.751 588.308 739.287C587.806 738.823 587.034 738.473 585.992 738.236L582.299 737.426C580.263 736.962 578.757 736.223 577.782 735.21C576.816 734.197 576.333 732.914 576.333 731.361C576.333 730.073 576.693 728.946 577.413 727.98C578.132 727.014 579.127 726.261 580.396 725.722C581.665 725.172 583.118 724.898 584.756 724.898C587.114 724.898 588.97 725.409 590.325 726.432C591.679 727.445 592.574 728.804 593.009 730.509ZM618.876 725.182V728.591H606.958V725.182H618.876ZM610.154 719.955H614.401V740.594C614.401 741.418 614.524 742.038 614.771 742.455C615.017 742.862 615.334 743.141 615.722 743.293C616.12 743.435 616.551 743.506 617.015 743.506C617.356 743.506 617.654 743.482 617.91 743.435C618.165 743.387 618.364 743.349 618.506 743.321L619.273 746.83C619.027 746.924 618.677 747.019 618.222 747.114C617.768 747.218 617.2 747.275 616.518 747.284C615.4 747.303 614.359 747.104 613.393 746.688C612.427 746.271 611.646 745.627 611.049 744.756C610.452 743.884 610.154 742.791 610.154 741.474V719.955ZM628.29 734.045V747H624.043V717.909H628.233V728.733H628.503C629.014 727.559 629.795 726.626 630.847 725.935C631.898 725.243 633.271 724.898 634.966 724.898C636.462 724.898 637.769 725.205 638.886 725.821C640.013 726.437 640.884 727.355 641.5 728.577C642.125 729.789 642.438 731.304 642.438 733.122V747H638.19V733.634C638.19 732.033 637.778 730.793 636.955 729.912C636.131 729.022 634.985 728.577 633.517 728.577C632.513 728.577 631.614 728.79 630.818 729.216C630.032 729.642 629.412 730.267 628.957 731.091C628.512 731.905 628.29 732.89 628.29 734.045ZM657.509 747.44C655.359 747.44 653.508 746.981 651.955 746.062C650.411 745.134 649.218 743.832 648.375 742.156C647.542 740.471 647.125 738.496 647.125 736.233C647.125 733.998 647.542 732.028 648.375 730.324C649.218 728.619 650.392 727.289 651.898 726.332C653.413 725.376 655.184 724.898 657.21 724.898C658.441 724.898 659.634 725.101 660.79 725.509C661.945 725.916 662.982 726.555 663.901 727.426C664.819 728.297 665.544 729.429 666.074 730.821C666.604 732.204 666.869 733.884 666.869 735.864V737.369H649.526V734.188H662.707C662.707 733.07 662.48 732.08 662.026 731.219C661.571 730.348 660.932 729.661 660.108 729.159C659.294 728.657 658.337 728.406 657.239 728.406C656.045 728.406 655.004 728.7 654.114 729.287C653.233 729.865 652.551 730.622 652.068 731.56C651.595 732.488 651.358 733.496 651.358 734.585V737.071C651.358 738.529 651.614 739.77 652.125 740.793C652.646 741.815 653.37 742.597 654.298 743.136C655.226 743.667 656.311 743.932 657.551 743.932C658.356 743.932 659.09 743.818 659.753 743.591C660.416 743.354 660.989 743.004 661.472 742.54C661.955 742.076 662.324 741.503 662.58 740.821L666.599 741.545C666.277 742.729 665.7 743.766 664.866 744.656C664.043 745.537 663.006 746.223 661.756 746.716C660.515 747.199 659.099 747.44 657.509 747.44ZM671.582 747V725.182H675.829V747H671.582ZM673.727 721.815C672.988 721.815 672.353 721.569 671.823 721.077C671.302 720.575 671.042 719.978 671.042 719.287C671.042 718.586 671.302 717.99 671.823 717.497C672.353 716.995 672.988 716.744 673.727 716.744C674.465 716.744 675.095 716.995 675.616 717.497C676.146 717.99 676.411 718.586 676.411 719.287C676.411 719.978 676.146 720.575 675.616 721.077C675.095 721.569 674.465 721.815 673.727 721.815ZM681.543 747V725.182H685.648V728.648H685.875C686.273 727.473 686.973 726.55 687.977 725.878C688.991 725.196 690.136 724.855 691.415 724.855C691.68 724.855 691.992 724.865 692.352 724.884C692.722 724.902 693.01 724.926 693.219 724.955V729.017C693.048 728.97 692.745 728.918 692.31 728.861C691.874 728.795 691.438 728.761 691.003 728.761C689.999 728.761 689.104 728.974 688.318 729.401C687.542 729.817 686.926 730.4 686.472 731.148C686.017 731.886 685.79 732.729 685.79 733.676V747H681.543ZM707.48 755.182V725.182H711.628V728.719H711.983C712.229 728.264 712.584 727.739 713.048 727.142C713.512 726.545 714.156 726.025 714.98 725.58C715.804 725.125 716.893 724.898 718.247 724.898C720.009 724.898 721.58 725.343 722.963 726.233C724.346 727.123 725.43 728.406 726.216 730.082C727.011 731.759 727.409 733.776 727.409 736.134C727.409 738.491 727.016 740.513 726.23 742.199C725.444 743.875 724.365 745.168 722.991 746.077C721.618 746.976 720.051 747.426 718.29 747.426C716.964 747.426 715.88 747.204 715.037 746.759C714.204 746.313 713.55 745.793 713.077 745.196C712.603 744.599 712.239 744.069 711.983 743.605H711.727V755.182H707.48ZM711.642 736.091C711.642 737.625 711.865 738.97 712.31 740.125C712.755 741.28 713.399 742.185 714.241 742.838C715.084 743.482 716.116 743.804 717.338 743.804C718.607 743.804 719.668 743.468 720.52 742.795C721.372 742.114 722.016 741.19 722.452 740.026C722.897 738.861 723.119 737.549 723.119 736.091C723.119 734.652 722.902 733.359 722.466 732.213C722.04 731.067 721.396 730.163 720.534 729.5C719.682 728.837 718.616 728.506 717.338 728.506C716.107 728.506 715.065 728.823 714.213 729.457C713.37 730.092 712.731 730.977 712.295 732.114C711.86 733.25 711.642 734.576 711.642 736.091ZM736.415 717.909V747H732.168V717.909H736.415ZM748.478 747.483C747.095 747.483 745.845 747.227 744.728 746.716C743.611 746.195 742.725 745.442 742.072 744.457C741.428 743.473 741.106 742.265 741.106 740.835C741.106 739.604 741.343 738.591 741.816 737.795C742.29 737 742.929 736.37 743.734 735.906C744.539 735.442 745.438 735.092 746.433 734.855C747.427 734.618 748.44 734.438 749.472 734.315C750.779 734.164 751.84 734.041 752.654 733.946C753.469 733.842 754.06 733.676 754.43 733.449C754.799 733.222 754.984 732.852 754.984 732.341V732.241C754.984 731.001 754.633 730.04 753.933 729.358C753.241 728.676 752.209 728.335 750.836 728.335C749.406 728.335 748.279 728.652 747.455 729.287C746.641 729.912 746.077 730.608 745.765 731.375L741.773 730.466C742.247 729.14 742.938 728.07 743.847 727.256C744.766 726.432 745.822 725.835 747.015 725.466C748.208 725.087 749.463 724.898 750.779 724.898C751.65 724.898 752.574 725.002 753.549 725.21C754.534 725.409 755.452 725.778 756.305 726.318C757.166 726.858 757.872 727.63 758.421 728.634C758.97 729.628 759.245 730.92 759.245 732.511V747H755.097V744.017H754.927C754.652 744.566 754.24 745.106 753.691 745.636C753.142 746.167 752.436 746.607 751.575 746.957C750.713 747.308 749.681 747.483 748.478 747.483ZM749.401 744.074C750.576 744.074 751.579 743.842 752.413 743.378C753.255 742.914 753.895 742.308 754.33 741.56C754.775 740.802 754.998 739.992 754.998 739.131V736.318C754.846 736.47 754.553 736.612 754.117 736.744C753.691 736.867 753.203 736.976 752.654 737.071C752.105 737.156 751.57 737.237 751.049 737.312C750.528 737.379 750.093 737.436 749.742 737.483C748.918 737.587 748.165 737.762 747.484 738.009C746.811 738.255 746.272 738.61 745.864 739.074C745.467 739.528 745.268 740.134 745.268 740.892C745.268 741.943 745.656 742.739 746.433 743.278C747.209 743.809 748.199 744.074 749.401 744.074ZM769.149 734.045V747H764.902V725.182H768.979V728.733H769.249C769.75 727.578 770.536 726.65 771.607 725.949C772.686 725.248 774.045 724.898 775.683 724.898C777.17 724.898 778.472 725.21 779.589 725.835C780.707 726.451 781.573 727.369 782.189 728.591C782.804 729.812 783.112 731.323 783.112 733.122V747H778.865V733.634C778.865 732.052 778.453 730.816 777.629 729.926C776.805 729.027 775.674 728.577 774.234 728.577C773.25 728.577 772.374 728.79 771.607 729.216C770.849 729.642 770.248 730.267 769.803 731.091C769.367 731.905 769.149 732.89 769.149 734.045ZM805.158 730.509L801.308 731.19C801.147 730.698 800.892 730.229 800.541 729.784C800.2 729.339 799.736 728.974 799.149 728.69C798.562 728.406 797.828 728.264 796.947 728.264C795.745 728.264 794.741 728.534 793.936 729.074C793.131 729.604 792.729 730.291 792.729 731.134C792.729 731.863 792.999 732.45 793.538 732.895C794.078 733.34 794.949 733.705 796.152 733.989L799.618 734.784C801.625 735.248 803.122 735.963 804.107 736.929C805.091 737.895 805.584 739.15 805.584 740.693C805.584 742 805.205 743.165 804.447 744.188C803.699 745.201 802.653 745.996 801.308 746.574C799.973 747.152 798.425 747.44 796.663 747.44C794.22 747.44 792.227 746.92 790.683 745.878C789.14 744.827 788.193 743.335 787.842 741.403L791.947 740.778C792.203 741.848 792.729 742.658 793.524 743.207C794.32 743.747 795.357 744.017 796.635 744.017C798.027 744.017 799.14 743.728 799.973 743.151C800.806 742.563 801.223 741.848 801.223 741.006C801.223 740.324 800.967 739.751 800.456 739.287C799.954 738.823 799.182 738.473 798.141 738.236L794.447 737.426C792.411 736.962 790.906 736.223 789.93 735.21C788.964 734.197 788.482 732.914 788.482 731.361C788.482 730.073 788.841 728.946 789.561 727.98C790.281 727.014 791.275 726.261 792.544 725.722C793.813 725.172 795.267 724.898 796.905 724.898C799.263 724.898 801.119 725.409 802.473 726.432C803.827 727.445 804.722 728.804 805.158 730.509ZM813.052 747.27C812.275 747.27 811.608 746.995 811.049 746.446C810.49 745.887 810.211 745.215 810.211 744.429C810.211 743.652 810.49 742.99 811.049 742.44C811.608 741.882 812.275 741.602 813.052 741.602C813.828 741.602 814.496 741.882 815.055 742.44C815.613 742.99 815.893 743.652 815.893 744.429C815.893 744.95 815.76 745.428 815.495 745.864C815.239 746.29 814.898 746.631 814.472 746.886C814.046 747.142 813.573 747.27 813.052 747.27Z" fill="black"/>
</svg>
