<svg width="1518" height="861" viewBox="0 0 1518 861" fill="none" xmlns="http://www.w3.org/2000/svg">
<rect width="1518" height="861" fill="#F6F7FF"/>
<path d="M540.085 124.296C509.531 127.071 475.842 130.772 446.152 139.593C435.216 142.842 434.027 156.475 432.932 166.015C429.778 193.474 435.542 220.702 436.758 248.063C439.065 299.931 445.569 350.249 453.632 401.382C456.076 416.881 458.9 433.159 460.155 448.838C460.632 454.795 461.28 463.087 465.808 467.612C472.25 474.049 488.501 474.95 496.945 476.303C528.043 481.287 561.257 480.997 592.618 480.997C639.089 480.997 684.679 478.829 730.821 474.044C762.173 470.792 793.476 467.37 824.842 464.483C845.531 462.579 865.554 457.195 886.246 455.618C908.376 453.931 930.41 451.634 952.521 449.707C970.505 448.14 1007.48 450.882 1020.71 433.889C1028.25 424.204 1026.11 409.415 1027.32 398.08C1029.26 379.877 1030.3 362.071 1033.32 343.931C1040.77 299.259 1044.19 254.328 1044.19 209.125C1044.19 184.457 1050.42 158.892 1028.28 141.505C1015.74 131.662 991.898 133.854 976.874 133.683C939.969 133.261 902.982 129.876 866.068 128.642C806.823 126.661 748.248 121.167 688.899 121.167C650.207 121.167 611.481 121.53 572.962 121.167C552.347 120.972 530.541 116.878 509.992 120.471C497.953 122.577 462.11 128.989 474.332 128.989" stroke="black" stroke-width="3" stroke-linecap="square"/>
<path d="M650 419V422" stroke="black" stroke-width="3" stroke-linecap="square"/>
<path d="M640 381C643.779 381.42 645.25 426.22 645.25 432.404C645.25 441.967 647 452.34 647 462" stroke="black" stroke-width="3" stroke-linecap="square"/>
<path d="M656 384.046C659.559 379.839 657.5 389.425 657.5 393.327C657.5 404.662 657.5 415.635 657.5 426.599C657.5 439.956 659 452.874 659 466" stroke="black" stroke-width="3" stroke-linecap="square"/>
<path d="M575.73 374.4C604.959 374.4 633.717 377.143 662.986 372.526C676.407 370.409 697.619 367.673 708.7 359.067C724.423 346.854 692.441 338.797 686.103 337.941C659.273 334.318 630.242 331.7 603.193 333.682C587.469 334.834 569.057 336.363 556.436 346.8C552.232 350.278 545.751 358.227 546.007 364.008C546.411 373.116 561.102 376.331 567.908 379" stroke="black" stroke-width="3" stroke-linecap="square"/>
<path d="M740 381C739.797 382.631 735.405 385.377 733.806 385.655C724.528 387.272 715.911 392.83 706.71 394.879C704.189 395.441 699.742 395.848 699.742 398.845C699.742 407.584 694.529 417.762 692 426" stroke="black" stroke-width="3" stroke-linecap="square"/>
<path d="M549.14 412.05C544.117 412.674 549.207 413.619 551.509 413.619C563.837 413.619 577.04 415.241 589.153 412.835C594.613 411.75 597.806 410.696 599.331 416.757C601.707 426.198 602.896 435.749 606 445" stroke="black" stroke-width="3" stroke-linecap="square"/>
<path d="M726.582 318.307C719.343 326.508 738.845 337.105 746.717 324.301C750.942 317.429 752.127 309.629 743.916 305.614C727.754 297.71 725.669 320.879 726.582 331" stroke="black" stroke-width="3" stroke-linecap="square"/>
<path d="M744.733 326C755.873 327.415 746.358 344.533 743.259 348.207C741.163 350.691 737.567 355.405 739.269 358.517C742.631 364.665 729.615 370.164 726 372" stroke="black" stroke-width="3" stroke-linecap="square"/>
<path d="M513 335.555C515.845 335.906 516.95 339.926 519.257 341.117C524.404 343.776 533.757 346.478 539.084 343.116C543.529 340.311 546.816 333.621 542.433 329.298C532.975 319.97 521.883 332.439 521.019 341.813C520.188 350.832 527.844 351.96 533.268 356.239C538.811 360.612 538.379 377.358 538.379 384.05C538.379 392.706 551.705 393.201 559 395" stroke="black" stroke-width="3" stroke-linecap="square"/>
<path d="M797.047 376.002C797.047 380.575 801.11 382.333 805.289 383.243C849.369 392.847 894.982 382.57 937.168 368.935C942.054 367.356 957.845 363.576 955.822 355.237C954.145 348.323 945.462 344.236 939.771 342.411C916.256 334.874 889.453 334.249 865.069 335.519C848.429 336.386 795.359 340.496 796.006 368.673C796.3 381.494 816.436 381.406 825.158 382.284" stroke="black" stroke-width="3" stroke-linecap="square"/>
<path d="M859.295 390C853.092 390 870.986 395.596 874.646 400.68C881.872 410.719 877.923 429.84 877.923 442" stroke="black" stroke-width="3" stroke-linecap="square"/>
<path d="M900.278 385.321C900.278 363.089 889.591 432.936 902 452" stroke="black" stroke-width="3" stroke-linecap="square"/>
<path d="M775 334.272C780.492 339.102 790.389 332.714 791.937 326.844C795.1 314.847 779.906 311.857 775.96 322.699C774.715 326.122 774.314 335.128 778.492 337.035C781.325 338.329 782.717 335.999 785.127 335.999C785.663 335.999 781.992 355.251 781.635 357.59C779.967 368.522 772.783 391.387 786.087 397.145C794.36 400.726 804.795 397.863 813.5 401.982C818.419 404.309 827.482 407.018 830 412" stroke="black" stroke-width="3" stroke-linecap="square"/>
<path d="M948.537 327.65C953.511 332.724 958.81 333.36 965.179 329.225C973.584 323.769 965.143 313.876 956.343 319.861C952.605 322.404 948.024 326.244 949.566 331.413C950.9 335.885 955.986 337.373 959.689 335.177C966.464 331.158 970.362 319.872 970.155 334.652C970.013 344.803 964.628 357.908 967.839 367.733C968.822 370.744 968.144 379.667 969.469 381.211C975.363 388.084 962.681 391.764 957.802 394.164C949.771 398.114 941.062 400.36 932.838 403.878C931.804 404.321 926.407 408.513 928.463 406.416" stroke="black" stroke-width="3" stroke-linecap="square"/>
<path d="M598 272.555C601.222 272.555 604.685 274.082 607.874 274.813C623.468 278.388 638.241 278.565 654.038 277.245C660.538 276.702 709.61 269.625 696.911 254.574C685.262 240.767 667.418 238.38 650.314 238.157C636.613 237.978 613.644 236.54 602.677 247.538" stroke="black" stroke-width="3" stroke-linecap="square"/>
<path d="M636 278C640.433 281.952 644.264 280.559 648.364 286.956C652.41 293.269 653 301.753 653 309" stroke="black" stroke-width="3" stroke-linecap="square"/>
<path d="M673 281C664.9 281.923 668.896 303.59 669.645 307" stroke="black" stroke-width="3" stroke-linecap="square"/>
<path d="M571.444 251.227C568.789 251.609 575.825 252.801 576.918 252.801C581.614 252.801 590.503 247.365 590.211 241.787C589.686 231.752 552.964 237.727 558.585 257.521C560.331 263.668 568.951 268.26 573.963 271.768C581.436 276.998 588.267 282.939 596.466 287.064C607.47 292.599 625.344 291.292 634 300" stroke="black" stroke-width="3" stroke-linecap="square"/>
<path d="M704.175 240.049C708.841 240.049 718.703 239.022 714.493 246.368C712.763 249.387 711.205 252.593 708.232 254.677C706.635 255.796 708.053 250.265 708.937 249.397C711.074 247.3 714.78 245.611 717.227 248.012C723.341 254.013 721.344 259.033 716.081 264.199C711.9 268.302 705.877 276.607 701 279" stroke="black" stroke-width="3" stroke-linecap="square"/>
<path d="M765.281 270.044C777.25 270.044 836.09 276.797 834.985 254.408C834.406 242.699 808.685 243.013 801.572 243.013C787.921 243.013 769.174 242.251 759 252.553" stroke="black" stroke-width="3" stroke-linecap="square"/>
<path d="M792 268C803.655 269.446 804.56 280.882 801.498 290" stroke="black" stroke-width="3" stroke-linecap="square"/>
<path d="M820 270C812.222 271.012 812.901 289.169 816.981 292" stroke="black" stroke-width="3" stroke-linecap="square"/>
<path d="M845.195 243.425C845.798 248.377 855.253 242.588 856.567 240.882C861.356 234.659 852.046 233.777 848.188 234.041C841.922 234.469 831.942 244.393 842.887 246.057C852.456 247.511 856.279 232.734 858.704 245.881C861.126 259.013 848.107 267.277 840.578 275" stroke="black" stroke-width="3" stroke-linecap="square"/>
<path d="M495 134C481.517 134 465.822 138.42 452.815 142.171C441.012 145.574 439.947 150.304 437.062 160.946C436.28 163.829 438.59 166.797 438.2 169.899C437.618 174.524 436.712 178.568 436.712 183.372C436.712 192.555 438.997 202.414 437.937 211.36C435.989 227.808 433.354 245.521 436.362 261.949C439.665 279.995 436.709 299.137 440.213 317.405C443.431 334.187 447.301 350.675 450.54 367.472C454.145 386.172 457.191 406.046 457.191 425.014C457.191 437.283 463.493 448.872 463.493 461" stroke="black" stroke-width="3" stroke-linecap="square"/>
<path d="M463 136.824C463 148.214 463 159.605 463 170.995C463 185.465 463.75 189.099 478.68 190.978C517.205 195.827 557.386 199.397 596.284 197.466C618.135 196.381 641.812 198.427 663.362 194.784C678.163 192.282 695.67 191.324 710.751 191.324C715.444 191.324 728 189.526 728 183.538C728 165.769 721.728 112.827 721.728 130.596" stroke="black" stroke-width="3" stroke-linecap="square"/>
<path d="M465 147.917C465 139.377 466.567 164.95 466.567 173.49C466.567 184.979 467.605 188.904 479.099 188.904C513.335 188.904 548.205 188.757 582.408 190.568C601.669 191.588 620.113 190.481 639.24 190.481C656.919 190.481 674.233 187.917 691.808 187.328C699.369 187.074 709.053 185.739 716.439 184.087C722.422 182.749 719.161 161.532 718.702 157.376C717.692 148.232 718.789 138.604 718.789 129" stroke="black" stroke-width="3" stroke-linecap="square"/>
<path d="M505.636 144.578C505.636 135.502 491.821 152.315 490.782 154.585C487.038 162.765 498.948 169.942 505.983 167.524C516.057 164.061 517.958 150.52 510.326 143.888C499.783 134.727 490 149.489 490 158.553" stroke="black" stroke-width="3" stroke-linecap="square"/>
<path d="M532 149.428C531.519 145.124 525.377 147.422 523.289 149.598C512.258 161.089 520.1 166.126 532 163.17" stroke="black" stroke-width="3" stroke-linecap="square"/>
<path d="M548 150.517C547.204 143.833 535.636 152.272 534.588 154.971C531.069 164.035 544.338 161.741 548 161.741" stroke="black" stroke-width="3" stroke-linecap="square"/>
<path d="M552.574 155.685C552.061 151.623 550.924 158.991 551.004 160.343C551.328 165.789 560.625 162.976 562.515 160.257C566.628 154.339 561.858 147.442 565.48 160.343C567.496 167.521 576.857 164.275 579.869 159.308C581.518 156.589 577.861 143.316 580.131 149.732C583.639 159.648 589.549 190.345 589.549 179.84C589.549 176.857 577.482 141.33 592.34 153.356C595.305 155.756 587.43 160.648 585.538 161.896" stroke="black" stroke-width="3" stroke-linecap="square"/>
<path d="M595 155.242C596.674 155.015 598.441 150.818 599.417 154.519C600.369 158.133 601 160.992 601 165" stroke="black" stroke-width="3" stroke-linecap="square"/>
<path d="M598 151L596 149" stroke="black" stroke-width="3" stroke-linecap="square"/>
<path d="M603 155.689C604.637 155.89 606.109 157.73 607.714 158.43C612.942 160.709 613.255 150.99 612.429 148.153C611.101 143.595 609.895 153.913 610.421 155.518C612.809 162.806 620.27 159.551 625 157.231" stroke="black" stroke-width="3" stroke-linecap="square"/>
<path d="M637.185 155.536C638.257 154.306 639.494 146.503 636.238 147.979C626.778 152.267 635.23 166.24 641.493 155.184C644.602 149.697 640.887 129.616 643.389 146.837C644.457 154.188 655.623 168.455 662 158.699" stroke="black" stroke-width="3" stroke-linecap="square"/>
<path d="M462.196 558V528.909H466.585V554.222H479.767V558H462.196ZM490.783 558.483C489.4 558.483 488.15 558.227 487.033 557.716C485.915 557.195 485.03 556.442 484.376 555.457C483.732 554.473 483.411 553.265 483.411 551.835C483.411 550.604 483.647 549.591 484.121 548.795C484.594 548 485.233 547.37 486.038 546.906C486.843 546.442 487.743 546.092 488.737 545.855C489.732 545.618 490.745 545.438 491.777 545.315C493.084 545.164 494.144 545.041 494.959 544.946C495.773 544.842 496.365 544.676 496.734 544.449C497.104 544.222 497.288 543.852 497.288 543.341V543.241C497.288 542.001 496.938 541.04 496.237 540.358C495.546 539.676 494.514 539.335 493.141 539.335C491.711 539.335 490.584 539.652 489.76 540.287C488.946 540.912 488.382 541.608 488.07 542.375L484.078 541.466C484.552 540.14 485.243 539.07 486.152 538.256C487.071 537.432 488.126 536.835 489.32 536.466C490.513 536.087 491.768 535.898 493.084 535.898C493.955 535.898 494.878 536.002 495.854 536.21C496.839 536.409 497.757 536.778 498.609 537.318C499.471 537.858 500.177 538.63 500.726 539.634C501.275 540.628 501.55 541.92 501.55 543.511V558H497.402V555.017H497.232C496.957 555.566 496.545 556.106 495.996 556.636C495.446 557.167 494.741 557.607 493.879 557.957C493.018 558.308 491.985 558.483 490.783 558.483ZM491.706 555.074C492.88 555.074 493.884 554.842 494.717 554.378C495.56 553.914 496.199 553.308 496.635 552.56C497.08 551.802 497.303 550.992 497.303 550.131V547.318C497.151 547.47 496.857 547.612 496.422 547.744C495.996 547.867 495.508 547.976 494.959 548.071C494.41 548.156 493.875 548.237 493.354 548.312C492.833 548.379 492.397 548.436 492.047 548.483C491.223 548.587 490.47 548.762 489.788 549.009C489.116 549.255 488.576 549.61 488.169 550.074C487.771 550.528 487.572 551.134 487.572 551.892C487.572 552.943 487.961 553.739 488.737 554.278C489.514 554.809 490.503 555.074 491.706 555.074ZM516.397 558.44C514.285 558.44 512.467 557.962 510.942 557.006C509.427 556.04 508.263 554.709 507.448 553.014C506.634 551.319 506.227 549.378 506.227 547.19C506.227 544.974 506.643 543.019 507.477 541.324C508.31 539.619 509.484 538.289 510.999 537.332C512.514 536.376 514.299 535.898 516.354 535.898C518.012 535.898 519.489 536.205 520.786 536.821C522.084 537.427 523.13 538.279 523.925 539.378C524.73 540.476 525.209 541.759 525.36 543.227H521.227C520.999 542.205 520.478 541.324 519.664 540.585C518.859 539.847 517.78 539.477 516.425 539.477C515.242 539.477 514.205 539.79 513.315 540.415C512.434 541.03 511.747 541.911 511.255 543.057C510.763 544.193 510.516 545.538 510.516 547.091C510.516 548.682 510.758 550.055 511.241 551.21C511.724 552.366 512.406 553.26 513.286 553.895C514.176 554.529 515.223 554.847 516.425 554.847C517.23 554.847 517.96 554.7 518.613 554.406C519.276 554.103 519.83 553.672 520.275 553.114C520.729 552.555 521.047 551.883 521.227 551.097H525.36C525.209 552.508 524.749 553.767 523.982 554.875C523.215 555.983 522.188 556.854 520.9 557.489C519.621 558.123 518.121 558.44 516.397 558.44ZM533.808 550.599L533.78 545.415H534.518L543.212 536.182H548.297L538.382 546.693H537.714L533.808 550.599ZM529.902 558V528.909H534.149V558H529.902ZM543.68 558L535.868 547.631L538.794 544.662L548.893 558H543.68ZM571.944 558.44C569.898 558.44 568.113 557.972 566.589 557.034C565.064 556.097 563.88 554.785 563.038 553.099C562.195 551.414 561.773 549.444 561.773 547.19C561.773 544.927 562.195 542.948 563.038 541.253C563.88 539.558 565.064 538.241 566.589 537.304C568.113 536.366 569.898 535.898 571.944 535.898C573.989 535.898 575.774 536.366 577.299 537.304C578.824 538.241 580.007 539.558 580.85 541.253C581.693 542.948 582.114 544.927 582.114 547.19C582.114 549.444 581.693 551.414 580.85 553.099C580.007 554.785 578.824 556.097 577.299 557.034C575.774 557.972 573.989 558.44 571.944 558.44ZM571.958 554.875C573.284 554.875 574.382 554.525 575.254 553.824C576.125 553.123 576.769 552.19 577.185 551.026C577.612 549.861 577.825 548.578 577.825 547.176C577.825 545.784 577.612 544.506 577.185 543.341C576.769 542.167 576.125 541.224 575.254 540.514C574.382 539.804 573.284 539.449 571.958 539.449C570.623 539.449 569.515 539.804 568.634 540.514C567.763 541.224 567.114 542.167 566.688 543.341C566.272 544.506 566.063 545.784 566.063 547.176C566.063 548.578 566.272 549.861 566.688 551.026C567.114 552.19 567.763 553.123 568.634 553.824C569.515 554.525 570.623 554.875 571.958 554.875ZM597.239 536.182V539.591H584.909V536.182H597.239ZM588.29 558V533.653C588.29 532.29 588.588 531.158 589.185 530.259C589.781 529.349 590.572 528.672 591.557 528.227C592.542 527.773 593.612 527.545 594.767 527.545C595.619 527.545 596.348 527.616 596.955 527.759C597.561 527.891 598.01 528.014 598.304 528.128L597.31 531.565C597.111 531.509 596.855 531.442 596.543 531.366C596.23 531.281 595.851 531.239 595.406 531.239C594.374 531.239 593.635 531.494 593.19 532.006C592.755 532.517 592.537 533.256 592.537 534.222V558H588.29ZM616.454 528.909V558H612.207V528.909H616.454ZM622.168 558V536.182H626.415V558H622.168ZM624.312 532.815C623.574 532.815 622.939 532.569 622.409 532.077C621.888 531.575 621.628 530.978 621.628 530.287C621.628 529.586 621.888 528.99 622.409 528.497C622.939 527.995 623.574 527.744 624.312 527.744C625.051 527.744 625.681 527.995 626.202 528.497C626.732 528.99 626.997 529.586 626.997 530.287C626.997 530.978 626.732 531.575 626.202 532.077C625.681 532.569 625.051 532.815 624.312 532.815ZM650.793 536.182L642.881 558H638.336L630.41 536.182H634.969L640.495 552.972H640.722L646.234 536.182H650.793ZM663.446 558.44C661.296 558.44 659.445 557.981 657.892 557.062C656.348 556.134 655.155 554.832 654.312 553.156C653.479 551.471 653.062 549.496 653.062 547.233C653.062 544.998 653.479 543.028 654.312 541.324C655.155 539.619 656.33 538.289 657.835 537.332C659.35 536.376 661.121 535.898 663.148 535.898C664.379 535.898 665.572 536.101 666.727 536.509C667.883 536.916 668.92 537.555 669.838 538.426C670.757 539.297 671.481 540.429 672.011 541.821C672.542 543.204 672.807 544.884 672.807 546.864V548.369H655.463V545.188H668.645C668.645 544.07 668.418 543.08 667.963 542.219C667.509 541.348 666.869 540.661 666.045 540.159C665.231 539.657 664.275 539.406 663.176 539.406C661.983 539.406 660.941 539.7 660.051 540.287C659.17 540.865 658.489 541.622 658.006 542.56C657.532 543.488 657.295 544.496 657.295 545.585V548.071C657.295 549.529 657.551 550.77 658.062 551.793C658.583 552.815 659.308 553.597 660.236 554.136C661.164 554.667 662.248 554.932 663.489 554.932C664.294 554.932 665.027 554.818 665.69 554.591C666.353 554.354 666.926 554.004 667.409 553.54C667.892 553.076 668.261 552.503 668.517 551.821L672.537 552.545C672.215 553.729 671.637 554.766 670.804 555.656C669.98 556.537 668.943 557.223 667.693 557.716C666.453 558.199 665.037 558.44 663.446 558.44ZM697.295 558.44C695.25 558.44 693.465 557.972 691.94 557.034C690.416 556.097 689.232 554.785 688.389 553.099C687.546 551.414 687.125 549.444 687.125 547.19C687.125 544.927 687.546 542.948 688.389 541.253C689.232 539.558 690.416 538.241 691.94 537.304C693.465 536.366 695.25 535.898 697.295 535.898C699.341 535.898 701.126 536.366 702.651 537.304C704.175 538.241 705.359 539.558 706.202 541.253C707.045 542.948 707.466 544.927 707.466 547.19C707.466 549.444 707.045 551.414 706.202 553.099C705.359 554.785 704.175 556.097 702.651 557.034C701.126 557.972 699.341 558.44 697.295 558.44ZM697.31 554.875C698.635 554.875 699.734 554.525 700.605 553.824C701.476 553.123 702.12 552.19 702.537 551.026C702.963 549.861 703.176 548.578 703.176 547.176C703.176 545.784 702.963 544.506 702.537 543.341C702.12 542.167 701.476 541.224 700.605 540.514C699.734 539.804 698.635 539.449 697.31 539.449C695.974 539.449 694.866 539.804 693.986 540.514C693.115 541.224 692.466 542.167 692.04 543.341C691.623 544.506 691.415 545.784 691.415 547.176C691.415 548.578 691.623 549.861 692.04 551.026C692.466 552.19 693.115 553.123 693.986 553.824C694.866 554.525 695.974 554.875 697.31 554.875ZM721.397 558.44C719.285 558.44 717.467 557.962 715.942 557.006C714.427 556.04 713.263 554.709 712.448 553.014C711.634 551.319 711.227 549.378 711.227 547.19C711.227 544.974 711.643 543.019 712.477 541.324C713.31 539.619 714.484 538.289 715.999 537.332C717.514 536.376 719.299 535.898 721.354 535.898C723.012 535.898 724.489 536.205 725.786 536.821C727.084 537.427 728.13 538.279 728.925 539.378C729.73 540.476 730.209 541.759 730.36 543.227H726.227C725.999 542.205 725.478 541.324 724.664 540.585C723.859 539.847 722.78 539.477 721.425 539.477C720.242 539.477 719.205 539.79 718.315 540.415C717.434 541.03 716.747 541.911 716.255 543.057C715.763 544.193 715.516 545.538 715.516 547.091C715.516 548.682 715.758 550.055 716.241 551.21C716.724 552.366 717.406 553.26 718.286 553.895C719.176 554.529 720.223 554.847 721.425 554.847C722.23 554.847 722.96 554.7 723.613 554.406C724.276 554.103 724.83 553.672 725.275 553.114C725.729 552.555 726.047 551.883 726.227 551.097H730.36C730.209 552.508 729.749 553.767 728.982 554.875C728.215 555.983 727.188 556.854 725.9 557.489C724.621 558.123 723.121 558.44 721.397 558.44ZM744.092 558.44C741.981 558.44 740.162 557.962 738.638 557.006C737.123 556.04 735.958 554.709 735.143 553.014C734.329 551.319 733.922 549.378 733.922 547.19C733.922 544.974 734.339 543.019 735.172 541.324C736.005 539.619 737.179 538.289 738.695 537.332C740.21 536.376 741.995 535.898 744.05 535.898C745.707 535.898 747.184 536.205 748.482 536.821C749.779 537.427 750.825 538.279 751.621 539.378C752.426 540.476 752.904 541.759 753.055 543.227H748.922C748.695 542.205 748.174 541.324 747.359 540.585C746.554 539.847 745.475 539.477 744.121 539.477C742.937 539.477 741.9 539.79 741.01 540.415C740.129 541.03 739.443 541.911 738.95 543.057C738.458 544.193 738.212 545.538 738.212 547.091C738.212 548.682 738.453 550.055 738.936 551.21C739.419 552.366 740.101 553.26 740.982 553.895C741.872 554.529 742.918 554.847 744.121 554.847C744.926 554.847 745.655 554.7 746.308 554.406C746.971 554.103 747.525 553.672 747.97 553.114C748.425 552.555 748.742 551.883 748.922 551.097H753.055C752.904 552.508 752.445 553.767 751.678 554.875C750.911 555.983 749.883 556.854 748.595 557.489C747.317 558.123 745.816 558.44 744.092 558.44ZM771.418 548.952V536.182H775.68V558H771.504V554.222H771.276C770.774 555.386 769.969 556.357 768.862 557.134C767.763 557.901 766.395 558.284 764.756 558.284C763.355 558.284 762.114 557.976 761.035 557.361C759.965 556.736 759.122 555.812 758.506 554.591C757.9 553.369 757.597 551.859 757.597 550.06V536.182H761.844V549.548C761.844 551.035 762.256 552.219 763.08 553.099C763.904 553.98 764.974 554.42 766.29 554.42C767.086 554.42 767.877 554.222 768.663 553.824C769.458 553.426 770.116 552.825 770.637 552.02C771.167 551.215 771.428 550.192 771.418 548.952ZM781.386 566.182V536.182H785.534V539.719H785.889C786.135 539.264 786.491 538.739 786.955 538.142C787.419 537.545 788.063 537.025 788.886 536.58C789.71 536.125 790.799 535.898 792.153 535.898C793.915 535.898 795.487 536.343 796.869 537.233C798.252 538.123 799.336 539.406 800.122 541.082C800.918 542.759 801.315 544.776 801.315 547.134C801.315 549.491 800.922 551.513 800.136 553.199C799.35 554.875 798.271 556.168 796.898 557.077C795.525 557.976 793.957 558.426 792.196 558.426C790.87 558.426 789.786 558.204 788.943 557.759C788.11 557.313 787.456 556.793 786.983 556.196C786.509 555.599 786.145 555.069 785.889 554.605H785.634V566.182H781.386ZM785.548 547.091C785.548 548.625 785.771 549.97 786.216 551.125C786.661 552.28 787.305 553.185 788.148 553.838C788.991 554.482 790.023 554.804 791.244 554.804C792.513 554.804 793.574 554.468 794.426 553.795C795.278 553.114 795.922 552.19 796.358 551.026C796.803 549.861 797.026 548.549 797.026 547.091C797.026 545.652 796.808 544.359 796.372 543.213C795.946 542.067 795.302 541.163 794.44 540.5C793.588 539.837 792.523 539.506 791.244 539.506C790.013 539.506 788.972 539.823 788.119 540.457C787.277 541.092 786.637 541.977 786.202 543.114C785.766 544.25 785.548 545.576 785.548 547.091ZM812.423 558.483C811.041 558.483 809.791 558.227 808.673 557.716C807.556 557.195 806.67 556.442 806.017 555.457C805.373 554.473 805.051 553.265 805.051 551.835C805.051 550.604 805.288 549.591 805.761 548.795C806.235 548 806.874 547.37 807.679 546.906C808.484 546.442 809.384 546.092 810.378 545.855C811.372 545.618 812.385 545.438 813.418 545.315C814.724 545.164 815.785 545.041 816.599 544.946C817.414 544.842 818.006 544.676 818.375 544.449C818.744 544.222 818.929 543.852 818.929 543.341V543.241C818.929 542.001 818.579 541.04 817.878 540.358C817.187 539.676 816.154 539.335 814.781 539.335C813.351 539.335 812.224 539.652 811.401 540.287C810.586 540.912 810.023 541.608 809.71 542.375L805.719 541.466C806.192 540.14 806.884 539.07 807.793 538.256C808.711 537.432 809.767 536.835 810.96 536.466C812.153 536.087 813.408 535.898 814.724 535.898C815.596 535.898 816.519 536.002 817.494 536.21C818.479 536.409 819.398 536.778 820.25 537.318C821.112 537.858 821.817 538.63 822.366 539.634C822.916 540.628 823.19 541.92 823.19 543.511V558H819.043V555.017H818.872C818.598 555.566 818.186 556.106 817.636 556.636C817.087 557.167 816.382 557.607 815.52 557.957C814.658 558.308 813.626 558.483 812.423 558.483ZM813.347 555.074C814.521 555.074 815.525 554.842 816.358 554.378C817.201 553.914 817.84 553.308 818.276 552.56C818.721 551.802 818.943 550.992 818.943 550.131V547.318C818.792 547.47 818.498 547.612 818.062 547.744C817.636 547.867 817.149 547.976 816.599 548.071C816.05 548.156 815.515 548.237 814.994 548.312C814.473 548.379 814.038 548.436 813.688 548.483C812.864 548.587 812.111 548.762 811.429 549.009C810.757 549.255 810.217 549.61 809.81 550.074C809.412 550.528 809.213 551.134 809.213 551.892C809.213 552.943 809.601 553.739 810.378 554.278C811.154 554.809 812.144 555.074 813.347 555.074ZM833.094 545.045V558H828.847V536.182H832.924V539.733H833.194C833.696 538.578 834.482 537.65 835.552 536.949C836.631 536.248 837.99 535.898 839.629 535.898C841.115 535.898 842.417 536.21 843.535 536.835C844.652 537.451 845.519 538.369 846.134 539.591C846.75 540.812 847.058 542.323 847.058 544.122V558H842.81V544.634C842.81 543.052 842.398 541.816 841.575 540.926C840.751 540.027 839.619 539.577 838.18 539.577C837.195 539.577 836.319 539.79 835.552 540.216C834.794 540.642 834.193 541.267 833.748 542.091C833.312 542.905 833.094 543.89 833.094 545.045ZM861.944 558.44C859.832 558.44 858.014 557.962 856.489 557.006C854.974 556.04 853.809 554.709 852.995 553.014C852.181 551.319 851.773 549.378 851.773 547.19C851.773 544.974 852.19 543.019 853.023 541.324C853.857 539.619 855.031 538.289 856.546 537.332C858.061 536.376 859.846 535.898 861.901 535.898C863.558 535.898 865.036 536.205 866.333 536.821C867.63 537.427 868.677 538.279 869.472 539.378C870.277 540.476 870.755 541.759 870.907 543.227H866.773C866.546 542.205 866.025 541.324 865.211 540.585C864.406 539.847 863.326 539.477 861.972 539.477C860.789 539.477 859.752 539.79 858.862 540.415C857.981 541.03 857.294 541.911 856.802 543.057C856.309 544.193 856.063 545.538 856.063 547.091C856.063 548.682 856.305 550.055 856.788 551.21C857.271 552.366 857.952 553.26 858.833 553.895C859.723 554.529 860.77 554.847 861.972 554.847C862.777 554.847 863.506 554.7 864.16 554.406C864.823 554.103 865.377 553.672 865.822 553.114C866.276 552.555 866.594 551.883 866.773 551.097H870.907C870.755 552.508 870.296 553.767 869.529 554.875C868.762 555.983 867.735 556.854 866.447 557.489C865.168 558.123 863.667 558.44 861.944 558.44ZM878.134 566.182C877.499 566.182 876.921 566.13 876.401 566.026C875.88 565.931 875.491 565.827 875.236 565.713L876.259 562.233C877.035 562.441 877.726 562.531 878.332 562.503C878.938 562.474 879.473 562.247 879.938 561.821C880.411 561.395 880.828 560.699 881.188 559.733L881.713 558.284L873.73 536.182H878.276L883.801 553.114H884.028L889.554 536.182H894.114L885.122 560.912C884.705 562.048 884.175 563.009 883.531 563.795C882.887 564.591 882.12 565.188 881.23 565.585C880.34 565.983 879.308 566.182 878.134 566.182ZM916.859 558.426C915.097 558.426 913.525 557.976 912.143 557.077C910.77 556.168 909.69 554.875 908.904 553.199C908.128 551.513 907.739 549.491 907.739 547.134C907.739 544.776 908.132 542.759 908.918 541.082C909.714 539.406 910.803 538.123 912.185 537.233C913.568 536.343 915.135 535.898 916.887 535.898C918.241 535.898 919.33 536.125 920.154 536.58C920.987 537.025 921.631 537.545 922.086 538.142C922.55 538.739 922.91 539.264 923.165 539.719H923.421V528.909H927.668V558H923.521V554.605H923.165C922.91 555.069 922.54 555.599 922.058 556.196C921.584 556.793 920.931 557.313 920.097 557.759C919.264 558.204 918.184 558.426 916.859 558.426ZM917.796 554.804C919.018 554.804 920.05 554.482 920.893 553.838C921.745 553.185 922.389 552.28 922.825 551.125C923.27 549.97 923.492 548.625 923.492 547.091C923.492 545.576 923.274 544.25 922.839 543.114C922.403 541.977 921.764 541.092 920.921 540.457C920.078 539.823 919.037 539.506 917.796 539.506C916.518 539.506 915.452 539.837 914.6 540.5C913.748 541.163 913.104 542.067 912.668 543.213C912.242 544.359 912.029 545.652 912.029 547.091C912.029 548.549 912.247 549.861 912.683 551.026C913.118 552.19 913.762 553.114 914.614 553.795C915.476 554.468 916.537 554.804 917.796 554.804ZM940.08 558.483C938.697 558.483 937.447 558.227 936.33 557.716C935.212 557.195 934.327 556.442 933.673 555.457C933.029 554.473 932.707 553.265 932.707 551.835C932.707 550.604 932.944 549.591 933.418 548.795C933.891 548 934.53 547.37 935.335 546.906C936.14 546.442 937.04 546.092 938.034 545.855C939.028 545.618 940.042 545.438 941.074 545.315C942.381 545.164 943.441 545.041 944.256 544.946C945.07 544.842 945.662 544.676 946.031 544.449C946.401 544.222 946.585 543.852 946.585 543.341V543.241C946.585 542.001 946.235 541.04 945.534 540.358C944.843 539.676 943.811 539.335 942.438 539.335C941.008 539.335 939.881 539.652 939.057 540.287C938.242 540.912 937.679 541.608 937.366 542.375L933.375 541.466C933.848 540.14 934.54 539.07 935.449 538.256C936.367 537.432 937.423 536.835 938.616 536.466C939.81 536.087 941.064 535.898 942.381 535.898C943.252 535.898 944.175 536.002 945.151 536.21C946.135 536.409 947.054 536.778 947.906 537.318C948.768 537.858 949.473 538.63 950.023 539.634C950.572 540.628 950.847 541.92 950.847 543.511V558H946.699V555.017H946.528C946.254 555.566 945.842 556.106 945.293 556.636C944.743 557.167 944.038 557.607 943.176 557.957C942.314 558.308 941.282 558.483 940.08 558.483ZM941.003 555.074C942.177 555.074 943.181 554.842 944.014 554.378C944.857 553.914 945.496 553.308 945.932 552.56C946.377 551.802 946.599 550.992 946.599 550.131V547.318C946.448 547.47 946.154 547.612 945.719 547.744C945.293 547.867 944.805 547.976 944.256 548.071C943.706 548.156 943.171 548.237 942.651 548.312C942.13 548.379 941.694 548.436 941.344 548.483C940.52 548.587 939.767 548.762 939.085 549.009C938.413 549.255 937.873 549.61 937.466 550.074C937.068 550.528 936.869 551.134 936.869 551.892C936.869 552.943 937.258 553.739 938.034 554.278C938.811 554.809 939.8 555.074 941.003 555.074ZM966.688 536.182V539.591H954.771V536.182H966.688ZM957.967 530.955H962.214V551.594C962.214 552.418 962.337 553.038 962.583 553.455C962.829 553.862 963.147 554.141 963.535 554.293C963.933 554.435 964.363 554.506 964.827 554.506C965.168 554.506 965.467 554.482 965.722 554.435C965.978 554.387 966.177 554.349 966.319 554.321L967.086 557.83C966.84 557.924 966.489 558.019 966.035 558.114C965.58 558.218 965.012 558.275 964.33 558.284C963.213 558.303 962.171 558.104 961.205 557.688C960.239 557.271 959.458 556.627 958.862 555.756C958.265 554.884 957.967 553.791 957.967 552.474V530.955ZM977.736 558.483C976.353 558.483 975.103 558.227 973.986 557.716C972.868 557.195 971.983 556.442 971.33 555.457C970.686 554.473 970.364 553.265 970.364 551.835C970.364 550.604 970.6 549.591 971.074 548.795C971.547 548 972.187 547.37 972.991 546.906C973.796 546.442 974.696 546.092 975.69 545.855C976.685 545.618 977.698 545.438 978.73 545.315C980.037 545.164 981.098 545.041 981.912 544.946C982.726 544.842 983.318 544.676 983.688 544.449C984.057 544.222 984.241 543.852 984.241 543.341V543.241C984.241 542.001 983.891 541.04 983.19 540.358C982.499 539.676 981.467 539.335 980.094 539.335C978.664 539.335 977.537 539.652 976.713 540.287C975.899 540.912 975.335 541.608 975.023 542.375L971.031 541.466C971.505 540.14 972.196 539.07 973.105 538.256C974.024 537.432 975.08 536.835 976.273 536.466C977.466 536.087 978.721 535.898 980.037 535.898C980.908 535.898 981.831 536.002 982.807 536.21C983.792 536.409 984.71 536.778 985.562 537.318C986.424 537.858 987.13 538.63 987.679 539.634C988.228 540.628 988.503 541.92 988.503 543.511V558H984.355V555.017H984.185C983.91 555.566 983.498 556.106 982.949 556.636C982.4 557.167 981.694 557.607 980.832 557.957C979.971 558.308 978.938 558.483 977.736 558.483ZM978.659 555.074C979.833 555.074 980.837 554.842 981.67 554.378C982.513 553.914 983.152 553.308 983.588 552.56C984.033 551.802 984.256 550.992 984.256 550.131V547.318C984.104 547.47 983.811 547.612 983.375 547.744C982.949 547.867 982.461 547.976 981.912 548.071C981.363 548.156 980.828 548.237 980.307 548.312C979.786 548.379 979.35 548.436 979 548.483C978.176 548.587 977.423 548.762 976.741 549.009C976.069 549.255 975.529 549.61 975.122 550.074C974.724 550.528 974.526 551.134 974.526 551.892C974.526 552.943 974.914 553.739 975.69 554.278C976.467 554.809 977.456 555.074 978.659 555.074ZM461.855 606V584.182H465.932V587.733H466.202C466.656 586.53 467.4 585.593 468.432 584.92C469.464 584.239 470.7 583.898 472.139 583.898C473.598 583.898 474.819 584.239 475.804 584.92C476.798 585.602 477.532 586.54 478.006 587.733H478.233C478.754 586.568 479.582 585.64 480.719 584.949C481.855 584.248 483.209 583.898 484.781 583.898C486.76 583.898 488.375 584.518 489.625 585.759C490.884 586.999 491.514 588.869 491.514 591.369V606H487.267V591.767C487.267 590.29 486.865 589.22 486.06 588.557C485.255 587.894 484.294 587.562 483.176 587.562C481.794 587.562 480.719 587.989 479.952 588.841C479.185 589.684 478.801 590.768 478.801 592.094V606H474.568V591.497C474.568 590.313 474.199 589.362 473.46 588.642C472.722 587.922 471.76 587.562 470.577 587.562C469.772 587.562 469.028 587.776 468.347 588.202C467.674 588.618 467.13 589.201 466.713 589.949C466.306 590.697 466.102 591.563 466.102 592.548V606H461.855ZM503.556 606.483C502.174 606.483 500.924 606.227 499.806 605.716C498.689 605.195 497.803 604.442 497.15 603.457C496.506 602.473 496.184 601.265 496.184 599.835C496.184 598.604 496.421 597.591 496.894 596.795C497.368 596 498.007 595.37 498.812 594.906C499.617 594.442 500.516 594.092 501.511 593.855C502.505 593.618 503.518 593.438 504.55 593.315C505.857 593.164 506.918 593.041 507.732 592.946C508.547 592.842 509.138 592.676 509.508 592.449C509.877 592.222 510.062 591.852 510.062 591.341V591.241C510.062 590.001 509.711 589.04 509.011 588.358C508.319 587.676 507.287 587.335 505.914 587.335C504.484 587.335 503.357 587.652 502.533 588.287C501.719 588.912 501.156 589.608 500.843 590.375L496.852 589.466C497.325 588.14 498.016 587.07 498.925 586.256C499.844 585.432 500.9 584.835 502.093 584.466C503.286 584.087 504.541 583.898 505.857 583.898C506.728 583.898 507.652 584.002 508.627 584.21C509.612 584.409 510.531 584.778 511.383 585.318C512.245 585.858 512.95 586.63 513.499 587.634C514.049 588.628 514.323 589.92 514.323 591.511V606H510.175V603.017H510.005C509.73 603.566 509.318 604.106 508.769 604.636C508.22 605.167 507.514 605.607 506.653 605.957C505.791 606.308 504.759 606.483 503.556 606.483ZM504.479 603.074C505.654 603.074 506.657 602.842 507.491 602.378C508.334 601.914 508.973 601.308 509.408 600.56C509.853 599.802 510.076 598.992 510.076 598.131V595.318C509.924 595.47 509.631 595.612 509.195 595.744C508.769 595.867 508.281 595.976 507.732 596.071C507.183 596.156 506.648 596.237 506.127 596.312C505.606 596.379 505.171 596.436 504.82 596.483C503.996 596.587 503.244 596.762 502.562 597.009C501.889 597.255 501.35 597.61 500.942 598.074C500.545 598.528 500.346 599.134 500.346 599.892C500.346 600.943 500.734 601.739 501.511 602.278C502.287 602.809 503.277 603.074 504.479 603.074ZM523.886 598.599L523.858 593.415H524.597L533.29 584.182H538.375L528.46 594.693H527.793L523.886 598.599ZM519.98 606V576.909H524.227V606H519.98ZM533.759 606L525.946 595.631L528.872 592.662L538.972 606H533.759ZM550.751 606.44C548.601 606.44 546.75 605.981 545.197 605.062C543.653 604.134 542.46 602.832 541.617 601.156C540.784 599.471 540.367 597.496 540.367 595.233C540.367 592.998 540.784 591.028 541.617 589.324C542.46 587.619 543.634 586.289 545.14 585.332C546.655 584.376 548.426 583.898 550.452 583.898C551.683 583.898 552.877 584.101 554.032 584.509C555.187 584.916 556.224 585.555 557.143 586.426C558.061 587.297 558.786 588.429 559.316 589.821C559.846 591.204 560.112 592.884 560.112 594.864V596.369H542.768V593.188H555.95C555.95 592.07 555.722 591.08 555.268 590.219C554.813 589.348 554.174 588.661 553.35 588.159C552.536 587.657 551.579 587.406 550.481 587.406C549.288 587.406 548.246 587.7 547.356 588.287C546.475 588.865 545.793 589.622 545.31 590.56C544.837 591.488 544.6 592.496 544.6 593.585V596.071C544.6 597.529 544.856 598.77 545.367 599.793C545.888 600.815 546.612 601.597 547.54 602.136C548.469 602.667 549.553 602.932 550.793 602.932C551.598 602.932 552.332 602.818 552.995 602.591C553.658 602.354 554.231 602.004 554.714 601.54C555.197 601.076 555.566 600.503 555.822 599.821L559.842 600.545C559.52 601.729 558.942 602.766 558.109 603.656C557.285 604.537 556.248 605.223 554.998 605.716C553.757 606.199 552.342 606.44 550.751 606.44ZM581.173 589.509L577.324 590.19C577.163 589.698 576.907 589.229 576.557 588.784C576.216 588.339 575.752 587.974 575.165 587.69C574.578 587.406 573.844 587.264 572.963 587.264C571.76 587.264 570.757 587.534 569.952 588.074C569.147 588.604 568.744 589.291 568.744 590.134C568.744 590.863 569.014 591.45 569.554 591.895C570.094 592.34 570.965 592.705 572.168 592.989L575.634 593.784C577.641 594.248 579.137 594.963 580.122 595.929C581.107 596.895 581.599 598.15 581.599 599.693C581.599 601 581.221 602.165 580.463 603.188C579.715 604.201 578.669 604.996 577.324 605.574C575.989 606.152 574.44 606.44 572.679 606.44C570.236 606.44 568.242 605.92 566.699 604.878C565.155 603.827 564.208 602.335 563.858 600.403L567.963 599.778C568.219 600.848 568.744 601.658 569.54 602.207C570.335 602.747 571.372 603.017 572.651 603.017C574.043 603.017 575.155 602.728 575.989 602.151C576.822 601.563 577.239 600.848 577.239 600.006C577.239 599.324 576.983 598.751 576.472 598.287C575.97 597.823 575.198 597.473 574.156 597.236L570.463 596.426C568.427 595.962 566.921 595.223 565.946 594.21C564.98 593.197 564.497 591.914 564.497 590.361C564.497 589.073 564.857 587.946 565.577 586.98C566.296 586.014 567.291 585.261 568.56 584.722C569.829 584.172 571.282 583.898 572.92 583.898C575.278 583.898 577.134 584.409 578.489 585.432C579.843 586.445 580.738 587.804 581.173 589.509ZM596.855 606V584.182H601.102V606H596.855ZM599 580.815C598.261 580.815 597.627 580.569 597.097 580.077C596.576 579.575 596.315 578.978 596.315 578.287C596.315 577.586 596.576 576.99 597.097 576.497C597.627 575.995 598.261 575.744 599 575.744C599.739 575.744 600.368 575.995 600.889 576.497C601.42 576.99 601.685 577.586 601.685 578.287C601.685 578.978 601.42 579.575 600.889 580.077C600.368 580.569 599.739 580.815 599 580.815ZM617.001 584.182V587.591H605.083V584.182H617.001ZM608.279 578.955H612.526V599.594C612.526 600.418 612.649 601.038 612.896 601.455C613.142 601.862 613.459 602.141 613.847 602.293C614.245 602.435 614.676 602.506 615.14 602.506C615.481 602.506 615.779 602.482 616.035 602.435C616.29 602.387 616.489 602.349 616.631 602.321L617.398 605.83C617.152 605.924 616.802 606.019 616.347 606.114C615.893 606.218 615.325 606.275 614.643 606.284C613.525 606.303 612.484 606.104 611.518 605.688C610.552 605.271 609.771 604.627 609.174 603.756C608.577 602.884 608.279 601.791 608.279 600.474V578.955ZM640.452 606.426C638.691 606.426 637.119 605.976 635.737 605.077C634.363 604.168 633.284 602.875 632.498 601.199C631.721 599.513 631.333 597.491 631.333 595.134C631.333 592.776 631.726 590.759 632.512 589.082C633.308 587.406 634.397 586.123 635.779 585.233C637.162 584.343 638.729 583.898 640.481 583.898C641.835 583.898 642.924 584.125 643.748 584.58C644.581 585.025 645.225 585.545 645.68 586.142C646.144 586.739 646.504 587.264 646.759 587.719H647.015V576.909H651.262V606H647.114V602.605H646.759C646.504 603.069 646.134 603.599 645.651 604.196C645.178 604.793 644.524 605.313 643.691 605.759C642.858 606.204 641.778 606.426 640.452 606.426ZM641.39 602.804C642.612 602.804 643.644 602.482 644.487 601.838C645.339 601.185 645.983 600.28 646.418 599.125C646.863 597.97 647.086 596.625 647.086 595.091C647.086 593.576 646.868 592.25 646.433 591.114C645.997 589.977 645.358 589.092 644.515 588.457C643.672 587.823 642.63 587.506 641.39 587.506C640.112 587.506 639.046 587.837 638.194 588.5C637.342 589.163 636.698 590.067 636.262 591.213C635.836 592.359 635.623 593.652 635.623 595.091C635.623 596.549 635.841 597.861 636.276 599.026C636.712 600.19 637.356 601.114 638.208 601.795C639.07 602.468 640.13 602.804 641.39 602.804ZM657.324 606V584.182H661.571V606H657.324ZM659.469 580.815C658.73 580.815 658.096 580.569 657.565 580.077C657.045 579.575 656.784 578.978 656.784 578.287C656.784 577.586 657.045 576.99 657.565 576.497C658.096 575.995 658.73 575.744 659.469 575.744C660.207 575.744 660.837 575.995 661.358 576.497C661.888 576.99 662.153 577.586 662.153 578.287C662.153 578.978 661.888 579.575 661.358 580.077C660.837 580.569 660.207 580.815 659.469 580.815ZM677.668 584.182V587.591H665.339V584.182H677.668ZM668.719 606V581.653C668.719 580.29 669.018 579.158 669.614 578.259C670.211 577.349 671.002 576.672 671.987 576.227C672.971 575.773 674.041 575.545 675.197 575.545C676.049 575.545 676.778 575.616 677.384 575.759C677.99 575.891 678.44 576.014 678.734 576.128L677.739 579.565C677.54 579.509 677.285 579.442 676.972 579.366C676.66 579.281 676.281 579.239 675.836 579.239C674.804 579.239 674.065 579.494 673.62 580.006C673.184 580.517 672.967 581.256 672.967 582.222V606H668.719ZM692.434 584.182V587.591H680.104V584.182H692.434ZM683.485 606V581.653C683.485 580.29 683.783 579.158 684.38 578.259C684.977 577.349 685.767 576.672 686.752 576.227C687.737 575.773 688.807 575.545 689.962 575.545C690.815 575.545 691.544 575.616 692.15 575.759C692.756 575.891 693.206 576.014 693.499 576.128L692.505 579.565C692.306 579.509 692.05 579.442 691.738 579.366C691.425 579.281 691.047 579.239 690.602 579.239C689.569 579.239 688.831 579.494 688.386 580.006C687.95 580.517 687.732 581.256 687.732 582.222V606H683.485ZM696.816 606V584.182H701.063V606H696.816ZM698.961 580.815C698.222 580.815 697.588 580.569 697.058 580.077C696.537 579.575 696.276 578.978 696.276 578.287C696.276 577.586 696.537 576.99 697.058 576.497C697.588 575.995 698.222 575.744 698.961 575.744C699.7 575.744 700.329 575.995 700.85 576.497C701.38 576.99 701.646 577.586 701.646 578.287C701.646 578.978 701.38 579.575 700.85 580.077C700.329 580.569 699.7 580.815 698.961 580.815ZM715.967 606.44C713.856 606.44 712.037 605.962 710.513 605.006C708.998 604.04 707.833 602.709 707.018 601.014C706.204 599.319 705.797 597.378 705.797 595.19C705.797 592.974 706.214 591.019 707.047 589.324C707.88 587.619 709.054 586.289 710.57 585.332C712.085 584.376 713.87 583.898 715.925 583.898C717.582 583.898 719.059 584.205 720.357 584.821C721.654 585.427 722.7 586.279 723.496 587.378C724.301 588.476 724.779 589.759 724.93 591.227H720.797C720.57 590.205 720.049 589.324 719.234 588.585C718.429 587.847 717.35 587.477 715.996 587.477C714.812 587.477 713.775 587.79 712.885 588.415C712.004 589.03 711.318 589.911 710.825 591.057C710.333 592.193 710.087 593.538 710.087 595.091C710.087 596.682 710.328 598.055 710.811 599.21C711.294 600.366 711.976 601.26 712.857 601.895C713.747 602.529 714.793 602.847 715.996 602.847C716.801 602.847 717.53 602.7 718.183 602.406C718.846 602.103 719.4 601.672 719.845 601.114C720.3 600.555 720.617 599.883 720.797 599.097H724.93C724.779 600.508 724.32 601.767 723.553 602.875C722.786 603.983 721.758 604.854 720.47 605.489C719.192 606.123 717.691 606.44 715.967 606.44ZM743.293 596.952V584.182H747.555V606H743.379V602.222H743.151C742.649 603.386 741.844 604.357 740.737 605.134C739.638 605.901 738.27 606.284 736.631 606.284C735.23 606.284 733.989 605.976 732.91 605.361C731.84 604.736 730.997 603.812 730.381 602.591C729.775 601.369 729.472 599.859 729.472 598.06V584.182H733.719V597.548C733.719 599.035 734.131 600.219 734.955 601.099C735.779 601.98 736.849 602.42 738.165 602.42C738.961 602.42 739.752 602.222 740.538 601.824C741.333 601.426 741.991 600.825 742.512 600.02C743.042 599.215 743.303 598.192 743.293 596.952ZM757.509 576.909V606H753.261V576.909H757.509ZM773.407 584.182V587.591H761.489V584.182H773.407ZM764.685 578.955H768.933V599.594C768.933 600.418 769.056 601.038 769.302 601.455C769.548 601.862 769.865 602.141 770.254 602.293C770.651 602.435 771.082 602.506 771.546 602.506C771.887 602.506 772.185 602.482 772.441 602.435C772.697 602.387 772.896 602.349 773.038 602.321L773.805 605.83C773.558 605.924 773.208 606.019 772.754 606.114C772.299 606.218 771.731 606.275 771.049 606.284C769.932 606.303 768.89 606.104 767.924 605.688C766.958 605.271 766.177 604.627 765.58 603.756C764.984 602.884 764.685 601.791 764.685 600.474V578.955ZM799.075 584.182V587.591H786.745V584.182H799.075ZM790.126 606V581.653C790.126 580.29 790.424 579.158 791.021 578.259C791.617 577.349 792.408 576.672 793.393 576.227C794.378 575.773 795.448 575.545 796.603 575.545C797.455 575.545 798.184 575.616 798.79 575.759C799.397 575.891 799.846 576.014 800.14 576.128L799.146 579.565C798.947 579.509 798.691 579.442 798.379 579.366C798.066 579.281 797.687 579.239 797.242 579.239C796.21 579.239 795.471 579.494 795.026 580.006C794.591 580.517 794.373 581.256 794.373 582.222V606H790.126ZM811.788 606.44C809.742 606.44 807.957 605.972 806.433 605.034C804.908 604.097 803.724 602.785 802.881 601.099C802.039 599.414 801.617 597.444 801.617 595.19C801.617 592.927 802.039 590.948 802.881 589.253C803.724 587.558 804.908 586.241 806.433 585.304C807.957 584.366 809.742 583.898 811.788 583.898C813.833 583.898 815.618 584.366 817.143 585.304C818.667 586.241 819.851 587.558 820.694 589.253C821.537 590.948 821.958 592.927 821.958 595.19C821.958 597.444 821.537 599.414 820.694 601.099C819.851 602.785 818.667 604.097 817.143 605.034C815.618 605.972 813.833 606.44 811.788 606.44ZM811.802 602.875C813.128 602.875 814.226 602.525 815.097 601.824C815.969 601.123 816.612 600.19 817.029 599.026C817.455 597.861 817.668 596.578 817.668 595.176C817.668 593.784 817.455 592.506 817.029 591.341C816.612 590.167 815.969 589.224 815.097 588.514C814.226 587.804 813.128 587.449 811.802 587.449C810.467 587.449 809.359 587.804 808.478 588.514C807.607 589.224 806.958 590.167 806.532 591.341C806.115 592.506 805.907 593.784 805.907 595.176C805.907 596.578 806.115 597.861 806.532 599.026C806.958 600.19 807.607 601.123 808.478 601.824C809.359 602.525 810.467 602.875 811.802 602.875ZM826.699 606V584.182H830.804V587.648H831.031C831.429 586.473 832.13 585.55 833.134 584.878C834.147 584.196 835.293 583.855 836.571 583.855C836.836 583.855 837.149 583.865 837.509 583.884C837.878 583.902 838.167 583.926 838.375 583.955V588.017C838.205 587.97 837.902 587.918 837.466 587.861C837.03 587.795 836.595 587.761 836.159 587.761C835.155 587.761 834.26 587.974 833.474 588.401C832.698 588.817 832.082 589.4 831.628 590.148C831.173 590.886 830.946 591.729 830.946 592.676V606H826.699ZM860.804 606.426C859.043 606.426 857.471 605.976 856.088 605.077C854.715 604.168 853.635 602.875 852.849 601.199C852.073 599.513 851.685 597.491 851.685 595.134C851.685 592.776 852.078 590.759 852.864 589.082C853.659 587.406 854.748 586.123 856.131 585.233C857.513 584.343 859.08 583.898 860.832 583.898C862.187 583.898 863.276 584.125 864.099 584.58C864.933 585.025 865.577 585.545 866.031 586.142C866.495 586.739 866.855 587.264 867.111 587.719H867.366V576.909H871.614V606H867.466V602.605H867.111C866.855 603.069 866.486 603.599 866.003 604.196C865.529 604.793 864.876 605.313 864.043 605.759C863.209 606.204 862.13 606.426 860.804 606.426ZM861.741 602.804C862.963 602.804 863.995 602.482 864.838 601.838C865.69 601.185 866.334 600.28 866.77 599.125C867.215 597.97 867.438 596.625 867.438 595.091C867.438 593.576 867.22 592.25 866.784 591.114C866.348 589.977 865.709 589.092 864.866 588.457C864.024 587.823 862.982 587.506 861.741 587.506C860.463 587.506 859.398 587.837 858.545 588.5C857.693 589.163 857.049 590.067 856.614 591.213C856.188 592.359 855.974 593.652 855.974 595.091C855.974 596.549 856.192 597.861 856.628 599.026C857.063 600.19 857.707 601.114 858.56 601.795C859.421 602.468 860.482 602.804 861.741 602.804ZM877.675 606V584.182H881.923V606H877.675ZM879.82 580.815C879.082 580.815 878.447 580.569 877.917 580.077C877.396 579.575 877.136 578.978 877.136 578.287C877.136 577.586 877.396 576.99 877.917 576.497C878.447 575.995 879.082 575.744 879.82 575.744C880.559 575.744 881.189 575.995 881.71 576.497C882.24 576.99 882.505 577.586 882.505 578.287C882.505 578.978 882.24 579.575 881.71 580.077C881.189 580.569 880.559 580.815 879.82 580.815ZM891.884 593.045V606H887.636V584.182H891.713V587.733H891.983C892.485 586.578 893.271 585.65 894.341 584.949C895.42 584.248 896.779 583.898 898.418 583.898C899.904 583.898 901.206 584.21 902.324 584.835C903.441 585.451 904.308 586.369 904.923 587.591C905.539 588.812 905.847 590.323 905.847 592.122V606H901.599V592.634C901.599 591.052 901.188 589.816 900.364 588.926C899.54 588.027 898.408 587.577 896.969 587.577C895.984 587.577 895.108 587.79 894.341 588.216C893.583 588.642 892.982 589.267 892.537 590.091C892.101 590.905 891.884 591.89 891.884 593.045ZM920.946 606.44C918.796 606.44 916.945 605.981 915.392 605.062C913.848 604.134 912.655 602.832 911.812 601.156C910.979 599.471 910.562 597.496 910.562 595.233C910.562 592.998 910.979 591.028 911.812 589.324C912.655 587.619 913.83 586.289 915.335 585.332C916.85 584.376 918.621 583.898 920.648 583.898C921.879 583.898 923.072 584.101 924.227 584.509C925.383 584.916 926.42 585.555 927.338 586.426C928.257 587.297 928.981 588.429 929.511 589.821C930.042 591.204 930.307 592.884 930.307 594.864V596.369H912.963V593.188H926.145C926.145 592.07 925.918 591.08 925.463 590.219C925.009 589.348 924.369 588.661 923.545 588.159C922.731 587.657 921.775 587.406 920.676 587.406C919.483 587.406 918.441 587.7 917.551 588.287C916.67 588.865 915.989 589.622 915.506 590.56C915.032 591.488 914.795 592.496 914.795 593.585V596.071C914.795 597.529 915.051 598.77 915.562 599.793C916.083 600.815 916.808 601.597 917.736 602.136C918.664 602.667 919.748 602.932 920.989 602.932C921.794 602.932 922.527 602.818 923.19 602.591C923.853 602.354 924.426 602.004 924.909 601.54C925.392 601.076 925.761 600.503 926.017 599.821L930.037 600.545C929.715 601.729 929.137 602.766 928.304 603.656C927.48 604.537 926.443 605.223 925.193 605.716C923.953 606.199 922.537 606.44 920.946 606.44ZM935.019 606V584.182H939.124V587.648H939.352C939.749 586.473 940.45 585.55 941.454 584.878C942.467 584.196 943.613 583.855 944.891 583.855C945.156 583.855 945.469 583.865 945.829 583.884C946.198 583.902 946.487 583.926 946.695 583.955V588.017C946.525 587.97 946.222 587.918 945.786 587.861C945.351 587.795 944.915 587.761 944.479 587.761C943.476 587.761 942.581 587.974 941.795 588.401C941.018 588.817 940.403 589.4 939.948 590.148C939.494 590.886 939.266 591.729 939.266 592.676V606H935.019ZM966.72 589.509L962.871 590.19C962.71 589.698 962.454 589.229 962.104 588.784C961.763 588.339 961.299 587.974 960.712 587.69C960.125 587.406 959.391 587.264 958.51 587.264C957.307 587.264 956.304 587.534 955.499 588.074C954.694 588.604 954.291 589.291 954.291 590.134C954.291 590.863 954.561 591.45 955.101 591.895C955.641 592.34 956.512 592.705 957.714 592.989L961.18 593.784C963.188 594.248 964.684 594.963 965.669 595.929C966.654 596.895 967.146 598.15 967.146 599.693C967.146 601 966.768 602.165 966.01 603.188C965.262 604.201 964.215 604.996 962.871 605.574C961.536 606.152 959.987 606.44 958.226 606.44C955.783 606.44 953.789 605.92 952.246 604.878C950.702 603.827 949.755 602.335 949.405 600.403L953.51 599.778C953.766 600.848 954.291 601.658 955.087 602.207C955.882 602.747 956.919 603.017 958.197 603.017C959.589 603.017 960.702 602.728 961.536 602.151C962.369 601.563 962.786 600.848 962.786 600.006C962.786 599.324 962.53 598.751 962.018 598.287C961.517 597.823 960.745 597.473 959.703 597.236L956.01 596.426C953.974 595.962 952.468 595.223 951.493 594.21C950.527 593.197 950.044 591.914 950.044 590.361C950.044 589.073 950.404 587.946 951.124 586.98C951.843 586.014 952.838 585.261 954.107 584.722C955.375 584.172 956.829 583.898 958.467 583.898C960.825 583.898 962.681 584.409 964.036 585.432C965.39 586.445 966.285 587.804 966.72 589.509ZM992.587 584.182V587.591H980.669V584.182H992.587ZM983.865 578.955H988.112V599.594C988.112 600.418 988.235 601.038 988.482 601.455C988.728 601.862 989.045 602.141 989.433 602.293C989.831 602.435 990.262 602.506 990.726 602.506C991.067 602.506 991.365 602.482 991.621 602.435C991.876 602.387 992.075 602.349 992.217 602.321L992.984 605.83C992.738 605.924 992.388 606.019 991.933 606.114C991.479 606.218 990.911 606.275 990.229 606.284C989.111 606.303 988.07 606.104 987.104 605.688C986.138 605.271 985.357 604.627 984.76 603.756C984.163 602.884 983.865 601.791 983.865 600.474V578.955ZM1006.24 606.44C1004.2 606.44 1002.41 605.972 1000.89 605.034C999.361 604.097 998.177 602.785 997.335 601.099C996.492 599.414 996.07 597.444 996.07 595.19C996.07 592.927 996.492 590.948 997.335 589.253C998.177 587.558 999.361 586.241 1000.89 585.304C1002.41 584.366 1004.2 583.898 1006.24 583.898C1008.29 583.898 1010.07 584.366 1011.6 585.304C1013.12 586.241 1014.3 587.558 1015.15 589.253C1015.99 590.948 1016.41 592.927 1016.41 595.19C1016.41 597.444 1015.99 599.414 1015.15 601.099C1014.3 602.785 1013.12 604.097 1011.6 605.034C1010.07 605.972 1008.29 606.44 1006.24 606.44ZM1006.25 602.875C1007.58 602.875 1008.68 602.525 1009.55 601.824C1010.42 601.123 1011.07 600.19 1011.48 599.026C1011.91 597.861 1012.12 596.578 1012.12 595.176C1012.12 593.784 1011.91 592.506 1011.48 591.341C1011.07 590.167 1010.42 589.224 1009.55 588.514C1008.68 587.804 1007.58 587.449 1006.25 587.449C1004.92 587.449 1003.81 587.804 1002.93 588.514C1002.06 589.224 1001.41 590.167 1000.99 591.341C1000.57 592.506 1000.36 593.784 1000.36 595.176C1000.36 596.578 1000.57 597.861 1000.99 599.026C1001.41 600.19 1002.06 601.123 1002.93 601.824C1003.81 602.525 1004.92 602.875 1006.25 602.875ZM461.855 662.182V632.182H466.003V635.719H466.358C466.604 635.264 466.959 634.739 467.423 634.142C467.887 633.545 468.531 633.025 469.355 632.58C470.179 632.125 471.268 631.898 472.622 631.898C474.384 631.898 475.955 632.343 477.338 633.233C478.721 634.123 479.805 635.406 480.591 637.082C481.386 638.759 481.784 640.776 481.784 643.134C481.784 645.491 481.391 647.513 480.605 649.199C479.819 650.875 478.74 652.168 477.366 653.077C475.993 653.976 474.426 654.426 472.665 654.426C471.339 654.426 470.255 654.204 469.412 653.759C468.579 653.313 467.925 652.793 467.452 652.196C466.978 651.599 466.614 651.069 466.358 650.605H466.102V662.182H461.855ZM466.017 643.091C466.017 644.625 466.24 645.97 466.685 647.125C467.13 648.28 467.774 649.185 468.616 649.838C469.459 650.482 470.491 650.804 471.713 650.804C472.982 650.804 474.043 650.468 474.895 649.795C475.747 649.114 476.391 648.19 476.827 647.026C477.272 645.861 477.494 644.549 477.494 643.091C477.494 641.652 477.277 640.359 476.841 639.213C476.415 638.067 475.771 637.163 474.909 636.5C474.057 635.837 472.991 635.506 471.713 635.506C470.482 635.506 469.44 635.823 468.588 636.457C467.745 637.092 467.106 637.977 466.67 639.114C466.235 640.25 466.017 641.576 466.017 643.091ZM490.79 624.909V654H486.543V624.909H490.79ZM502.853 654.483C501.47 654.483 500.22 654.227 499.103 653.716C497.986 653.195 497.1 652.442 496.447 651.457C495.803 650.473 495.481 649.265 495.481 647.835C495.481 646.604 495.718 645.591 496.191 644.795C496.665 644 497.304 643.37 498.109 642.906C498.914 642.442 499.813 642.092 500.808 641.855C501.802 641.618 502.815 641.438 503.847 641.315C505.154 641.164 506.215 641.041 507.029 640.946C507.844 640.842 508.435 640.676 508.805 640.449C509.174 640.222 509.359 639.852 509.359 639.341V639.241C509.359 638.001 509.008 637.04 508.308 636.358C507.616 635.676 506.584 635.335 505.211 635.335C503.781 635.335 502.654 635.652 501.83 636.287C501.016 636.912 500.452 637.608 500.14 638.375L496.148 637.466C496.622 636.14 497.313 635.07 498.222 634.256C499.141 633.432 500.197 632.835 501.39 632.466C502.583 632.087 503.838 631.898 505.154 631.898C506.025 631.898 506.949 632.002 507.924 632.21C508.909 632.409 509.827 632.778 510.68 633.318C511.541 633.858 512.247 634.63 512.796 635.634C513.345 636.628 513.62 637.92 513.62 639.511V654H509.472V651.017H509.302C509.027 651.566 508.615 652.106 508.066 652.636C507.517 653.167 506.811 653.607 505.95 653.957C505.088 654.308 504.056 654.483 502.853 654.483ZM503.776 651.074C504.951 651.074 505.954 650.842 506.788 650.378C507.63 649.914 508.27 649.308 508.705 648.56C509.15 647.802 509.373 646.992 509.373 646.131V643.318C509.221 643.47 508.928 643.612 508.492 643.744C508.066 643.867 507.578 643.976 507.029 644.071C506.48 644.156 505.945 644.237 505.424 644.312C504.903 644.379 504.468 644.436 504.117 644.483C503.293 644.587 502.54 644.762 501.859 645.009C501.186 645.255 500.647 645.61 500.239 646.074C499.842 646.528 499.643 647.134 499.643 647.892C499.643 648.943 500.031 649.739 500.808 650.278C501.584 650.809 502.574 651.074 503.776 651.074ZM523.524 641.045V654H519.277V632.182H523.354V635.733H523.624C524.125 634.578 524.911 633.65 525.982 632.949C527.061 632.248 528.42 631.898 530.058 631.898C531.545 631.898 532.847 632.21 533.964 632.835C535.082 633.451 535.948 634.369 536.564 635.591C537.179 636.812 537.487 638.323 537.487 640.122V654H533.24V640.634C533.24 639.052 532.828 637.816 532.004 636.926C531.18 636.027 530.049 635.577 528.609 635.577C527.625 635.577 526.749 635.79 525.982 636.216C525.224 636.642 524.623 637.267 524.178 638.091C523.742 638.905 523.524 639.89 523.524 641.045ZM563.954 632.182V635.591H552.036V632.182H563.954ZM555.232 626.955H559.479V647.594C559.479 648.418 559.603 649.038 559.849 649.455C560.095 649.862 560.412 650.141 560.8 650.293C561.198 650.435 561.629 650.506 562.093 650.506C562.434 650.506 562.732 650.482 562.988 650.435C563.244 650.387 563.442 650.349 563.585 650.321L564.352 653.83C564.105 653.924 563.755 654.019 563.3 654.114C562.846 654.218 562.278 654.275 561.596 654.284C560.478 654.303 559.437 654.104 558.471 653.688C557.505 653.271 556.724 652.627 556.127 651.756C555.531 650.884 555.232 649.791 555.232 648.474V626.955ZM573.368 641.045V654H569.121V624.909H573.311V635.733H573.581C574.092 634.559 574.874 633.626 575.925 632.935C576.976 632.243 578.349 631.898 580.044 631.898C581.54 631.898 582.847 632.205 583.964 632.821C585.091 633.437 585.963 634.355 586.578 635.577C587.203 636.789 587.516 638.304 587.516 640.122V654H583.268V640.634C583.268 639.033 582.857 637.793 582.033 636.912C581.209 636.022 580.063 635.577 578.595 635.577C577.591 635.577 576.692 635.79 575.896 636.216C575.11 636.642 574.49 637.267 574.036 638.091C573.59 638.905 573.368 639.89 573.368 641.045ZM602.587 654.44C600.437 654.44 598.586 653.981 597.033 653.062C595.489 652.134 594.296 650.832 593.453 649.156C592.62 647.471 592.203 645.496 592.203 643.233C592.203 640.998 592.62 639.028 593.453 637.324C594.296 635.619 595.47 634.289 596.976 633.332C598.491 632.376 600.262 631.898 602.288 631.898C603.519 631.898 604.713 632.101 605.868 632.509C607.023 632.916 608.06 633.555 608.979 634.426C609.897 635.297 610.622 636.429 611.152 637.821C611.682 639.204 611.947 640.884 611.947 642.864V644.369H594.604V641.188H607.786C607.786 640.07 607.558 639.08 607.104 638.219C606.649 637.348 606.01 636.661 605.186 636.159C604.372 635.657 603.415 635.406 602.317 635.406C601.124 635.406 600.082 635.7 599.192 636.287C598.311 636.865 597.629 637.622 597.146 638.56C596.673 639.488 596.436 640.496 596.436 641.585V644.071C596.436 645.529 596.692 646.77 597.203 647.793C597.724 648.815 598.448 649.597 599.376 650.136C600.304 650.667 601.389 650.932 602.629 650.932C603.434 650.932 604.168 650.818 604.831 650.591C605.494 650.354 606.067 650.004 606.55 649.54C607.033 649.076 607.402 648.503 607.658 647.821L611.678 648.545C611.356 649.729 610.778 650.766 609.945 651.656C609.121 652.537 608.084 653.223 606.834 653.716C605.593 654.199 604.178 654.44 602.587 654.44ZM616.66 654V632.182H620.907V654H616.66ZM618.805 628.815C618.066 628.815 617.432 628.569 616.901 628.077C616.38 627.575 616.12 626.978 616.12 626.287C616.12 625.586 616.38 624.99 616.901 624.497C617.432 623.995 618.066 623.744 618.805 623.744C619.543 623.744 620.173 623.995 620.694 624.497C621.224 624.99 621.489 625.586 621.489 626.287C621.489 626.978 621.224 627.575 620.694 628.077C620.173 628.569 619.543 628.815 618.805 628.815ZM626.621 654V632.182H630.726V635.648H630.953C631.351 634.473 632.052 633.55 633.055 632.878C634.069 632.196 635.214 631.855 636.493 631.855C636.758 631.855 637.071 631.865 637.43 631.884C637.8 631.902 638.089 631.926 638.297 631.955V636.017C638.126 635.97 637.823 635.918 637.388 635.861C636.952 635.795 636.517 635.761 636.081 635.761C635.077 635.761 634.182 635.974 633.396 636.401C632.62 636.817 632.004 637.4 631.55 638.148C631.095 638.886 630.868 639.729 630.868 640.676V654H626.621ZM658.908 654.483C657.525 654.483 656.275 654.227 655.158 653.716C654.04 653.195 653.155 652.442 652.501 651.457C651.857 650.473 651.536 649.265 651.536 647.835C651.536 646.604 651.772 645.591 652.246 644.795C652.719 644 653.358 643.37 654.163 642.906C654.968 642.442 655.868 642.092 656.862 641.855C657.857 641.618 658.87 641.438 659.902 641.315C661.209 641.164 662.269 641.041 663.084 640.946C663.898 640.842 664.49 640.676 664.859 640.449C665.229 640.222 665.413 639.852 665.413 639.341V639.241C665.413 638.001 665.063 637.04 664.362 636.358C663.671 635.676 662.639 635.335 661.266 635.335C659.836 635.335 658.709 635.652 657.885 636.287C657.071 636.912 656.507 637.608 656.195 638.375L652.203 637.466C652.677 636.14 653.368 635.07 654.277 634.256C655.196 633.432 656.251 632.835 657.445 632.466C658.638 632.087 659.893 631.898 661.209 631.898C662.08 631.898 663.003 632.002 663.979 632.21C664.964 632.409 665.882 632.778 666.734 633.318C667.596 633.858 668.302 634.63 668.851 635.634C669.4 636.628 669.675 637.92 669.675 639.511V654H665.527V651.017H665.357C665.082 651.566 664.67 652.106 664.121 652.636C663.571 653.167 662.866 653.607 662.004 653.957C661.143 654.308 660.11 654.483 658.908 654.483ZM659.831 651.074C661.005 651.074 662.009 650.842 662.842 650.378C663.685 649.914 664.324 649.308 664.76 648.56C665.205 647.802 665.428 646.992 665.428 646.131V643.318C665.276 643.47 664.982 643.612 664.547 643.744C664.121 643.867 663.633 643.976 663.084 644.071C662.535 644.156 662 644.237 661.479 644.312C660.958 644.379 660.522 644.436 660.172 644.483C659.348 644.587 658.595 644.762 657.913 645.009C657.241 645.255 656.701 645.61 656.294 646.074C655.896 646.528 655.697 647.134 655.697 647.892C655.697 648.943 656.086 649.739 656.862 650.278C657.639 650.809 658.628 651.074 659.831 651.074ZM675.332 654V632.182H679.437V635.648H679.664C680.062 634.473 680.763 633.55 681.766 632.878C682.78 632.196 683.925 631.855 685.204 631.855C685.469 631.855 685.781 631.865 686.141 631.884C686.511 631.902 686.799 631.926 687.008 631.955V636.017C686.837 635.97 686.534 635.918 686.099 635.861C685.663 635.795 685.228 635.761 684.792 635.761C683.788 635.761 682.893 635.974 682.107 636.401C681.331 636.817 680.715 637.4 680.261 638.148C679.806 638.886 679.579 639.729 679.579 640.676V654H675.332ZM690.683 654V632.182H694.788V635.648H695.016C695.413 634.473 696.114 633.55 697.118 632.878C698.131 632.196 699.277 631.855 700.555 631.855C700.821 631.855 701.133 631.865 701.493 631.884C701.862 631.902 702.151 631.926 702.359 631.955V636.017C702.189 635.97 701.886 635.918 701.45 635.861C701.015 635.795 700.579 635.761 700.143 635.761C699.14 635.761 698.245 635.974 697.459 636.401C696.682 636.817 696.067 637.4 695.612 638.148C695.158 638.886 694.93 639.729 694.93 640.676V654H690.683ZM706.035 654V632.182H710.282V654H706.035ZM708.18 628.815C707.441 628.815 706.807 628.569 706.276 628.077C705.755 627.575 705.495 626.978 705.495 626.287C705.495 625.586 705.755 624.99 706.276 624.497C706.807 623.995 707.441 623.744 708.18 623.744C708.918 623.744 709.548 623.995 710.069 624.497C710.599 624.99 710.864 625.586 710.864 626.287C710.864 626.978 710.599 627.575 710.069 628.077C709.548 628.569 708.918 628.815 708.18 628.815ZM734.661 632.182L726.749 654H722.203L714.277 632.182H718.837L724.362 648.972H724.589L730.101 632.182H734.661ZM744.376 654.483C742.994 654.483 741.744 654.227 740.626 653.716C739.509 653.195 738.624 652.442 737.97 651.457C737.326 650.473 737.004 649.265 737.004 647.835C737.004 646.604 737.241 645.591 737.714 644.795C738.188 644 738.827 643.37 739.632 642.906C740.437 642.442 741.337 642.092 742.331 641.855C743.325 641.618 744.339 641.438 745.371 641.315C746.678 641.164 747.738 641.041 748.553 640.946C749.367 640.842 749.959 640.676 750.328 640.449C750.697 640.222 750.882 639.852 750.882 639.341V639.241C750.882 638.001 750.532 637.04 749.831 636.358C749.14 635.676 748.107 635.335 746.734 635.335C745.304 635.335 744.178 635.652 743.354 636.287C742.539 636.912 741.976 637.608 741.663 638.375L737.672 637.466C738.145 636.14 738.837 635.07 739.746 634.256C740.664 633.432 741.72 632.835 742.913 632.466C744.107 632.087 745.361 631.898 746.678 631.898C747.549 631.898 748.472 632.002 749.447 632.21C750.432 632.409 751.351 632.778 752.203 633.318C753.065 633.858 753.77 634.63 754.32 635.634C754.869 636.628 755.143 637.92 755.143 639.511V654H750.996V651.017H750.825C750.551 651.566 750.139 652.106 749.589 652.636C749.04 653.167 748.335 653.607 747.473 653.957C746.611 654.308 745.579 654.483 744.376 654.483ZM745.3 651.074C746.474 651.074 747.478 650.842 748.311 650.378C749.154 649.914 749.793 649.308 750.229 648.56C750.674 647.802 750.896 646.992 750.896 646.131V643.318C750.745 643.47 750.451 643.612 750.016 643.744C749.589 643.867 749.102 643.976 748.553 644.071C748.003 644.156 747.468 644.237 746.947 644.312C746.427 644.379 745.991 644.436 745.641 644.483C744.817 644.587 744.064 644.762 743.382 645.009C742.71 645.255 742.17 645.61 741.763 646.074C741.365 646.528 741.166 647.134 741.166 647.892C741.166 648.943 741.554 649.739 742.331 650.278C743.107 650.809 744.097 651.074 745.3 651.074ZM765.048 624.909V654H760.8V624.909H765.048ZM790.538 654.44C788.492 654.44 786.707 653.972 785.183 653.034C783.658 652.097 782.474 650.785 781.631 649.099C780.789 647.414 780.367 645.444 780.367 643.19C780.367 640.927 780.789 638.948 781.631 637.253C782.474 635.558 783.658 634.241 785.183 633.304C786.707 632.366 788.492 631.898 790.538 631.898C792.583 631.898 794.368 632.366 795.893 633.304C797.417 634.241 798.601 635.558 799.444 637.253C800.287 638.948 800.708 640.927 800.708 643.19C800.708 645.444 800.287 647.414 799.444 649.099C798.601 650.785 797.417 652.097 795.893 653.034C794.368 653.972 792.583 654.44 790.538 654.44ZM790.552 650.875C791.878 650.875 792.976 650.525 793.847 649.824C794.719 649.123 795.362 648.19 795.779 647.026C796.205 645.861 796.418 644.578 796.418 643.176C796.418 641.784 796.205 640.506 795.779 639.341C795.362 638.167 794.719 637.224 793.847 636.514C792.976 635.804 791.878 635.449 790.552 635.449C789.217 635.449 788.109 635.804 787.228 636.514C786.357 637.224 785.708 638.167 785.282 639.341C784.865 640.506 784.657 641.784 784.657 643.176C784.657 644.578 784.865 645.861 785.282 647.026C785.708 648.19 786.357 649.123 787.228 649.824C788.109 650.525 789.217 650.875 790.552 650.875ZM805.449 654V632.182H809.554V635.648H809.781C810.179 634.473 810.88 633.55 811.884 632.878C812.897 632.196 814.043 631.855 815.321 631.855C815.586 631.855 815.899 631.865 816.259 631.884C816.628 631.902 816.917 631.926 817.125 631.955V636.017C816.955 635.97 816.652 635.918 816.216 635.861C815.78 635.795 815.345 635.761 814.909 635.761C813.905 635.761 813.01 635.974 812.224 636.401C811.448 636.817 810.832 637.4 810.378 638.148C809.923 638.886 809.696 639.729 809.696 640.676V654H805.449ZM836.116 654L829.696 632.182H834.085L838.361 648.205H838.574L842.864 632.182H847.253L851.514 648.134H851.727L855.974 632.182H860.364L853.957 654H849.625L845.193 638.247H844.866L840.435 654H836.116ZM870.744 654.483C869.361 654.483 868.111 654.227 866.994 653.716C865.876 653.195 864.991 652.442 864.337 651.457C863.693 650.473 863.371 649.265 863.371 647.835C863.371 646.604 863.608 645.591 864.082 644.795C864.555 644 865.194 643.37 865.999 642.906C866.804 642.442 867.704 642.092 868.698 641.855C869.692 641.618 870.706 641.438 871.738 641.315C873.045 641.164 874.105 641.041 874.92 640.946C875.734 640.842 876.326 640.676 876.695 640.449C877.065 640.222 877.249 639.852 877.249 639.341V639.241C877.249 638.001 876.899 637.04 876.198 636.358C875.507 635.676 874.475 635.335 873.102 635.335C871.672 635.335 870.545 635.652 869.721 636.287C868.906 636.912 868.343 637.608 868.031 638.375L864.039 637.466C864.513 636.14 865.204 635.07 866.113 634.256C867.031 633.432 868.087 632.835 869.281 632.466C870.474 632.087 871.728 631.898 873.045 631.898C873.916 631.898 874.839 632.002 875.815 632.21C876.799 632.409 877.718 632.778 878.57 633.318C879.432 633.858 880.138 634.63 880.687 635.634C881.236 636.628 881.511 637.92 881.511 639.511V654H877.363V651.017H877.192C876.918 651.566 876.506 652.106 875.957 652.636C875.407 653.167 874.702 653.607 873.84 653.957C872.978 654.308 871.946 654.483 870.744 654.483ZM871.667 651.074C872.841 651.074 873.845 650.842 874.678 650.378C875.521 649.914 876.16 649.308 876.596 648.56C877.041 647.802 877.263 646.992 877.263 646.131V643.318C877.112 643.47 876.818 643.612 876.383 643.744C875.957 643.867 875.469 643.976 874.92 644.071C874.371 644.156 873.835 644.237 873.315 644.312C872.794 644.379 872.358 644.436 872.008 644.483C871.184 644.587 870.431 644.762 869.749 645.009C869.077 645.255 868.537 645.61 868.13 646.074C867.732 646.528 867.533 647.134 867.533 647.892C867.533 648.943 867.922 649.739 868.698 650.278C869.475 650.809 870.464 651.074 871.667 651.074ZM887.168 654V632.182H891.415V654H887.168ZM889.312 628.815C888.574 628.815 887.939 628.569 887.409 628.077C886.888 627.575 886.628 626.978 886.628 626.287C886.628 625.586 886.888 624.99 887.409 624.497C887.939 623.995 888.574 623.744 889.312 623.744C890.051 623.744 890.681 623.995 891.202 624.497C891.732 624.99 891.997 625.586 891.997 626.287C891.997 626.978 891.732 627.575 891.202 628.077C890.681 628.569 890.051 628.815 889.312 628.815ZM907.313 632.182V635.591H895.396V632.182H907.313ZM898.592 626.955H902.839V647.594C902.839 648.418 902.962 649.038 903.208 649.455C903.454 649.862 903.772 650.141 904.16 650.293C904.558 650.435 904.988 650.506 905.452 650.506C905.793 650.506 906.092 650.482 906.347 650.435C906.603 650.387 906.802 650.349 906.944 650.321L907.711 653.83C907.465 653.924 907.114 654.019 906.66 654.114C906.205 654.218 905.637 654.275 904.955 654.284C903.838 654.303 902.796 654.104 901.83 653.688C900.864 653.271 900.083 652.627 899.487 651.756C898.89 650.884 898.592 649.791 898.592 648.474V626.955ZM932.782 632.182V635.591H920.864V632.182H932.782ZM924.06 626.955H928.308V647.594C928.308 648.418 928.431 649.038 928.677 649.455C928.923 649.862 929.24 650.141 929.629 650.293C930.026 650.435 930.457 650.506 930.921 650.506C931.262 650.506 931.56 650.482 931.816 650.435C932.072 650.387 932.271 650.349 932.413 650.321L933.18 653.83C932.933 653.924 932.583 654.019 932.129 654.114C931.674 654.218 931.106 654.275 930.424 654.284C929.307 654.303 928.265 654.104 927.299 653.688C926.333 653.271 925.552 652.627 924.955 651.756C924.359 650.884 924.06 649.791 924.06 648.474V626.955ZM937.48 654V632.182H941.727V654H937.48ZM939.625 628.815C938.886 628.815 938.252 628.569 937.722 628.077C937.201 627.575 936.94 626.978 936.94 626.287C936.94 625.586 937.201 624.99 937.722 624.497C938.252 623.995 938.886 623.744 939.625 623.744C940.364 623.744 940.993 623.995 941.514 624.497C942.045 624.99 942.31 625.586 942.31 626.287C942.31 626.978 942.045 627.575 941.514 628.077C940.993 628.569 940.364 628.815 939.625 628.815ZM947.441 654V632.182H951.518V635.733H951.788C952.242 634.53 952.986 633.593 954.018 632.92C955.05 632.239 956.286 631.898 957.725 631.898C959.183 631.898 960.405 632.239 961.39 632.92C962.384 633.602 963.118 634.54 963.592 635.733H963.819C964.34 634.568 965.168 633.64 966.305 632.949C967.441 632.248 968.795 631.898 970.367 631.898C972.346 631.898 973.961 632.518 975.211 633.759C976.47 634.999 977.1 636.869 977.1 639.369V654H972.853V639.767C972.853 638.29 972.451 637.22 971.646 636.557C970.841 635.894 969.879 635.562 968.762 635.562C967.379 635.562 966.305 635.989 965.538 636.841C964.771 637.684 964.387 638.768 964.387 640.094V654H960.154V639.497C960.154 638.313 959.785 637.362 959.046 636.642C958.308 635.922 957.346 635.562 956.163 635.562C955.358 635.562 954.614 635.776 953.933 636.202C953.26 636.618 952.716 637.201 952.299 637.949C951.892 638.697 951.688 639.563 951.688 640.548V654H947.441ZM992.196 654.44C990.046 654.44 988.195 653.981 986.642 653.062C985.098 652.134 983.905 650.832 983.062 649.156C982.229 647.471 981.812 645.496 981.812 643.233C981.812 640.998 982.229 639.028 983.062 637.324C983.905 635.619 985.08 634.289 986.585 633.332C988.1 632.376 989.871 631.898 991.898 631.898C993.129 631.898 994.322 632.101 995.477 632.509C996.633 632.916 997.67 633.555 998.588 634.426C999.507 635.297 1000.23 636.429 1000.76 637.821C1001.29 639.204 1001.56 640.884 1001.56 642.864V644.369H984.213V641.188H997.395C997.395 640.07 997.168 639.08 996.713 638.219C996.259 637.348 995.619 636.661 994.795 636.159C993.981 635.657 993.025 635.406 991.926 635.406C990.733 635.406 989.691 635.7 988.801 636.287C987.92 636.865 987.239 637.622 986.756 638.56C986.282 639.488 986.045 640.496 986.045 641.585V644.071C986.045 645.529 986.301 646.77 986.812 647.793C987.333 648.815 988.058 649.597 988.986 650.136C989.914 650.667 990.998 650.932 992.239 650.932C993.044 650.932 993.777 650.818 994.44 650.591C995.103 650.354 995.676 650.004 996.159 649.54C996.642 649.076 997.011 648.503 997.267 647.821L1001.29 648.545C1000.96 649.729 1000.39 650.766 999.554 651.656C998.73 652.537 997.693 653.223 996.443 653.716C995.203 654.199 993.787 654.44 992.196 654.44ZM468.205 702.483C466.822 702.483 465.572 702.227 464.455 701.716C463.337 701.195 462.452 700.442 461.798 699.457C461.154 698.473 460.832 697.265 460.832 695.835C460.832 694.604 461.069 693.591 461.543 692.795C462.016 692 462.655 691.37 463.46 690.906C464.265 690.442 465.165 690.092 466.159 689.855C467.153 689.618 468.167 689.438 469.199 689.315C470.506 689.164 471.566 689.041 472.381 688.946C473.195 688.842 473.787 688.676 474.156 688.449C474.526 688.222 474.71 687.852 474.71 687.341V687.241C474.71 686.001 474.36 685.04 473.659 684.358C472.968 683.676 471.936 683.335 470.562 683.335C469.133 683.335 468.006 683.652 467.182 684.287C466.367 684.912 465.804 685.608 465.491 686.375L461.5 685.466C461.973 684.14 462.665 683.07 463.574 682.256C464.492 681.432 465.548 680.835 466.741 680.466C467.935 680.087 469.189 679.898 470.506 679.898C471.377 679.898 472.3 680.002 473.276 680.21C474.26 680.409 475.179 680.778 476.031 681.318C476.893 681.858 477.598 682.63 478.148 683.634C478.697 684.628 478.972 685.92 478.972 687.511V702H474.824V699.017H474.653C474.379 699.566 473.967 700.106 473.418 700.636C472.868 701.167 472.163 701.607 471.301 701.957C470.439 702.308 469.407 702.483 468.205 702.483ZM469.128 699.074C470.302 699.074 471.306 698.842 472.139 698.378C472.982 697.914 473.621 697.308 474.057 696.56C474.502 695.802 474.724 694.992 474.724 694.131V691.318C474.573 691.47 474.279 691.612 473.844 691.744C473.418 691.867 472.93 691.976 472.381 692.071C471.831 692.156 471.296 692.237 470.776 692.312C470.255 692.379 469.819 692.436 469.469 692.483C468.645 692.587 467.892 692.762 467.21 693.009C466.538 693.255 465.998 693.61 465.591 694.074C465.193 694.528 464.994 695.134 464.994 695.892C464.994 696.943 465.383 697.739 466.159 698.278C466.936 698.809 467.925 699.074 469.128 699.074ZM493.819 702.44C491.707 702.44 489.889 701.962 488.364 701.006C486.849 700.04 485.684 698.709 484.87 697.014C484.056 695.319 483.648 693.378 483.648 691.19C483.648 688.974 484.065 687.019 484.898 685.324C485.732 683.619 486.906 682.289 488.421 681.332C489.936 680.376 491.721 679.898 493.776 679.898C495.433 679.898 496.911 680.205 498.208 680.821C499.505 681.427 500.552 682.279 501.347 683.378C502.152 684.476 502.63 685.759 502.782 687.227H498.648C498.421 686.205 497.9 685.324 497.086 684.585C496.281 683.847 495.201 683.477 493.847 683.477C492.664 683.477 491.627 683.79 490.737 684.415C489.856 685.03 489.169 685.911 488.677 687.057C488.184 688.193 487.938 689.538 487.938 691.091C487.938 692.682 488.18 694.055 488.663 695.21C489.146 696.366 489.827 697.26 490.708 697.895C491.598 698.529 492.645 698.847 493.847 698.847C494.652 698.847 495.381 698.7 496.035 698.406C496.698 698.103 497.252 697.672 497.697 697.114C498.151 696.555 498.469 695.883 498.648 695.097H502.782C502.63 696.508 502.171 697.767 501.404 698.875C500.637 699.983 499.61 700.854 498.322 701.489C497.043 702.123 495.542 702.44 493.819 702.44ZM516.514 702.44C514.402 702.44 512.584 701.962 511.06 701.006C509.545 700.04 508.38 698.709 507.565 697.014C506.751 695.319 506.344 693.378 506.344 691.19C506.344 688.974 506.76 687.019 507.594 685.324C508.427 683.619 509.601 682.289 511.116 681.332C512.632 680.376 514.417 679.898 516.472 679.898C518.129 679.898 519.606 680.205 520.903 680.821C522.201 681.427 523.247 682.279 524.043 683.378C524.848 684.476 525.326 685.759 525.477 687.227H521.344C521.116 686.205 520.596 685.324 519.781 684.585C518.976 683.847 517.897 683.477 516.543 683.477C515.359 683.477 514.322 683.79 513.432 684.415C512.551 685.03 511.865 685.911 511.372 687.057C510.88 688.193 510.634 689.538 510.634 691.091C510.634 692.682 510.875 694.055 511.358 695.21C511.841 696.366 512.523 697.26 513.403 697.895C514.294 698.529 515.34 698.847 516.543 698.847C517.348 698.847 518.077 698.7 518.73 698.406C519.393 698.103 519.947 697.672 520.392 697.114C520.847 696.555 521.164 695.883 521.344 695.097H525.477C525.326 696.508 524.866 697.767 524.099 698.875C523.332 699.983 522.305 700.854 521.017 701.489C519.739 702.123 518.238 702.44 516.514 702.44ZM543.84 692.952V680.182H548.102V702H543.925V698.222H543.698C543.196 699.386 542.391 700.357 541.283 701.134C540.185 701.901 538.817 702.284 537.178 702.284C535.777 702.284 534.536 701.976 533.457 701.361C532.387 700.736 531.544 699.812 530.928 698.591C530.322 697.369 530.019 695.859 530.019 694.06V680.182H534.266V693.548C534.266 695.035 534.678 696.219 535.502 697.099C536.326 697.98 537.396 698.42 538.712 698.42C539.508 698.42 540.299 698.222 541.085 697.824C541.88 697.426 542.538 696.825 543.059 696.02C543.589 695.215 543.85 694.192 543.84 692.952ZM553.808 702V680.182H557.913V683.648H558.141C558.538 682.473 559.239 681.55 560.243 680.878C561.256 680.196 562.402 679.855 563.68 679.855C563.946 679.855 564.258 679.865 564.618 679.884C564.987 679.902 565.276 679.926 565.484 679.955V684.017C565.314 683.97 565.011 683.918 564.575 683.861C564.14 683.795 563.704 683.761 563.268 683.761C562.265 683.761 561.37 683.974 560.584 684.401C559.807 684.817 559.192 685.4 558.737 686.148C558.283 686.886 558.055 687.729 558.055 688.676V702H553.808ZM575.314 702.483C573.931 702.483 572.681 702.227 571.564 701.716C570.446 701.195 569.561 700.442 568.908 699.457C568.264 698.473 567.942 697.265 567.942 695.835C567.942 694.604 568.179 693.591 568.652 692.795C569.125 692 569.765 691.37 570.57 690.906C571.375 690.442 572.274 690.092 573.268 689.855C574.263 689.618 575.276 689.438 576.308 689.315C577.615 689.164 578.676 689.041 579.49 688.946C580.304 688.842 580.896 688.676 581.266 688.449C581.635 688.222 581.82 687.852 581.82 687.341V687.241C581.82 686.001 581.469 685.04 580.768 684.358C580.077 683.676 579.045 683.335 577.672 683.335C576.242 683.335 575.115 683.652 574.291 684.287C573.477 684.912 572.913 685.608 572.601 686.375L568.609 685.466C569.083 684.14 569.774 683.07 570.683 682.256C571.602 681.432 572.658 680.835 573.851 680.466C575.044 680.087 576.299 679.898 577.615 679.898C578.486 679.898 579.41 680.002 580.385 680.21C581.37 680.409 582.288 680.778 583.141 681.318C584.002 681.858 584.708 682.63 585.257 683.634C585.806 684.628 586.081 685.92 586.081 687.511V702H581.933V699.017H581.763C581.488 699.566 581.076 700.106 580.527 700.636C579.978 701.167 579.272 701.607 578.411 701.957C577.549 702.308 576.517 702.483 575.314 702.483ZM576.237 699.074C577.411 699.074 578.415 698.842 579.249 698.378C580.091 697.914 580.731 697.308 581.166 696.56C581.611 695.802 581.834 694.992 581.834 694.131V691.318C581.682 691.47 581.389 691.612 580.953 691.744C580.527 691.867 580.039 691.976 579.49 692.071C578.941 692.156 578.406 692.237 577.885 692.312C577.364 692.379 576.929 692.436 576.578 692.483C575.754 692.587 575.001 692.762 574.32 693.009C573.647 693.255 573.107 693.61 572.7 694.074C572.303 694.528 572.104 695.134 572.104 695.892C572.104 696.943 572.492 697.739 573.268 698.278C574.045 698.809 575.035 699.074 576.237 699.074ZM601.923 680.182V683.591H590.005V680.182H601.923ZM593.201 674.955H597.448V695.594C597.448 696.418 597.571 697.038 597.817 697.455C598.064 697.862 598.381 698.141 598.769 698.293C599.167 698.435 599.598 698.506 600.062 698.506C600.403 698.506 600.701 698.482 600.957 698.435C601.212 698.387 601.411 698.349 601.553 698.321L602.32 701.83C602.074 701.924 601.724 702.019 601.269 702.114C600.815 702.218 600.246 702.275 599.565 702.284C598.447 702.303 597.406 702.104 596.44 701.688C595.474 701.271 594.692 700.627 594.096 699.756C593.499 698.884 593.201 697.791 593.201 696.474V674.955ZM615.79 702.44C613.64 702.44 611.789 701.981 610.236 701.062C608.692 700.134 607.499 698.832 606.656 697.156C605.823 695.471 605.406 693.496 605.406 691.233C605.406 688.998 605.823 687.028 606.656 685.324C607.499 683.619 608.673 682.289 610.179 681.332C611.694 680.376 613.465 679.898 615.491 679.898C616.723 679.898 617.916 680.101 619.071 680.509C620.226 680.916 621.263 681.555 622.182 682.426C623.1 683.297 623.825 684.429 624.355 685.821C624.885 687.204 625.151 688.884 625.151 690.864V692.369H607.807V689.188H620.989C620.989 688.07 620.761 687.08 620.307 686.219C619.852 685.348 619.213 684.661 618.389 684.159C617.575 683.657 616.618 683.406 615.52 683.406C614.327 683.406 613.285 683.7 612.395 684.287C611.514 684.865 610.832 685.622 610.349 686.56C609.876 687.488 609.639 688.496 609.639 689.585V692.071C609.639 693.529 609.895 694.77 610.406 695.793C610.927 696.815 611.652 697.597 612.58 698.136C613.508 698.667 614.592 698.932 615.832 698.932C616.637 698.932 617.371 698.818 618.034 698.591C618.697 698.354 619.27 698.004 619.753 697.54C620.236 697.076 620.605 696.503 620.861 695.821L624.881 696.545C624.559 697.729 623.981 698.766 623.148 699.656C622.324 700.537 621.287 701.223 620.037 701.716C618.796 702.199 617.381 702.44 615.79 702.44ZM634.11 672.909V702H629.863V672.909H634.11ZM642.509 710.182C641.874 710.182 641.296 710.13 640.776 710.026C640.255 709.931 639.866 709.827 639.611 709.713L640.634 706.233C641.41 706.441 642.101 706.531 642.707 706.503C643.313 706.474 643.848 706.247 644.312 705.821C644.786 705.395 645.203 704.699 645.562 703.733L646.088 702.284L638.105 680.182H642.651L648.176 697.114H648.403L653.929 680.182H658.489L649.497 704.912C649.08 706.048 648.55 707.009 647.906 707.795C647.262 708.591 646.495 709.188 645.605 709.585C644.715 709.983 643.683 710.182 642.509 710.182ZM663.911 702.27C663.135 702.27 662.467 701.995 661.908 701.446C661.35 700.887 661.07 700.215 661.07 699.429C661.07 698.652 661.35 697.99 661.908 697.44C662.467 696.882 663.135 696.602 663.911 696.602C664.688 696.602 665.355 696.882 665.914 697.44C666.473 697.99 666.752 698.652 666.752 699.429C666.752 699.95 666.62 700.428 666.354 700.864C666.099 701.29 665.758 701.631 665.332 701.886C664.906 702.142 664.432 702.27 663.911 702.27Z" fill="black"/>
</svg>
