<svg width="1518" height="861" viewBox="0 0 1518 861" fill="none" xmlns="http://www.w3.org/2000/svg">
<rect width="1518" height="861" fill="#F6F7FF"/>
<path d="M474.844 148.005C477.959 145.512 483.328 145.743 487.11 145.112C507.405 141.728 528.103 139.075 548.637 137.63C562.038 136.688 575.598 137.231 589.024 137.231C605.971 137.231 622.34 134.745 639.183 133.64C696.636 129.871 753.994 126.175 811.399 121.07C857.954 116.93 904.732 115.974 951.307 112.491C995.089 109.216 1022.65 121.906 1039.86 163.368C1049.53 186.679 1055.29 210.428 1057.81 235.594C1060.52 262.694 1066.07 289.488 1067.08 316.798C1067.95 340.205 1069.19 363.355 1068.98 386.829C1068.75 411.413 1065.39 435.629 1065.39 460.252C1065.39 482 1066.47 523.237 1046.44 537.666C1025.65 552.643 998.37 553.806 974.043 559.214C929.612 569.091 884.025 579.086 838.523 582.458C730.414 590.469 619.827 588.383 512.538 572.183C492.707 569.188 471.607 566.52 454.202 555.523C439.829 546.441 435.789 531.431 431.366 516.118C424.167 491.187 420.807 464.306 416.408 438.704C411.955 412.783 404.841 387.131 404.841 360.692C404.841 336.749 403.368 312.926 403.046 289.065C402.78 269.402 403.712 250.072 404.741 230.506C405.675 212.747 402.579 191.858 409.827 174.94C418.481 154.739 442.521 155.881 460.485 151.996C476.201 148.596 493.273 150.13 508.948 146.209" stroke="black" stroke-width="3" stroke-linecap="square"/>
<path d="M414 424.625C422.93 416.684 430.84 407.779 439.311 399.306C451.871 386.742 459.279 370.077 471.399 357.241C478.303 349.929 484.371 339.515 492.923 334.015C507.034 324.941 516.609 305.056 533.182 299.028C542.186 295.752 545.917 286.143 556.5 284.275C573.979 281.19 590.594 284.674 607.82 284.674C613.519 284.674 620.618 285.193 626.056 286.867C635.797 289.865 645.37 288.976 655.353 290.455C670.786 292.742 688.309 293.223 703.185 297.632C725.449 304.231 747.874 302.478 755.202 328.134C759.406 342.852 755.196 359.979 753.11 374.585C751.152 388.293 747.1 402.102 745.736 415.753C743.918 433.937 735.537 452.014 731.884 469.879C728.485 486.505 728.785 504.157 725.208 520.617C723.348 529.172 722.959 545.632 717.535 552.415C715.308 555.198 718.196 560.11 715.741 563.18C714.706 564.474 715.342 573.607 715.342 571.753" stroke="black" stroke-width="3" stroke-linecap="square"/>
<path d="M457.411 405.567C457.411 399.713 466.899 393.465 469.965 389.016C477.119 378.634 484.325 369.659 493.278 360.698C506.156 347.811 520.09 335.66 532.732 323.008C538.543 317.192 550.044 319.419 557.44 319.419C574.698 319.419 594.293 320.392 611.241 323.407C630.183 326.777 649.262 326.672 668.03 330.087C674.216 331.213 684.016 329.747 689.65 332.879C694.852 335.772 701.95 332.294 707.484 333.876C716.04 336.323 730 339.431 730 351.724C730 369.256 728.343 390.316 723.225 406.963C719.517 419.024 713.86 435.185 713.86 447.744C713.86 451.98 712.621 463 707.583 463C696.946 463 685.119 460.03 674.207 459.51C647.246 458.225 617.184 452.295 591.912 442.46C571.972 434.699 549.133 430.986 528.348 427.204C514.92 424.761 498.611 423.799 486.105 418.53C475.92 414.238 464.165 420.747 456.016 410.553C455.195 409.526 485.572 385.511 487.898 381.438C490.961 376.074 498.943 372.663 502.245 366.88C504.765 362.466 510.506 355.769 514.699 352.622C522.288 346.925 532.048 335.146 536.318 326.598" stroke="black" stroke-width="3" stroke-linecap="square"/>
<path d="M509 387C512.915 387 515.581 389.199 519.167 390.5C526.117 393.023 534.052 392.623 541.294 394.389C550.116 396.54 560.973 401 570 401" stroke="black" stroke-width="3" stroke-linecap="square"/>
<path d="M511 401C518.212 401 524.289 403.719 531.5 404.667C542.926 406.168 554.358 407.664 565 412" stroke="black" stroke-width="3" stroke-linecap="square"/>
<path d="M660 349.461C660.459 353.325 668.233 355.008 667.995 350.487C667.518 341.459 657.052 352.526 661.755 355" stroke="black" stroke-width="3" stroke-linecap="square"/>
<path d="M683.59 356.556C699.937 356.556 679.347 354.61 683.59 358" stroke="black" stroke-width="3" stroke-linecap="square"/>
<path d="M694 364.176C698.051 364.176 703 364.778 703 359.109C703 352.981 695.8 361.734 695.8 366" stroke="black" stroke-width="3" stroke-linecap="square"/>
<path d="M434 471.301C434.791 464.929 445.493 456.861 449.149 452.127C455.162 444.339 454.11 437.363 464.895 440.984C479.056 445.738 492.967 451.528 506.554 457.748C513.351 460.86 526.606 459.913 532.267 464.474C537.432 468.636 546.118 463.177 543.529 472.304C540.674 482.37 540.138 493.28 536.652 503.424C531.551 518.268 526.693 536.341 518.314 549" stroke="black" stroke-width="3" stroke-linecap="square"/>
<path d="M574 475C572.7 486.865 563.203 501.658 558.921 512.826C555.235 522.436 552.175 532.341 549 542" stroke="black" stroke-width="3" stroke-linecap="square"/>
<path d="M577 475C592.49 475 611.193 485.777 627.096 489.031C632.552 490.147 659.843 491.283 661.662 497.649C663.295 503.367 658.576 508.359 656.753 513.283C653.867 521.078 650.525 529.155 649.038 537.336C647.345 546.65 642.298 559.037 638.317 567" stroke="black" stroke-width="3" stroke-linecap="square"/>
<path d="M680 500C680 517.465 670.684 535.692 665 552" stroke="black" stroke-width="3" stroke-linecap="square"/>
<path d="M682 506C694.098 506 705.706 513 717 513" stroke="black" stroke-width="3" stroke-linecap="square"/>
<path d="M405 379.836C416.471 381.108 422.653 374.826 431.163 366.336C438.226 359.291 444.601 351.207 449.207 342.937C453.95 334.419 456.77 330.26 466.348 326.237C474.228 322.928 483.709 326.617 488 333.037" stroke="black" stroke-width="3" stroke-linecap="square"/>
<path d="M750 412C756.821 412 764 416.529 764 424.5C764 434.796 750.859 437 743 437" stroke="black" stroke-width="3" stroke-linecap="square"/>
<path d="M759.009 434C759.252 435.885 761.111 436.549 762.243 437.922C765.092 441.377 759.119 447.705 757.19 449.784C751.926 455.459 746.521 461.568 739 464" stroke="black" stroke-width="3" stroke-linecap="square"/>
<path d="M751.5 453.828C751.906 451.078 757 455.861 757 458.265C757 463.723 753.901 466.356 751.907 471.182C749.434 477.168 741.96 484 735 484" stroke="black" stroke-width="3" stroke-linecap="square"/>
<path d="M825 191C830.312 195.739 838.511 197.12 844.766 200.018C861.993 207.999 879.079 214.836 897.773 218.955C930.489 226.164 962.633 245.055 993.507 257.732C1007.64 263.537 1020.46 271.383 1034.34 277.571C1040.39 280.274 1051.92 285.816 1055 292" stroke="black" stroke-width="3" stroke-linecap="square"/>
<path d="M814 208C819.156 208.57 826.638 214.175 830.385 217.042C843.463 227.046 859.038 232.681 874.246 238.404C900.127 248.143 927.688 256.217 954.674 262.051C962.874 263.824 971.615 268.559 979.452 271.59C987.49 274.698 995.144 277.977 1002.73 282.221C1013.98 288.514 1026.35 293.936 1037 301" stroke="black" stroke-width="3" stroke-linecap="square"/>
<path d="M913 256C913 274.014 911.885 292.291 911.2 309.968C910.862 318.683 914.309 327.429 903.1 327.429C898.662 327.429 886 321.464 886 331" stroke="black" stroke-width="3" stroke-linecap="square"/>
<path d="M913 325.74C926.132 325.74 935 320.284 935 339" stroke="black" stroke-width="3" stroke-linecap="square"/>
<path d="M995.876 281C1000.62 281.591 1001.3 332.703 1001.3 340.561C1001.3 343.935 1003.74 345.976 999.495 345.976C996.479 345.976 993.463 345.976 990.448 345.976C980.514 345.976 985.019 348.266 985.019 355" stroke="black" stroke-width="3" stroke-linecap="square"/>
<path d="M1003 346C1012.93 346 1014 352.714 1014 362" stroke="black" stroke-width="3" stroke-linecap="square"/>
<path d="M913.218 513C922.562 513 921.416 529.201 920.176 535.222C918.232 544.66 913.168 553.077 908 561" stroke="black" stroke-width="3" stroke-linecap="square"/>
<path d="M938.579 516C937.067 528.856 930.453 544.139 947 550" stroke="black" stroke-width="3" stroke-linecap="square"/>
<path d="M861.002 513C902.473 513 941.602 509.436 979.724 492.207C1010.34 478.369 956.253 469.804 945.617 469.606C916.945 469.073 889.588 466.764 862.002 476.838C857.14 478.614 852 487.357 852 492.307C852 501.282 862.948 503.996 870.003 505.768" stroke="black" stroke-width="3" stroke-linecap="square"/>
<path d="M1015.54 498.828C1012.91 495.904 1020.8 501.46 1020.96 504.11C1021.24 508.73 1019.94 524.857 1015.54 527" stroke="black" stroke-width="3" stroke-linecap="square"/>
<path d="M1033.56 497C1028.48 497.659 1031.66 519.23 1037 522" stroke="black" stroke-width="3" stroke-linecap="square"/>
<path d="M1001 496.908C1022.21 499.295 1043.3 498.632 1062 486" stroke="black" stroke-width="3" stroke-linecap="square"/>
<path d="M1001 465.858C1001.97 457.861 1064 458.545 1064 477" stroke="black" stroke-width="3" stroke-linecap="square"/>
<path d="M823.818 437.802C829.185 437.802 840.143 442.833 841.607 432.273C842.891 423.012 841.515 412 830.079 412C817.986 412 801.051 437.802 818.451 437.802" stroke="black" stroke-width="3" stroke-linecap="square"/>
<path d="M825 425C825.279 426.956 825.936 425.532 827 425" stroke="black" stroke-width="3" stroke-linecap="square"/>
<path d="M831 425L832 423" stroke="black" stroke-width="3" stroke-linecap="square"/>
<path d="M818 437C806.226 437 809.385 458.075 809.385 466" stroke="black" stroke-width="3" stroke-linecap="square"/>
<path d="M823 437C823.427 440.283 828.681 442.5 831.7 442.5C839.531 442.5 836.369 453.504 836.369 459" stroke="black" stroke-width="3" stroke-linecap="square"/>
<path d="M838 455.563C838.535 459.211 846.971 454.865 849 454" stroke="black" stroke-width="3" stroke-linecap="square"/>
<path d="M832 463C832.607 458.04 848.815 452.324 852 450" stroke="black" stroke-width="3" stroke-linecap="square"/>
<path d="M852 444.703C853.128 453.414 870.624 446.403 874.869 445.086C875.891 444.769 887 442.419 887 441.248C887 439.921 874.245 444.332 873.477 444.703" stroke="black" stroke-width="3" stroke-linecap="square"/>
<path d="M865 445C863.241 444.787 859 429.362 859 437.238" stroke="black" stroke-width="3" stroke-linecap="square"/>
<path d="M868 427V443" stroke="black" stroke-width="3" stroke-linecap="square"/>
<path d="M875 439C875 434.672 877 431.335 877 427" stroke="black" stroke-width="3" stroke-linecap="square"/>
<path d="M818 477C826.665 477.886 827.83 485.302 823.704 491" stroke="black" stroke-width="3" stroke-linecap="square"/>
<path d="M845 464C830.513 464 832.047 513.239 832.047 522" stroke="black" stroke-width="3" stroke-linecap="square"/>
<path d="M403 295.603C411.993 294.598 432.435 279.702 435.581 270.913C439.059 261.194 438.466 250.663 442.052 240.498C448.163 223.175 457.442 208.521 470.393 195.495C507.252 158.42 550.709 134.173 603.616 130.402C636.563 128.053 683.912 135.749 708.276 160.255C765.872 218.187 625.558 263.724 593.797 273.382C555.797 284.937 515.124 307.724 474.186 307.724C460.184 307.724 443.494 314.003 431.117 305.704" stroke="black" stroke-width="3" stroke-linecap="square"/>
<path d="M465 229C465 239.361 479.995 265.966 485 245.42" stroke="black" stroke-width="3" stroke-linecap="square"/>
<path d="M462.711 242.948C457.568 243.518 465.337 239.267 468.752 234.915C472.706 229.877 471.129 210.019 472.891 216.17C473.641 218.788 479.3 237.345 481.953 236.589C486.123 235.401 483.24 228.821 486.876 227.328C489.3 226.332 493.088 234.385 495.714 229.671C496.461 228.331 493.243 219.173 496.945 222.865C500.215 226.127 499.596 228.89 505 228.89" stroke="black" stroke-width="3" stroke-linecap="square"/>
<path d="M495 209H493" stroke="black" stroke-width="3" stroke-linecap="square"/>
<path d="M511.293 205.159C511.074 203.672 501.744 213.088 511.293 213.088C512.817 213.088 518.82 211.048 519.49 211.547C521.959 213.383 514.732 220.984 513.343 223" stroke="black" stroke-width="3" stroke-linecap="square"/>
<path d="M525 202.589C525.718 196.549 532.098 209.577 533 211" stroke="black" stroke-width="3" stroke-linecap="square"/>
<path d="M523 189V187" stroke="black" stroke-width="3" stroke-linecap="square"/>
<path d="M543.789 184.733C543.416 181.58 538.81 189.442 542.297 192.389C544.15 193.955 549.322 192.655 551.57 192.952C559.537 194.004 551.376 201.131 549.545 205" stroke="black" stroke-width="3" stroke-linecap="square"/>
<path d="M566 176.822C569.454 176.391 566.668 172.443 570.869 174.836C572.321 175.663 573.614 180.055 574.078 181.675C574.84 184.335 577.561 187.032 573.967 182.778C570.515 178.692 573.137 171.454 577.951 169.321C582.847 167.151 587.074 181.238 596.874 174.726C602.03 171.3 596.736 162.897 592.337 161.379C584.679 158.736 590.321 170.718 593.886 172.85" stroke="black" stroke-width="3" stroke-linecap="square"/>
<path d="M598 164.881C598 149.554 603.447 168.772 610 171" stroke="black" stroke-width="3" stroke-linecap="square"/>
<path d="M598 163C602.214 163 603.775 160.338 606 157" stroke="black" stroke-width="3" stroke-linecap="square"/>
<path d="M527 265.408C528.64 265.408 540.512 267.044 540.556 266.999C545.548 261.893 537.716 252.587 545 247" stroke="black" stroke-width="3" stroke-linecap="square"/>
<path d="M556 244.825C556.735 238.774 561.543 249.589 562 251" stroke="black" stroke-width="3" stroke-linecap="square"/>
<path d="M552 233H554" stroke="black" stroke-width="3" stroke-linecap="square"/>
<path d="M571.282 228.7C575.768 223.709 569.414 226.75 571.395 233.607C572.293 236.716 575.342 233.791 575.342 231.711C575.342 230.622 574.629 224.908 576.357 224.908C581.163 224.908 589.613 244.283 585.491 246.321C574.21 251.899 581.505 221.4 583.01 217.101C584.198 213.706 587.086 218.231 588.536 219.666C593.33 224.407 593.087 214.69 593.724 211.859C594.397 208.863 599.311 214.227 600.716 214.535C605.305 215.544 603.33 208.254 603.873 205.836C604.035 205.117 616.637 217.154 612.331 200.594C607.955 183.762 620 219.735 620 204.609" stroke="black" stroke-width="3" stroke-linecap="square"/>
<path d="M612 203C616.467 202.442 620.602 194.496 622 191" stroke="black" stroke-width="3" stroke-linecap="square"/>
<path d="M634 179C638.851 179.539 645.187 189.718 648 193" stroke="black" stroke-width="3" stroke-linecap="square"/>
<path d="M650 201.205C653.664 201.654 654.607 203.608 656 199" stroke="black" stroke-width="3" stroke-linecap="square"/>
<path d="M419.614 689H410.196V659.909H419.912C422.762 659.909 425.21 660.491 427.256 661.656C429.301 662.812 430.868 664.473 431.957 666.642C433.056 668.801 433.605 671.391 433.605 674.412C433.605 677.442 433.051 680.046 431.943 682.224C430.845 684.402 429.254 686.079 427.17 687.253C425.087 688.418 422.568 689 419.614 689ZM414.585 685.165H419.372C421.588 685.165 423.43 684.748 424.898 683.915C426.366 683.072 427.464 681.855 428.193 680.264C428.922 678.664 429.287 676.713 429.287 674.412C429.287 672.13 428.922 670.193 428.193 668.602C427.473 667.011 426.399 665.804 424.969 664.98C423.539 664.156 421.763 663.744 419.642 663.744H414.585V685.165ZM438.722 689V667.182H442.969V689H438.722ZM440.867 663.815C440.129 663.815 439.494 663.569 438.964 663.077C438.443 662.575 438.183 661.978 438.183 661.287C438.183 660.586 438.443 659.99 438.964 659.497C439.494 658.995 440.129 658.744 440.867 658.744C441.606 658.744 442.236 658.995 442.756 659.497C443.287 659.99 443.552 660.586 443.552 661.287C443.552 661.978 443.287 662.575 442.756 663.077C442.236 663.569 441.606 663.815 440.867 663.815ZM452.93 676.045V689H448.683V667.182H452.76V670.733H453.03C453.532 669.578 454.318 668.65 455.388 667.949C456.467 667.248 457.826 666.898 459.464 666.898C460.951 666.898 462.253 667.21 463.371 667.835C464.488 668.451 465.355 669.369 465.97 670.591C466.586 671.812 466.893 673.323 466.893 675.122V689H462.646V675.634C462.646 674.052 462.234 672.816 461.411 671.926C460.587 671.027 459.455 670.577 458.016 670.577C457.031 670.577 456.155 670.79 455.388 671.216C454.63 671.642 454.029 672.267 453.584 673.091C453.148 673.905 452.93 674.89 452.93 676.045ZM481.993 689.44C479.843 689.44 477.992 688.981 476.439 688.062C474.895 687.134 473.702 685.832 472.859 684.156C472.026 682.471 471.609 680.496 471.609 678.233C471.609 675.998 472.026 674.028 472.859 672.324C473.702 670.619 474.876 669.289 476.382 668.332C477.897 667.376 479.668 666.898 481.695 666.898C482.926 666.898 484.119 667.101 485.274 667.509C486.429 667.916 487.466 668.555 488.385 669.426C489.304 670.297 490.028 671.429 490.558 672.821C491.089 674.204 491.354 675.884 491.354 677.864V679.369H474.01V676.188H487.192C487.192 675.07 486.964 674.08 486.51 673.219C486.055 672.348 485.416 671.661 484.592 671.159C483.778 670.657 482.821 670.406 481.723 670.406C480.53 670.406 479.488 670.7 478.598 671.287C477.717 671.865 477.036 672.622 476.553 673.56C476.079 674.488 475.842 675.496 475.842 676.585V679.071C475.842 680.529 476.098 681.77 476.609 682.793C477.13 683.815 477.855 684.597 478.783 685.136C479.711 685.667 480.795 685.932 482.036 685.932C482.84 685.932 483.574 685.818 484.237 685.591C484.9 685.354 485.473 685.004 485.956 684.54C486.439 684.076 486.808 683.503 487.064 682.821L491.084 683.545C490.762 684.729 490.184 685.766 489.351 686.656C488.527 687.537 487.49 688.223 486.24 688.716C485 689.199 483.584 689.44 481.993 689.44ZM496.066 689V667.182H500.171V670.648H500.398C500.796 669.473 501.497 668.55 502.501 667.878C503.514 667.196 504.66 666.855 505.938 666.855C506.203 666.855 506.516 666.865 506.876 666.884C507.245 666.902 507.534 666.926 507.742 666.955V671.017C507.572 670.97 507.269 670.918 506.833 670.861C506.397 670.795 505.962 670.761 505.526 670.761C504.522 670.761 503.628 670.974 502.842 671.401C502.065 671.817 501.45 672.4 500.995 673.148C500.54 673.886 500.313 674.729 500.313 675.676V689H496.066ZM527.767 672.509L523.918 673.19C523.757 672.698 523.501 672.229 523.151 671.784C522.81 671.339 522.346 670.974 521.759 670.69C521.171 670.406 520.438 670.264 519.557 670.264C518.354 670.264 517.35 670.534 516.545 671.074C515.741 671.604 515.338 672.291 515.338 673.134C515.338 673.863 515.608 674.45 516.148 674.895C516.688 675.34 517.559 675.705 518.761 675.989L522.227 676.784C524.235 677.248 525.731 677.963 526.716 678.929C527.701 679.895 528.193 681.15 528.193 682.693C528.193 684 527.814 685.165 527.057 686.188C526.309 687.201 525.262 687.996 523.918 688.574C522.582 689.152 521.034 689.44 519.273 689.44C516.83 689.44 514.836 688.92 513.293 687.878C511.749 686.827 510.802 685.335 510.452 683.403L514.557 682.778C514.813 683.848 515.338 684.658 516.134 685.207C516.929 685.747 517.966 686.017 519.244 686.017C520.636 686.017 521.749 685.728 522.582 685.151C523.416 684.563 523.832 683.848 523.832 683.006C523.832 682.324 523.577 681.751 523.065 681.287C522.563 680.823 521.792 680.473 520.75 680.236L517.057 679.426C515.021 678.962 513.515 678.223 512.54 677.21C511.574 676.197 511.091 674.914 511.091 673.361C511.091 672.073 511.451 670.946 512.17 669.98C512.89 669.014 513.884 668.261 515.153 667.722C516.422 667.172 517.876 666.898 519.514 666.898C521.872 666.898 523.728 667.409 525.082 668.432C526.437 669.445 527.331 670.804 527.767 672.509ZM553.832 667.182V670.591H541.503V667.182H553.832ZM544.884 689V664.653C544.884 663.29 545.182 662.158 545.778 661.259C546.375 660.349 547.166 659.672 548.151 659.227C549.135 658.773 550.205 658.545 551.361 658.545C552.213 658.545 552.942 658.616 553.548 658.759C554.154 658.891 554.604 659.014 554.898 659.128L553.903 662.565C553.705 662.509 553.449 662.442 553.136 662.366C552.824 662.281 552.445 662.239 552 662.239C550.968 662.239 550.229 662.494 549.784 663.006C549.348 663.517 549.131 664.256 549.131 665.222V689H544.884ZM566.759 689.44C564.609 689.44 562.758 688.981 561.205 688.062C559.661 687.134 558.468 685.832 557.625 684.156C556.792 682.471 556.375 680.496 556.375 678.233C556.375 675.998 556.792 674.028 557.625 672.324C558.468 670.619 559.642 669.289 561.148 668.332C562.663 667.376 564.434 666.898 566.46 666.898C567.691 666.898 568.884 667.101 570.04 667.509C571.195 667.916 572.232 668.555 573.151 669.426C574.069 670.297 574.794 671.429 575.324 672.821C575.854 674.204 576.119 675.884 576.119 677.864V679.369H558.776V676.188H571.957C571.957 675.07 571.73 674.08 571.276 673.219C570.821 672.348 570.182 671.661 569.358 671.159C568.544 670.657 567.587 670.406 566.489 670.406C565.295 670.406 564.254 670.7 563.364 671.287C562.483 671.865 561.801 672.622 561.318 673.56C560.845 674.488 560.608 675.496 560.608 676.585V679.071C560.608 680.529 560.864 681.77 561.375 682.793C561.896 683.815 562.62 684.597 563.548 685.136C564.476 685.667 565.561 685.932 566.801 685.932C567.606 685.932 568.34 685.818 569.003 685.591C569.666 685.354 570.239 685.004 570.722 684.54C571.205 684.076 571.574 683.503 571.83 682.821L575.849 683.545C575.527 684.729 574.95 685.766 574.116 686.656C573.293 687.537 572.256 688.223 571.006 688.716C569.765 689.199 568.349 689.44 566.759 689.44ZM590.235 689.44C588.085 689.44 586.234 688.981 584.681 688.062C583.138 687.134 581.944 685.832 581.102 684.156C580.268 682.471 579.852 680.496 579.852 678.233C579.852 675.998 580.268 674.028 581.102 672.324C581.944 670.619 583.119 669.289 584.624 668.332C586.139 667.376 587.91 666.898 589.937 666.898C591.168 666.898 592.361 667.101 593.516 667.509C594.672 667.916 595.709 668.555 596.627 669.426C597.546 670.297 598.27 671.429 598.8 672.821C599.331 674.204 599.596 675.884 599.596 677.864V679.369H582.252V676.188H595.434C595.434 675.07 595.207 674.08 594.752 673.219C594.298 672.348 593.658 671.661 592.835 671.159C592.02 670.657 591.064 670.406 589.965 670.406C588.772 670.406 587.73 670.7 586.84 671.287C585.96 671.865 585.278 672.622 584.795 673.56C584.321 674.488 584.085 675.496 584.085 676.585V679.071C584.085 680.529 584.34 681.77 584.852 682.793C585.372 683.815 586.097 684.597 587.025 685.136C587.953 685.667 589.037 685.932 590.278 685.932C591.083 685.932 591.817 685.818 592.479 685.591C593.142 685.354 593.715 685.004 594.198 684.54C594.681 684.076 595.05 683.503 595.306 682.821L599.326 683.545C599.004 684.729 598.426 685.766 597.593 686.656C596.769 687.537 595.732 688.223 594.482 688.716C593.242 689.199 591.826 689.44 590.235 689.44ZM608.555 659.909V689H604.308V659.909H608.555ZM635.04 667.182V670.591H623.122V667.182H635.04ZM626.318 661.955H630.565V682.594C630.565 683.418 630.688 684.038 630.935 684.455C631.181 684.862 631.498 685.141 631.886 685.293C632.284 685.435 632.715 685.506 633.179 685.506C633.52 685.506 633.818 685.482 634.074 685.435C634.33 685.387 634.528 685.349 634.67 685.321L635.438 688.83C635.191 688.924 634.841 689.019 634.386 689.114C633.932 689.218 633.364 689.275 632.682 689.284C631.564 689.303 630.523 689.104 629.557 688.688C628.591 688.271 627.81 687.627 627.213 686.756C626.616 685.884 626.318 684.791 626.318 683.474V661.955ZM644.454 676.045V689H640.207V659.909H644.397V670.733H644.667C645.178 669.559 645.96 668.626 647.011 667.935C648.062 667.243 649.435 666.898 651.13 666.898C652.626 666.898 653.933 667.205 655.05 667.821C656.177 668.437 657.049 669.355 657.664 670.577C658.289 671.789 658.602 673.304 658.602 675.122V689H654.354V675.634C654.354 674.033 653.942 672.793 653.119 671.912C652.295 671.022 651.149 670.577 649.681 670.577C648.677 670.577 647.778 670.79 646.982 671.216C646.196 671.642 645.576 672.267 645.121 673.091C644.676 673.905 644.454 674.89 644.454 676.045ZM673.673 689.44C671.523 689.44 669.672 688.981 668.119 688.062C666.575 687.134 665.382 685.832 664.539 684.156C663.706 682.471 663.289 680.496 663.289 678.233C663.289 675.998 663.706 674.028 664.539 672.324C665.382 670.619 666.556 669.289 668.062 668.332C669.577 667.376 671.348 666.898 673.374 666.898C674.605 666.898 675.799 667.101 676.954 667.509C678.109 667.916 679.146 668.555 680.065 669.426C680.983 670.297 681.708 671.429 682.238 672.821C682.768 674.204 683.033 675.884 683.033 677.864V679.369H665.69V676.188H678.871C678.871 675.07 678.644 674.08 678.19 673.219C677.735 672.348 677.096 671.661 676.272 671.159C675.458 670.657 674.501 670.406 673.403 670.406C672.21 670.406 671.168 670.7 670.278 671.287C669.397 671.865 668.715 672.622 668.232 673.56C667.759 674.488 667.522 675.496 667.522 676.585V679.071C667.522 680.529 667.778 681.77 668.289 682.793C668.81 683.815 669.534 684.597 670.462 685.136C671.39 685.667 672.475 685.932 673.715 685.932C674.52 685.932 675.254 685.818 675.917 685.591C676.58 685.354 677.153 685.004 677.636 684.54C678.119 684.076 678.488 683.503 678.744 682.821L682.763 683.545C682.442 684.729 681.864 685.766 681.031 686.656C680.207 687.537 679.17 688.223 677.92 688.716C676.679 689.199 675.263 689.44 673.673 689.44ZM689.805 697.182C689.171 697.182 688.593 697.13 688.072 697.026C687.552 696.931 687.163 696.827 686.908 696.713L687.93 693.233C688.707 693.441 689.398 693.531 690.004 693.503C690.61 693.474 691.145 693.247 691.609 692.821C692.083 692.395 692.5 691.699 692.859 690.733L693.385 689.284L685.402 667.182H689.947L695.473 684.114H695.7L701.226 667.182H705.786L696.794 691.912C696.377 693.048 695.847 694.009 695.203 694.795C694.559 695.591 693.792 696.188 692.902 696.585C692.012 696.983 690.98 697.182 689.805 697.182ZM724.61 676.045V689H720.363V659.909H724.553V670.733H724.823C725.335 669.559 726.116 668.626 727.167 667.935C728.218 667.243 729.591 666.898 731.286 666.898C732.782 666.898 734.089 667.205 735.207 667.821C736.334 668.437 737.205 669.355 737.82 670.577C738.445 671.789 738.758 673.304 738.758 675.122V689H734.511V675.634C734.511 674.033 734.099 672.793 733.275 671.912C732.451 671.022 731.305 670.577 729.837 670.577C728.834 670.577 727.934 670.79 727.138 671.216C726.353 671.642 725.732 672.267 725.278 673.091C724.833 673.905 724.61 674.89 724.61 676.045ZM750.775 689.483C749.392 689.483 748.142 689.227 747.025 688.716C745.907 688.195 745.022 687.442 744.369 686.457C743.725 685.473 743.403 684.265 743.403 682.835C743.403 681.604 743.639 680.591 744.113 679.795C744.586 679 745.226 678.37 746.031 677.906C746.835 677.442 747.735 677.092 748.729 676.855C749.724 676.618 750.737 676.438 751.769 676.315C753.076 676.164 754.137 676.041 754.951 675.946C755.765 675.842 756.357 675.676 756.727 675.449C757.096 675.222 757.281 674.852 757.281 674.341V674.241C757.281 673.001 756.93 672.04 756.229 671.358C755.538 670.676 754.506 670.335 753.133 670.335C751.703 670.335 750.576 670.652 749.752 671.287C748.938 671.912 748.374 672.608 748.062 673.375L744.07 672.466C744.544 671.14 745.235 670.07 746.144 669.256C747.063 668.432 748.119 667.835 749.312 667.466C750.505 667.087 751.76 666.898 753.076 666.898C753.947 666.898 754.871 667.002 755.846 667.21C756.831 667.409 757.749 667.778 758.602 668.318C759.463 668.858 760.169 669.63 760.718 670.634C761.267 671.628 761.542 672.92 761.542 674.511V689H757.394V686.017H757.224C756.949 686.566 756.537 687.106 755.988 687.636C755.439 688.167 754.733 688.607 753.871 688.957C753.01 689.308 751.978 689.483 750.775 689.483ZM751.698 686.074C752.872 686.074 753.876 685.842 754.71 685.378C755.552 684.914 756.192 684.308 756.627 683.56C757.072 682.802 757.295 681.992 757.295 681.131V678.318C757.143 678.47 756.85 678.612 756.414 678.744C755.988 678.867 755.5 678.976 754.951 679.071C754.402 679.156 753.867 679.237 753.346 679.312C752.825 679.379 752.389 679.436 752.039 679.483C751.215 679.587 750.462 679.762 749.781 680.009C749.108 680.255 748.568 680.61 748.161 681.074C747.763 681.528 747.565 682.134 747.565 682.892C747.565 683.943 747.953 684.739 748.729 685.278C749.506 685.809 750.496 686.074 751.698 686.074ZM785.082 667.182L777.17 689H772.625L764.699 667.182H769.259L774.784 683.972H775.011L780.523 667.182H785.082ZM797.735 689.44C795.585 689.44 793.734 688.981 792.181 688.062C790.638 687.134 789.444 685.832 788.602 684.156C787.768 682.471 787.352 680.496 787.352 678.233C787.352 675.998 787.768 674.028 788.602 672.324C789.444 670.619 790.619 669.289 792.124 668.332C793.639 667.376 795.41 666.898 797.437 666.898C798.668 666.898 799.861 667.101 801.016 667.509C802.172 667.916 803.209 668.555 804.127 669.426C805.046 670.297 805.77 671.429 806.3 672.821C806.831 674.204 807.096 675.884 807.096 677.864V679.369H789.752V676.188H802.934C802.934 675.07 802.707 674.08 802.252 673.219C801.798 672.348 801.158 671.661 800.335 671.159C799.52 670.657 798.564 670.406 797.465 670.406C796.272 670.406 795.23 670.7 794.34 671.287C793.46 671.865 792.778 672.622 792.295 673.56C791.821 674.488 791.585 675.496 791.585 676.585V679.071C791.585 680.529 791.84 681.77 792.352 682.793C792.872 683.815 793.597 684.597 794.525 685.136C795.453 685.667 796.537 685.932 797.778 685.932C798.583 685.932 799.317 685.818 799.979 685.591C800.642 685.354 801.215 685.004 801.698 684.54C802.181 684.076 802.55 683.503 802.806 682.821L806.826 683.545C806.504 684.729 805.926 685.766 805.093 686.656C804.269 687.537 803.232 688.223 801.982 688.716C800.742 689.199 799.326 689.44 797.735 689.44ZM826.641 676.045V689H822.394V667.182H826.471V670.733H826.741C827.243 669.578 828.029 668.65 829.099 667.949C830.178 667.248 831.537 666.898 833.175 666.898C834.662 666.898 835.964 667.21 837.082 667.835C838.199 668.451 839.066 669.369 839.681 670.591C840.297 671.812 840.604 673.323 840.604 675.122V689H836.357V675.634C836.357 674.052 835.945 672.816 835.121 671.926C834.298 671.027 833.166 670.577 831.727 670.577C830.742 670.577 829.866 670.79 829.099 671.216C828.341 671.642 827.74 672.267 827.295 673.091C826.859 673.905 826.641 674.89 826.641 676.045ZM855.491 689.44C853.445 689.44 851.66 688.972 850.136 688.034C848.611 687.097 847.427 685.785 846.585 684.099C845.742 682.414 845.32 680.444 845.32 678.19C845.32 675.927 845.742 673.948 846.585 672.253C847.427 670.558 848.611 669.241 850.136 668.304C851.66 667.366 853.445 666.898 855.491 666.898C857.536 666.898 859.321 667.366 860.846 668.304C862.371 669.241 863.554 670.558 864.397 672.253C865.24 673.948 865.661 675.927 865.661 678.19C865.661 680.444 865.24 682.414 864.397 684.099C863.554 685.785 862.371 687.097 860.846 688.034C859.321 688.972 857.536 689.44 855.491 689.44ZM855.505 685.875C856.831 685.875 857.929 685.525 858.8 684.824C859.672 684.123 860.316 683.19 860.732 682.026C861.158 680.861 861.371 679.578 861.371 678.176C861.371 676.784 861.158 675.506 860.732 674.341C860.316 673.167 859.672 672.224 858.8 671.514C857.929 670.804 856.831 670.449 855.505 670.449C854.17 670.449 853.062 670.804 852.181 671.514C851.31 672.224 850.661 673.167 850.235 674.341C849.818 675.506 849.61 676.784 849.61 678.176C849.61 679.578 849.818 680.861 850.235 682.026C850.661 683.19 851.31 684.123 852.181 684.824C853.062 685.525 854.17 685.875 855.505 685.875ZM890.178 689.44C888.067 689.44 886.248 688.962 884.724 688.006C883.209 687.04 882.044 685.709 881.229 684.014C880.415 682.319 880.008 680.378 880.008 678.19C880.008 675.974 880.424 674.019 881.258 672.324C882.091 670.619 883.265 669.289 884.781 668.332C886.296 667.376 888.081 666.898 890.136 666.898C891.793 666.898 893.27 667.205 894.567 667.821C895.865 668.427 896.911 669.279 897.707 670.378C898.512 671.476 898.99 672.759 899.141 674.227H895.008C894.781 673.205 894.26 672.324 893.445 671.585C892.64 670.847 891.561 670.477 890.207 670.477C889.023 670.477 887.986 670.79 887.096 671.415C886.215 672.03 885.529 672.911 885.036 674.057C884.544 675.193 884.298 676.538 884.298 678.091C884.298 679.682 884.539 681.055 885.022 682.21C885.505 683.366 886.187 684.26 887.067 684.895C887.958 685.529 889.004 685.847 890.207 685.847C891.012 685.847 891.741 685.7 892.394 685.406C893.057 685.103 893.611 684.672 894.056 684.114C894.511 683.555 894.828 682.883 895.008 682.097H899.141C898.99 683.508 898.531 684.767 897.763 685.875C896.996 686.983 895.969 687.854 894.681 688.489C893.403 689.123 891.902 689.44 890.178 689.44ZM912.874 689.44C910.828 689.44 909.043 688.972 907.518 688.034C905.994 687.097 904.81 685.785 903.967 684.099C903.125 682.414 902.703 680.444 902.703 678.19C902.703 675.927 903.125 673.948 903.967 672.253C904.81 670.558 905.994 669.241 907.518 668.304C909.043 667.366 910.828 666.898 912.874 666.898C914.919 666.898 916.704 667.366 918.229 668.304C919.753 669.241 920.937 670.558 921.78 672.253C922.623 673.948 923.044 675.927 923.044 678.19C923.044 680.444 922.623 682.414 921.78 684.099C920.937 685.785 919.753 687.097 918.229 688.034C916.704 688.972 914.919 689.44 912.874 689.44ZM912.888 685.875C914.214 685.875 915.312 685.525 916.183 684.824C917.054 684.123 917.698 683.19 918.115 682.026C918.541 680.861 918.754 679.578 918.754 678.176C918.754 676.784 918.541 675.506 918.115 674.341C917.698 673.167 917.054 672.224 916.183 671.514C915.312 670.804 914.214 670.449 912.888 670.449C911.553 670.449 910.445 670.804 909.564 671.514C908.693 672.224 908.044 673.167 907.618 674.341C907.201 675.506 906.993 676.784 906.993 678.176C906.993 679.578 907.201 680.861 907.618 682.026C908.044 683.19 908.693 684.123 909.564 684.824C910.445 685.525 911.553 685.875 912.888 685.875ZM932.032 676.045V689H927.785V667.182H931.862V670.733H932.131C932.633 669.578 933.419 668.65 934.489 667.949C935.569 667.248 936.928 666.898 938.566 666.898C940.053 666.898 941.355 667.21 942.472 667.835C943.59 668.451 944.456 669.369 945.072 670.591C945.687 671.812 945.995 673.323 945.995 675.122V689H941.748V675.634C941.748 674.052 941.336 672.816 940.512 671.926C939.688 671.027 938.557 670.577 937.117 670.577C936.132 670.577 935.256 670.79 934.489 671.216C933.732 671.642 933.13 672.267 932.685 673.091C932.25 673.905 932.032 674.89 932.032 676.045ZM961.876 667.182V670.591H949.958V667.182H961.876ZM953.154 661.955H957.401V682.594C957.401 683.418 957.524 684.038 957.771 684.455C958.017 684.862 958.334 685.141 958.722 685.293C959.12 685.435 959.551 685.506 960.015 685.506C960.356 685.506 960.654 685.482 960.91 685.435C961.165 685.387 961.364 685.349 961.506 685.321L962.273 688.83C962.027 688.924 961.677 689.019 961.222 689.114C960.768 689.218 960.2 689.275 959.518 689.284C958.4 689.303 957.359 689.104 956.393 688.688C955.427 688.271 954.646 687.627 954.049 686.756C953.452 685.884 953.154 684.791 953.154 683.474V661.955ZM966.574 689V667.182H970.679V670.648H970.906C971.304 669.473 972.005 668.55 973.009 667.878C974.022 667.196 975.168 666.855 976.446 666.855C976.711 666.855 977.024 666.865 977.384 666.884C977.753 666.902 978.042 666.926 978.25 666.955V671.017C978.08 670.97 977.777 670.918 977.341 670.861C976.905 670.795 976.47 670.761 976.034 670.761C975.03 670.761 974.135 670.974 973.349 671.401C972.573 671.817 971.957 672.4 971.503 673.148C971.048 673.886 970.821 674.729 970.821 675.676V689H966.574ZM990.335 689.44C988.289 689.44 986.504 688.972 984.979 688.034C983.455 687.097 982.271 685.785 981.428 684.099C980.585 682.414 980.164 680.444 980.164 678.19C980.164 675.927 980.585 673.948 981.428 672.253C982.271 670.558 983.455 669.241 984.979 668.304C986.504 667.366 988.289 666.898 990.335 666.898C992.38 666.898 994.165 667.366 995.69 668.304C997.214 669.241 998.398 670.558 999.241 672.253C1000.08 673.948 1000.5 675.927 1000.5 678.19C1000.5 680.444 1000.08 682.414 999.241 684.099C998.398 685.785 997.214 687.097 995.69 688.034C994.165 688.972 992.38 689.44 990.335 689.44ZM990.349 685.875C991.674 685.875 992.773 685.525 993.644 684.824C994.515 684.123 995.159 683.19 995.576 682.026C996.002 680.861 996.215 679.578 996.215 678.176C996.215 676.784 996.002 675.506 995.576 674.341C995.159 673.167 994.515 672.224 993.644 671.514C992.773 670.804 991.674 670.449 990.349 670.449C989.013 670.449 987.906 670.804 987.025 671.514C986.154 672.224 985.505 673.167 985.079 674.341C984.662 675.506 984.454 676.784 984.454 678.176C984.454 679.578 984.662 680.861 985.079 682.026C985.505 683.19 986.154 684.123 987.025 684.824C987.906 685.525 989.013 685.875 990.349 685.875ZM1009.49 659.909V689H1005.25V659.909H1009.49ZM419.045 737.44C417 737.44 415.215 736.972 413.69 736.034C412.166 735.097 410.982 733.785 410.139 732.099C409.296 730.414 408.875 728.444 408.875 726.19C408.875 723.927 409.296 721.948 410.139 720.253C410.982 718.558 412.166 717.241 413.69 716.304C415.215 715.366 417 714.898 419.045 714.898C421.091 714.898 422.876 715.366 424.401 716.304C425.925 717.241 427.109 718.558 427.952 720.253C428.795 721.948 429.216 723.927 429.216 726.19C429.216 728.444 428.795 730.414 427.952 732.099C427.109 733.785 425.925 735.097 424.401 736.034C422.876 736.972 421.091 737.44 419.045 737.44ZM419.06 733.875C420.385 733.875 421.484 733.525 422.355 732.824C423.226 732.123 423.87 731.19 424.287 730.026C424.713 728.861 424.926 727.578 424.926 726.176C424.926 724.784 424.713 723.506 424.287 722.341C423.87 721.167 423.226 720.224 422.355 719.514C421.484 718.804 420.385 718.449 419.06 718.449C417.724 718.449 416.616 718.804 415.736 719.514C414.865 720.224 414.216 721.167 413.79 722.341C413.373 723.506 413.165 724.784 413.165 726.176C413.165 727.578 413.373 728.861 413.79 730.026C414.216 731.19 414.865 732.123 415.736 732.824C416.616 733.525 417.724 733.875 419.06 733.875ZM451.879 715.182L443.967 737H439.422L431.496 715.182H436.055L441.581 731.972H441.808L447.32 715.182H451.879ZM464.532 737.44C462.382 737.44 460.531 736.981 458.978 736.062C457.434 735.134 456.241 733.832 455.398 732.156C454.565 730.471 454.148 728.496 454.148 726.233C454.148 723.998 454.565 722.028 455.398 720.324C456.241 718.619 457.415 717.289 458.921 716.332C460.436 715.376 462.207 714.898 464.234 714.898C465.465 714.898 466.658 715.101 467.813 715.509C468.969 715.916 470.005 716.555 470.924 717.426C471.843 718.297 472.567 719.429 473.097 720.821C473.628 722.204 473.893 723.884 473.893 725.864V727.369H456.549V724.188H469.731C469.731 723.07 469.504 722.08 469.049 721.219C468.594 720.348 467.955 719.661 467.131 719.159C466.317 718.657 465.361 718.406 464.262 718.406C463.069 718.406 462.027 718.7 461.137 719.287C460.256 719.865 459.575 720.622 459.092 721.56C458.618 722.488 458.381 723.496 458.381 724.585V727.071C458.381 728.529 458.637 729.77 459.148 730.793C459.669 731.815 460.394 732.597 461.322 733.136C462.25 733.667 463.334 733.932 464.575 733.932C465.379 733.932 466.113 733.818 466.776 733.591C467.439 733.354 468.012 733.004 468.495 732.54C468.978 732.076 469.347 731.503 469.603 730.821L473.623 731.545C473.301 732.729 472.723 733.766 471.89 734.656C471.066 735.537 470.029 736.223 468.779 736.716C467.539 737.199 466.123 737.44 464.532 737.44ZM478.605 737V715.182H482.71V718.648H482.938C483.335 717.473 484.036 716.55 485.04 715.878C486.053 715.196 487.199 714.855 488.477 714.855C488.742 714.855 489.055 714.865 489.415 714.884C489.784 714.902 490.073 714.926 490.281 714.955V719.017C490.111 718.97 489.808 718.918 489.372 718.861C488.937 718.795 488.501 718.761 488.065 718.761C487.062 718.761 486.167 718.974 485.381 719.401C484.604 719.817 483.989 720.4 483.534 721.148C483.08 721.886 482.852 722.729 482.852 723.676V737H478.605ZM514.727 715.182V718.591H502.81V715.182H514.727ZM506.006 709.955H510.253V730.594C510.253 731.418 510.376 732.038 510.622 732.455C510.868 732.862 511.186 733.141 511.574 733.293C511.972 733.435 512.402 733.506 512.866 733.506C513.207 733.506 513.506 733.482 513.761 733.435C514.017 733.387 514.216 733.349 514.358 733.321L515.125 736.83C514.879 736.924 514.528 737.019 514.074 737.114C513.619 737.218 513.051 737.275 512.369 737.284C511.252 737.303 510.21 737.104 509.244 736.688C508.278 736.271 507.497 735.627 506.901 734.756C506.304 733.884 506.006 732.791 506.006 731.474V709.955ZM524.141 724.045V737H519.894V707.909H524.085V718.733H524.354C524.866 717.559 525.647 716.626 526.698 715.935C527.749 715.243 529.122 714.898 530.817 714.898C532.314 714.898 533.621 715.205 534.738 715.821C535.865 716.437 536.736 717.355 537.352 718.577C537.977 719.789 538.289 721.304 538.289 723.122V737H534.042V723.634C534.042 722.033 533.63 720.793 532.806 719.912C531.982 719.022 530.836 718.577 529.369 718.577C528.365 718.577 527.465 718.79 526.67 719.216C525.884 719.642 525.263 720.267 524.809 721.091C524.364 721.905 524.141 722.89 524.141 724.045ZM553.36 737.44C551.21 737.44 549.359 736.981 547.806 736.062C546.263 735.134 545.069 733.832 544.227 732.156C543.393 730.471 542.977 728.496 542.977 726.233C542.977 723.998 543.393 722.028 544.227 720.324C545.069 718.619 546.244 717.289 547.749 716.332C549.264 715.376 551.035 714.898 553.062 714.898C554.293 714.898 555.486 715.101 556.641 715.509C557.797 715.916 558.834 716.555 559.752 717.426C560.671 718.297 561.395 719.429 561.925 720.821C562.456 722.204 562.721 723.884 562.721 725.864V727.369H545.377V724.188H558.559C558.559 723.07 558.332 722.08 557.877 721.219C557.423 720.348 556.783 719.661 555.96 719.159C555.145 718.657 554.189 718.406 553.09 718.406C551.897 718.406 550.855 718.7 549.965 719.287C549.085 719.865 548.403 720.622 547.92 721.56C547.446 722.488 547.21 723.496 547.21 724.585V727.071C547.21 728.529 547.465 729.77 547.977 730.793C548.497 731.815 549.222 732.597 550.15 733.136C551.078 733.667 552.162 733.932 553.403 733.932C554.208 733.932 554.942 733.818 555.604 733.591C556.267 733.354 556.84 733.004 557.323 732.54C557.806 732.076 558.175 731.503 558.431 730.821L562.451 731.545C562.129 732.729 561.551 733.766 560.718 734.656C559.894 735.537 558.857 736.223 557.607 736.716C556.367 737.199 554.951 737.44 553.36 737.44ZM567.433 737V715.182H571.68V737H567.433ZM569.578 711.815C568.839 711.815 568.205 711.569 567.675 711.077C567.154 710.575 566.893 709.978 566.893 709.287C566.893 708.586 567.154 707.99 567.675 707.497C568.205 706.995 568.839 706.744 569.578 706.744C570.317 706.744 570.946 706.995 571.467 707.497C571.998 707.99 572.263 708.586 572.263 709.287C572.263 709.978 571.998 710.575 571.467 711.077C570.946 711.569 570.317 711.815 569.578 711.815ZM577.394 737V715.182H581.499V718.648H581.727C582.124 717.473 582.825 716.55 583.829 715.878C584.842 715.196 585.988 714.855 587.266 714.855C587.531 714.855 587.844 714.865 588.204 714.884C588.573 714.902 588.862 714.926 589.07 714.955V719.017C588.9 718.97 588.597 718.918 588.161 718.861C587.726 718.795 587.29 718.761 586.854 718.761C585.851 718.761 584.956 718.974 584.17 719.401C583.393 719.817 582.778 720.4 582.323 721.148C581.869 721.886 581.641 722.729 581.641 723.676V737H577.394ZM608.062 737L601.641 715.182H606.031L610.306 731.205H610.519L614.809 715.182H619.198L623.46 731.134H623.673L627.92 715.182H632.309L625.903 737H621.57L617.138 721.247H616.812L612.38 737H608.062ZM642.689 737.483C641.306 737.483 640.056 737.227 638.939 736.716C637.821 736.195 636.936 735.442 636.283 734.457C635.639 733.473 635.317 732.265 635.317 730.835C635.317 729.604 635.554 728.591 636.027 727.795C636.5 727 637.14 726.37 637.945 725.906C638.75 725.442 639.649 725.092 640.643 724.855C641.638 724.618 642.651 724.438 643.683 724.315C644.99 724.164 646.051 724.041 646.865 723.946C647.679 723.842 648.271 723.676 648.641 723.449C649.01 723.222 649.195 722.852 649.195 722.341V722.241C649.195 721.001 648.844 720.04 648.143 719.358C647.452 718.676 646.42 718.335 645.047 718.335C643.617 718.335 642.49 718.652 641.666 719.287C640.852 719.912 640.288 720.608 639.976 721.375L635.984 720.466C636.458 719.14 637.149 718.07 638.058 717.256C638.977 716.432 640.033 715.835 641.226 715.466C642.419 715.087 643.674 714.898 644.99 714.898C645.861 714.898 646.785 715.002 647.76 715.21C648.745 715.409 649.663 715.778 650.516 716.318C651.377 716.858 652.083 717.63 652.632 718.634C653.181 719.628 653.456 720.92 653.456 722.511V737H649.308V734.017H649.138C648.863 734.566 648.451 735.106 647.902 735.636C647.353 736.167 646.647 736.607 645.786 736.957C644.924 737.308 643.892 737.483 642.689 737.483ZM643.612 734.074C644.786 734.074 645.79 733.842 646.624 733.378C647.466 732.914 648.106 732.308 648.541 731.56C648.986 730.802 649.209 729.992 649.209 729.131V726.318C649.057 726.47 648.764 726.612 648.328 726.744C647.902 726.867 647.414 726.976 646.865 727.071C646.316 727.156 645.781 727.237 645.26 727.312C644.739 727.379 644.304 727.436 643.953 727.483C643.129 727.587 642.376 727.762 641.695 728.009C641.022 728.255 640.482 728.61 640.075 729.074C639.678 729.528 639.479 730.134 639.479 730.892C639.479 731.943 639.867 732.739 640.643 733.278C641.42 733.809 642.41 734.074 643.612 734.074ZM659.113 737V715.182H663.36V737H659.113ZM661.258 711.815C660.519 711.815 659.885 711.569 659.354 711.077C658.834 710.575 658.573 709.978 658.573 709.287C658.573 708.586 658.834 707.99 659.354 707.497C659.885 706.995 660.519 706.744 661.258 706.744C661.996 706.744 662.626 706.995 663.147 707.497C663.677 707.99 663.942 708.586 663.942 709.287C663.942 709.978 663.677 710.575 663.147 711.077C662.626 711.569 661.996 711.815 661.258 711.815ZM679.259 715.182V718.591H667.341V715.182H679.259ZM670.537 709.955H674.784V730.594C674.784 731.418 674.907 732.038 675.153 732.455C675.4 732.862 675.717 733.141 676.105 733.293C676.503 733.435 676.934 733.506 677.398 733.506C677.739 733.506 678.037 733.482 678.293 733.435C678.548 733.387 678.747 733.349 678.889 733.321L679.656 736.83C679.41 736.924 679.06 737.019 678.605 737.114C678.151 737.218 677.582 737.275 676.901 737.284C675.783 737.303 674.741 737.104 673.776 736.688C672.81 736.271 672.028 735.627 671.432 734.756C670.835 733.884 670.537 732.791 670.537 731.474V709.955ZM704.727 715.182V718.591H692.81V715.182H704.727ZM696.006 709.955H700.253V730.594C700.253 731.418 700.376 732.038 700.622 732.455C700.868 732.862 701.186 733.141 701.574 733.293C701.972 733.435 702.402 733.506 702.866 733.506C703.207 733.506 703.506 733.482 703.761 733.435C704.017 733.387 704.216 733.349 704.358 733.321L705.125 736.83C704.879 736.924 704.528 737.019 704.074 737.114C703.619 737.218 703.051 737.275 702.369 737.284C701.252 737.303 700.21 737.104 699.244 736.688C698.278 736.271 697.497 735.627 696.901 734.756C696.304 733.884 696.006 732.791 696.006 731.474V709.955ZM709.425 737V715.182H713.673V737H709.425ZM711.57 711.815C710.832 711.815 710.197 711.569 709.667 711.077C709.146 710.575 708.886 709.978 708.886 709.287C708.886 708.586 709.146 707.99 709.667 707.497C710.197 706.995 710.832 706.744 711.57 706.744C712.309 706.744 712.939 706.995 713.46 707.497C713.99 707.99 714.255 708.586 714.255 709.287C714.255 709.978 713.99 710.575 713.46 711.077C712.939 711.569 712.309 711.815 711.57 711.815ZM719.386 737V715.182H723.463V718.733H723.733C724.188 717.53 724.931 716.593 725.963 715.92C726.995 715.239 728.231 714.898 729.67 714.898C731.129 714.898 732.35 715.239 733.335 715.92C734.33 716.602 735.063 717.54 735.537 718.733H735.764C736.285 717.568 737.114 716.64 738.25 715.949C739.386 715.248 740.741 714.898 742.312 714.898C744.292 714.898 745.906 715.518 747.156 716.759C748.416 717.999 749.045 719.869 749.045 722.369V737H744.798V722.767C744.798 721.29 744.396 720.22 743.591 719.557C742.786 718.894 741.825 718.562 740.707 718.562C739.325 718.562 738.25 718.989 737.483 719.841C736.716 720.684 736.332 721.768 736.332 723.094V737H732.099V722.497C732.099 721.313 731.73 720.362 730.991 719.642C730.253 718.922 729.292 718.562 728.108 718.562C727.303 718.562 726.56 718.776 725.878 719.202C725.205 719.618 724.661 720.201 724.244 720.949C723.837 721.697 723.634 722.563 723.634 723.548V737H719.386ZM764.141 737.44C761.992 737.44 760.14 736.981 758.587 736.062C757.044 735.134 755.851 733.832 755.008 732.156C754.174 730.471 753.758 728.496 753.758 726.233C753.758 723.998 754.174 722.028 755.008 720.324C755.851 718.619 757.025 717.289 758.531 716.332C760.046 715.376 761.817 714.898 763.843 714.898C765.074 714.898 766.267 715.101 767.423 715.509C768.578 715.916 769.615 716.555 770.533 717.426C771.452 718.297 772.176 719.429 772.707 720.821C773.237 722.204 773.502 723.884 773.502 725.864V727.369H756.158V724.188H769.34C769.34 723.07 769.113 722.08 768.658 721.219C768.204 720.348 767.565 719.661 766.741 719.159C765.926 718.657 764.97 718.406 763.871 718.406C762.678 718.406 761.637 718.7 760.746 719.287C759.866 719.865 759.184 720.622 758.701 721.56C758.228 722.488 757.991 723.496 757.991 724.585V727.071C757.991 728.529 758.246 729.77 758.758 730.793C759.279 731.815 760.003 732.597 760.931 733.136C761.859 733.667 762.943 733.932 764.184 733.932C764.989 733.932 765.723 733.818 766.386 733.591C767.049 733.354 767.621 733.004 768.104 732.54C768.587 732.076 768.957 731.503 769.212 730.821L773.232 731.545C772.91 732.729 772.333 733.766 771.499 734.656C770.675 735.537 769.638 736.223 768.388 736.716C767.148 737.199 765.732 737.44 764.141 737.44ZM798.204 737.44C796.054 737.44 794.203 736.981 792.65 736.062C791.106 735.134 789.913 733.832 789.07 732.156C788.237 730.471 787.82 728.496 787.82 726.233C787.82 723.998 788.237 722.028 789.07 720.324C789.913 718.619 791.087 717.289 792.593 716.332C794.108 715.376 795.879 714.898 797.906 714.898C799.137 714.898 800.33 715.101 801.485 715.509C802.64 715.916 803.677 716.555 804.596 717.426C805.514 718.297 806.239 719.429 806.769 720.821C807.299 722.204 807.565 723.884 807.565 725.864V727.369H790.221V724.188H803.403C803.403 723.07 803.175 722.08 802.721 721.219C802.266 720.348 801.627 719.661 800.803 719.159C799.989 718.657 799.032 718.406 797.934 718.406C796.741 718.406 795.699 718.7 794.809 719.287C793.928 719.865 793.246 720.622 792.763 721.56C792.29 722.488 792.053 723.496 792.053 724.585V727.071C792.053 728.529 792.309 729.77 792.82 730.793C793.341 731.815 794.066 732.597 794.994 733.136C795.922 733.667 797.006 733.932 798.246 733.932C799.051 733.932 799.785 733.818 800.448 733.591C801.111 733.354 801.684 733.004 802.167 732.54C802.65 732.076 803.019 731.503 803.275 730.821L807.295 731.545C806.973 732.729 806.395 733.766 805.562 734.656C804.738 735.537 803.701 736.223 802.451 736.716C801.21 737.199 799.795 737.44 798.204 737.44ZM815.121 715.182L819.937 723.676L824.795 715.182H829.44L822.636 726.091L829.496 737H824.852L819.937 728.847L815.036 737H810.377L817.167 726.091L810.462 715.182H815.121ZM833.8 745.182V715.182H837.948V718.719H838.303C838.549 718.264 838.905 717.739 839.369 717.142C839.833 716.545 840.477 716.025 841.3 715.58C842.124 715.125 843.213 714.898 844.567 714.898C846.329 714.898 847.901 715.343 849.283 716.233C850.666 717.123 851.75 718.406 852.536 720.082C853.332 721.759 853.729 723.776 853.729 726.134C853.729 728.491 853.336 730.513 852.55 732.199C851.764 733.875 850.685 735.168 849.312 736.077C847.939 736.976 846.371 737.426 844.61 737.426C843.284 737.426 842.2 737.204 841.357 736.759C840.524 736.313 839.871 735.793 839.397 735.196C838.924 734.599 838.559 734.069 838.303 733.605H838.048V745.182H833.8ZM837.962 726.091C837.962 727.625 838.185 728.97 838.63 730.125C839.075 731.28 839.719 732.185 840.562 732.838C841.405 733.482 842.437 733.804 843.658 733.804C844.927 733.804 845.988 733.468 846.84 732.795C847.692 732.114 848.336 731.19 848.772 730.026C849.217 728.861 849.44 727.549 849.44 726.091C849.44 724.652 849.222 723.359 848.786 722.213C848.36 721.067 847.716 720.163 846.854 719.5C846.002 718.837 844.937 718.506 843.658 718.506C842.427 718.506 841.386 718.823 840.533 719.457C839.691 720.092 839.051 720.977 838.616 722.114C838.18 723.25 837.962 724.576 837.962 726.091ZM867.891 737.44C865.742 737.44 863.89 736.981 862.337 736.062C860.794 735.134 859.601 733.832 858.758 732.156C857.924 730.471 857.508 728.496 857.508 726.233C857.508 723.998 857.924 722.028 858.758 720.324C859.601 718.619 860.775 717.289 862.281 716.332C863.796 715.376 865.567 714.898 867.593 714.898C868.824 714.898 870.017 715.101 871.173 715.509C872.328 715.916 873.365 716.555 874.283 717.426C875.202 718.297 875.926 719.429 876.457 720.821C876.987 722.204 877.252 723.884 877.252 725.864V727.369H859.908V724.188H873.09C873.09 723.07 872.863 722.08 872.408 721.219C871.954 720.348 871.315 719.661 870.491 719.159C869.676 718.657 868.72 718.406 867.621 718.406C866.428 718.406 865.387 718.7 864.496 719.287C863.616 719.865 862.934 720.622 862.451 721.56C861.978 722.488 861.741 723.496 861.741 724.585V727.071C861.741 728.529 861.996 729.77 862.508 730.793C863.029 731.815 863.753 732.597 864.681 733.136C865.609 733.667 866.693 733.932 867.934 733.932C868.739 733.932 869.473 733.818 870.136 733.591C870.799 733.354 871.371 733.004 871.854 732.54C872.337 732.076 872.707 731.503 872.962 730.821L876.982 731.545C876.66 732.729 876.083 733.766 875.249 734.656C874.425 735.537 873.388 736.223 872.138 736.716C870.898 737.199 869.482 737.44 867.891 737.44ZM881.964 737V715.182H886.07V718.648H886.297C886.695 717.473 887.395 716.55 888.399 715.878C889.412 715.196 890.558 714.855 891.837 714.855C892.102 714.855 892.414 714.865 892.774 714.884C893.143 714.902 893.432 714.926 893.641 714.955V719.017C893.47 718.97 893.167 718.918 892.732 718.861C892.296 718.795 891.86 718.761 891.425 718.761C890.421 718.761 889.526 718.974 888.74 719.401C887.964 719.817 887.348 720.4 886.893 721.148C886.439 721.886 886.212 722.729 886.212 723.676V737H881.964ZM897.316 737V715.182H901.563V737H897.316ZM899.461 711.815C898.722 711.815 898.088 711.569 897.558 711.077C897.037 710.575 896.776 709.978 896.776 709.287C896.776 708.586 897.037 707.99 897.558 707.497C898.088 706.995 898.722 706.744 899.461 706.744C900.2 706.744 900.829 706.995 901.35 707.497C901.88 707.99 902.146 708.586 902.146 709.287C902.146 709.978 901.88 710.575 901.35 711.077C900.829 711.569 900.2 711.815 899.461 711.815ZM916.68 737.44C914.531 737.44 912.679 736.981 911.126 736.062C909.583 735.134 908.39 733.832 907.547 732.156C906.714 730.471 906.297 728.496 906.297 726.233C906.297 723.998 906.714 722.028 907.547 720.324C908.39 718.619 909.564 717.289 911.07 716.332C912.585 715.376 914.356 714.898 916.382 714.898C917.613 714.898 918.806 715.101 919.962 715.509C921.117 715.916 922.154 716.555 923.072 717.426C923.991 718.297 924.715 719.429 925.246 720.821C925.776 722.204 926.041 723.884 926.041 725.864V727.369H908.697V724.188H921.879C921.879 723.07 921.652 722.08 921.197 721.219C920.743 720.348 920.104 719.661 919.28 719.159C918.465 718.657 917.509 718.406 916.411 718.406C915.217 718.406 914.176 718.7 913.286 719.287C912.405 719.865 911.723 720.622 911.24 721.56C910.767 722.488 910.53 723.496 910.53 724.585V727.071C910.53 728.529 910.786 729.77 911.297 730.793C911.818 731.815 912.542 732.597 913.47 733.136C914.398 733.667 915.482 733.932 916.723 733.932C917.528 733.932 918.262 733.818 918.925 733.591C919.588 733.354 920.161 733.004 920.643 732.54C921.126 732.076 921.496 731.503 921.751 730.821L925.771 731.545C925.449 732.729 924.872 733.766 924.038 734.656C923.214 735.537 922.178 736.223 920.928 736.716C919.687 737.199 918.271 737.44 916.68 737.44ZM935.001 724.045V737H930.754V715.182H934.83V718.733H935.1C935.602 717.578 936.388 716.65 937.458 715.949C938.538 715.248 939.897 714.898 941.535 714.898C943.022 714.898 944.324 715.21 945.441 715.835C946.558 716.451 947.425 717.369 948.04 718.591C948.656 719.812 948.964 721.323 948.964 723.122V737H944.717V723.634C944.717 722.052 944.305 720.816 943.481 719.926C942.657 719.027 941.525 718.577 940.086 718.577C939.101 718.577 938.225 718.79 937.458 719.216C936.701 719.642 936.099 720.267 935.654 721.091C935.219 721.905 935.001 722.89 935.001 724.045ZM963.85 737.44C961.738 737.44 959.92 736.962 958.396 736.006C956.88 735.04 955.716 733.709 954.901 732.014C954.087 730.319 953.68 728.378 953.68 726.19C953.68 723.974 954.096 722.019 954.93 720.324C955.763 718.619 956.937 717.289 958.452 716.332C959.968 715.376 961.753 714.898 963.808 714.898C965.465 714.898 966.942 715.205 968.239 715.821C969.537 716.427 970.583 717.279 971.379 718.378C972.183 719.476 972.662 720.759 972.813 722.227H968.68C968.452 721.205 967.932 720.324 967.117 719.585C966.312 718.847 965.233 718.477 963.879 718.477C962.695 718.477 961.658 718.79 960.768 719.415C959.887 720.03 959.201 720.911 958.708 722.057C958.216 723.193 957.969 724.538 957.969 726.091C957.969 727.682 958.211 729.055 958.694 730.21C959.177 731.366 959.859 732.26 960.739 732.895C961.629 733.529 962.676 733.847 963.879 733.847C964.683 733.847 965.413 733.7 966.066 733.406C966.729 733.103 967.283 732.672 967.728 732.114C968.183 731.555 968.5 730.883 968.68 730.097H972.813C972.662 731.508 972.202 732.767 971.435 733.875C970.668 734.983 969.641 735.854 968.353 736.489C967.075 737.123 965.574 737.44 963.85 737.44ZM986.759 737.44C984.609 737.44 982.758 736.981 981.205 736.062C979.661 735.134 978.468 733.832 977.625 732.156C976.792 730.471 976.375 728.496 976.375 726.233C976.375 723.998 976.792 722.028 977.625 720.324C978.468 718.619 979.642 717.289 981.148 716.332C982.663 715.376 984.434 714.898 986.46 714.898C987.691 714.898 988.884 715.101 990.04 715.509C991.195 715.916 992.232 716.555 993.151 717.426C994.069 718.297 994.794 719.429 995.324 720.821C995.854 722.204 996.119 723.884 996.119 725.864V727.369H978.776V724.188H991.957C991.957 723.07 991.73 722.08 991.276 721.219C990.821 720.348 990.182 719.661 989.358 719.159C988.544 718.657 987.587 718.406 986.489 718.406C985.295 718.406 984.254 718.7 983.364 719.287C982.483 719.865 981.801 720.622 981.318 721.56C980.845 722.488 980.608 723.496 980.608 724.585V727.071C980.608 728.529 980.864 729.77 981.375 730.793C981.896 731.815 982.62 732.597 983.548 733.136C984.476 733.667 985.561 733.932 986.801 733.932C987.606 733.932 988.34 733.818 989.003 733.591C989.666 733.354 990.239 733.004 990.722 732.54C991.205 732.076 991.574 731.503 991.83 730.821L995.849 731.545C995.527 732.729 994.95 733.766 994.116 734.656C993.293 735.537 992.256 736.223 991.006 736.716C989.765 737.199 988.349 737.44 986.759 737.44ZM1003.63 737.27C1002.85 737.27 1002.19 736.995 1001.63 736.446C1001.07 735.887 1000.79 735.215 1000.79 734.429C1000.79 733.652 1001.07 732.99 1001.63 732.44C1002.19 731.882 1002.85 731.602 1003.63 731.602C1004.41 731.602 1005.07 731.882 1005.63 732.44C1006.19 732.99 1006.47 733.652 1006.47 734.429C1006.47 734.95 1006.34 735.428 1006.07 735.864C1005.82 736.29 1005.48 736.631 1005.05 736.886C1004.62 737.142 1004.15 737.27 1003.63 737.27Z" fill="black"/>
</svg>
