<svg width="1033" height="481" viewBox="0 0 1033 481" fill="none" xmlns="http://www.w3.org/2000/svg">
<g filter="url(#filter0_bd_1214_15931)">
<rect width="1033" height="480" fill="#C5C7D0"/>
</g>
<rect x="32" y="24" width="235" height="209" fill="white"/>
<rect x="276" y="24" width="235" height="209" fill="white"/>
<rect x="517" y="25" width="235" height="209" fill="white"/>
<rect x="763" y="25" width="235" height="209" fill="white"/>
<rect x="764" y="246" width="235" height="209" fill="white"/>
<rect x="519" y="246" width="235" height="209" fill="white"/>
<rect x="276" y="246" width="235" height="209" fill="white"/>
<rect x="32" y="247" width="235" height="209" fill="white"/>
<path d="M44.4927 62.0012L241.694 62.0012" stroke="black" stroke-width="2" stroke-linecap="square"/>
<path d="M60.6808 88.4909C59.6624 88.3636 58.7026 87.1634 58.4733 89.2268C56.7162 105.041 56.0293 121.079 55.53 137.056" stroke="black" stroke-width="2" stroke-linecap="square"/>
<path d="M63.6242 92.1701C63.128 91.6119 62.0265 90.659 63.0519 90.6984C64.1602 90.7411 65.1587 91.1224 66.2405 91.2707C89.7474 94.4935 113.612 96.0946 137.248 98.0976C144.151 98.6826 151.997 98.319 158.873 99.5692C163.5 100.41 159.638 132.753 159.445 137.056C159.357 139.036 160.702 145.896 157.646 146.458C154.314 147.07 150.522 146.596 147.181 146.621C131.175 146.742 115.199 147.802 99.23 148.829C82.864 149.881 66.5784 151.036 50.1749 151.036C48.7899 151.036 46.6094 151.591 45.9644 150.3" stroke="black" stroke-width="2" stroke-linecap="square"/>
<path d="M60.6808 101C58.8842 101 57.7894 100.296 60.1085 101.736C62.1278 102.989 64.2139 103.603 66.5265 104.434C83.819 110.646 101.25 116.514 118.729 122.175C126.883 124.816 137.714 129.968 146.773 128.961" stroke="black" stroke-width="2" stroke-linecap="square"/>
<path d="M143.829 101C145.448 100.798 142.107 101.196 140.886 101.736C117.099 112.246 92.9986 122.221 68.8158 131.782C65.9063 132.932 57.1467 136.247 59.945 134.848" stroke="black" stroke-width="2" stroke-linecap="square"/>
<path d="M172.526 98.7925C172.526 112.53 171.791 126.262 171.791 139.999" stroke="black" stroke-width="2" stroke-linecap="square"/>
<path d="M170.319 99.5283C170.448 98.4921 171.707 98.7494 172.526 98.7925C189.51 99.6864 206.627 100.918 223.666 100.918C231.582 100.918 238.965 100.212 246.845 101C250.34 101.35 251.891 126.203 252.323 129.534C252.839 133.512 251.934 144.863 255.675 147.357" stroke="black" stroke-width="2" stroke-linecap="square"/>
<path d="M180.621 149.565C194.854 149.565 209.083 148.891 223.299 148.256C230.511 147.934 237.729 147.599 244.924 146.989C247.373 146.782 250.649 147.274 252.732 145.885" stroke="black" stroke-width="2" stroke-linecap="square"/>
<path d="M247.581 101.736C246.78 102.447 245.805 102.888 244.965 103.575C230.657 115.281 214.645 125.333 199.752 136.32" stroke="black" stroke-width="2" stroke-linecap="square"/>
<path d="M182.092 106.151C185.583 106.468 189.467 108.159 192.639 109.176C205.816 113.4 218.715 118.303 231.801 122.748C238.127 124.896 245.505 126.244 251.26 129.697" stroke="black" stroke-width="2" stroke-linecap="square"/>
<path d="M52.5868 166.489C52.0547 166.489 52.5395 167.412 52.7503 168.124C56.3711 180.344 56.5304 194.33 58.4734 206.959" stroke="black" stroke-width="2" stroke-linecap="square"/>
<path d="M54.7942 163.545C77.4135 163.545 100.255 161.289 122.817 159.498C130.954 158.852 139.329 157.659 147.467 157.659C148.337 157.659 151.112 157.175 151.76 157.822C154.846 160.909 154.056 169.78 154.294 173.52C154.697 179.825 154.017 186.818 155.439 192.978C155.903 194.991 156.338 196.796 156.338 198.865" stroke="black" stroke-width="2" stroke-linecap="square"/>
<path d="M65.8317 210.638C83.4934 210.638 101.389 207.553 118.893 205.324C130.388 203.86 141.902 202.509 153.395 201.072" stroke="black" stroke-width="2" stroke-linecap="square"/>
<path d="M62.1525 176.054C62.4436 174.016 66.2454 176.58 68.2435 177.076C93.7359 183.407 119.681 190.452 146.037 191.507" stroke="black" stroke-width="2" stroke-linecap="square"/>
<path d="M156.338 159.866C156.204 160.942 154.576 161.037 153.722 161.379C127.833 171.734 102.813 184.781 77.6049 196.657" stroke="black" stroke-width="2" stroke-linecap="square"/>
<path d="M172.526 164.281C172.526 163.408 172.403 165.908 172.486 166.489C173.982 176.962 174.67 187.635 176.206 198.129" stroke="black" stroke-width="2" stroke-linecap="square"/>
<path d="M169.583 163.545C145.054 163.545 218.637 162.809 243.166 162.809" stroke="black" stroke-width="2" stroke-linecap="square"/>
<path d="M246.845 161.338C246.845 162.262 247.05 162.719 247.417 163.545C247.709 164.201 247.547 164.949 247.499 165.63C247.156 170.523 246.745 175.411 246.436 180.306C245.959 187.882 244.866 196.777 247.581 204.016" stroke="black" stroke-width="2" stroke-linecap="square"/>
<path d="M184.3 205.487C196.939 205.487 209.608 204.552 222.236 204.057C228.511 203.811 234.693 202.544 240.958 202.544" stroke="black" stroke-width="2" stroke-linecap="square"/>
<path d="M184.3 171.639C181.928 171.978 188.244 174.441 190.472 175.318C205.194 181.114 220.446 187.037 235.889 190.607C238.751 191.269 241.708 191.507 244.637 191.507" stroke="black" stroke-width="2" stroke-linecap="square"/>
<path d="M246.109 170.904C242.821 174.192 238.45 175.981 234.336 178.098C220.447 185.247 206.425 192.917 191.658 198.129" stroke="black" stroke-width="2" stroke-linecap="square"/>
<path d="M37.5251 266.547L245.444 266.547" stroke="black" stroke-width="2" stroke-linecap="square"/>
<path d="M53.7842 282.806C52.9937 283.596 52.3324 284.515 53.7842 285.132C57.3582 286.651 62.7717 287.834 66.2659 285.543C68.4419 284.116 69.5912 281.141 66.8407 279.713C63.9134 278.193 51.4226 279.932 55.8098 285.05C58.326 287.986 63.3591 287.063 66.5944 286.254" stroke="black" stroke-width="2" stroke-linecap="square"/>
<path d="M62.1602 281.328V284.284" stroke="black" stroke-width="2" stroke-linecap="square"/>
<path d="M83.8388 276.401C82.8043 276.286 82.6024 275.887 81.4848 276.291C79.1217 277.144 72.9199 278.986 78.0907 280.123C78.8914 280.299 87.7856 282.702 85.5633 283.517C81.9037 284.859 77.3337 284.284 73.4922 284.284" stroke="black" stroke-width="2" stroke-linecap="square"/>
<path d="M88.7657 279.357C89.4476 279.271 89.4531 277.646 89.7785 279.11C90.1043 280.576 90.2438 281.695 90.2438 283.298" stroke="black" stroke-width="2" stroke-linecap="square"/>
<path d="M90.2439 283.298C90.2972 282.872 95.8159 280.484 96.2384 280.26C96.6334 280.051 96.8297 283.405 97.1964 283.955C98.7202 286.241 100.826 282.501 101.029 281.136C101.472 278.141 100.591 282.897 100.591 283.736C100.591 285.794 100.719 287.827 100.974 289.868C101.058 290.543 101.118 291.414 100.974 290.032C100.675 287.17 100.643 283.192 103.437 281.437C103.758 281.235 105.088 280.901 104.587 281.82C104.043 282.817 102.499 283.287 101.576 283.791" stroke="black" stroke-width="2" stroke-linecap="square"/>
<path d="M107.981 279.849C110.396 277.434 108.966 283.366 108.966 284.776" stroke="black" stroke-width="2" stroke-linecap="square"/>
<path d="M118.82 278.864C127.71 278.864 136.939 278.371 145.919 278.371" stroke="black" stroke-width="2" stroke-linecap="square"/>
<path d="M159.222 275.415C158.132 275.306 151.426 275.246 153.966 276.401C154.425 276.609 160.445 278.421 159.933 278.974C158.913 280.076 154.64 279.555 154.185 280.616C153.816 281.476 158.54 281.12 158.948 280.999C160.542 280.525 162.205 279.47 162.889 277.906C164.099 275.142 165.231 281.252 166.119 282.806" stroke="black" stroke-width="2" stroke-linecap="square"/>
<path d="M164.149 277.879C163.104 278.009 164.51 278.539 165.134 278.262C166.216 277.781 167.416 277.719 168.583 277.386" stroke="black" stroke-width="2" stroke-linecap="square"/>
<path d="M168.583 278.371C169.44 279.133 170.366 278.418 169.568 278.371C168.223 278.292 168.46 279.398 169.322 280.068C170.705 281.144 174.181 278.928 174.468 277.495C175.063 274.519 175.35 283.68 176.959 286.254" stroke="black" stroke-width="2" stroke-linecap="square"/>
<path d="M176.959 282.806C175.222 282.589 176.261 278.496 177.506 278.043C178.212 277.786 180.142 278.287 179.696 279.357C179.224 280.49 177.816 281.456 176.959 282.313" stroke="black" stroke-width="2" stroke-linecap="square"/>
<path d="M184.349 278.864C184.478 277.834 187.015 277.089 186.484 279.138C186.247 280.053 184.935 281.313 186.375 281.793C187.802 282.268 189.27 282.313 190.754 282.313" stroke="black" stroke-width="2" stroke-linecap="square"/>
<path d="M193.71 276.893C197.522 278.687 203.613 276.875 207.561 276.62C210.014 276.461 212.443 276.401 214.896 276.401" stroke="black" stroke-width="2" stroke-linecap="square"/>
<path d="M225.243 277.879C225.01 276.016 219.301 276.978 221.411 278.371C221.952 278.728 226.174 280.522 224.559 281.081C222.838 281.677 220.993 281.648 219.331 282.313" stroke="black" stroke-width="2" stroke-linecap="square"/>
<path d="M228.199 277.879C230.369 275.438 229.366 277.904 230.663 279.849" stroke="black" stroke-width="2" stroke-linecap="square"/>
<path d="M229.185 280.835C229.265 280.192 230.893 280.162 231.484 279.767C232.435 279.134 234.288 276.226 233.838 277.276C233.137 278.913 233.649 281.543 233.893 283.216C234.75 289.093 233.593 284.324 234.714 282.039C235.9 279.621 238.048 280.184 236.083 282.806" stroke="black" stroke-width="2" stroke-linecap="square"/>
<path d="M240.024 276.893C240.994 276.839 242.723 275.927 243.528 276.893C244.161 277.654 241.278 278.422 242.597 279.357C242.924 279.588 244.762 280.019 244.732 280.561C244.679 281.523 242.678 282.293 241.995 282.806" stroke="black" stroke-width="2" stroke-linecap="square"/>
<path d="M45.4083 270.488C45.4083 273.038 44.5562 274.965 43.9576 277.523C42.9048 282.021 42.4521 286.48 42.4521 291.072C42.4521 291.799 42.0557 294.74 42.7258 295.123C46.2507 297.137 53.2764 295.219 57.0688 295.014C94.352 292.992 131.58 291.674 168.911 291.674C190.279 291.674 211.505 292.66 232.88 292.66C236.618 292.66 240.248 292.236 243.966 292.167C246.21 292.125 248.062 291.52 249.632 289.95C251.67 287.911 250.292 283.379 249.988 280.944C249.578 277.67 247.904 275.405 246.922 272.459" stroke="black" stroke-width="2" stroke-linecap="square"/>
<path d="M45.901 308.426L237.068 308.426" stroke="black" stroke-width="2" stroke-linecap="square"/>
<path d="M49.8426 324.685C51.6652 324.913 49.0601 348.465 49.8426 352.769" stroke="black" stroke-width="2" stroke-linecap="square"/>
<path d="M55.755 321.236C56.5883 321.236 57.3917 321.23 58.2185 321.127C72.6089 319.328 87.3881 319.774 101.877 319.265C108.028 319.049 114.149 318.28 120.298 318.28C121.223 318.28 121.5 318.63 121.667 319.594C122.489 324.321 121.981 329.484 122.516 334.293C123.18 340.273 122.779 346.431 124.24 352.276" stroke="black" stroke-width="2" stroke-linecap="square"/>
<path d="M56.2477 362.13C47.0884 362.13 74.5242 360.864 83.6745 360.46C92.9073 360.053 102.187 359.704 111.43 359.667C115.476 359.65 120.343 360.473 124.24 359.174" stroke="black" stroke-width="2" stroke-linecap="square"/>
<path d="M64.6235 336.51C65.0213 336.907 65.4228 337.353 65.9374 337.605C72.5372 340.826 79.8638 343.039 86.795 345.378C95.528 348.325 104.457 351.026 113.401 353.261" stroke="black" stroke-width="2" stroke-linecap="square"/>
<path d="M124.24 329.612C124.192 329.228 124.051 329.104 123.638 329.119C121.265 329.207 116.079 332.467 114.824 333.061C101 339.604 86.9498 345.583 72.9995 351.783" stroke="black" stroke-width="2" stroke-linecap="square"/>
<path d="M136.065 323.207C150.121 323.207 164.273 323.185 178.327 323.7C184.197 323.914 190.053 324.192 195.928 324.192C197.349 324.192 198.364 324.181 199.623 324.685" stroke="black" stroke-width="2" stroke-linecap="square"/>
<path d="M143.455 330.105C156.266 330.105 169.073 330.597 181.886 330.597" stroke="black" stroke-width="2" stroke-linecap="square"/>
<path d="M156.265 337.495C160.219 337.855 164.07 337.988 168.09 337.988" stroke="black" stroke-width="2" stroke-linecap="square"/>
<path d="M49.8427 380.36C50.0504 382.229 50.485 384.111 50.6638 386.108C51.4883 395.315 51.3207 404.19 51.3207 413.371" stroke="black" stroke-width="2" stroke-linecap="square"/>
<path d="M48.3645 376.418C51.4054 376.418 54.6399 375.762 57.6163 375.488C73.7116 374.002 89.742 373.379 105.873 372.723C108.195 372.629 116.629 370.822 118.355 373.626C120.106 376.471 120.555 380.39 121.284 383.59C122.652 389.595 123.617 395.582 124.24 401.71C124.548 404.74 124.201 413.344 127.196 415.341" stroke="black" stroke-width="2" stroke-linecap="square"/>
<path d="M56.7404 416.82C72.0454 416.82 87.4324 415.445 102.726 414.739C107.629 414.513 112.571 413.918 117.479 413.918C119.541 413.918 121.97 414.752 123.747 413.863" stroke="black" stroke-width="2" stroke-linecap="square"/>
<path d="M65.609 387.75C74.9554 392.424 85.7279 394.623 95.7183 397.44C102.422 399.331 109.4 401.662 116.357 402.531" stroke="black" stroke-width="2" stroke-linecap="square"/>
<path d="M106.503 378.389C91.3204 388.149 74.565 395.46 59.2039 404.995" stroke="black" stroke-width="2" stroke-linecap="square"/>
<path d="M147.89 371.491C167.273 371.491 186.65 370.506 206.028 370.506" stroke="black" stroke-width="2" stroke-linecap="square"/>
<path d="M158.236 378.389C170.388 379.604 182.514 379.867 194.696 379.867" stroke="black" stroke-width="2" stroke-linecap="square"/>
<path d="M163.163 390.214H180.9" stroke="black" stroke-width="2" stroke-linecap="square"/>
<path d="M290.532 51.0572C306.839 51.0572 323.094 50.1684 339.387 50.0779C366.451 49.9276 393.6 48.2535 420.667 49.2074C436.56 49.7676 452.508 49.6234 468.379 50.4587C475.877 50.8534 483.402 50.811 490.902 51.166C495.222 51.3705 499.786 52.114 504.014 51.0572" stroke="black" stroke-width="2" stroke-linecap="square"/>
<path d="M290.532 61.3395C290.532 72.7625 288.574 84.2026 288.574 95.614" stroke="black" stroke-width="2" stroke-linecap="square"/>
<path d="M291.022 94.6347L495.2 94.6347" stroke="black" stroke-width="2" stroke-linecap="square"/>
<path d="M292.981 62.3188L497.648 62.3188" stroke="black" stroke-width="2" stroke-linecap="square"/>
<path d="M497.648 63.7877V90.7177" stroke="black" stroke-width="2" stroke-linecap="square"/>
<path d="M315.993 68.1944C312.666 68.1944 309.338 68.1944 306.01 68.1944C304.321 68.1944 301.865 68.1376 300.57 69.1737C298.996 70.433 299.346 74.877 299.346 76.627C299.346 78.4453 298.574 82.1996 299.455 83.8628C300.22 85.3085 304.401 83.9773 305.493 83.89C309.025 83.6074 312.706 82.8835 316.238 82.8835C318.195 82.8835 317.952 81.4183 317.952 79.9457C317.952 77.1968 317.952 74.4192 317.952 71.7307C317.952 68.8417 306.497 71.1322 304.487 71.1322C302.071 71.1322 303.141 80.8152 303.263 82.8835C303.351 84.3733 311.696 82.8835 313.028 82.8835C316.554 82.8835 314.629 76.9022 314.28 74.6685C314.06 73.2649 314.699 70.6426 312.947 70.6426C309.708 70.6426 306.511 71.1322 303.263 71.1322" stroke="black" stroke-width="2" stroke-linecap="square"/>
<path d="M312.076 73.5804C309.957 74.0042 306.758 77.7717 305.221 78.9664" stroke="black" stroke-width="2" stroke-linecap="square"/>
<path d="M298.856 71.6219C299.432 71.6938 299.827 72.4171 300.325 72.71C303.711 74.7015 306.608 77.7013 310.118 79.456" stroke="black" stroke-width="2" stroke-linecap="square"/>
<path d="M328.724 72.1115C328.639 71.3491 328.327 70.8665 329.105 71.7307C331.147 73.9993 333.415 75.9007 336.776 76.1918C340.203 76.4886 336.63 66.7805 336.177 71.8939C335.781 76.3734 334.479 82.6429 336.558 86.8006" stroke="black" stroke-width="2" stroke-linecap="square"/>
<path d="M342.434 77.0079C341.465 76.1606 341.648 79.5839 342.107 80.2177C344.355 83.3196 345.563 81.0939 344.392 78.3136C343.306 75.7344 342.137 77.6483 340.965 78.9664" stroke="black" stroke-width="2" stroke-linecap="square"/>
<path d="M347.33 77.9871C347.784 77.9304 348.309 76.2564 348.309 77.7423C348.309 78.7699 347.939 80.746 349.071 81.2786C350.419 81.9128 351.261 76.6008 351.628 78.3136C352.024 80.1622 351.477 84.9145 354.185 82.8835" stroke="black" stroke-width="2" stroke-linecap="square"/>
<path d="M362.509 71.6219C362.509 71.2515 362.501 74.0165 362.482 74.5053C362.39 76.8074 362.237 79.1096 362.237 81.4146C362.237 81.8061 362.436 82.9416 362.509 82.5571C362.721 81.4426 362.88 79.4633 364.005 78.8304C366.319 77.5289 366.321 85.7123 370.098 83.7539C372.087 82.7226 372.394 80.5863 372.274 78.5584C372.17 76.786 371.26 76.3165 370.37 78.0959C368.853 81.1309 370.852 83.8141 371.703 79.9457C372.594 75.8978 372.842 83.3083 374.75 81.8498C375.093 81.5876 376.505 78.5479 376.599 78.6944C377.08 79.4367 377.085 82.0838 378.286 82.1762C379.728 82.2872 379.156 75.4808 379.156 78.9664" stroke="black" stroke-width="2" stroke-linecap="square"/>
<path d="M383.074 80.4353C384.103 79.8904 385.352 78.3331 385.032 79.2928C384.809 79.9611 384.415 82.9058 386.011 82.1762C386.94 81.7516 387.654 80.5496 388.46 79.9457" stroke="black" stroke-width="2" stroke-linecap="square"/>
<path d="M392.377 80.9249C393.016 80.996 393.448 81.4146 394.118 81.4146C395.503 81.4146 400.237 77.7111 397.98 77.3887C393.987 76.8182 395.745 89.5668 400.7 83.3731" stroke="black" stroke-width="2" stroke-linecap="square"/>
<path d="M407.066 79.456C407.066 75.8308 403.073 82.0179 402.931 83.2643C402.649 85.7373 404.798 81.554 404.998 81.0337C405.397 79.9962 406.858 83.8961 407.066 84.3524" stroke="black" stroke-width="2" stroke-linecap="square"/>
<path d="M408.535 81.9042C409.56 80.8791 409.959 81.4978 410.384 82.7747C410.849 84.169 411.161 81.266 411.472 80.4353" stroke="black" stroke-width="2" stroke-linecap="square"/>
<path d="M413.431 79.9457C414.569 80.088 414.159 84.3501 414.437 83.2371C415.354 79.5698 419.831 80.1031 418.327 83.8628" stroke="black" stroke-width="2" stroke-linecap="square"/>
<path d="M418.817 82.8835C421.153 82.8835 421.919 83.5335 422.788 80.1089C423.214 78.4317 421.609 79.9993 421.864 81.4146C422.214 83.3628 423.572 83.6415 425.182 83.3731" stroke="black" stroke-width="2" stroke-linecap="square"/>
<path d="M431.547 81.9042C431.547 80.9009 430.856 80.4353 429.834 80.4353C428.509 80.4353 426.861 82.3865 426.161 83.3187C424.625 85.3676 427.697 84.6129 428.501 83.7539C429.899 82.26 429.966 79.7654 430.051 77.8511C430.098 76.8093 430.079 74.0345 430.079 76.8991C430.079 79.6404 429.091 84.8378 432.037 86.3109" stroke="black" stroke-width="2" stroke-linecap="square"/>
<path d="M445.257 78.9664C445.17 78.2692 443.926 78.3451 443.408 77.8783C441.861 76.4866 448.051 74.9167 449.61 76.627C451.001 78.1542 446.699 80.7194 445.856 81.3058C445.639 81.4565 442.469 83.0542 444.332 82.7747C447.418 82.3118 450.527 81.5358 453.581 80.9249" stroke="black" stroke-width="2" stroke-linecap="square"/>
<path d="M457.498 78.9664C457.583 78.2029 457.848 77.6521 457.253 78.7216C456.404 80.2504 456.584 81.3527 458.532 81.7954C462.095 82.6053 462.243 77.9259 459.348 77.2255C456.115 76.4434 453.627 79.5933 454.56 82.3939" stroke="black" stroke-width="2" stroke-linecap="square"/>
<path d="M468.27 77.4975C469.551 77.3374 468.76 87.8324 468.76 88.7591" stroke="black" stroke-width="2" stroke-linecap="square"/>
<path d="M466.801 78.4768C465.398 78.3014 465.266 76.1654 467.672 76.4638C469.27 76.6622 477.124 77.7299 472.242 79.456C469.993 80.2511 467.618 80.7287 465.332 81.4146" stroke="black" stroke-width="2" stroke-linecap="square"/>
<path d="M475.125 78.9664C476.621 78.9664 475.615 79.6782 475.615 80.6801C475.615 81.687 476.816 80.9546 476.703 80.1633C476.568 79.2208 474.611 78.067 474.771 79.5104C475.178 83.1738 479.845 78.9337 480.81 80.4353C482.061 82.3805 483.769 79.5424 484.673 81.1698C486.064 83.6731 487.815 79.3033 488.345 78.0959C489.317 75.8823 487.589 82.5218 488.835 81.4146C489.48 80.8412 492.569 78.4043 492.861 79.0752C493.514 80.5779 494.512 81.1545 492.262 81.9042" stroke="black" stroke-width="2" stroke-linecap="square"/>
<path d="M327.745 114.22C360.074 114.22 392.389 113.976 424.693 112.37C440.091 111.605 455.47 112.93 470.718 110.548C472.92 110.204 477.944 108.652 479.287 111.337C480.764 114.291 479.708 118.159 478.825 121.129C476.822 127.862 474.483 134.319 473.928 141.368C473.443 147.538 472.762 153.787 472.677 159.974C472.604 165.291 471.796 170.637 472.459 175.941C472.967 180 473.715 183.804 474.635 187.774C475.034 189.495 476.202 192.267 476.104 194.031C475.986 196.158 467.67 195.23 466.937 195.2C451.844 194.592 436.815 193.608 421.7 193.541C397.813 193.435 373.912 192.239 350.05 191.202C340.949 190.806 331.396 192.139 322.359 190.712C320.576 190.431 312.893 190.433 311.859 188.808C310.049 185.964 311.349 179.834 311.587 176.894C312.338 167.62 313.025 158.341 313.763 149.066C314.383 141.266 313.884 132.065 316.238 124.53C316.756 122.873 316.966 119.498 319.503 119.878C322.546 120.335 325.642 120.585 328.724 120.585" stroke="black" stroke-width="2" stroke-linecap="square"/>
<path d="M319.911 129.888C320.392 129.888 320.743 129.894 321.162 130.161C328.188 134.632 336.912 137.616 344.61 140.688C362.262 147.732 380.431 153.349 398.905 157.771C414.103 161.408 429.017 166.611 444.768 166.611" stroke="black" stroke-width="2" stroke-linecap="square"/>
<path d="M454.56 128.909C446.732 131.414 438.611 133.076 430.731 135.438C415.645 139.958 400.645 144.679 385.522 149.093C372.353 152.937 359.787 158.386 346.949 163.184C340.788 165.486 333.583 167.355 327.853 170.528C325.237 171.978 321.602 173.377 319.911 175.914" stroke="black" stroke-width="2" stroke-linecap="square"/>
<path d="M282.663 279.419V417.33" stroke="black" stroke-width="2" stroke-linecap="square"/>
<path d="M282.663 272.137L492.943 272.137" stroke="black" stroke-width="2" stroke-linecap="square"/>
<path d="M500.681 274.413V401.855" stroke="black" stroke-width="2" stroke-linecap="square"/>
<path d="M299.049 414.599H502.956" stroke="black" stroke-width="2" stroke-linecap="square"/>
<path d="M289.946 283.061V401.855" stroke="black" stroke-width="2" stroke-linecap="square"/>
<path d="M292.677 280.33H361.86" stroke="black" stroke-width="2" stroke-linecap="square"/>
<path d="M364.59 280.785V397.759" stroke="black" stroke-width="2" stroke-linecap="square"/>
<path d="M290.856 405.041H366.411" stroke="black" stroke-width="2" stroke-linecap="square"/>
<path d="M297.228 291.708C296.65 291.781 296.407 292.587 296.343 293.099C295.472 300.068 296.015 307.44 295.863 314.466" stroke="black" stroke-width="2" stroke-linecap="square"/>
<path d="M297.683 289.433C298.251 289.433 298.765 289.376 299.276 289.66C300.716 290.46 302.56 289.954 304.207 289.989C312.266 290.161 320.322 290.181 328.381 289.989C336.599 289.793 344.788 289.433 353.009 289.433C353.87 289.433 355.765 289.117 355.386 290.444C354.773 292.591 355.403 294.868 355.462 297.069C355.631 303.395 354.354 310.157 356.398 316.287" stroke="black" stroke-width="2" stroke-linecap="square"/>
<path d="M301.324 315.831C307.67 315.831 313.98 316.596 320.39 316.388C327.707 316.15 334.945 316.352 342.237 316.716C345.725 316.891 349.262 316.742 352.756 316.742" stroke="black" stroke-width="2" stroke-linecap="square"/>
<path d="M305.876 295.805C305.936 295.385 306.168 295.642 306.432 295.805C310.262 298.162 315.381 299.578 319.48 301.115C327.635 304.173 335.944 307.112 344.564 308.549" stroke="black" stroke-width="2" stroke-linecap="square"/>
<path d="M346.84 293.074C345.811 293.188 344.117 294.401 343.299 294.768C333.032 299.38 322.789 304.141 312.248 308.094" stroke="black" stroke-width="2" stroke-linecap="square"/>
<path d="M299.049 322.204C299.049 329.771 298.96 337.467 299.959 344.961" stroke="black" stroke-width="2" stroke-linecap="square"/>
<path d="M298.594 324.479C298.654 323.938 298.937 323.599 299.504 323.569C306.159 323.219 313.073 324.228 319.733 324.454C329.212 324.775 338.984 324.614 348.407 325.87C350.305 326.123 352.219 326.544 354.122 326.755C355.918 326.955 355.289 336.842 355.386 338.235C355.608 341.412 356.853 344.796 356.853 347.92C356.853 349.029 343.841 347.689 342.339 347.717C329.563 347.961 316.799 349.058 304.055 349.058" stroke="black" stroke-width="2" stroke-linecap="square"/>
<path d="M302.69 326.755C302.238 326.699 310.09 330.025 310.377 330.143C319.668 333.987 328.95 337.936 338.495 341.118C339.464 341.441 340.357 341.775 341.378 341.775" stroke="black" stroke-width="2" stroke-linecap="square"/>
<path d="M343.198 329.031C343.782 328.447 342.035 329.332 341.732 329.486C331.439 334.705 320.46 339.038 309.517 342.685" stroke="black" stroke-width="2" stroke-linecap="square"/>
<path d="M304.055 358.161C303.217 358.265 306.114 376.952 306.331 379.553" stroke="black" stroke-width="2" stroke-linecap="square"/>
<path d="M302.69 353.154C300.246 352.848 307.614 353.316 310.073 353.457C322.644 354.179 335.15 354.064 347.725 354.064C349.193 354.064 350.38 354.519 351.846 354.519C353.968 354.519 353.212 356.421 353.212 358.236C353.212 363.228 354.527 367.946 355.032 372.877C355.182 374.337 356.576 377.451 354.931 377.833C344.628 380.229 333.826 379.769 323.323 380.918C318.423 381.454 313.544 382.284 308.607 382.284" stroke="black" stroke-width="2" stroke-linecap="square"/>
<path d="M305.421 353.609C305.497 353.078 305.91 353.643 306.103 353.837C307.36 355.093 308.614 355.712 310.301 356.517C321.975 362.09 333.931 367.471 345.929 372.27" stroke="black" stroke-width="2" stroke-linecap="square"/>
<path d="M349.115 358.616C349.202 357.918 349.524 357.525 348.407 358.439C345.686 360.665 342.272 361.898 339.102 363.37C328.419 368.328 317.726 373.356 306.786 377.732" stroke="black" stroke-width="2" stroke-linecap="square"/>
<path d="M375.059 283.971C388.813 283.971 402.541 284.098 416.275 284.78C427.783 285.352 439.452 286.133 450.968 286.247C458.895 286.325 466.839 286.592 474.737 286.702C479.911 286.774 485.031 287.157 490.212 287.157" stroke="black" stroke-width="2" stroke-linecap="square"/>
<path d="M374.604 288.522C374.604 302.72 372.921 317.154 372.429 331.458C371.964 344.99 372.773 358.488 373.264 371.992C373.435 376.709 374.446 381.591 375.716 386.127C376.449 388.745 376.466 391.513 377.335 394.118" stroke="black" stroke-width="2" stroke-linecap="square"/>
<path d="M379.155 392.752C392.203 392.752 405.256 393.391 418.298 393.637C430.379 393.865 442.463 393.697 454.508 394.092C461.285 394.314 467.991 393.302 474.737 393.207C478.08 393.16 482.062 393.555 485.206 392.297" stroke="black" stroke-width="2" stroke-linecap="square"/>
<path d="M489.757 289.888C489.757 289.451 489.078 292.357 489.024 292.745C487.642 302.574 487.792 312.536 488.645 322.406C489.301 330.007 489.289 337.602 489.757 345.214C490.084 350.528 491.123 355.812 491.123 361.144C491.123 367.11 491.065 373.317 492.134 379.199C492.665 382.118 493.853 385.267 493.853 388.201" stroke="black" stroke-width="2" stroke-linecap="square"/>
<path d="M380.976 288.978C380.976 287.132 380.309 292.61 380.066 294.439" stroke="black" stroke-width="2" stroke-linecap="square"/>
<path d="M384.162 288.522C409.171 288.522 434.052 286.868 459.06 287.637C464.577 287.807 470.107 288.522 475.622 288.522C478.338 288.522 481.149 288.164 483.815 288.497C485.654 288.727 485.334 290.192 484.978 291.759C484.6 293.422 485.593 297.175 484.194 298.435C483.841 298.753 482.56 298.536 482.171 298.536C478.934 298.536 475.74 298.343 472.512 298.081C460.846 297.132 449.215 297.108 437.516 297.17C424.361 297.241 411.184 298.536 398.044 298.536C392.975 298.536 387.892 298.991 382.796 298.991C381.41 298.991 382.297 297.642 382.569 296.665C383.187 294.439 382.85 291.855 384.162 289.888" stroke="black" stroke-width="2" stroke-linecap="square"/>
<path d="M390.989 293.984C391.619 293.984 392.678 294.194 393.265 293.984C394.02 293.715 392.051 291.97 391.672 291.885C390.366 291.595 390.039 292.699 389.624 293.529" stroke="black" stroke-width="2" stroke-linecap="square"/>
<path d="M394.175 293.529C394.88 293.607 395.423 294.153 395.996 294.439" stroke="black" stroke-width="2" stroke-linecap="square"/>
<path d="M381.886 311.735C370.696 311.735 404.159 313.946 415.315 314.82C415.977 314.872 418.742 314.512 419.209 315.225C420.603 317.353 419.259 321.961 419.259 324.277C419.259 329.014 420.249 333.799 420.65 338.412C420.895 341.231 425.998 343.265 428.033 344.304C433.497 347.09 439.083 349.81 444.647 352.395C448.797 354.324 452.343 355.48 456.986 356.239C461.785 357.024 467.149 358.126 472.057 357.68C473.604 357.54 478.667 355.732 479.491 357.604C480.867 360.731 481.28 364.002 483.385 366.808" stroke="black" stroke-width="2" stroke-linecap="square"/>
<path d="M374.149 327.665C374.658 327.729 375.383 328.445 375.742 328.803C377.428 330.489 380.66 331.339 382.796 332.166C385.567 333.24 388.316 333.833 391.242 334.265C401.255 335.742 413.392 335.909 423.103 332.672C436.081 328.346 448.998 314.213 448.793 299.901C448.681 292.037 444.4 283.856 437.415 279.976C435.048 278.661 432.605 276.233 429.677 276.233" stroke="black" stroke-width="2" stroke-linecap="square"/>
<path d="M374.149 324.935C377.078 327.538 381.558 328.726 385.274 329.941C389.914 331.458 394.846 332.382 399.688 333.127C414.168 335.355 428.527 331.994 439.69 322.305C443.869 318.678 450.487 312.429 451.423 306.627C451.919 303.551 452.683 300.543 452.409 297.398C452.126 294.138 450.51 292.025 449.046 289.23C447.29 285.877 442.982 281.513 439.665 279.647C436.777 278.023 434.365 276.688 431.042 276.688" stroke="black" stroke-width="2" stroke-linecap="square"/>
<path d="M371.418 342.685C370.822 342.76 370.765 343.711 371.19 344.051C371.537 344.328 371.293 344.612 371.418 344.961C372.267 347.34 375.254 349.619 376.955 351.384C383.946 358.638 394.383 363.393 404.29 364.988C415.253 366.753 426.184 367.76 437.162 365.418C450.17 362.643 459.781 354.647 468.416 344.885C476.168 336.121 481.953 322.869 482.829 311.128C483.396 303.522 483.352 294.554 480.452 287.435C479.333 284.688 477.698 282.243 476.558 279.521C475.957 278.085 474.76 276.017 473.372 275.323" stroke="black" stroke-width="2" stroke-linecap="square"/>
<path d="M370.963 344.506C371.6 344.577 371.952 345.174 372.328 345.644C373.948 347.669 375.693 349.769 377.79 351.333C382.074 354.528 386.421 356.826 391.343 358.97C396.026 361.009 400.743 362.262 405.655 363.622C410.556 364.98 416.397 366.353 421.484 366.353C429.185 366.353 437.393 364.576 443.787 360.082C447.777 357.278 451.991 355.418 455.52 351.89C459.418 347.991 463.064 343.753 466.544 339.499C471.247 333.751 477.046 327.818 478.378 320.155C478.897 317.171 479.744 313.87 479.744 310.85C479.744 308.251 479.289 305.727 479.289 303.087C479.289 298.923 478.833 294.833 478.833 290.773C478.833 286.423 477.478 279.429 474.282 276.233" stroke="black" stroke-width="2" stroke-linecap="square"/>
<path d="M525.296 37.6252L734.86 37.6252" stroke="black" stroke-width="2" stroke-linecap="square"/>
<path d="M527.628 48.5117V220.362" stroke="black" stroke-width="2" stroke-linecap="square"/>
<path d="M526.073 50.4557L599.168 50.4557" stroke="black" stroke-width="2" stroke-linecap="square"/>
<path d="M601.89 50.0669V205.977" stroke="black" stroke-width="2" stroke-linecap="square"/>
<path d="M538.126 214.919H602.667" stroke="black" stroke-width="2" stroke-linecap="square"/>
<path d="M534.627 62.1198C535.872 73.3291 536.138 85.2697 538.904 96.3344" stroke="black" stroke-width="2" stroke-linecap="square"/>
<path d="M536.182 62.8974C536.285 62.0762 537.313 62.82 537.759 62.8758C544.038 63.6606 551.115 62.67 557.393 62.4222C563.086 62.1975 568.793 61.9011 574.479 61.5366C578.78 61.2608 583.188 60.6995 587.504 60.9534C589.32 61.0602 589.485 82.5261 589.621 84.6919C589.931 89.6523 591.781 104.415 591.781 99.4448" stroke="black" stroke-width="2" stroke-linecap="square"/>
<path d="M539.681 103.333C555.684 105.333 572.094 101 588.282 101" stroke="black" stroke-width="2" stroke-linecap="square"/>
<path d="M548.235 71.0622C549.108 71.8383 550.443 72.5177 551.453 72.9846C564.394 78.965 577.583 85.0447 591.781 87.0031" stroke="black" stroke-width="2" stroke-linecap="square"/>
<path d="M591.003 64.0638C590.652 63.9193 590.388 63.7863 590.01 63.9126C589.113 64.2114 588.392 64.891 587.612 65.4246C582.819 68.704 577.946 72.1618 573.226 75.4902C561.97 83.4285 550.573 91.1599 539.293 99.056" stroke="black" stroke-width="2" stroke-linecap="square"/>
<path d="M542.403 109.942C544.351 110.808 547.144 110.381 549.099 110.418C555.938 110.546 562.778 110.72 569.619 110.72" stroke="black" stroke-width="2" stroke-linecap="square"/>
<path d="M540.848 115.774C549.102 115.774 557.496 116.415 565.731 115.386" stroke="black" stroke-width="2" stroke-linecap="square"/>
<path d="M543.569 120.44H562.232" stroke="black" stroke-width="2" stroke-linecap="square"/>
<path d="M542.403 133.271C542.403 143.379 542.662 153.49 542.792 163.597" stroke="black" stroke-width="2" stroke-linecap="square"/>
<path d="M536.96 131.715C537.008 131.327 537.209 131.327 537.565 131.327C541.754 131.327 545.972 131.54 550.179 131.499C557.525 131.429 564.872 131.376 572.211 131.024C574.119 130.933 576.094 130.815 578 131.024C580.81 131.332 584.681 132.211 587.439 131.521C587.463 131.515 588.665 130.981 588.087 130.981C587.641 130.981 587.913 136.717 587.914 136.813C588.064 145.861 589.053 154.82 589.923 163.813C590.028 164.9 591.317 168.583 589.966 169.213C588.133 170.069 585.124 169.954 583.184 170.207C576.289 171.106 569.347 171.567 562.448 172.453C556.438 173.225 550.035 174.484 543.958 174.484" stroke="black" stroke-width="2" stroke-linecap="square"/>
<path d="M537.349 143.768C536.41 142.712 537.904 143.056 538.515 143.293C548.979 147.357 559.047 152.49 569.338 156.966C573.048 158.58 576.59 160.005 580.506 160.876" stroke="black" stroke-width="2" stroke-linecap="square"/>
<path d="M578.173 138.714C578.326 138.523 578.793 137.802 578.648 137.547C578.379 137.077 577.771 138.194 577.395 138.584C574.412 141.685 575.166 141.082 571.65 144.675C563.105 153.408 553.656 161.015 543.569 167.874" stroke="black" stroke-width="2" stroke-linecap="square"/>
<path d="M540.848 179.538C549.146 179.538 557.45 180.244 565.731 180.704" stroke="black" stroke-width="2" stroke-linecap="square"/>
<path d="M546.68 184.981C546.257 185.464 546.84 185.482 547.306 185.543C548.058 185.641 548.306 185.557 549.229 185.457C554.34 184.9 559.454 184.369 564.565 183.815" stroke="black" stroke-width="2" stroke-linecap="square"/>
<path d="M607.722 52.0109C607.722 49.6781 607.722 56.6765 607.722 59.0093" stroke="black" stroke-width="2" stroke-linecap="square"/>
<path d="M609.666 52.3997C625.632 52.3997 641.674 51.6723 657.618 52.3133C673.631 52.957 689.751 52.3966 705.743 53.3717C716.569 54.0318 727.372 53.6093 738.165 53.6093C739.841 53.6093 741.723 53.537 741.686 55.5101C741.63 58.4733 740.692 61.4055 740.692 64.4526" stroke="black" stroke-width="2" stroke-linecap="square"/>
<path d="M610.055 65.2302C653.484 65.2302 696.946 65.2302 740.303 65.2302" stroke="black" stroke-width="2" stroke-linecap="square"/>
<path d="M613.554 82.3375C616.748 82.0181 619.723 81.9441 623.058 81.9487C632.47 81.9615 641.907 81.9122 651.311 82.3807C653.942 82.5118 656.544 82.7125 659.087 83.4175C661.2 84.0033 661.482 85.2723 661.938 87.3055C663.36 93.6428 663.854 100.162 664.465 106.616C665.209 114.475 665.612 122.437 668.224 129.966C669.505 133.66 673.107 136.019 676.302 137.936C683.641 142.339 691.456 145.935 698.831 150.292C703.513 153.057 707.607 157.042 713.001 158.24C715.689 158.838 718.098 160.793 718.098 163.684C718.098 169.167 716.293 174.201 717.386 179.754C717.569 180.684 719.108 188.581 720.086 188.092" stroke="black" stroke-width="2" stroke-linecap="square"/>
<path d="M675.373 135.992C674.952 136.329 674.469 136.374 673.991 136.597C666.605 140.044 658.284 141.419 650.792 144.697C641.139 148.92 651.43 160.148 650.533 167.485C650.017 171.707 646.921 178.201 643.492 181.007C641.565 182.584 638.702 182.71 636.493 183.815" stroke="black" stroke-width="2" stroke-linecap="square"/>
<path d="M671.097 110.72C670.999 109.747 670.353 109.254 671.226 108.43C673.345 106.431 675.124 106.643 677.706 107.134C679.837 107.54 682.152 106.459 684.359 106.789C689.389 107.54 694.278 110.314 698.529 112.966C700.09 113.941 701.685 114.863 703.281 115.774C705.239 116.894 710.567 112.311 712.094 111.411C715.407 109.458 718.617 107.697 722.246 106.443C723.149 106.131 724.054 105.812 724.362 104.888" stroke="black" stroke-width="2" stroke-linecap="square"/>
<path d="M704.145 141.824C707.325 142.178 713.133 141.969 713.627 137.72C714.228 132.557 707.469 131.374 705.333 135.647C700.017 146.277 717.981 143.762 716.025 137.547C713.398 129.203 702.691 138.342 708.465 142.191C711.212 144.023 716.482 143.071 716.889 139.405C717.458 134.279 711.588 133.992 708.81 136.77" stroke="black" stroke-width="2" stroke-linecap="square"/>
<path d="M639.604 128.216C638.669 128.333 638.803 129.187 639.301 129.685C640.082 130.465 641.325 130.178 642.368 130.117C645.2 129.95 646.787 129.095 646.58 126.099C646.214 120.78 638.306 122.756 639.042 126.683C639.485 129.044 641.76 129.755 644.032 129.167C646.802 128.448 646.671 124.413 644.658 122.859C642.358 121.085 638.876 126.555 642.952 127.547C644.279 127.869 646.929 126.983 646.256 125.106C645.222 122.219 641.398 123.559 639.604 124.328" stroke="black" stroke-width="2" stroke-linecap="square"/>
<path d="M638.437 134.048C638.499 134.546 639.67 135.546 640.079 135.625C642.45 136.084 645.688 136.917 647.941 135.711C650.365 134.415 651.597 131.995 652.045 129.383C652.801 124.977 651.595 120.078 647.747 117.546C644.014 115.09 638.684 115.204 634.938 117.546C632.234 119.236 629.251 121.82 628.631 125.106C628.066 128.099 629.724 130.27 631.828 132.32C635.694 136.087 645.26 136.638 649.496 133.249C652.916 130.514 653.27 124.686 650.706 121.218C648.642 118.425 646.015 117.813 642.692 118.302C637.918 119.004 630.872 123.052 632.778 128.994C634.895 135.595 645.65 136.132 649.518 131.262C652.311 127.744 652.003 123.508 649.712 119.749C647.571 116.234 642.85 115.557 639.215 116.163" stroke="black" stroke-width="2" stroke-linecap="square"/>
<path d="M711.143 125.106C710.883 123.025 697.146 127.734 695.98 131.111C694.428 135.603 696.481 142.884 700.732 145.323C705.407 148.006 715.241 146.814 719.135 142.991C721.747 140.427 722.367 136.308 721.425 132.882C720.297 128.779 715.913 126.464 712.007 125.581C704.198 123.815 696.565 130.389 697.233 138.325C698.118 148.85 715.18 150.08 718.833 140.744C721.155 134.811 716.841 130.419 711.338 128.907C705.175 127.214 700.423 129.66 698.874 135.992C697.391 142.058 700.927 146.703 707.126 147.375C714.249 148.148 719.913 144.037 723.585 138.325" stroke="black" stroke-width="2" stroke-linecap="square"/>
<path d="M639.215 141.824C639.277 141.33 639.271 141.207 638.74 141.738C636.482 143.995 634.278 146.417 632.216 148.823" stroke="black" stroke-width="2" stroke-linecap="square"/>
<path d="M638.437 141.824C639.585 140.932 642.139 146.202 642.325 146.49" stroke="black" stroke-width="2" stroke-linecap="square"/>
<path d="M632.994 148.045C638.525 148.045 621.844 148.772 616.578 150.464C615.502 150.81 614.754 151.213 614.159 152.149C613.631 152.978 614.35 154.465 614.526 155.303C615.019 157.658 615.323 160.054 615.692 162.431C616.415 167.086 617.379 171.694 617.442 176.428C617.471 178.623 617.419 180.674 617.809 182.821C618.082 184.321 622.077 183.109 622.971 182.951C627.472 182.155 631.871 180.861 636.364 180.013C641.933 178.962 647.57 178.335 653.125 177.205C657.987 176.217 662.857 174.773 667.77 174.095C669.272 173.888 671.262 173.6 672.652 173.015C674.228 172.351 671.711 163.687 671.485 162.193C670.65 156.672 670.196 151.018 669.153 145.539C668.928 144.36 668.505 143.242 667.9 142.213C667.349 141.277 658.601 144.52 657.488 144.719C653.178 145.488 648.468 145.611 644.269 146.879C643.113 147.228 641.765 147.381 640.77 148.045" stroke="black" stroke-width="2" stroke-linecap="square"/>
<path d="M526.212 264.979L731.324 264.979" stroke="black" stroke-width="2" stroke-linecap="square"/>
<path d="M528.435 292.772V438.407" stroke="black" stroke-width="2" stroke-linecap="square"/>
<path d="M528.435 282.766H733.548" stroke="black" stroke-width="2" stroke-linecap="square"/>
<path d="M735.216 279.431V432.849" stroke="black" stroke-width="2" stroke-linecap="square"/>
<path d="M533.438 435.628H737.439" stroke="black" stroke-width="2" stroke-linecap="square"/>
<path d="M710.758 386.712C710.758 388.227 711.509 389.189 712.981 389.615C719.289 391.441 723.322 384.678 722.029 378.93C719.365 367.087 705.855 372.055 704.767 381.71C703.265 395.037 720.429 391.709 724.006 382.543C725.675 378.265 724.914 373.181 720.423 371.21C713.727 368.27 708.088 374.208 705.755 380.042" stroke="black" stroke-width="2" stroke-linecap="square"/>
<path d="M715.76 397.274C712.33 397.274 708.289 402.208 707.546 405.179C706.176 410.658 711.056 415.992 716.44 415.926C731.026 415.748 729.365 391.364 715.081 395.05C705.87 397.427 702.435 413.469 712.981 416.729C717.935 418.26 724.611 414.18 727.186 410.058C728.61 407.78 727.937 404.275 726.785 402.029C724.851 398.258 721.64 398.385 717.984 398.385" stroke="black" stroke-width="2" stroke-linecap="square"/>
<path d="M712.981 356.14C712.19 356.239 712.164 357.932 712.703 358.363C713.97 359.377 716.346 358.353 717.768 357.993C720.934 357.192 724.884 356.007 724.222 351.94C722.328 340.31 703.444 342.141 705.323 354.349C707.099 365.895 729.091 359.75 724.006 348.945C722.056 344.801 714.264 343.198 710.634 345.949C707.848 348.061 706.898 352.274 707.361 355.584C707.919 359.583 710.039 360.605 713.537 361.143" stroke="black" stroke-width="2" stroke-linecap="square"/>
<path d="M536.217 289.993V298.886" stroke="black" stroke-width="2" stroke-linecap="square"/>
<path d="M538.441 289.437C550.397 289.437 562.348 288.651 574.294 288.356C585.024 288.091 596.558 286.495 607.244 287.646C609.807 287.922 613.791 286.529 614.841 289.529C616.155 293.283 616.261 299.311 616.261 303.333" stroke="black" stroke-width="2" stroke-linecap="square"/>
<path d="M535.106 304.445C548.828 304.445 562.524 303.333 576.27 303.333C587.007 303.333 597.743 303.333 608.479 303.333" stroke="black" stroke-width="2" stroke-linecap="square"/>
<path d="M620.708 291.104C620.708 294.48 620.755 297.802 621.264 301.11" stroke="black" stroke-width="2" stroke-linecap="square"/>
<path d="M622.932 288.325C638.602 288.325 654.257 288.881 669.933 288.881C673.003 288.881 676.016 289.267 679.074 289.437C681.686 289.582 681.81 294.098 682.131 295.829C682.487 297.754 684.091 300.554 681.451 300.554C673.026 300.554 664.496 300.143 656.098 300.832C649.119 301.404 641.781 300.831 634.883 301.944C632.837 302.274 625.804 301.48 625.155 302.777" stroke="black" stroke-width="2" stroke-linecap="square"/>
<path d="M562.899 323.9C562.296 323.9 564.541 322.86 564.937 322.788C573.507 321.23 583.605 321.705 592.174 322.665C600.178 323.561 602.135 325.891 602.334 333.257C602.444 337.312 602.028 341.476 602.396 345.517C602.506 346.729 603.211 347.216 604.372 347.493C608.652 348.517 613.114 348.212 617.25 349.964C623.489 352.606 625.325 357.383 628.058 362.934C631.164 369.243 644.977 362.045 649.15 360.402C653.55 358.668 659.924 355.683 664.282 358.981C667.069 361.09 668.455 364.651 670.736 367.257" stroke="black" stroke-width="2" stroke-linecap="square"/>
<path d="M605.144 360.031C604.576 360.031 603.935 359.939 603.477 360.34C602.631 361.08 604.262 360.132 601.685 361.421C595.982 364.272 590.157 366.876 584.454 369.728C581.24 371.335 575.791 372.807 578.617 377.047C580.813 380.34 583.493 383.47 583.157 387.762C582.458 396.686 567.511 400.669 560.366 401.597C557.789 401.932 557.534 400.126 556.228 398.385" stroke="black" stroke-width="2" stroke-linecap="square"/>
<path d="M622.932 340.02C623.375 336.026 629.44 336.146 632.35 335.758C637.937 335.013 642.372 335.108 647.235 337.982C649.574 339.364 651.721 340.926 654.554 340.205C657.912 339.35 660.954 337.366 663.942 335.697C668.69 333.043 673.38 331.05 678.703 329.829C683.594 328.707 688.234 327.702 692.97 326.124" stroke="black" stroke-width="2" stroke-linecap="square"/>
<path d="M589.58 417.841C588.311 417.682 588.673 416.685 589.024 415.895C590.726 412.067 593.943 408.619 596.497 405.426C602.493 397.931 608.991 390.871 615.242 383.593C621.17 376.692 626.332 367.888 635.284 364.478C637.63 363.584 639.311 364.062 641.275 365.59C641.863 366.047 645.949 368.063 645.413 368.369C639.005 372.031 634.847 381.979 631.393 388.009C627.579 394.668 623.655 401.225 618.917 407.279C615.936 411.088 609.591 418.396 609.591 418.396" stroke="black" stroke-width="2" stroke-linecap="square"/>
<path d="M634.605 365.034C633.45 365.034 633.276 365.591 632.628 366.423C631.363 368.05 632.11 371.582 632.752 373.31C633.513 375.357 635.079 375.039 636.828 375.039" stroke="black" stroke-width="2" stroke-linecap="square"/>
<path d="M637.384 395.05C637.384 398.647 636.228 402.033 635.716 405.612" stroke="black" stroke-width="2" stroke-linecap="square"/>
<path d="M638.496 400.053C640.833 400.053 642.01 398.336 643.004 396.347C643.468 395.42 643.238 394.577 642.819 395.73C641.748 398.676 641.204 401.43 640.719 404.5" stroke="black" stroke-width="2" stroke-linecap="square"/>
<path d="M646.834 400.053C645.901 401.102 645.914 403.218 647.915 402.647C649.988 402.055 648.158 395.086 644.61 400.053" stroke="black" stroke-width="2" stroke-linecap="square"/>
<path d="M654.06 395.606C654.155 394.842 654.569 394.27 653.936 395.606C652.785 398.037 652.686 400.747 652.392 403.388" stroke="black" stroke-width="2" stroke-linecap="square"/>
<path d="M660.174 398.941C660.061 397.918 659.147 397.656 658.229 397.86C657.069 398.118 657.06 400.943 657.457 401.721C658.588 403.939 660.802 397.863 660.915 397.366C661.696 393.961 660.824 392.627 660.298 396.718C660.018 398.893 659.506 402.276 662.398 402.276" stroke="black" stroke-width="2" stroke-linecap="square"/>
<path d="M671.847 385.045C671.995 385.026 665.358 390.154 664.065 391.159" stroke="black" stroke-width="2" stroke-linecap="square"/>
<path d="M682.409 395.606C679.873 395.86 677.109 396.751 674.627 397.274" stroke="black" stroke-width="2" stroke-linecap="square"/>
<path d="M685.744 408.947C682.566 408.947 679.441 407.763 676.294 407.279" stroke="black" stroke-width="2" stroke-linecap="square"/>
<path d="M676.85 420.62C673.261 420.62 670.265 419.536 666.845 418.396" stroke="black" stroke-width="2" stroke-linecap="square"/>
<path d="M656.283 422.843C654.417 421.184 652.54 419.656 650.725 417.841" stroke="black" stroke-width="2" stroke-linecap="square"/>
<path d="M770.472 39.8902L979.308 39.8902" stroke="black" stroke-width="2" stroke-linecap="square"/>
<path d="M775.254 56.8947V211.529" stroke="black" stroke-width="2" stroke-linecap="square"/>
<path d="M775.785 56.8947L986.216 56.8947" stroke="black" stroke-width="2" stroke-linecap="square"/>
<path d="M778.442 216.312L983.559 216.312" stroke="black" stroke-width="2" stroke-linecap="square"/>
<path d="M786.945 102.594C787.571 102.532 788.057 102.192 788.657 102.063C802.34 99.1234 816.831 97.64 830.755 96.6308C837.281 96.1578 847.66 94.362 851.479 101.649C853.082 104.707 852.817 108.594 852.837 111.923C852.87 117.234 851.876 125.55 856.38 129.518C858.957 131.789 863.316 131.231 866.417 131.171C872.716 131.049 878.981 130.799 885.252 131.643C895.562 133.033 902.384 137.341 910.168 143.747C914.335 147.177 919.287 151.238 924.279 153.371C929.784 155.724 936.263 154.24 941.874 153.076C946 152.221 950.284 151.963 954.332 150.951" stroke="black" stroke-width="2" stroke-linecap="square"/>
<path d="M789.07 130.226C788.997 130.811 787.965 131.403 787.476 131.703C786.478 132.313 786.197 133.605 785.823 134.655C784.538 138.257 782.479 142.722 785.203 146.109C792.051 154.623 810.458 148.018 814.252 139.231C817.861 130.874 809.292 125.303 802.473 123.436C797.787 122.154 793.311 122.792 789.07 124.913" stroke="black" stroke-width="2" stroke-linecap="square"/>
<path d="M803.418 131.821C802.175 132.925 795.218 135.547 795.329 135.658C797.129 137.458 802.584 136.603 805.012 136.603" stroke="black" stroke-width="2" stroke-linecap="square"/>
<path d="M837.958 193.993C837.958 192.329 837.427 194.05 837.427 194.79C837.427 197.364 838.381 200.44 841.146 200.901" stroke="black" stroke-width="2" stroke-linecap="square"/>
<path d="M836.364 188.679C848.592 188.679 861.28 189.682 873.679 189.742C890.888 189.826 908.094 190.273 925.313 190.273C930.879 190.273 940.886 187.114 944.885 192.399C947.34 195.642 948.764 202.143 943.645 203.263C937.991 204.5 931.845 204.09 926.11 204.09C916.323 204.09 906.572 204.869 896.795 205.123C888.604 205.336 880.461 206.215 872.262 206.215C866.981 206.215 861.804 207.206 856.557 207.278C852.39 207.335 845.468 208.572 841.412 207.012C836.995 205.313 838.469 198.385 839.021 194.525" stroke="black" stroke-width="2" stroke-linecap="square"/>
<path d="M862.402 195.587C860 193.186 855.63 197.296 859.037 198.362C860.307 198.76 865.335 199.269 862.166 200.901C860.562 201.727 858.85 202.202 857.088 202.495" stroke="black" stroke-width="2" stroke-linecap="square"/>
<path d="M868.779 200.37C869.513 200.288 871.601 199.781 870.845 198.717C869.282 196.516 867.261 198.21 867.007 200.37C866.52 204.512 872.091 201.809 873.679 200.901C880.615 196.938 871.156 197.974 873.561 201.315C874.377 202.448 876.871 200.446 877.576 199.957C878.557 199.275 878.389 199.996 879.17 200.636C881.221 202.314 884.9 200.21 885.99 198.274C886.744 196.933 886.172 198.254 886.078 199.1C885.844 201.21 886.818 203.46 889.267 202.377C890.393 201.879 891.048 200.735 892.042 200.193C892.358 200.02 892.333 200.855 892.514 201.167C893.071 202.129 894.034 202.413 895.082 202.141C897.984 201.389 898.536 198.632 898.536 203.027" stroke="black" stroke-width="2" stroke-linecap="square"/>
<path d="M774.527 262.675L970.291 262.675" stroke="black" stroke-width="2" stroke-linecap="square"/>
<path d="M775.988 275.337V375.166" stroke="black" stroke-width="2" stroke-linecap="square"/>
<path d="M775.988 275.337L977.108 275.337" stroke="black" stroke-width="2" stroke-linecap="square"/>
<path d="M779.884 376.14H985.874" stroke="black" stroke-width="2" stroke-linecap="square"/>
<path d="M783.78 339.13C783.831 339.544 784.661 340.871 785.024 341.078C787.118 342.274 792.583 340.553 794.601 339.996C798.523 338.914 800.752 336.207 801.69 332.313C802.891 327.32 799.621 323.171 794.737 322.384C790.83 321.754 786.442 326.325 784.321 329.12C780.217 334.53 784.444 342.143 791.084 342.512C795.243 342.743 799.406 340.759 801.094 336.804C802.073 334.511 802.075 331.2 801.094 328.904C799.502 325.175 795.394 325.752 792.058 325.495" stroke="black" stroke-width="2" stroke-linecap="square"/>
<path d="M789.136 348.87C787.802 348.87 786.936 349.566 786.269 350.709C783.948 354.688 783.815 358.698 788.487 360.963C794.081 363.675 805.587 358.923 802.204 351.521C799.255 345.07 789.778 345.105 785.349 349.735C783.095 352.092 783.613 355.911 785.538 358.339C789.243 363.01 794.005 361.133 798.876 359.583" stroke="black" stroke-width="2" stroke-linecap="square"/>
<path d="M788.649 335.234C788.649 332.984 789.95 329.878 792.545 329.878" stroke="black" stroke-width="2" stroke-linecap="square"/>
<path d="M793.519 333.286C793.519 338.262 794.006 330.595 794.006 335.234" stroke="black" stroke-width="2" stroke-linecap="square"/>
<path d="M797.415 357.635C795.061 357.635 793.236 358.642 791.084 359.583" stroke="black" stroke-width="2" stroke-linecap="square"/>
<path d="M764.788 357.148C768.484 353.452 773.553 350.915 777.801 347.896C780.153 346.223 784.492 341.237 787.676 341.078C790.518 340.936 790.402 342.81 789.569 344.893C785.471 355.139 778.014 363.433 771.605 372.244" stroke="black" stroke-width="2" stroke-linecap="square"/>
<path d="M812.998 300.659C821.867 300.193 831.417 295.648 840.323 297.467C844.418 298.303 844.411 304.9 844.895 308.018C845.728 313.385 845.876 316.286 852.227 315.431C865.194 313.684 877.381 309.993 890.616 311.914C896.471 312.764 900.842 315.502 906.064 317.92C911.625 320.494 918.791 321.016 924.84 321.112C931.624 321.22 938.605 321.25 945.32 322.33C951.048 323.25 955.909 322.516 961.525 321.112" stroke="black" stroke-width="2" stroke-linecap="square"/>
<path d="M842.217 332.313C842.015 334.126 841.007 334.809 844.219 333.773C844.655 333.633 853.374 329.974 851.686 329.174C849.686 328.227 845.424 331.03 844.489 332.691C842.71 335.855 856.285 328.819 853.796 328.39C851.537 328 848.281 330.177 846.572 331.366C841.713 334.746 846.488 335.305 849.521 336.695" stroke="black" stroke-width="2" stroke-linecap="square"/>
<path d="M776.962 385.88V439.447" stroke="black" stroke-width="2" stroke-linecap="square"/>
<path d="M778.423 386.367H981.491" stroke="black" stroke-width="2" stroke-linecap="square"/>
<path d="M782.806 437.499H980.03" stroke="black" stroke-width="2" stroke-linecap="square"/>
<path d="M785.728 394.158V403.411" stroke="black" stroke-width="2" stroke-linecap="square"/>
<path d="M785.241 394.158H862.669" stroke="black" stroke-width="2" stroke-linecap="square"/>
<path d="M786.702 406.333H864.13" stroke="black" stroke-width="2" stroke-linecap="square"/>
<path d="M863.156 394.645V403.898" stroke="black" stroke-width="2" stroke-linecap="square"/>
<path d="M788.162 411.202V420.455" stroke="black" stroke-width="2" stroke-linecap="square"/>
<path d="M789.136 411.689H865.591" stroke="black" stroke-width="2" stroke-linecap="square"/>
<path d="M865.104 409.741V422.403" stroke="black" stroke-width="2" stroke-linecap="square"/>
<path d="M790.11 425.812H867.052" stroke="black" stroke-width="2" stroke-linecap="square"/>
<path d="M844.651 395.619C842.311 395.619 829.418 394.1 831.882 399.028C832.947 401.158 833.353 401.977 835.886 402.68C840.445 403.947 846.627 403.898 851.361 403.898C856.109 403.898 862.781 405.297 863.156 398.541C863.351 395.032 860.073 395.619 857.259 395.619C850.121 395.619 842.974 395.619 835.886 395.619" stroke="black" stroke-width="2" stroke-linecap="square"/>
<path d="M853.904 397.567C853.793 396.676 850.714 397.111 852.443 399.407C854.243 401.797 857.665 404.269 859.91 400.976C861.335 398.886 858.868 396.494 856.826 396.214C854.985 395.962 851.462 397.314 851.388 399.542C851.28 402.774 856.649 402.32 858.557 401.95C862.091 401.264 862.574 397.83 859.423 395.998C855.003 393.428 852.167 398.046 850.008 400.976" stroke="black" stroke-width="2" stroke-linecap="square"/>
<path d="M851.956 413.15C857.269 412.391 841.199 413.392 835.886 414.151C833.769 414.454 835.057 419.766 835.372 421.185C836.076 424.355 853.601 421.939 856.231 421.916C860.015 421.883 870.146 422.884 869.379 416.938C869.157 415.215 868.861 413.186 868.486 411.5C868.253 410.451 861.426 410.544 860.559 410.526C856.479 410.439 854.314 415.573 857.502 418.426C860.389 421.009 870.124 420.335 865.24 415.45C862.314 412.524 857.282 414.921 859.207 419.156C861.389 423.956 870.181 417.245 863.914 413.313C856.918 408.923 853.625 425.349 861.533 421.537C864.874 419.927 867.268 414.999 862.534 413.313C858.421 411.847 855.164 414.046 851.956 416.072" stroke="black" stroke-width="2" stroke-linecap="square"/>
<path d="M872.409 394.158C872.539 392.983 873.18 393.611 873.356 394.402C873.593 395.469 872.942 398.464 872.977 398.027C873.238 394.762 874.24 393.527 875.331 396.972C876.728 401.385 877.399 397.102 878.74 395.836C879.021 395.57 880.584 400.034 882.094 399.867C884.621 399.586 880.255 392.129 878.361 395.511C876.284 399.22 883.045 400.219 884.854 397.459C885.067 397.134 885.599 394.711 885.314 396.025C884.968 397.614 885.276 398.941 885.557 400.489" stroke="black" stroke-width="2" stroke-linecap="square"/>
<path d="M886.531 392.21C886.98 392.266 886.854 392.368 887.018 392.697" stroke="black" stroke-width="2" stroke-linecap="square"/>
<path d="M891.401 395.132C891.285 394.206 890.675 395.148 890.887 395.89C891.036 396.411 891.176 396.818 891.401 397.324C891.899 398.445 890.303 398.003 890.129 398.784C889.954 399.574 899.627 397.71 895.892 393.509C894.691 392.158 894.808 397.257 894.918 397.621C895.378 399.148 896.293 399.515 897.732 399.515" stroke="black" stroke-width="2" stroke-linecap="square"/>
<path d="M875.818 416.559C876.331 415.988 877.515 413.999 877.089 414.638C875.879 416.453 874.765 418.327 873.762 420.265C873.195 421.359 871.95 424.019 873.708 421.483C874.662 420.106 881.011 408.03 881.634 413.123C882.081 416.767 881.691 420.857 884.096 423.864" stroke="black" stroke-width="2" stroke-linecap="square"/>
<path d="M874.844 419.481C874.694 419.481 873.295 419.43 873.708 419.724C875.038 420.675 878.61 419.526 879.659 419.319C883.002 418.658 886.341 417.699 889.724 417.262C891.162 417.077 890.914 417.868 890.914 418.994C890.914 419.215 890.914 421.626 890.914 420.942" stroke="black" stroke-width="2" stroke-linecap="square"/>
<path d="M889.453 412.176C889.453 411.867 889.453 411.867 889.453 412.176" stroke="black" stroke-width="2" stroke-linecap="square"/>
<path d="M893.349 416.559C894.684 418.228 894.176 419.607 896.92 417.641C898.389 416.589 899.236 415.313 899.679 417.533" stroke="black" stroke-width="2" stroke-linecap="square"/>
<circle cx="231" cy="293" r="10" fill="#FE6250"/>
<circle cx="250" cy="302" r="10" fill="#FE6250"/>
<circle cx="648" cy="179" r="10" fill="#FE6250"/>
<circle cx="831" cy="385" r="10" fill="#FE6250"/>
<circle cx="425" cy="321" r="10" fill="#FE6250"/>
<circle cx="857" cy="381" r="10" fill="#FE6250"/>
<circle cx="484" cy="97" r="10" fill="#FE6250"/>
<circle cx="811" cy="363" r="10" fill="#FE6250"/>
<defs>
<filter id="filter0_bd_1214_15931" x="-20" y="-20" width="1073" height="520" filterUnits="userSpaceOnUse" color-interpolation-filters="sRGB">
<feFlood flood-opacity="0" result="BackgroundImageFix"/>
<feGaussianBlur in="BackgroundImageFix" stdDeviation="10"/>
<feComposite in2="SourceAlpha" operator="in" result="effect1_backgroundBlur_1214_15931"/>
<feColorMatrix in="SourceAlpha" type="matrix" values="0 0 0 0 0 0 0 0 0 0 0 0 0 0 0 0 0 0 127 0" result="hardAlpha"/>
<feOffset dy="0.5"/>
<feColorMatrix type="matrix" values="0 0 0 0 0 0 0 0 0 0 0 0 0 0 0 0 0 0 0.3 0"/>
<feBlend mode="normal" in2="effect1_backgroundBlur_1214_15931" result="effect2_dropShadow_1214_15931"/>
<feBlend mode="normal" in="SourceGraphic" in2="effect2_dropShadow_1214_15931" result="shape"/>
</filter>
</defs>
</svg>
