<svg width="1518" height="370" viewBox="0 0 1518 370" fill="none" xmlns="http://www.w3.org/2000/svg">
<rect width="1518" height="370" fill="white"/>
<path d="M715.475 170.726C719.443 175.19 724.038 176.681 730.363 176.681C742.622 176.681 748.483 168.505 751.95 157.41C753.915 151.121 753.295 144.184 748.89 139.379C743.277 133.256 736.12 134.266 729.536 131.273C718.072 126.063 701.482 146.637 702.076 157.327C702.669 167.992 718.204 169.568 724.408 173.704" stroke="black" stroke-width="3" stroke-linecap="square"/>
<path d="M697.61 190.08C698.736 199.092 719.892 205.249 726.558 206.787C751.305 212.498 775.714 198.639 784.538 175.11C799.726 134.607 768.275 96.2871 727.302 96.2871C702.695 96.2871 675.444 124.388 669.654 146.905C664.244 167.945 677.712 193.666 699.098 199.013" stroke="black" stroke-width="3" stroke-linecap="square"/>
<path d="M679.744 230.277C686.125 235.949 692.271 238.128 700.587 240.698C718.149 246.126 740.353 248.588 758.567 245.909C793.505 240.771 827.608 218.385 830.028 179.658C831.208 160.783 829.349 143.322 827.133 124.491C824.838 104.982 811.154 91.7585 794.38 83.2189C778.879 75.3274 757.553 69.4891 740.04 69.4891C726.433 69.4891 714.213 67.1434 700.587 69.8199C682.873 73.2994 671.024 83.8807 657.413 94.4674C648.304 101.552 642.91 110.622 635.825 119.28C623.112 134.819 621.686 166.947 629.87 184.952C635.94 198.305 636.488 219.09 651.458 226.968C667.178 235.242 683.999 250.567 703.565 246.653" stroke="black" stroke-width="3" stroke-linecap="square"/>
<path d="M794.38 56.0908C793.786 60.8395 781.671 69.152 778.003 71.3094C767.706 77.367 769.567 81.4002 766.093 91.8214" stroke="black" stroke-width="3" stroke-linecap="square"/>
<path d="M795.869 59.0684C800.973 59.7063 797.358 73.6956 797.358 77.6781C797.358 78.0031 813.622 79.9112 816.712 79.9112C818.144 79.9112 827.161 79.9112 823.411 79.9112C821.041 79.9112 816.796 81.6663 815.223 83.6332C814.03 85.1247 809.637 86.7026 807.779 87.6859C804.488 89.4283 802.624 92.1106 800.004 94.4681C798.065 96.2137 794.439 97.4319 792.147 99.2653C789.276 101.562 788.07 97.7765 784.703 97.7765C779.97 97.7765 778.596 93.9961 775.026 97.7765C772.1 100.874 769.669 104.937 766.093 107.04C758.914 111.263 754.871 123.283 747.401 127.552C741.441 130.958 737.796 137.979 731.852 140.951" stroke="black" stroke-width="3" stroke-linecap="square"/>
<path d="M766.093 91.8213C765.734 94.6993 758.324 103.23 756.003 105.551C751.143 110.411 747.471 119.737 741.611 123.086C735.441 126.611 719.893 146.741 728.13 146.741C732.882 146.741 728.821 138.742 726.227 143.928C724.372 147.638 735.606 143.853 729.618 142.522C725.757 141.664 723.527 145.308 727.385 147.237C731.017 149.053 735.838 144.219 731.852 142.109C728.982 140.589 723.393 144.485 725.152 147.65C726.984 150.947 732.017 150.479 729.618 146.162C727.79 142.87 723.581 144.02 723.581 148.064C723.581 151.571 732.635 148.042 727.385 145.417" stroke="black" stroke-width="3" stroke-linecap="square"/>
<path d="M712.497 69.4893C685.914 69.4893 643.643 85.6855 633.592 113.325C631.502 119.074 628.431 125.117 626.148 131.025C624.384 135.592 624.678 142.108 622.427 146.161C618.498 153.232 618.449 172.384 621.682 179.659C626.939 191.487 628.375 205.706 638.059 215.389C641.175 218.505 644.916 224.345 648.563 226.472C652.627 228.843 656.22 230.573 659.646 233.999C666.05 240.403 678.971 244.352 687.188 247.812C696.48 251.724 707.397 250.338 717.046 253.353C726.322 256.252 738.499 255.586 748.228 255.586C758.938 255.586 772.666 254.374 782.47 249.962C806.406 239.191 830.757 220.164 837.555 192.975C840.163 182.542 845.88 170.6 843.427 159.56C841.179 149.446 839.867 139.397 836.397 129.371C833.65 121.436 831.72 114.201 826.472 107.453C821.271 100.767 816.001 97.7983 809.268 93.3097" stroke="black" stroke-width="3" stroke-linecap="square"/>
<path d="M716.964 143.928C712.937 144.432 713.374 156.433 714.069 159.56C715.213 164.707 726.232 166.26 730.363 166.26C745.449 166.26 740.784 151.692 740.784 142.439" stroke="black" stroke-width="3" stroke-linecap="square"/>
<path d="M722.919 87.3545C689.621 87.3545 654.435 119.123 654.435 153.191C654.435 173.903 661.502 192.04 676.767 206.457C689.033 218.041 705.288 221.344 721.761 221.344C738.595 221.344 754.336 222.506 770.229 217.209C789.037 210.939 805.756 195.488 811.914 177.012C819.902 153.05 809.004 105.22 778.003 105.22" stroke="black" stroke-width="3" stroke-linecap="square"/>
<path d="M724.408 88.8438C734.156 89.9268 744.108 93.3101 754.183 93.3101" stroke="black" stroke-width="3" stroke-linecap="square"/>
</svg>
