<svg width="161" height="134" viewBox="0 0 161 134" fill="none" xmlns="http://www.w3.org/2000/svg">
<rect width="161" height="134" rx="8" fill="#F2F2F2" fill-opacity="0.8"/>
<path d="M8.73926 20.731V19.7153H11.3291C11.985 19.7153 12.4928 19.5461 12.8525 19.2075C13.2122 18.8647 13.3921 18.3929 13.3921 17.792V17.7793C13.3921 17.1742 13.2122 16.7023 12.8525 16.3638C12.4928 16.0252 11.985 15.856 11.3291 15.856H8.73926V14.8403H11.6211C12.1966 14.8403 12.7044 14.9631 13.1445 15.2085C13.5846 15.4539 13.9295 15.7967 14.1792 16.2368C14.4331 16.6769 14.5601 17.1868 14.5601 17.7666V17.7793C14.5601 18.359 14.4331 18.8711 14.1792 19.3154C13.9295 19.7598 13.5846 20.1068 13.1445 20.3564C12.7044 20.6061 12.1966 20.731 11.6211 20.731H8.73926ZM8.16797 24V14.8403H9.31055V24H8.16797ZM16.293 24V17.1572H17.3975V18.1729H17.499C17.6302 17.8132 17.8524 17.5339 18.1655 17.335C18.4787 17.1361 18.8659 17.0366 19.3271 17.0366C19.4329 17.0366 19.5366 17.043 19.6382 17.0557C19.744 17.0641 19.8244 17.0726 19.8794 17.0811V18.1538C19.7651 18.1326 19.653 18.1178 19.543 18.1094C19.4372 18.0967 19.3229 18.0903 19.2002 18.0903C18.849 18.0903 18.5379 18.1602 18.2671 18.2998C17.9963 18.4395 17.7826 18.6341 17.626 18.8838C17.4736 19.1335 17.3975 19.4255 17.3975 19.7598V24H16.293ZM23.8657 24.1206C23.2183 24.1206 22.6576 23.9788 22.1836 23.6953C21.7139 23.4076 21.3499 22.9992 21.0918 22.4702C20.8379 21.9412 20.7109 21.3128 20.7109 20.585V20.5723C20.7109 19.8402 20.8379 19.2096 21.0918 18.6807C21.3499 18.1517 21.7139 17.7454 22.1836 17.4619C22.6576 17.1784 23.2183 17.0366 23.8657 17.0366C24.5174 17.0366 25.0781 17.1784 25.5479 17.4619C26.0176 17.7454 26.3794 18.1517 26.6333 18.6807C26.8914 19.2096 27.0205 19.8402 27.0205 20.5723V20.585C27.0205 21.3128 26.8914 21.9412 26.6333 22.4702C26.3794 22.9992 26.0176 23.4076 25.5479 23.6953C25.0781 23.9788 24.5174 24.1206 23.8657 24.1206ZM23.8657 23.1431C24.2974 23.1431 24.6634 23.0415 24.9639 22.8384C25.2643 22.6353 25.4928 22.3433 25.6494 21.9624C25.8102 21.5815 25.8906 21.1224 25.8906 20.585V20.5723C25.8906 20.0306 25.8102 19.5693 25.6494 19.1885C25.4928 18.8076 25.2643 18.5177 24.9639 18.3188C24.6634 18.1157 24.2974 18.0142 23.8657 18.0142C23.4341 18.0142 23.068 18.1157 22.7676 18.3188C22.4671 18.5177 22.2365 18.8076 22.0757 19.1885C21.9191 19.5693 21.8408 20.0306 21.8408 20.5723V20.585C21.8408 21.1224 21.9191 21.5815 22.0757 21.9624C22.2365 22.3433 22.4671 22.6353 22.7676 22.8384C23.068 23.0415 23.4341 23.1431 23.8657 23.1431ZM28.7344 26.2852V17.1572H29.8389V18.249H29.9404C30.0801 17.9951 30.2557 17.7793 30.4673 17.6016C30.6789 17.4196 30.9201 17.2799 31.1909 17.1826C31.4618 17.0853 31.7559 17.0366 32.0732 17.0366C32.653 17.0366 33.1566 17.1847 33.584 17.481C34.0156 17.7729 34.3499 18.1834 34.5869 18.7124C34.8239 19.2414 34.9424 19.8613 34.9424 20.5723V20.585C34.9424 21.3001 34.8239 21.9222 34.5869 22.4512C34.3499 22.9801 34.0156 23.3906 33.584 23.6826C33.1566 23.9746 32.653 24.1206 32.0732 24.1206C31.7601 24.1206 31.4639 24.0719 31.1846 23.9746C30.9095 23.873 30.6641 23.7334 30.4482 23.5557C30.2367 23.3779 30.0674 23.1663 29.9404 22.9209H29.8389V26.2852H28.7344ZM31.8193 23.1431C32.2383 23.1431 32.5959 23.0415 32.8921 22.8384C33.1883 22.631 33.4147 22.3369 33.5713 21.9561C33.7321 21.571 33.8125 21.1139 33.8125 20.585V20.5723C33.8125 20.0391 33.7321 19.582 33.5713 19.2012C33.4147 18.8203 33.1883 18.5283 32.8921 18.3252C32.5959 18.1178 32.2383 18.0142 31.8193 18.0142C31.4046 18.0142 31.047 18.1178 30.7466 18.3252C30.4461 18.5326 30.2155 18.8267 30.0547 19.2075C29.8939 19.5884 29.8135 20.0433 29.8135 20.5723V20.585C29.8135 21.1097 29.8939 21.5646 30.0547 21.9497C30.2155 22.3306 30.4461 22.6247 30.7466 22.832C31.047 23.0394 31.4046 23.1431 31.8193 23.1431ZM39.4619 24.1206C38.8102 24.1206 38.2495 23.9767 37.7798 23.689C37.3143 23.4012 36.9546 22.995 36.7007 22.4702C36.451 21.9412 36.3262 21.3192 36.3262 20.604V20.5977C36.3262 19.891 36.451 19.271 36.7007 18.7378C36.9546 18.2046 37.3122 17.7878 37.7734 17.4873C38.2347 17.1868 38.7743 17.0366 39.3921 17.0366C40.0142 17.0366 40.5474 17.1805 40.9917 17.4683C41.4403 17.756 41.783 18.158 42.02 18.6743C42.2612 19.1864 42.3818 19.783 42.3818 20.4644V20.896H36.8975V20.0137H41.8169L41.271 20.8198V20.3818C41.271 19.8444 41.1906 19.4022 41.0298 19.0552C40.869 18.7082 40.6468 18.45 40.3633 18.2808C40.0798 18.1073 39.7539 18.0205 39.3857 18.0205C39.0176 18.0205 38.6875 18.1115 38.3955 18.2935C38.1077 18.4712 37.8792 18.7357 37.71 19.0869C37.5407 19.4382 37.4561 19.8698 37.4561 20.3818V20.8198C37.4561 21.3065 37.5386 21.7233 37.7036 22.0703C37.8687 22.4131 38.1035 22.6776 38.4082 22.8638C38.7129 23.0457 39.0726 23.1367 39.4873 23.1367C39.7962 23.1367 40.0649 23.0944 40.2935 23.0098C40.522 22.9251 40.7103 22.8172 40.8584 22.686C41.0065 22.5549 41.1102 22.4215 41.1694 22.2861L41.1948 22.229H42.2993L42.2866 22.2798C42.2274 22.5125 42.1216 22.7389 41.9692 22.959C41.8211 23.1748 41.6286 23.3716 41.3916 23.5493C41.1546 23.7228 40.8732 23.8625 40.5474 23.9683C40.2257 24.0698 39.8639 24.1206 39.4619 24.1206ZM44.0957 24V17.1572H45.2002V18.1729H45.3018C45.4329 17.8132 45.6551 17.5339 45.9683 17.335C46.2814 17.1361 46.6686 17.0366 47.1299 17.0366C47.2357 17.0366 47.3394 17.043 47.4409 17.0557C47.5467 17.0641 47.6271 17.0726 47.6821 17.0811V18.1538C47.5679 18.1326 47.4557 18.1178 47.3457 18.1094C47.2399 18.0967 47.1257 18.0903 47.0029 18.0903C46.6517 18.0903 46.3407 18.1602 46.0698 18.2998C45.799 18.4395 45.5853 18.6341 45.4287 18.8838C45.2764 19.1335 45.2002 19.4255 45.2002 19.7598V24H44.0957ZM51.8589 24.0508C51.1564 24.0508 50.6465 23.909 50.3291 23.6255C50.016 23.342 49.8594 22.8743 49.8594 22.2227V18.0713H48.7803V17.1572H49.8594V15.3862H51.002V17.1572H52.5V18.0713H51.002V21.9434C51.002 22.3454 51.0781 22.6353 51.2305 22.813C51.3828 22.9865 51.6367 23.0732 51.9922 23.0732C52.0895 23.0732 52.172 23.0711 52.2397 23.0669C52.3117 23.0627 52.3984 23.0563 52.5 23.0479V23.9873C52.3942 24.0042 52.2884 24.019 52.1826 24.0317C52.0768 24.0444 51.9689 24.0508 51.8589 24.0508ZM54.1758 24V17.1572H55.2803V24H54.1758ZM54.7344 15.8369C54.527 15.8369 54.3472 15.7629 54.1948 15.6147C54.0467 15.4624 53.9727 15.2826 53.9727 15.0752C53.9727 14.8636 54.0467 14.6838 54.1948 14.5356C54.3472 14.3875 54.527 14.3135 54.7344 14.3135C54.946 14.3135 55.1258 14.3875 55.2739 14.5356C55.422 14.6838 55.4961 14.8636 55.4961 15.0752C55.4961 15.2826 55.422 15.4624 55.2739 15.6147C55.1258 15.7629 54.946 15.8369 54.7344 15.8369ZM60.1553 24.1206C59.5036 24.1206 58.9429 23.9767 58.4731 23.689C58.0076 23.4012 57.6479 22.995 57.394 22.4702C57.1444 21.9412 57.0195 21.3192 57.0195 20.604V20.5977C57.0195 19.891 57.1444 19.271 57.394 18.7378C57.6479 18.2046 58.0055 17.7878 58.4668 17.4873C58.9281 17.1868 59.4676 17.0366 60.0854 17.0366C60.7075 17.0366 61.2407 17.1805 61.6851 17.4683C62.1336 17.756 62.4764 18.158 62.7134 18.6743C62.9546 19.1864 63.0752 19.783 63.0752 20.4644V20.896H57.5908V20.0137H62.5103L61.9644 20.8198V20.3818C61.9644 19.8444 61.884 19.4022 61.7231 19.0552C61.5623 18.7082 61.3402 18.45 61.0566 18.2808C60.7731 18.1073 60.4473 18.0205 60.0791 18.0205C59.7109 18.0205 59.3809 18.1115 59.0889 18.2935C58.8011 18.4712 58.5726 18.7357 58.4033 19.0869C58.234 19.4382 58.1494 19.8698 58.1494 20.3818V20.8198C58.1494 21.3065 58.2319 21.7233 58.397 22.0703C58.562 22.4131 58.7969 22.6776 59.1016 22.8638C59.4062 23.0457 59.766 23.1367 60.1807 23.1367C60.4896 23.1367 60.7583 23.0944 60.9868 23.0098C61.2153 22.9251 61.4036 22.8172 61.5518 22.686C61.6999 22.5549 61.8035 22.4215 61.8628 22.2861L61.8882 22.229H62.9927L62.98 22.2798C62.9207 22.5125 62.8149 22.7389 62.6626 22.959C62.5145 23.1748 62.3219 23.3716 62.085 23.5493C61.848 23.7228 61.5666 23.8625 61.2407 23.9683C60.9191 24.0698 60.5573 24.1206 60.1553 24.1206ZM67.1377 24.1206C66.6299 24.1206 66.1813 24.0444 65.792 23.8921C65.4027 23.7355 65.0895 23.5176 64.8525 23.2383C64.6198 22.959 64.4823 22.631 64.4399 22.2544H65.5698C65.6629 22.5379 65.8449 22.7664 66.1157 22.9399C66.3866 23.1134 66.7399 23.2002 67.1758 23.2002C67.4847 23.2002 67.7555 23.1558 67.9883 23.0669C68.2253 22.9738 68.4115 22.849 68.5469 22.6924C68.6823 22.5316 68.75 22.3475 68.75 22.1401V22.1274C68.75 21.8947 68.6569 21.6979 68.4707 21.5371C68.2845 21.3721 67.9798 21.2388 67.5566 21.1372L66.4966 20.8833C65.8576 20.731 65.3879 20.5088 65.0874 20.2168C64.7869 19.9206 64.6367 19.527 64.6367 19.0361V19.0298C64.6367 18.6489 64.7467 18.3083 64.9668 18.0078C65.1911 17.7074 65.4958 17.4704 65.8809 17.2969C66.266 17.1234 66.6997 17.0366 67.1821 17.0366C67.6603 17.0366 68.0835 17.1128 68.4517 17.2651C68.8241 17.4132 69.1224 17.6248 69.3467 17.8999C69.5752 18.175 69.7148 18.4987 69.7656 18.8711H68.6802C68.6082 18.6003 68.4432 18.3802 68.1851 18.2109C67.9269 18.0417 67.5905 17.957 67.1758 17.957C66.9049 17.957 66.6637 18.0015 66.4521 18.0903C66.2406 18.175 66.0734 18.2935 65.9507 18.4458C65.828 18.5981 65.7666 18.7759 65.7666 18.979V18.9917C65.7666 19.2244 65.8576 19.417 66.0396 19.5693C66.2215 19.7217 66.5135 19.8465 66.9155 19.9438L67.9692 20.1978C68.6125 20.3543 69.0907 20.5786 69.4038 20.8706C69.7212 21.1626 69.8799 21.554 69.8799 22.0449V22.0576C69.8799 22.4639 69.7593 22.8236 69.5181 23.1367C69.2769 23.4456 68.9489 23.6868 68.5342 23.8604C68.1237 24.0339 67.6582 24.1206 67.1377 24.1206ZM77.7764 24.1206C77.2008 24.1206 76.6973 23.9746 76.2656 23.6826C75.834 23.3906 75.4997 22.9801 75.2627 22.4512C75.0257 21.918 74.9072 21.2959 74.9072 20.585V20.5723C74.9072 19.8571 75.0257 19.235 75.2627 18.7061C75.4997 18.1771 75.8319 17.7666 76.2593 17.4746C76.6909 17.1826 77.1966 17.0366 77.7764 17.0366C78.2461 17.0366 78.6714 17.1466 79.0522 17.3667C79.4373 17.5825 79.723 17.8724 79.9092 18.2363H80.0107V14.4404H81.1152V24H80.0107V22.9082H79.9092C79.7018 23.2891 79.4141 23.5874 79.0459 23.8032C78.6777 24.0148 78.2546 24.1206 77.7764 24.1206ZM78.0303 23.1431C78.445 23.1431 78.8026 23.0394 79.103 22.832C79.4035 22.6247 79.6341 22.3306 79.7949 21.9497C79.9557 21.5646 80.0361 21.1097 80.0361 20.585V20.5723C80.0361 20.0433 79.9557 19.5884 79.7949 19.2075C79.6341 18.8267 79.4035 18.5326 79.103 18.3252C78.8026 18.1178 78.445 18.0142 78.0303 18.0142C77.6156 18.0142 77.258 18.1178 76.9575 18.3252C76.6613 18.5283 76.4328 18.8203 76.272 19.2012C76.1154 19.582 76.0371 20.0391 76.0371 20.5723V20.585C76.0371 21.1139 76.1154 21.571 76.272 21.9561C76.4328 22.3369 76.6613 22.631 76.9575 22.8384C77.258 23.0415 77.6156 23.1431 78.0303 23.1431ZM83.2607 24V17.1572H84.3652V24H83.2607ZM83.8193 15.8369C83.612 15.8369 83.4321 15.7629 83.2798 15.6147C83.1317 15.4624 83.0576 15.2826 83.0576 15.0752C83.0576 14.8636 83.1317 14.6838 83.2798 14.5356C83.4321 14.3875 83.612 14.3135 83.8193 14.3135C84.0309 14.3135 84.2108 14.3875 84.3589 14.5356C84.507 14.6838 84.5811 14.8636 84.5811 15.0752C84.5811 15.2826 84.507 15.4624 84.3589 15.6147C84.2108 15.7629 84.0309 15.8369 83.8193 15.8369ZM88.7959 24.1206C88.2881 24.1206 87.8395 24.0444 87.4502 23.8921C87.0609 23.7355 86.7477 23.5176 86.5107 23.2383C86.278 22.959 86.1405 22.631 86.0981 22.2544H87.228C87.3211 22.5379 87.5031 22.7664 87.7739 22.9399C88.0448 23.1134 88.3981 23.2002 88.834 23.2002C89.1429 23.2002 89.4137 23.1558 89.6465 23.0669C89.8835 22.9738 90.0697 22.849 90.2051 22.6924C90.3405 22.5316 90.4082 22.3475 90.4082 22.1401V22.1274C90.4082 21.8947 90.3151 21.6979 90.1289 21.5371C89.9427 21.3721 89.638 21.2388 89.2148 21.1372L88.1548 20.8833C87.5158 20.731 87.0461 20.5088 86.7456 20.2168C86.4451 19.9206 86.2949 19.527 86.2949 19.0361V19.0298C86.2949 18.6489 86.4049 18.3083 86.625 18.0078C86.8493 17.7074 87.154 17.4704 87.5391 17.2969C87.9242 17.1234 88.3579 17.0366 88.8403 17.0366C89.3185 17.0366 89.7417 17.1128 90.1099 17.2651C90.4823 17.4132 90.7806 17.6248 91.0049 17.8999C91.2334 18.175 91.373 18.4987 91.4238 18.8711H90.3384C90.2664 18.6003 90.1014 18.3802 89.8433 18.2109C89.5851 18.0417 89.2487 17.957 88.834 17.957C88.5632 17.957 88.3219 18.0015 88.1104 18.0903C87.8988 18.175 87.7316 18.2935 87.6089 18.4458C87.4862 18.5981 87.4248 18.7759 87.4248 18.979V18.9917C87.4248 19.2244 87.5158 19.417 87.6978 19.5693C87.8797 19.7217 88.1717 19.8465 88.5737 19.9438L89.6274 20.1978C90.2707 20.3543 90.7489 20.5786 91.062 20.8706C91.3794 21.1626 91.5381 21.554 91.5381 22.0449V22.0576C91.5381 22.4639 91.4175 22.8236 91.1763 23.1367C90.9351 23.4456 90.6071 23.6868 90.1924 23.8604C89.7819 24.0339 89.3164 24.1206 88.7959 24.1206ZM96.0513 24.1206C95.4123 24.1206 94.8579 23.9746 94.3882 23.6826C93.9185 23.3906 93.5545 22.978 93.2964 22.4448C93.0382 21.9116 92.9092 21.2832 92.9092 20.5596V20.5469C92.9092 19.8359 93.0361 19.2181 93.29 18.6934C93.5482 18.1686 93.9121 17.7624 94.3818 17.4746C94.8516 17.1826 95.4059 17.0366 96.0449 17.0366C96.5993 17.0366 97.0775 17.134 97.4795 17.3286C97.8815 17.5233 98.2031 17.7856 98.4443 18.1157C98.6855 18.4416 98.84 18.8076 98.9077 19.2139L98.9141 19.252H97.8159L97.8096 19.2329C97.7249 18.8944 97.5324 18.6066 97.2319 18.3696C96.9315 18.1326 96.5358 18.0142 96.0449 18.0142C95.6344 18.0142 95.279 18.1178 94.9785 18.3252C94.6781 18.5326 94.4453 18.8267 94.2803 19.2075C94.1195 19.5841 94.0391 20.0306 94.0391 20.5469V20.5596C94.0391 21.0843 94.1216 21.5413 94.2866 21.9307C94.4517 22.3158 94.6844 22.6141 94.9849 22.8257C95.2853 23.0373 95.6387 23.1431 96.0449 23.1431C96.5062 23.1431 96.8828 23.0436 97.1748 22.8447C97.4668 22.6458 97.6763 22.356 97.8032 21.9751L97.8159 21.937L98.9077 21.9307L98.895 22.0005C98.8019 22.411 98.6369 22.777 98.3999 23.0986C98.1629 23.416 97.8498 23.6657 97.4604 23.8477C97.0711 24.0296 96.6014 24.1206 96.0513 24.1206ZM103.338 24.1206C102.691 24.1206 102.13 23.9788 101.656 23.6953C101.187 23.4076 100.823 22.9992 100.564 22.4702C100.311 21.9412 100.184 21.3128 100.184 20.585V20.5723C100.184 19.8402 100.311 19.2096 100.564 18.6807C100.823 18.1517 101.187 17.7454 101.656 17.4619C102.13 17.1784 102.691 17.0366 103.338 17.0366C103.99 17.0366 104.551 17.1784 105.021 17.4619C105.49 17.7454 105.852 18.1517 106.106 18.6807C106.364 19.2096 106.493 19.8402 106.493 20.5723V20.585C106.493 21.3128 106.364 21.9412 106.106 22.4702C105.852 22.9992 105.49 23.4076 105.021 23.6953C104.551 23.9788 103.99 24.1206 103.338 24.1206ZM103.338 23.1431C103.77 23.1431 104.136 23.0415 104.437 22.8384C104.737 22.6353 104.965 22.3433 105.122 21.9624C105.283 21.5815 105.363 21.1224 105.363 20.585V20.5723C105.363 20.0306 105.283 19.5693 105.122 19.1885C104.965 18.8076 104.737 18.5177 104.437 18.3188C104.136 18.1157 103.77 18.0142 103.338 18.0142C102.907 18.0142 102.541 18.1157 102.24 18.3188C101.94 18.5177 101.709 18.8076 101.548 19.1885C101.392 19.5693 101.313 20.0306 101.313 20.5723V20.585C101.313 21.1224 101.392 21.5815 101.548 21.9624C101.709 22.3433 101.94 22.6353 102.24 22.8384C102.541 23.0415 102.907 23.1431 103.338 23.1431ZM109.889 24L107.356 17.1572H108.524L110.397 22.7939H110.499L112.371 17.1572H113.539L111.006 24H109.889ZM117.538 24.1206C116.886 24.1206 116.326 23.9767 115.856 23.689C115.39 23.4012 115.031 22.995 114.777 22.4702C114.527 21.9412 114.402 21.3192 114.402 20.604V20.5977C114.402 19.891 114.527 19.271 114.777 18.7378C115.031 18.2046 115.388 17.7878 115.85 17.4873C116.311 17.1868 116.85 17.0366 117.468 17.0366C118.09 17.0366 118.624 17.1805 119.068 17.4683C119.516 17.756 119.859 18.158 120.096 18.6743C120.337 19.1864 120.458 19.783 120.458 20.4644V20.896H114.974V20.0137H119.893L119.347 20.8198V20.3818C119.347 19.8444 119.267 19.4022 119.106 19.0552C118.945 18.7082 118.723 18.45 118.439 18.2808C118.156 18.1073 117.83 18.0205 117.462 18.0205C117.094 18.0205 116.764 18.1115 116.472 18.2935C116.184 18.4712 115.955 18.7357 115.786 19.0869C115.617 19.4382 115.532 19.8698 115.532 20.3818V20.8198C115.532 21.3065 115.615 21.7233 115.78 22.0703C115.945 22.4131 116.18 22.6776 116.484 22.8638C116.789 23.0457 117.149 23.1367 117.563 23.1367C117.872 23.1367 118.141 23.0944 118.37 23.0098C118.598 22.9251 118.786 22.8172 118.935 22.686C119.083 22.5549 119.186 22.4215 119.246 22.2861L119.271 22.229H120.375L120.363 22.2798C120.304 22.5125 120.198 22.7389 120.045 22.959C119.897 23.1748 119.705 23.3716 119.468 23.5493C119.231 23.7228 118.949 23.8625 118.624 23.9683C118.302 24.0698 117.94 24.1206 117.538 24.1206ZM122.172 24V17.1572H123.276V18.1729H123.378C123.509 17.8132 123.731 17.5339 124.044 17.335C124.358 17.1361 124.745 17.0366 125.206 17.0366C125.312 17.0366 125.416 17.043 125.517 17.0557C125.623 17.0641 125.703 17.0726 125.758 17.0811V18.1538C125.644 18.1326 125.532 18.1178 125.422 18.1094C125.316 18.0967 125.202 18.0903 125.079 18.0903C124.728 18.0903 124.417 18.1602 124.146 18.2998C123.875 18.4395 123.661 18.6341 123.505 18.8838C123.353 19.1335 123.276 19.4255 123.276 19.7598V24H122.172ZM129.726 24.1206C129.074 24.1206 128.513 23.9767 128.043 23.689C127.578 23.4012 127.218 22.995 126.964 22.4702C126.715 21.9412 126.59 21.3192 126.59 20.604V20.5977C126.59 19.891 126.715 19.271 126.964 18.7378C127.218 18.2046 127.576 17.7878 128.037 17.4873C128.498 17.1868 129.038 17.0366 129.656 17.0366C130.278 17.0366 130.811 17.1805 131.255 17.4683C131.704 17.756 132.047 18.158 132.284 18.6743C132.525 19.1864 132.646 19.783 132.646 20.4644V20.896H127.161V20.0137H132.081L131.535 20.8198V20.3818C131.535 19.8444 131.454 19.4022 131.293 19.0552C131.133 18.7082 130.91 18.45 130.627 18.2808C130.343 18.1073 130.018 18.0205 129.649 18.0205C129.281 18.0205 128.951 18.1115 128.659 18.2935C128.371 18.4712 128.143 18.7357 127.974 19.0869C127.804 19.4382 127.72 19.8698 127.72 20.3818V20.8198C127.72 21.3065 127.802 21.7233 127.967 22.0703C128.132 22.4131 128.367 22.6776 128.672 22.8638C128.977 23.0457 129.336 23.1367 129.751 23.1367C130.06 23.1367 130.329 23.0944 130.557 23.0098C130.786 22.9251 130.974 22.8172 131.122 22.686C131.27 22.5549 131.374 22.4215 131.433 22.2861L131.458 22.229H132.563L132.55 22.2798C132.491 22.5125 132.385 22.7389 132.233 22.959C132.085 23.1748 131.892 23.3716 131.655 23.5493C131.418 23.7228 131.137 23.8625 130.811 23.9683C130.489 24.0698 130.128 24.1206 129.726 24.1206ZM136.886 24.1206C136.31 24.1206 135.807 23.9746 135.375 23.6826C134.943 23.3906 134.609 22.9801 134.372 22.4512C134.135 21.918 134.017 21.2959 134.017 20.585V20.5723C134.017 19.8571 134.135 19.235 134.372 18.7061C134.609 18.1771 134.941 17.7666 135.369 17.4746C135.8 17.1826 136.306 17.0366 136.886 17.0366C137.355 17.0366 137.781 17.1466 138.162 17.3667C138.547 17.5825 138.832 17.8724 139.019 18.2363H139.12V14.4404H140.225V24H139.12V22.9082H139.019C138.811 23.2891 138.523 23.5874 138.155 23.8032C137.787 24.0148 137.364 24.1206 136.886 24.1206ZM137.14 23.1431C137.554 23.1431 137.912 23.0394 138.212 22.832C138.513 22.6247 138.743 22.3306 138.904 21.9497C139.065 21.5646 139.146 21.1097 139.146 20.585V20.5723C139.146 20.0433 139.065 19.5884 138.904 19.2075C138.743 18.8267 138.513 18.5326 138.212 18.3252C137.912 18.1178 137.554 18.0142 137.14 18.0142C136.725 18.0142 136.367 18.1178 136.067 18.3252C135.771 18.5283 135.542 18.8203 135.381 19.2012C135.225 19.582 135.146 20.0391 135.146 20.5723V20.585C135.146 21.1139 135.225 21.571 135.381 21.9561C135.542 22.3369 135.771 22.631 136.067 22.8384C136.367 23.0415 136.725 23.1431 137.14 23.1431ZM10.4595 40.0508C9.757 40.0508 9.24707 39.909 8.92969 39.6255C8.61654 39.342 8.45996 38.8743 8.45996 38.2227V34.0713H7.38086V33.1572H8.45996V31.3862H9.60254V33.1572H11.1006V34.0713H9.60254V37.9434C9.60254 38.3454 9.67871 38.6353 9.83105 38.813C9.9834 38.9865 10.2373 39.0732 10.5928 39.0732C10.6901 39.0732 10.7726 39.0711 10.8403 39.0669C10.9123 39.0627 10.999 39.0563 11.1006 39.0479V39.9873C10.9948 40.0042 10.889 40.019 10.7832 40.0317C10.6774 40.0444 10.5695 40.0508 10.4595 40.0508ZM12.8145 40V30.4404H13.9189V34.1855H14.0205C14.194 33.8216 14.4437 33.5402 14.7695 33.3413C15.0954 33.1382 15.5101 33.0366 16.0137 33.0366C16.5257 33.0366 16.9595 33.1361 17.3149 33.335C17.6704 33.5296 17.9412 33.8153 18.1274 34.1919C18.3136 34.5685 18.4067 35.0277 18.4067 35.5693V40H17.3022V35.8359C17.3022 35.2181 17.1711 34.7611 16.9087 34.4648C16.6506 34.1644 16.2485 34.0142 15.7026 34.0142C15.3387 34.0142 15.0234 34.0924 14.7568 34.249C14.4902 34.4056 14.2829 34.6278 14.1348 34.9155C13.9909 35.2033 13.9189 35.5482 13.9189 35.9502V40H12.8145ZM20.4062 40V33.1572H21.5107V34.1729H21.6123C21.7435 33.8132 21.9657 33.5339 22.2788 33.335C22.592 33.1361 22.9792 33.0366 23.4404 33.0366C23.5462 33.0366 23.6499 33.043 23.7515 33.0557C23.8573 33.0641 23.9377 33.0726 23.9927 33.0811V34.1538C23.8784 34.1326 23.7663 34.1178 23.6562 34.1094C23.5505 34.0967 23.4362 34.0903 23.3135 34.0903C22.9622 34.0903 22.6512 34.1602 22.3804 34.2998C22.1095 34.4395 21.8958 34.6341 21.7393 34.8838C21.5869 35.1335 21.5107 35.4255 21.5107 35.7598V40H20.4062ZM27.979 40.1206C27.3315 40.1206 26.7708 39.9788 26.2969 39.6953C25.8271 39.4076 25.4632 38.9992 25.2051 38.4702C24.9512 37.9412 24.8242 37.3128 24.8242 36.585V36.5723C24.8242 35.8402 24.9512 35.2096 25.2051 34.6807C25.4632 34.1517 25.8271 33.7454 26.2969 33.4619C26.7708 33.1784 27.3315 33.0366 27.979 33.0366C28.6307 33.0366 29.1914 33.1784 29.6611 33.4619C30.1309 33.7454 30.4927 34.1517 30.7466 34.6807C31.0047 35.2096 31.1338 35.8402 31.1338 36.5723V36.585C31.1338 37.3128 31.0047 37.9412 30.7466 38.4702C30.4927 38.9992 30.1309 39.4076 29.6611 39.6953C29.1914 39.9788 28.6307 40.1206 27.979 40.1206ZM27.979 39.1431C28.4106 39.1431 28.7767 39.0415 29.0771 38.8384C29.3776 38.6353 29.6061 38.3433 29.7627 37.9624C29.9235 37.5815 30.0039 37.1224 30.0039 36.585V36.5723C30.0039 36.0306 29.9235 35.5693 29.7627 35.1885C29.6061 34.8076 29.3776 34.5177 29.0771 34.3188C28.7767 34.1157 28.4106 34.0142 27.979 34.0142C27.5474 34.0142 27.1813 34.1157 26.8809 34.3188C26.5804 34.5177 26.3498 34.8076 26.189 35.1885C26.0324 35.5693 25.9541 36.0306 25.9541 36.5723V36.585C25.9541 37.1224 26.0324 37.5815 26.189 37.9624C26.3498 38.3433 26.5804 38.6353 26.8809 38.8384C27.1813 39.0415 27.5474 39.1431 27.979 39.1431ZM35.1392 40.1206C34.6229 40.1206 34.1891 40.0233 33.8379 39.8286C33.4867 39.6297 33.2222 39.342 33.0444 38.9653C32.8709 38.5845 32.7842 38.1253 32.7842 37.5879V33.1572H33.8887V37.3213C33.8887 37.9349 34.0072 38.3919 34.2441 38.6924C34.4854 38.9928 34.8789 39.1431 35.4248 39.1431C35.8268 39.1431 36.1654 39.0648 36.4404 38.9082C36.7155 38.7516 36.9229 38.5295 37.0625 38.2417C37.2021 37.9497 37.272 37.6048 37.272 37.207V33.1572H38.3765V40H37.272V38.978H37.1704C37.0011 39.342 36.7451 39.6234 36.4023 39.8223C36.0638 40.0212 35.6427 40.1206 35.1392 40.1206ZM43.2578 42.4121C42.7077 42.4121 42.2274 42.3338 41.8169 42.1772C41.4064 42.0249 41.0785 41.807 40.833 41.5234C40.5918 41.2441 40.4416 40.9183 40.3823 40.5459L40.395 40.5396H41.5376L41.5439 40.5459C41.6032 40.804 41.7809 41.0156 42.0771 41.1807C42.3734 41.3499 42.7669 41.4346 43.2578 41.4346C43.8714 41.4346 44.3496 41.2949 44.6924 41.0156C45.0394 40.7406 45.2129 40.3512 45.2129 39.8477V38.4639H45.1113C44.9674 38.7135 44.7876 38.9272 44.5718 39.105C44.356 39.2827 44.1126 39.4181 43.8418 39.5112C43.571 39.6001 43.279 39.6445 42.9658 39.6445C42.3776 39.6445 41.8677 39.5049 41.436 39.2256C41.0086 38.9421 40.6785 38.5527 40.4458 38.0576C40.2131 37.5625 40.0967 36.9954 40.0967 36.3564V36.3438C40.0967 35.7048 40.2131 35.1377 40.4458 34.6426C40.6828 34.1432 41.0171 33.7518 41.4487 33.4683C41.8804 33.1805 42.3945 33.0366 42.9912 33.0366C43.3128 33.0366 43.609 33.0874 43.8799 33.189C44.1507 33.2905 44.3898 33.4344 44.5972 33.6206C44.8088 33.8068 44.9844 34.029 45.124 34.2871H45.2002V33.1572H46.3047V39.9048C46.3047 40.4126 46.1799 40.8548 45.9302 41.2314C45.6847 41.6081 45.3335 41.8979 44.8765 42.1011C44.4194 42.3084 43.8799 42.4121 43.2578 42.4121ZM43.207 38.667C43.6302 38.667 43.992 38.5697 44.2925 38.375C44.5972 38.1761 44.8299 37.9032 44.9907 37.5562C45.1558 37.2091 45.2383 36.8092 45.2383 36.3564V36.3438C45.2383 35.891 45.1558 35.4889 44.9907 35.1377C44.8299 34.7865 44.5972 34.5114 44.2925 34.3125C43.992 34.1136 43.6302 34.0142 43.207 34.0142C42.7839 34.0142 42.4242 34.1136 42.1279 34.3125C41.8359 34.5114 41.6117 34.7865 41.4551 35.1377C41.3027 35.4889 41.2266 35.891 41.2266 36.3438V36.3564C41.2266 36.8092 41.3027 37.2091 41.4551 37.5562C41.6117 37.9032 41.8359 38.1761 42.1279 38.375C42.4242 38.5697 42.7839 38.667 43.207 38.667ZM48.4248 40V30.4404H49.5293V34.1855H49.6309C49.8044 33.8216 50.054 33.5402 50.3799 33.3413C50.7057 33.1382 51.1204 33.0366 51.624 33.0366C52.1361 33.0366 52.5698 33.1361 52.9253 33.335C53.2808 33.5296 53.5516 33.8153 53.7378 34.1919C53.924 34.5685 54.0171 35.0277 54.0171 35.5693V40H52.9126V35.8359C52.9126 35.2181 52.7814 34.7611 52.519 34.4648C52.2609 34.1644 51.8589 34.0142 51.313 34.0142C50.9491 34.0142 50.6338 34.0924 50.3672 34.249C50.1006 34.4056 49.8932 34.6278 49.7451 34.9155C49.6012 35.2033 49.5293 35.5482 49.5293 35.9502V40H48.4248ZM59.6729 40V33.1572H60.7773V34.1982H60.8789C61.0312 33.8301 61.264 33.5444 61.5771 33.3413C61.8945 33.1382 62.2775 33.0366 62.7261 33.0366C63.035 33.0366 63.3122 33.0874 63.5576 33.189C63.8031 33.2905 64.0146 33.4323 64.1924 33.6143C64.3701 33.792 64.5119 33.9993 64.6177 34.2363H64.7192C64.842 33.9951 65.007 33.7856 65.2144 33.6079C65.4217 33.4259 65.6608 33.2863 65.9316 33.189C66.2067 33.0874 66.5008 33.0366 66.814 33.0366C67.2795 33.0366 67.673 33.1234 67.9946 33.2969C68.3205 33.4704 68.568 33.7243 68.7373 34.0586C68.9066 34.3887 68.9912 34.7928 68.9912 35.271V40H67.8867V35.5249C67.8867 35.0213 67.7682 34.6447 67.5312 34.395C67.2985 34.1411 66.9409 34.0142 66.4585 34.0142C66.1411 34.0142 65.8639 34.0861 65.627 34.23C65.39 34.3739 65.2059 34.5664 65.0747 34.8076C64.9435 35.0446 64.8779 35.3091 64.8779 35.6011V40H63.7734V35.3535C63.7734 34.9473 63.6444 34.6235 63.3862 34.3823C63.1281 34.1369 62.7832 34.0142 62.3516 34.0142C62.0553 34.0142 61.7866 34.0924 61.5454 34.249C61.3084 34.4056 61.1201 34.6172 60.9805 34.8838C60.8451 35.1462 60.7773 35.4382 60.7773 35.7598V40H59.6729ZM72.8633 40.1206C72.4316 40.1206 72.0423 40.0381 71.6953 39.873C71.3525 39.708 71.0796 39.4731 70.8765 39.1685C70.6776 38.8638 70.5781 38.5041 70.5781 38.0894V38.0767C70.5781 37.4673 70.7939 36.9912 71.2256 36.6484C71.6615 36.3014 72.2772 36.1047 73.0728 36.0581L75.5864 35.9058V36.7881L73.2061 36.9404C72.6855 36.9701 72.3047 37.078 72.0635 37.2642C71.8265 37.4504 71.708 37.7127 71.708 38.0513V38.064C71.708 38.411 71.8392 38.6818 72.1016 38.8765C72.3639 39.0669 72.694 39.1621 73.0918 39.1621C73.4684 39.1621 73.8027 39.0881 74.0947 38.9399C74.3867 38.7876 74.6152 38.5824 74.7803 38.3242C74.9495 38.0661 75.0342 37.7741 75.0342 37.4482V35.3154C75.0342 34.8923 74.9051 34.5706 74.647 34.3506C74.3931 34.1263 74.0101 34.0142 73.498 34.0142C73.0876 34.0142 72.7511 34.0882 72.4888 34.2363C72.2264 34.3802 72.0508 34.5854 71.9619 34.8521L71.9556 34.8711H70.8511L70.8574 34.833C70.9167 34.4733 71.0648 34.1602 71.3018 33.8936C71.543 33.6227 71.854 33.4132 72.2349 33.2651C72.6157 33.1128 73.0495 33.0366 73.5361 33.0366C74.0947 33.0366 74.5666 33.1276 74.9517 33.3096C75.341 33.4915 75.6351 33.7539 75.834 34.0967C76.0371 34.4352 76.1387 34.8415 76.1387 35.3154V40H75.0342V38.9907H74.9326C74.7887 39.2319 74.6131 39.4372 74.4058 39.6064C74.2026 39.7757 73.972 39.9048 73.7139 39.9937C73.4557 40.0783 73.1722 40.1206 72.8633 40.1206ZM78.1572 42.2852V33.1572H79.2617V34.249H79.3633C79.5029 33.9951 79.6785 33.7793 79.8901 33.6016C80.1017 33.4196 80.3429 33.2799 80.6138 33.1826C80.8846 33.0853 81.1787 33.0366 81.4961 33.0366C82.0758 33.0366 82.5794 33.1847 83.0068 33.481C83.4385 33.7729 83.7728 34.1834 84.0098 34.7124C84.2467 35.2414 84.3652 35.8613 84.3652 36.5723V36.585C84.3652 37.3001 84.2467 37.9222 84.0098 38.4512C83.7728 38.9801 83.4385 39.3906 83.0068 39.6826C82.5794 39.9746 82.0758 40.1206 81.4961 40.1206C81.1829 40.1206 80.8867 40.0719 80.6074 39.9746C80.3324 39.873 80.0869 39.7334 79.8711 39.5557C79.6595 39.3779 79.4902 39.1663 79.3633 38.9209H79.2617V42.2852H78.1572ZM81.2422 39.1431C81.6611 39.1431 82.0187 39.0415 82.3149 38.8384C82.6112 38.631 82.8376 38.3369 82.9941 37.9561C83.1549 37.571 83.2354 37.1139 83.2354 36.585V36.5723C83.2354 36.0391 83.1549 35.582 82.9941 35.2012C82.8376 34.8203 82.6112 34.5283 82.3149 34.3252C82.0187 34.1178 81.6611 34.0142 81.2422 34.0142C80.8275 34.0142 80.4699 34.1178 80.1694 34.3252C79.869 34.5326 79.6383 34.8267 79.4775 35.2075C79.3167 35.5884 79.2363 36.0433 79.2363 36.5723V36.585C79.2363 37.1097 79.3167 37.5646 79.4775 37.9497C79.6383 38.3306 79.869 38.6247 80.1694 38.832C80.4699 39.0394 80.8275 39.1431 81.2422 39.1431ZM9.96436 56L7.43164 49.1572H8.59961L10.4722 54.7939H10.5737L12.4463 49.1572H13.6143L11.0815 56H9.96436ZM15.0996 56V49.1572H16.2041V56H15.0996ZM15.6582 47.8369C15.4508 47.8369 15.271 47.7629 15.1187 47.6147C14.9705 47.4624 14.8965 47.2826 14.8965 47.0752C14.8965 46.8636 14.9705 46.6838 15.1187 46.5356C15.271 46.3875 15.4508 46.3135 15.6582 46.3135C15.8698 46.3135 16.0496 46.3875 16.1978 46.5356C16.3459 46.6838 16.4199 46.8636 16.4199 47.0752C16.4199 47.2826 16.3459 47.4624 16.1978 47.6147C16.0496 47.7629 15.8698 47.8369 15.6582 47.8369ZM20.6348 56.1206C20.127 56.1206 19.6784 56.0444 19.2891 55.8921C18.8997 55.7355 18.5866 55.5176 18.3496 55.2383C18.1169 54.959 17.9793 54.631 17.937 54.2544H19.0669C19.16 54.5379 19.342 54.7664 19.6128 54.9399C19.8836 55.1134 20.237 55.2002 20.6729 55.2002C20.9818 55.2002 21.2526 55.1558 21.4854 55.0669C21.7223 54.9738 21.9085 54.849 22.0439 54.6924C22.1794 54.5316 22.2471 54.3475 22.2471 54.1401V54.1274C22.2471 53.8947 22.154 53.6979 21.9678 53.5371C21.7816 53.3721 21.4769 53.2388 21.0537 53.1372L19.9937 52.8833C19.3547 52.731 18.8849 52.5088 18.5845 52.2168C18.284 51.9206 18.1338 51.527 18.1338 51.0361V51.0298C18.1338 50.6489 18.2438 50.3083 18.4639 50.0078C18.6882 49.7074 18.9928 49.4704 19.3779 49.2969C19.763 49.1234 20.1968 49.0366 20.6792 49.0366C21.1574 49.0366 21.5806 49.1128 21.9487 49.2651C22.3211 49.4132 22.6195 49.6248 22.8438 49.8999C23.0723 50.175 23.2119 50.4987 23.2627 50.8711H22.1772C22.1053 50.6003 21.9403 50.3802 21.6821 50.2109C21.424 50.0417 21.0876 49.957 20.6729 49.957C20.402 49.957 20.1608 50.0015 19.9492 50.0903C19.7376 50.175 19.5705 50.2935 19.4478 50.4458C19.325 50.5981 19.2637 50.7759 19.2637 50.979V50.9917C19.2637 51.2244 19.3547 51.417 19.5366 51.5693C19.7186 51.7217 20.0106 51.8465 20.4126 51.9438L21.4663 52.1978C22.1095 52.3543 22.5877 52.5786 22.9009 52.8706C23.2183 53.1626 23.377 53.554 23.377 54.0449V54.0576C23.377 54.4639 23.2563 54.8236 23.0151 55.1367C22.7739 55.4456 22.446 55.6868 22.0312 55.8604C21.6208 56.0339 21.1553 56.1206 20.6348 56.1206ZM27.3823 56.1206C26.866 56.1206 26.4323 56.0233 26.0811 55.8286C25.7298 55.6297 25.4653 55.342 25.2876 54.9653C25.1141 54.5845 25.0273 54.1253 25.0273 53.5879V49.1572H26.1318V53.3213C26.1318 53.9349 26.2503 54.3919 26.4873 54.6924C26.7285 54.9928 27.1221 55.1431 27.668 55.1431C28.07 55.1431 28.4085 55.0648 28.6836 54.9082C28.9587 54.7516 29.166 54.5295 29.3057 54.2417C29.4453 53.9497 29.5151 53.6048 29.5151 53.207V49.1572H30.6196V56H29.5151V54.978H29.4136C29.2443 55.342 28.9883 55.6234 28.6455 55.8223C28.307 56.0212 27.8859 56.1206 27.3823 56.1206ZM34.5615 56.1206C34.1299 56.1206 33.7406 56.0381 33.3936 55.873C33.0508 55.708 32.7778 55.4731 32.5747 55.1685C32.3758 54.8638 32.2764 54.5041 32.2764 54.0894V54.0767C32.2764 53.4673 32.4922 52.9912 32.9238 52.6484C33.3597 52.3014 33.9754 52.1047 34.771 52.0581L37.2847 51.9058V52.7881L34.9043 52.9404C34.3838 52.9701 34.0029 53.078 33.7617 53.2642C33.5247 53.4504 33.4062 53.7127 33.4062 54.0513V54.064C33.4062 54.411 33.5374 54.6818 33.7998 54.8765C34.0622 55.0669 34.3923 55.1621 34.79 55.1621C35.1667 55.1621 35.501 55.0881 35.793 54.9399C36.085 54.7876 36.3135 54.5824 36.4785 54.3242C36.6478 54.0661 36.7324 53.7741 36.7324 53.4482V51.3154C36.7324 50.8923 36.6034 50.5706 36.3452 50.3506C36.0913 50.1263 35.7083 50.0142 35.1963 50.0142C34.7858 50.0142 34.4494 50.0882 34.187 50.2363C33.9246 50.3802 33.749 50.5854 33.6602 50.8521L33.6538 50.8711H32.5493L32.5557 50.833C32.6149 50.4733 32.763 50.1602 33 49.8936C33.2412 49.6227 33.5522 49.4132 33.9331 49.2651C34.314 49.1128 34.7477 49.0366 35.2344 49.0366C35.793 49.0366 36.2648 49.1276 36.6499 49.3096C37.0392 49.4915 37.3333 49.7539 37.5322 50.0967C37.7354 50.4352 37.8369 50.8415 37.8369 51.3154V56H36.7324V54.9907H36.6309C36.487 55.2319 36.3114 55.4372 36.104 55.6064C35.9009 55.7757 35.6702 55.9048 35.4121 55.9937C35.154 56.0783 34.8704 56.1206 34.5615 56.1206ZM39.9189 56V46.4404H41.0234V56H39.9189ZM43.1689 56V49.1572H44.2734V56H43.1689ZM43.7275 47.8369C43.5202 47.8369 43.3403 47.7629 43.188 47.6147C43.0399 47.4624 42.9658 47.2826 42.9658 47.0752C42.9658 46.8636 43.0399 46.6838 43.188 46.5356C43.3403 46.3875 43.5202 46.3135 43.7275 46.3135C43.9391 46.3135 44.119 46.3875 44.2671 46.5356C44.4152 46.6838 44.4893 46.8636 44.4893 47.0752C44.4893 47.2826 44.4152 47.4624 44.2671 47.6147C44.119 47.7629 43.9391 47.8369 43.7275 47.8369ZM46.1968 56V55.2002L50.145 50.1729V50.0713H46.2031V49.1572H51.4463V49.9761L47.5171 54.9844V55.0859H51.4653V56H46.1968ZM55.2422 56.1206C54.8105 56.1206 54.4212 56.0381 54.0742 55.873C53.7314 55.708 53.4585 55.4731 53.2554 55.1685C53.0565 54.8638 52.957 54.5041 52.957 54.0894V54.0767C52.957 53.4673 53.1729 52.9912 53.6045 52.6484C54.0404 52.3014 54.6561 52.1047 55.4517 52.0581L57.9653 51.9058V52.7881L55.585 52.9404C55.0645 52.9701 54.6836 53.078 54.4424 53.2642C54.2054 53.4504 54.0869 53.7127 54.0869 54.0513V54.064C54.0869 54.411 54.2181 54.6818 54.4805 54.8765C54.7428 55.0669 55.0729 55.1621 55.4707 55.1621C55.8473 55.1621 56.1816 55.0881 56.4736 54.9399C56.7656 54.7876 56.9941 54.5824 57.1592 54.3242C57.3285 54.0661 57.4131 53.7741 57.4131 53.4482V51.3154C57.4131 50.8923 57.284 50.5706 57.0259 50.3506C56.772 50.1263 56.389 50.0142 55.877 50.0142C55.4665 50.0142 55.13 50.0882 54.8677 50.2363C54.6053 50.3802 54.4297 50.5854 54.3408 50.8521L54.3345 50.8711H53.23L53.2363 50.833C53.2956 50.4733 53.4437 50.1602 53.6807 49.8936C53.9219 49.6227 54.2329 49.4132 54.6138 49.2651C54.9946 49.1128 55.4284 49.0366 55.915 49.0366C56.4736 49.0366 56.9455 49.1276 57.3306 49.3096C57.7199 49.4915 58.014 49.7539 58.2129 50.0967C58.416 50.4352 58.5176 50.8415 58.5176 51.3154V56H57.4131V54.9907H57.3115C57.1676 55.2319 56.992 55.4372 56.7847 55.6064C56.5815 55.7757 56.3509 55.9048 56.0928 55.9937C55.8346 56.0783 55.5511 56.1206 55.2422 56.1206ZM62.9673 56.0508C62.2648 56.0508 61.7549 55.909 61.4375 55.6255C61.1243 55.342 60.9678 54.8743 60.9678 54.2227V50.0713H59.8887V49.1572H60.9678V47.3862H62.1104V49.1572H63.6084V50.0713H62.1104V53.9434C62.1104 54.3454 62.1865 54.6353 62.3389 54.813C62.4912 54.9865 62.7451 55.0732 63.1006 55.0732C63.1979 55.0732 63.2804 55.0711 63.3481 55.0669C63.4201 55.0627 63.5068 55.0563 63.6084 55.0479V55.9873C63.5026 56.0042 63.3968 56.019 63.291 56.0317C63.1852 56.0444 63.0773 56.0508 62.9673 56.0508ZM65.2842 56V49.1572H66.3887V56H65.2842ZM65.8428 47.8369C65.6354 47.8369 65.4556 47.7629 65.3032 47.6147C65.1551 47.4624 65.0811 47.2826 65.0811 47.0752C65.0811 46.8636 65.1551 46.6838 65.3032 46.5356C65.4556 46.3875 65.6354 46.3135 65.8428 46.3135C66.0544 46.3135 66.2342 46.3875 66.3823 46.5356C66.5304 46.6838 66.6045 46.8636 66.6045 47.0752C66.6045 47.2826 66.5304 47.4624 66.3823 47.6147C66.2342 47.7629 66.0544 47.8369 65.8428 47.8369ZM71.2827 56.1206C70.6353 56.1206 70.0745 55.9788 69.6006 55.6953C69.1309 55.4076 68.7669 54.9992 68.5088 54.4702C68.2549 53.9412 68.1279 53.3128 68.1279 52.585V52.5723C68.1279 51.8402 68.2549 51.2096 68.5088 50.6807C68.7669 50.1517 69.1309 49.7454 69.6006 49.4619C70.0745 49.1784 70.6353 49.0366 71.2827 49.0366C71.9344 49.0366 72.4951 49.1784 72.9648 49.4619C73.4346 49.7454 73.7964 50.1517 74.0503 50.6807C74.3084 51.2096 74.4375 51.8402 74.4375 52.5723V52.585C74.4375 53.3128 74.3084 53.9412 74.0503 54.4702C73.7964 54.9992 73.4346 55.4076 72.9648 55.6953C72.4951 55.9788 71.9344 56.1206 71.2827 56.1206ZM71.2827 55.1431C71.7144 55.1431 72.0804 55.0415 72.3809 54.8384C72.6813 54.6353 72.9098 54.3433 73.0664 53.9624C73.2272 53.5815 73.3076 53.1224 73.3076 52.585V52.5723C73.3076 52.0306 73.2272 51.5693 73.0664 51.1885C72.9098 50.8076 72.6813 50.5177 72.3809 50.3188C72.0804 50.1157 71.7144 50.0142 71.2827 50.0142C70.8511 50.0142 70.485 50.1157 70.1846 50.3188C69.8841 50.5177 69.6535 50.8076 69.4927 51.1885C69.3361 51.5693 69.2578 52.0306 69.2578 52.5723V52.585C69.2578 53.1224 69.3361 53.5815 69.4927 53.9624C69.6535 54.3433 69.8841 54.6353 70.1846 54.8384C70.485 55.0415 70.8511 55.1431 71.2827 55.1431ZM76.1514 56V49.1572H77.2559V50.1855H77.3574C77.5309 49.8216 77.7806 49.5402 78.1064 49.3413C78.4323 49.1382 78.847 49.0366 79.3506 49.0366C80.1208 49.0366 80.7111 49.2567 81.1216 49.6968C81.5363 50.1326 81.7437 50.7568 81.7437 51.5693V56H80.6392V51.8359C80.6392 51.2181 80.508 50.7611 80.2456 50.4648C79.9875 50.1644 79.5854 50.0142 79.0396 50.0142C78.6756 50.0142 78.3604 50.0924 78.0938 50.249C77.8271 50.4056 77.6198 50.6278 77.4717 50.9155C77.3278 51.2033 77.2559 51.5482 77.2559 51.9502V56H76.1514ZM90.2114 56.1206C89.564 56.1206 89.0033 55.9788 88.5293 55.6953C88.0596 55.4076 87.6956 54.9992 87.4375 54.4702C87.1836 53.9412 87.0566 53.3128 87.0566 52.585V52.5723C87.0566 51.8402 87.1836 51.2096 87.4375 50.6807C87.6956 50.1517 88.0596 49.7454 88.5293 49.4619C89.0033 49.1784 89.564 49.0366 90.2114 49.0366C90.8631 49.0366 91.4238 49.1784 91.8936 49.4619C92.3633 49.7454 92.7251 50.1517 92.979 50.6807C93.2371 51.2096 93.3662 51.8402 93.3662 52.5723V52.585C93.3662 53.3128 93.2371 53.9412 92.979 54.4702C92.7251 54.9992 92.3633 55.4076 91.8936 55.6953C91.4238 55.9788 90.8631 56.1206 90.2114 56.1206ZM90.2114 55.1431C90.6431 55.1431 91.0091 55.0415 91.3096 54.8384C91.61 54.6353 91.8385 54.3433 91.9951 53.9624C92.1559 53.5815 92.2363 53.1224 92.2363 52.585V52.5723C92.2363 52.0306 92.1559 51.5693 91.9951 51.1885C91.8385 50.8076 91.61 50.5177 91.3096 50.3188C91.0091 50.1157 90.6431 50.0142 90.2114 50.0142C89.7798 50.0142 89.4137 50.1157 89.1133 50.3188C88.8128 50.5177 88.5822 50.8076 88.4214 51.1885C88.2648 51.5693 88.1865 52.0306 88.1865 52.5723V52.585C88.1865 53.1224 88.2648 53.5815 88.4214 53.9624C88.5822 54.3433 88.8128 54.6353 89.1133 54.8384C89.4137 55.0415 89.7798 55.1431 90.2114 55.1431ZM95.0801 56V49.1572H96.1846V50.1855H96.2861C96.4596 49.8216 96.7093 49.5402 97.0352 49.3413C97.361 49.1382 97.7757 49.0366 98.2793 49.0366C99.0495 49.0366 99.6398 49.2567 100.05 49.6968C100.465 50.1326 100.672 50.7568 100.672 51.5693V56H99.5679V51.8359C99.5679 51.2181 99.4367 50.7611 99.1743 50.4648C98.9162 50.1644 98.5142 50.0142 97.9683 50.0142C97.6043 50.0142 97.2891 50.0924 97.0225 50.249C96.7559 50.4056 96.5485 50.6278 96.4004 50.9155C96.2565 51.2033 96.1846 51.5482 96.1846 51.9502V56H95.0801ZM11.0181 62.6245C11.437 62.6245 11.8496 62.7049 12.2559 62.8657C12.6663 63.0265 13.0366 63.2868 13.3667 63.6465C13.701 64.0062 13.9676 64.4823 14.1665 65.0747C14.3654 65.6629 14.4648 66.3887 14.4648 67.252V67.2646C14.4648 68.3057 14.3252 69.1965 14.0459 69.937C13.7666 70.6733 13.3646 71.2383 12.8398 71.6318C12.3151 72.0212 11.6825 72.2158 10.9419 72.2158C10.4299 72.2158 9.96647 72.1227 9.55176 71.9365C9.14128 71.7461 8.7985 71.4816 8.52344 71.1431C8.24837 70.8045 8.05794 70.411 7.95215 69.9624L7.93311 69.8799H9.08203L9.10742 69.9497C9.20052 70.2036 9.33171 70.4237 9.50098 70.6099C9.67448 70.7961 9.88184 70.9399 10.123 71.0415C10.3685 71.1431 10.6457 71.1938 10.9546 71.1938C11.509 71.1938 11.9596 71.033 12.3066 70.7114C12.6536 70.3856 12.9118 69.9539 13.0811 69.4165C13.2503 68.8791 13.3455 68.293 13.3667 67.6582C13.3709 67.599 13.373 67.5418 13.373 67.4868C13.373 67.4276 13.373 67.3704 13.373 67.3154L13.1001 65.792C13.1001 65.39 13.007 65.026 12.8208 64.7002C12.6388 64.3743 12.3913 64.1162 12.0781 63.9258C11.7692 63.7311 11.4201 63.6338 11.0308 63.6338C10.6499 63.6338 10.3029 63.729 9.98975 63.9194C9.6766 64.1056 9.42692 64.3595 9.24072 64.6812C9.05452 64.9985 8.96143 65.3561 8.96143 65.7539V65.7666C8.96143 66.1729 9.05029 66.5347 9.22803 66.8521C9.40576 67.1652 9.64909 67.4128 9.95801 67.5947C10.2669 67.7725 10.6182 67.8613 11.0117 67.8613C11.4095 67.8613 11.765 67.7725 12.0781 67.5947C12.3913 67.417 12.6388 67.1737 12.8208 66.8647C13.007 66.5516 13.1001 66.1961 13.1001 65.7983V65.792H13.4746V67.4424H13.2524C13.1424 67.6921 12.9731 67.9248 12.7446 68.1406C12.5203 68.3564 12.2453 68.5299 11.9194 68.6611C11.5978 68.7923 11.2297 68.8579 10.8149 68.8579C10.2437 68.8579 9.73161 68.7246 9.27881 68.458C8.82601 68.1914 8.46842 67.8275 8.20605 67.3662C7.94368 66.9007 7.8125 66.376 7.8125 65.792V65.7793C7.8125 65.1699 7.95003 64.6283 8.2251 64.1543C8.50439 63.6761 8.88525 63.3016 9.36768 63.0308C9.85433 62.7599 10.4045 62.6245 11.0181 62.6245ZM19.2954 62.6245C19.7144 62.6245 20.127 62.7049 20.5332 62.8657C20.9437 63.0265 21.314 63.2868 21.644 63.6465C21.9784 64.0062 22.245 64.4823 22.4438 65.0747C22.6427 65.6629 22.7422 66.3887 22.7422 67.252V67.2646C22.7422 68.3057 22.6025 69.1965 22.3232 69.937C22.0439 70.6733 21.6419 71.2383 21.1172 71.6318C20.5924 72.0212 19.9598 72.2158 19.2192 72.2158C18.7072 72.2158 18.2438 72.1227 17.8291 71.9365C17.4186 71.7461 17.0758 71.4816 16.8008 71.1431C16.5257 70.8045 16.3353 70.411 16.2295 69.9624L16.2104 69.8799H17.3594L17.3848 69.9497C17.4779 70.2036 17.609 70.4237 17.7783 70.6099C17.9518 70.7961 18.1592 70.9399 18.4004 71.0415C18.6458 71.1431 18.923 71.1938 19.2319 71.1938C19.7863 71.1938 20.237 71.033 20.584 70.7114C20.931 70.3856 21.1891 69.9539 21.3584 69.4165C21.5277 68.8791 21.6229 68.293 21.644 67.6582C21.6483 67.599 21.6504 67.5418 21.6504 67.4868C21.6504 67.4276 21.6504 67.3704 21.6504 67.3154L21.3774 65.792C21.3774 65.39 21.2843 65.026 21.0981 64.7002C20.9162 64.3743 20.6686 64.1162 20.3555 63.9258C20.0465 63.7311 19.6974 63.6338 19.3081 63.6338C18.9272 63.6338 18.5802 63.729 18.2671 63.9194C17.9539 64.1056 17.7043 64.3595 17.5181 64.6812C17.3319 64.9985 17.2388 65.3561 17.2388 65.7539V65.7666C17.2388 66.1729 17.3276 66.5347 17.5054 66.8521C17.6831 67.1652 17.9264 67.4128 18.2354 67.5947C18.5443 67.7725 18.8955 67.8613 19.2891 67.8613C19.6868 67.8613 20.0423 67.7725 20.3555 67.5947C20.6686 67.417 20.9162 67.1737 21.0981 66.8647C21.2843 66.5516 21.3774 66.1961 21.3774 65.7983V65.792H21.752V67.4424H21.5298C21.4198 67.6921 21.2505 67.9248 21.022 68.1406C20.7977 68.3564 20.5226 68.5299 20.1968 68.6611C19.8752 68.7923 19.507 68.8579 19.0923 68.8579C18.521 68.8579 18.009 68.7246 17.5562 68.458C17.1034 68.1914 16.7458 67.8275 16.4834 67.3662C16.221 66.9007 16.0898 66.376 16.0898 65.792V65.7793C16.0898 65.1699 16.2274 64.6283 16.5024 64.1543C16.7817 63.6761 17.1626 63.3016 17.645 63.0308C18.1317 62.7599 18.6818 62.6245 19.2954 62.6245ZM26.4619 72.1206C26.0303 72.1206 25.641 72.0381 25.2939 71.873C24.9512 71.708 24.6782 71.4731 24.4751 71.1685C24.2762 70.8638 24.1768 70.5041 24.1768 70.0894V70.0767C24.1768 69.4673 24.3926 68.9912 24.8242 68.6484C25.2601 68.3014 25.8758 68.1047 26.6714 68.0581L29.1851 67.9058V68.7881L26.8047 68.9404C26.2842 68.9701 25.9033 69.078 25.6621 69.2642C25.4251 69.4504 25.3066 69.7127 25.3066 70.0513V70.064C25.3066 70.411 25.4378 70.6818 25.7002 70.8765C25.9626 71.0669 26.2926 71.1621 26.6904 71.1621C27.0671 71.1621 27.4014 71.0881 27.6934 70.9399C27.9854 70.7876 28.2139 70.5824 28.3789 70.3242C28.5482 70.0661 28.6328 69.7741 28.6328 69.4482V67.3154C28.6328 66.8923 28.5037 66.5706 28.2456 66.3506C27.9917 66.1263 27.6087 66.0142 27.0967 66.0142C26.6862 66.0142 26.3498 66.0882 26.0874 66.2363C25.825 66.3802 25.6494 66.5854 25.5605 66.8521L25.5542 66.8711H24.4497L24.4561 66.833C24.5153 66.4733 24.6634 66.1602 24.9004 65.8936C25.1416 65.6227 25.4526 65.4132 25.8335 65.2651C26.2144 65.1128 26.6481 65.0366 27.1348 65.0366C27.6934 65.0366 28.1652 65.1276 28.5503 65.3096C28.9396 65.4915 29.2337 65.7539 29.4326 66.0967C29.6357 66.4352 29.7373 66.8415 29.7373 67.3154V72H28.6328V70.9907H28.5312C28.3874 71.2319 28.2118 71.4372 28.0044 71.6064C27.8013 71.7757 27.5706 71.9048 27.3125 71.9937C27.0544 72.0783 26.7708 72.1206 26.4619 72.1206ZM34.5552 72.1206C33.9162 72.1206 33.3618 71.9746 32.8921 71.6826C32.4224 71.3906 32.0584 70.978 31.8003 70.4448C31.5422 69.9116 31.4131 69.2832 31.4131 68.5596V68.5469C31.4131 67.8359 31.54 67.2181 31.7939 66.6934C32.0521 66.1686 32.416 65.7624 32.8857 65.4746C33.3555 65.1826 33.9098 65.0366 34.5488 65.0366C35.1032 65.0366 35.5814 65.134 35.9834 65.3286C36.3854 65.5233 36.707 65.7856 36.9482 66.1157C37.1895 66.4416 37.3439 66.8076 37.4116 67.2139L37.418 67.252H36.3198L36.3135 67.2329C36.2288 66.8944 36.0363 66.6066 35.7358 66.3696C35.4354 66.1326 35.0397 66.0142 34.5488 66.0142C34.1383 66.0142 33.7829 66.1178 33.4824 66.3252C33.182 66.5326 32.9492 66.8267 32.7842 67.2075C32.6234 67.5841 32.543 68.0306 32.543 68.5469V68.5596C32.543 69.0843 32.6255 69.5413 32.7905 69.9307C32.9556 70.3158 33.1883 70.6141 33.4888 70.8257C33.7892 71.0373 34.1426 71.1431 34.5488 71.1431C35.0101 71.1431 35.3867 71.0436 35.6787 70.8447C35.9707 70.6458 36.1802 70.356 36.3071 69.9751L36.3198 69.937L37.4116 69.9307L37.3989 70.0005C37.3058 70.411 37.1408 70.777 36.9038 71.0986C36.6668 71.416 36.3537 71.6657 35.9644 71.8477C35.575 72.0296 35.1053 72.1206 34.5552 72.1206ZM39.0303 72V65.1572H40.1348V66.1729H40.2363C40.3675 65.8132 40.5897 65.5339 40.9028 65.335C41.216 65.1361 41.6032 65.0366 42.0645 65.0366C42.1702 65.0366 42.2739 65.043 42.3755 65.0557C42.4813 65.0641 42.5617 65.0726 42.6167 65.0811V66.1538C42.5024 66.1326 42.3903 66.1178 42.2803 66.1094C42.1745 66.0967 42.0602 66.0903 41.9375 66.0903C41.5863 66.0903 41.2752 66.1602 41.0044 66.2998C40.7336 66.4395 40.5199 66.6341 40.3633 66.8838C40.2109 67.1335 40.1348 67.4255 40.1348 67.7598V72H39.0303ZM46.584 72.1206C45.9323 72.1206 45.3716 71.9767 44.9019 71.689C44.4364 71.4012 44.0767 70.995 43.8228 70.4702C43.5731 69.9412 43.4482 69.3192 43.4482 68.604V68.5977C43.4482 67.891 43.5731 67.271 43.8228 66.7378C44.0767 66.2046 44.4342 65.7878 44.8955 65.4873C45.3568 65.1868 45.8963 65.0366 46.5142 65.0366C47.1362 65.0366 47.6694 65.1805 48.1138 65.4683C48.5623 65.756 48.9051 66.158 49.1421 66.6743C49.3833 67.1864 49.5039 67.783 49.5039 68.4644V68.896H44.0195V68.0137H48.939L48.3931 68.8198V68.3818C48.3931 67.8444 48.3127 67.4022 48.1519 67.0552C47.991 66.7082 47.7689 66.45 47.4854 66.2808C47.2018 66.1073 46.876 66.0205 46.5078 66.0205C46.1396 66.0205 45.8096 66.1115 45.5176 66.2935C45.2298 66.4712 45.0013 66.7357 44.832 67.0869C44.6628 67.4382 44.5781 67.8698 44.5781 68.3818V68.8198C44.5781 69.3065 44.6606 69.7233 44.8257 70.0703C44.9907 70.4131 45.2256 70.6776 45.5303 70.8638C45.835 71.0457 46.1947 71.1367 46.6094 71.1367C46.9183 71.1367 47.187 71.0944 47.4155 71.0098C47.644 70.9251 47.8324 70.8172 47.9805 70.686C48.1286 70.5549 48.2323 70.4215 48.2915 70.2861L48.3169 70.229H49.4214L49.4087 70.2798C49.3494 70.5125 49.2437 70.7389 49.0913 70.959C48.9432 71.1748 48.7507 71.3716 48.5137 71.5493C48.2767 71.7228 47.9953 71.8625 47.6694 71.9683C47.3478 72.0698 46.986 72.1206 46.584 72.1206ZM53.5664 72.1206C53.0586 72.1206 52.61 72.0444 52.2207 71.8921C51.8314 71.7355 51.5182 71.5176 51.2812 71.2383C51.0485 70.959 50.911 70.631 50.8687 70.2544H51.9985C52.0916 70.5379 52.2736 70.7664 52.5444 70.9399C52.8153 71.1134 53.1686 71.2002 53.6045 71.2002C53.9134 71.2002 54.1842 71.1558 54.417 71.0669C54.654 70.9738 54.8402 70.849 54.9756 70.6924C55.111 70.5316 55.1787 70.3475 55.1787 70.1401V70.1274C55.1787 69.8947 55.0856 69.6979 54.8994 69.5371C54.7132 69.3721 54.4085 69.2388 53.9854 69.1372L52.9253 68.8833C52.2863 68.731 51.8166 68.5088 51.5161 68.2168C51.2157 67.9206 51.0654 67.527 51.0654 67.0361V67.0298C51.0654 66.6489 51.1755 66.3083 51.3955 66.0078C51.6198 65.7074 51.9245 65.4704 52.3096 65.2969C52.6947 65.1234 53.1284 65.0366 53.6108 65.0366C54.089 65.0366 54.5122 65.1128 54.8804 65.2651C55.2528 65.4132 55.5511 65.6248 55.7754 65.8999C56.0039 66.175 56.1436 66.4987 56.1943 66.8711H55.1089C55.0369 66.6003 54.8719 66.3802 54.6138 66.2109C54.3556 66.0417 54.0192 65.957 53.6045 65.957C53.3337 65.957 53.0924 66.0015 52.8809 66.0903C52.6693 66.175 52.5021 66.2935 52.3794 66.4458C52.2567 66.5981 52.1953 66.7759 52.1953 66.979V66.9917C52.1953 67.2244 52.2863 67.417 52.4683 67.5693C52.6502 67.7217 52.9422 67.8465 53.3442 67.9438L54.3979 68.1978C55.0412 68.3543 55.5194 68.5786 55.8325 68.8706C56.1499 69.1626 56.3086 69.554 56.3086 70.0449V70.0576C56.3086 70.4639 56.188 70.8236 55.9468 71.1367C55.7056 71.4456 55.3776 71.6868 54.9629 71.8604C54.5524 72.0339 54.0869 72.1206 53.5664 72.1206ZM61.7422 72V62.4404H62.8467V72H61.7422ZM67.7598 72.1206C67.1081 72.1206 66.5474 71.9767 66.0776 71.689C65.6121 71.4012 65.2524 70.995 64.9985 70.4702C64.7489 69.9412 64.624 69.3192 64.624 68.604V68.5977C64.624 67.891 64.7489 67.271 64.9985 66.7378C65.2524 66.2046 65.61 65.7878 66.0713 65.4873C66.5326 65.1868 67.0721 65.0366 67.6899 65.0366C68.312 65.0366 68.8452 65.1805 69.2896 65.4683C69.7381 65.756 70.0809 66.158 70.3179 66.6743C70.5591 67.1864 70.6797 67.783 70.6797 68.4644V68.896H65.1953V68.0137H70.1147L69.5688 68.8198V68.3818C69.5688 67.8444 69.4884 67.4022 69.3276 67.0552C69.1668 66.7082 68.9447 66.45 68.6611 66.2808C68.3776 66.1073 68.0518 66.0205 67.6836 66.0205C67.3154 66.0205 66.9854 66.1115 66.6934 66.2935C66.4056 66.4712 66.1771 66.7357 66.0078 67.0869C65.8385 67.4382 65.7539 67.8698 65.7539 68.3818V68.8198C65.7539 69.3065 65.8364 69.7233 66.0015 70.0703C66.1665 70.4131 66.4014 70.6776 66.7061 70.8638C67.0107 71.0457 67.3704 71.1367 67.7852 71.1367C68.0941 71.1367 68.3628 71.0944 68.5913 71.0098C68.8198 70.9251 69.0081 70.8172 69.1562 70.686C69.3044 70.5549 69.408 70.4215 69.4673 70.2861L69.4927 70.229H70.5972L70.5845 70.2798C70.5252 70.5125 70.4194 70.7389 70.2671 70.959C70.119 71.1748 69.9264 71.3716 69.6895 71.5493C69.4525 71.7228 69.1711 71.8625 68.8452 71.9683C68.5236 72.0698 68.1618 72.1206 67.7598 72.1206ZM74.9199 72.1206C74.3444 72.1206 73.8408 71.9746 73.4092 71.6826C72.9775 71.3906 72.6432 70.9801 72.4062 70.4512C72.1693 69.918 72.0508 69.2959 72.0508 68.585V68.5723C72.0508 67.8571 72.1693 67.235 72.4062 66.7061C72.6432 66.1771 72.9754 65.7666 73.4028 65.4746C73.8345 65.1826 74.3402 65.0366 74.9199 65.0366C75.3896 65.0366 75.8149 65.1466 76.1958 65.3667C76.5809 65.5825 76.8665 65.8724 77.0527 66.2363H77.1543V62.4404H78.2588V72H77.1543V70.9082H77.0527C76.8454 71.2891 76.5576 71.5874 76.1895 71.8032C75.8213 72.0148 75.3981 72.1206 74.9199 72.1206ZM75.1738 71.1431C75.5885 71.1431 75.9461 71.0394 76.2466 70.832C76.547 70.6247 76.7777 70.3306 76.9385 69.9497C77.0993 69.5646 77.1797 69.1097 77.1797 68.585V68.5723C77.1797 68.0433 77.0993 67.5884 76.9385 67.2075C76.7777 66.8267 76.547 66.5326 76.2466 66.3252C75.9461 66.1178 75.5885 66.0142 75.1738 66.0142C74.7591 66.0142 74.4015 66.1178 74.1011 66.3252C73.8049 66.5283 73.5763 66.8203 73.4155 67.2012C73.259 67.582 73.1807 68.0391 73.1807 68.5723V68.585C73.1807 69.1139 73.259 69.571 73.4155 69.9561C73.5763 70.3369 73.8049 70.631 74.1011 70.8384C74.4015 71.0415 74.7591 71.1431 75.1738 71.1431ZM86.4663 72.0508C85.7638 72.0508 85.2539 71.909 84.9365 71.6255C84.6234 71.342 84.4668 70.8743 84.4668 70.2227V66.0713H83.3877V65.1572H84.4668V63.3862H85.6094V65.1572H87.1074V66.0713H85.6094V69.9434C85.6094 70.3454 85.6855 70.6353 85.8379 70.813C85.9902 70.9865 86.2441 71.0732 86.5996 71.0732C86.6969 71.0732 86.7795 71.0711 86.8472 71.0669C86.9191 71.0627 87.0059 71.0563 87.1074 71.0479V71.9873C87.0016 72.0042 86.8958 72.019 86.79 72.0317C86.6842 72.0444 86.5763 72.0508 86.4663 72.0508ZM91.481 72.1206C90.8335 72.1206 90.2728 71.9788 89.7988 71.6953C89.3291 71.4076 88.9652 70.9992 88.707 70.4702C88.4531 69.9412 88.3262 69.3128 88.3262 68.585V68.5723C88.3262 67.8402 88.4531 67.2096 88.707 66.6807C88.9652 66.1517 89.3291 65.7454 89.7988 65.4619C90.2728 65.1784 90.8335 65.0366 91.481 65.0366C92.1326 65.0366 92.6934 65.1784 93.1631 65.4619C93.6328 65.7454 93.9946 66.1517 94.2485 66.6807C94.5067 67.2096 94.6357 67.8402 94.6357 68.5723V68.585C94.6357 69.3128 94.5067 69.9412 94.2485 70.4702C93.9946 70.9992 93.6328 71.4076 93.1631 71.6953C92.6934 71.9788 92.1326 72.1206 91.481 72.1206ZM91.481 71.1431C91.9126 71.1431 92.2786 71.0415 92.5791 70.8384C92.8796 70.6353 93.1081 70.3433 93.2646 69.9624C93.4255 69.5815 93.5059 69.1224 93.5059 68.585V68.5723C93.5059 68.0306 93.4255 67.5693 93.2646 67.1885C93.1081 66.8076 92.8796 66.5177 92.5791 66.3188C92.2786 66.1157 91.9126 66.0142 91.481 66.0142C91.0493 66.0142 90.6833 66.1157 90.3828 66.3188C90.0824 66.5177 89.8517 66.8076 89.6909 67.1885C89.5343 67.5693 89.4561 68.0306 89.4561 68.5723V68.585C89.4561 69.1224 89.5343 69.5815 89.6909 69.9624C89.8517 70.3433 90.0824 70.6353 90.3828 70.8384C90.6833 71.0415 91.0493 71.1431 91.481 71.1431ZM102.24 72V64.1099H102.139L99.8091 65.7983V64.5923L102.247 62.8403H103.383V72H102.24ZM109.039 72.2158C108.472 72.2158 107.966 72.1037 107.521 71.8794C107.077 71.6551 106.72 71.3504 106.449 70.9653C106.182 70.576 106.026 70.138 105.979 69.6514L105.973 69.5815H107.071L107.077 69.6323C107.115 69.9243 107.221 70.1909 107.395 70.4321C107.572 70.6691 107.803 70.8574 108.086 70.9971C108.374 71.1367 108.696 71.2065 109.051 71.2065C109.458 71.2065 109.815 71.1177 110.124 70.9399C110.433 70.758 110.674 70.5083 110.848 70.1909C111.021 69.8735 111.108 69.5096 111.108 69.0991V69.0864C111.108 68.6802 111.019 68.3205 110.841 68.0073C110.668 67.6899 110.429 67.4424 110.124 67.2646C109.819 67.0869 109.468 66.998 109.07 66.998C108.766 66.998 108.484 67.0446 108.226 67.1377C107.972 67.2308 107.746 67.3704 107.547 67.5566C107.466 67.6328 107.39 67.7153 107.318 67.8042C107.251 67.8931 107.187 67.9925 107.128 68.1025H106.138L106.62 62.8403H111.717V63.8623H107.521L107.21 66.96H107.312C107.515 66.651 107.788 66.4162 108.131 66.2554C108.474 66.0903 108.852 66.0078 109.267 66.0078C109.843 66.0078 110.353 66.1411 110.797 66.4077C111.241 66.6701 111.59 67.0319 111.844 67.4932C112.098 67.9502 112.225 68.4749 112.225 69.0674V69.0801C112.225 69.6937 112.088 70.2375 111.812 70.7114C111.542 71.1812 111.167 71.5493 110.689 71.8159C110.211 72.0825 109.661 72.2158 109.039 72.2158ZM115.773 67.6582C115.189 67.6582 114.73 67.436 114.396 66.9917C114.066 66.5474 113.901 65.9465 113.901 65.189V65.1826C113.901 64.4251 114.066 63.8263 114.396 63.3862C114.73 62.9419 115.189 62.7197 115.773 62.7197C116.357 62.7197 116.817 62.9419 117.151 63.3862C117.485 63.8263 117.652 64.4251 117.652 65.1826V65.189C117.652 65.9465 117.485 66.5474 117.151 66.9917C116.817 67.436 116.357 67.6582 115.773 67.6582ZM115.773 66.9028C116.087 66.9028 116.33 66.7526 116.503 66.4521C116.681 66.1475 116.77 65.7264 116.77 65.189V65.1826C116.77 64.6452 116.681 64.2262 116.503 63.9258C116.33 63.6253 116.087 63.4751 115.773 63.4751C115.46 63.4751 115.217 63.6253 115.043 63.9258C114.87 64.2262 114.783 64.6452 114.783 65.1826V65.189C114.783 65.7264 114.87 66.1475 115.043 66.4521C115.217 66.7526 115.46 66.9028 115.773 66.9028ZM116.459 72H115.431L121.664 62.8403H122.692L116.459 72ZM122.337 72.1206C121.753 72.1206 121.294 71.8984 120.959 71.4541C120.629 71.0098 120.464 70.4089 120.464 69.6514V69.645C120.464 68.8875 120.629 68.2887 120.959 67.8486C121.294 67.4043 121.753 67.1821 122.337 67.1821C122.921 67.1821 123.38 67.4043 123.714 67.8486C124.049 68.2887 124.216 68.8875 124.216 69.645V69.6514C124.216 70.4089 124.049 71.0098 123.714 71.4541C123.38 71.8984 122.921 72.1206 122.337 72.1206ZM122.337 71.3652C122.65 71.3652 122.893 71.215 123.067 70.9146C123.245 70.6099 123.333 70.1888 123.333 69.6514V69.645C123.333 69.1076 123.245 68.6886 123.067 68.3882C122.893 68.0877 122.65 67.9375 122.337 67.9375C122.024 67.9375 121.78 68.0877 121.607 68.3882C121.433 68.6886 121.347 69.1076 121.347 69.645V69.6514C121.347 70.1888 121.433 70.6099 121.607 70.9146C121.78 71.215 122.024 71.3652 122.337 71.3652ZM8.02832 88V81.1572H9.13281V82.1982H9.23438C9.38672 81.8301 9.61947 81.5444 9.93262 81.3413C10.25 81.1382 10.633 81.0366 11.0815 81.0366C11.3905 81.0366 11.6676 81.0874 11.9131 81.189C12.1585 81.2905 12.3701 81.4323 12.5479 81.6143C12.7256 81.792 12.8674 81.9993 12.9731 82.2363H13.0747C13.1974 81.9951 13.3625 81.7856 13.5698 81.6079C13.7772 81.4259 14.0163 81.2863 14.2871 81.189C14.5622 81.0874 14.8563 81.0366 15.1694 81.0366C15.6349 81.0366 16.0285 81.1234 16.3501 81.2969C16.6759 81.4704 16.9235 81.7243 17.0928 82.0586C17.262 82.3887 17.3467 82.7928 17.3467 83.271V88H16.2422V83.5249C16.2422 83.0213 16.1237 82.6447 15.8867 82.395C15.654 82.1411 15.2964 82.0142 14.814 82.0142C14.4966 82.0142 14.2194 82.0861 13.9824 82.23C13.7454 82.3739 13.5614 82.5664 13.4302 82.8076C13.299 83.0446 13.2334 83.3091 13.2334 83.6011V88H12.1289V83.3535C12.1289 82.9473 11.9998 82.6235 11.7417 82.3823C11.4836 82.1369 11.1387 82.0142 10.707 82.0142C10.4108 82.0142 10.1421 82.0924 9.90088 82.249C9.6639 82.4056 9.47559 82.6172 9.33594 82.8838C9.20052 83.1462 9.13281 83.4382 9.13281 83.7598V88H8.02832ZM22.1519 88.1206C21.5044 88.1206 20.9437 87.9788 20.4697 87.6953C20 87.4076 19.6361 86.9992 19.3779 86.4702C19.124 85.9412 18.9971 85.3128 18.9971 84.585V84.5723C18.9971 83.8402 19.124 83.2096 19.3779 82.6807C19.6361 82.1517 20 81.7454 20.4697 81.4619C20.9437 81.1784 21.5044 81.0366 22.1519 81.0366C22.8035 81.0366 23.3643 81.1784 23.834 81.4619C24.3037 81.7454 24.6655 82.1517 24.9194 82.6807C25.1776 83.2096 25.3066 83.8402 25.3066 84.5723V84.585C25.3066 85.3128 25.1776 85.9412 24.9194 86.4702C24.6655 86.9992 24.3037 87.4076 23.834 87.6953C23.3643 87.9788 22.8035 88.1206 22.1519 88.1206ZM22.1519 87.1431C22.5835 87.1431 22.9495 87.0415 23.25 86.8384C23.5505 86.6353 23.779 86.3433 23.9355 85.9624C24.0964 85.5815 24.1768 85.1224 24.1768 84.585V84.5723C24.1768 84.0306 24.0964 83.5693 23.9355 83.1885C23.779 82.8076 23.5505 82.5177 23.25 82.3188C22.9495 82.1157 22.5835 82.0142 22.1519 82.0142C21.7202 82.0142 21.3542 82.1157 21.0537 82.3188C20.7533 82.5177 20.5226 82.8076 20.3618 83.1885C20.2052 83.5693 20.127 84.0306 20.127 84.5723V84.585C20.127 85.1224 20.2052 85.5815 20.3618 85.9624C20.5226 86.3433 20.7533 86.6353 21.0537 86.8384C21.3542 87.0415 21.7202 87.1431 22.1519 87.1431ZM27.0205 88V81.1572H28.125V82.1729H28.2266C28.3577 81.8132 28.5799 81.5339 28.8931 81.335C29.2062 81.1361 29.5934 81.0366 30.0547 81.0366C30.1605 81.0366 30.2642 81.043 30.3657 81.0557C30.4715 81.0641 30.5519 81.0726 30.6069 81.0811V82.1538C30.4927 82.1326 30.3805 82.1178 30.2705 82.1094C30.1647 82.0967 30.0505 82.0903 29.9277 82.0903C29.5765 82.0903 29.2655 82.1602 28.9946 82.2998C28.7238 82.4395 28.5101 82.6341 28.3535 82.8838C28.2012 83.1335 28.125 83.4255 28.125 83.7598V88H27.0205ZM34.5742 88.1206C33.9225 88.1206 33.3618 87.9767 32.8921 87.689C32.4266 87.4012 32.0669 86.995 31.813 86.4702C31.5633 85.9412 31.4385 85.3192 31.4385 84.604V84.5977C31.4385 83.891 31.5633 83.271 31.813 82.7378C32.0669 82.2046 32.4245 81.7878 32.8857 81.4873C33.347 81.1868 33.8866 81.0366 34.5044 81.0366C35.1265 81.0366 35.6597 81.1805 36.104 81.4683C36.5526 81.756 36.8953 82.158 37.1323 82.6743C37.3735 83.1864 37.4941 83.783 37.4941 84.4644V84.896H32.0098V84.0137H36.9292L36.3833 84.8198V84.3818C36.3833 83.8444 36.3029 83.4022 36.1421 83.0552C35.9813 82.7082 35.7591 82.45 35.4756 82.2808C35.1921 82.1073 34.8662 82.0205 34.498 82.0205C34.1299 82.0205 33.7998 82.1115 33.5078 82.2935C33.2201 82.4712 32.9915 82.7357 32.8223 83.0869C32.653 83.4382 32.5684 83.8698 32.5684 84.3818V84.8198C32.5684 85.3065 32.6509 85.7233 32.8159 86.0703C32.981 86.4131 33.2158 86.6776 33.5205 86.8638C33.8252 87.0457 34.1849 87.1367 34.5996 87.1367C34.9085 87.1367 35.1772 87.0944 35.4058 87.0098C35.6343 86.9251 35.8226 86.8172 35.9707 86.686C36.1188 86.5549 36.2225 86.4215 36.2817 86.2861L36.3071 86.229H37.4116L37.3989 86.2798C37.3397 86.5125 37.2339 86.7389 37.0815 86.959C36.9334 87.1748 36.7409 87.3716 36.5039 87.5493C36.2669 87.7228 35.9855 87.8625 35.6597 87.9683C35.3381 88.0698 34.9762 88.1206 34.5742 88.1206ZM42.8896 88V81.1572H43.9941V88H42.8896ZM43.4482 79.8369C43.2409 79.8369 43.061 79.7629 42.9087 79.6147C42.7606 79.4624 42.6865 79.2826 42.6865 79.0752C42.6865 78.8636 42.7606 78.6838 42.9087 78.5356C43.061 78.3875 43.2409 78.3135 43.4482 78.3135C43.6598 78.3135 43.8397 78.3875 43.9878 78.5356C44.1359 78.6838 44.21 78.8636 44.21 79.0752C44.21 79.2826 44.1359 79.4624 43.9878 79.6147C43.8397 79.7629 43.6598 79.8369 43.4482 79.8369ZM46.0762 88V81.1572H47.1807V82.1855H47.2822C47.4557 81.8216 47.7054 81.5402 48.0312 81.3413C48.3571 81.1382 48.7718 81.0366 49.2754 81.0366C50.0456 81.0366 50.6359 81.2567 51.0464 81.6968C51.4611 82.1326 51.6685 82.7568 51.6685 83.5693V88H50.564V83.8359C50.564 83.2181 50.4328 82.7611 50.1704 82.4648C49.9123 82.1644 49.5103 82.0142 48.9644 82.0142C48.6004 82.0142 48.2852 82.0924 48.0186 82.249C47.752 82.4056 47.5446 82.6278 47.3965 82.9155C47.2526 83.2033 47.1807 83.5482 47.1807 83.9502V88H46.0762ZM58.4414 90.2852V86.9717H58.3398C58.2171 87.2129 58.05 87.4202 57.8384 87.5938C57.6268 87.763 57.3813 87.8942 57.1021 87.9873C56.827 88.0762 56.5265 88.1206 56.2007 88.1206C55.6209 88.1206 55.1152 87.9746 54.6836 87.6826C54.252 87.3906 53.9176 86.9801 53.6807 86.4512C53.4437 85.918 53.3252 85.2959 53.3252 84.585V84.5723C53.3252 83.8571 53.4437 83.235 53.6807 82.7061C53.9176 82.1771 54.252 81.7666 54.6836 81.4746C55.1152 81.1826 55.6209 81.0366 56.2007 81.0366C56.5096 81.0366 56.7995 81.0874 57.0703 81.189C57.3454 81.2905 57.5929 81.4365 57.813 81.627C58.0373 81.8174 58.2214 82.0417 58.3652 82.2998H58.4414V81.1572H59.5459V90.2852H58.4414ZM56.4609 87.1431C56.8714 87.1431 57.2269 87.0394 57.5273 86.832C57.8278 86.6204 58.0605 86.3242 58.2256 85.9434C58.3906 85.5583 58.4731 85.1055 58.4731 84.585V84.5723C58.4731 84.0475 58.3906 83.5947 58.2256 83.2139C58.0605 82.8288 57.8278 82.5326 57.5273 82.3252C57.2269 82.1178 56.8693 82.0142 56.4546 82.0142C56.0399 82.0142 55.6823 82.1178 55.3818 82.3252C55.0814 82.5283 54.8507 82.8203 54.6899 83.2012C54.5334 83.582 54.4551 84.0391 54.4551 84.5723V84.585C54.4551 85.1139 54.5355 85.571 54.6963 85.9561C54.8571 86.3369 55.0856 86.631 55.3818 86.8384C55.6823 87.0415 56.042 87.1431 56.4609 87.1431ZM63.8813 88.1206C63.3651 88.1206 62.9313 88.0233 62.5801 87.8286C62.2288 87.6297 61.9644 87.342 61.7866 86.9653C61.6131 86.5845 61.5264 86.1253 61.5264 85.5879V81.1572H62.6309V85.3213C62.6309 85.9349 62.7493 86.3919 62.9863 86.6924C63.2275 86.9928 63.6211 87.1431 64.167 87.1431C64.569 87.1431 64.9076 87.0648 65.1826 86.9082C65.4577 86.7516 65.665 86.5295 65.8047 86.2417C65.9443 85.9497 66.0142 85.6048 66.0142 85.207V81.1572H67.1187V88H66.0142V86.978H65.9126C65.7433 87.342 65.4873 87.6234 65.1445 87.8223C64.806 88.0212 64.3849 88.1206 63.8813 88.1206ZM69.207 88V81.1572H70.3115V88H69.207ZM69.7656 79.8369C69.5583 79.8369 69.3784 79.7629 69.2261 79.6147C69.078 79.4624 69.0039 79.2826 69.0039 79.0752C69.0039 78.8636 69.078 78.6838 69.2261 78.5356C69.3784 78.3875 69.5583 78.3135 69.7656 78.3135C69.9772 78.3135 70.1571 78.3875 70.3052 78.5356C70.4533 78.6838 70.5273 78.8636 70.5273 79.0752C70.5273 79.2826 70.4533 79.4624 70.3052 79.6147C70.1571 79.7629 69.9772 79.8369 69.7656 79.8369ZM72.3936 88V81.1572H73.498V82.1729H73.5996C73.7308 81.8132 73.953 81.5339 74.2661 81.335C74.5793 81.1361 74.9665 81.0366 75.4277 81.0366C75.5335 81.0366 75.6372 81.043 75.7388 81.0557C75.8446 81.0641 75.925 81.0726 75.98 81.0811V82.1538C75.8657 82.1326 75.7536 82.1178 75.6436 82.1094C75.5378 82.0967 75.4235 82.0903 75.3008 82.0903C74.9495 82.0903 74.6385 82.1602 74.3677 82.2998C74.0968 82.4395 73.8831 82.6341 73.7266 82.8838C73.5742 83.1335 73.498 83.4255 73.498 83.7598V88H72.3936ZM77.3701 88V81.1572H78.4746V88H77.3701ZM77.9287 79.8369C77.7214 79.8369 77.5415 79.7629 77.3892 79.6147C77.241 79.4624 77.167 79.2826 77.167 79.0752C77.167 78.8636 77.241 78.6838 77.3892 78.5356C77.5415 78.3875 77.7214 78.3135 77.9287 78.3135C78.1403 78.3135 78.3201 78.3875 78.4683 78.5356C78.6164 78.6838 78.6904 78.8636 78.6904 79.0752C78.6904 79.2826 78.6164 79.4624 78.4683 79.6147C78.3201 79.7629 78.1403 79.8369 77.9287 79.8369ZM83.3496 88.1206C82.6979 88.1206 82.1372 87.9767 81.6675 87.689C81.202 87.4012 80.8423 86.995 80.5884 86.4702C80.3387 85.9412 80.2139 85.3192 80.2139 84.604V84.5977C80.2139 83.891 80.3387 83.271 80.5884 82.7378C80.8423 82.2046 81.1999 81.7878 81.6611 81.4873C82.1224 81.1868 82.6619 81.0366 83.2798 81.0366C83.9019 81.0366 84.4351 81.1805 84.8794 81.4683C85.328 81.756 85.6707 82.158 85.9077 82.6743C86.1489 83.1864 86.2695 83.783 86.2695 84.4644V84.896H80.7852V84.0137H85.7046L85.1587 84.8198V84.3818C85.1587 83.8444 85.0783 83.4022 84.9175 83.0552C84.7567 82.7082 84.5345 82.45 84.251 82.2808C83.9674 82.1073 83.6416 82.0205 83.2734 82.0205C82.9053 82.0205 82.5752 82.1115 82.2832 82.2935C81.9954 82.4712 81.7669 82.7357 81.5977 83.0869C81.4284 83.4382 81.3438 83.8698 81.3438 84.3818V84.8198C81.3438 85.3065 81.4263 85.7233 81.5913 86.0703C81.7563 86.4131 81.9912 86.6776 82.2959 86.8638C82.6006 87.0457 82.9603 87.1367 83.375 87.1367C83.6839 87.1367 83.9526 87.0944 84.1812 87.0098C84.4097 86.9251 84.598 86.8172 84.7461 86.686C84.8942 86.5549 84.9979 86.4215 85.0571 86.2861L85.0825 86.229H86.187L86.1743 86.2798C86.1151 86.5125 86.0093 86.7389 85.8569 86.959C85.7088 87.1748 85.5163 87.3716 85.2793 87.5493C85.0423 87.7228 84.7609 87.8625 84.4351 87.9683C84.1134 88.0698 83.7516 88.1206 83.3496 88.1206ZM90.332 88.1206C89.8242 88.1206 89.3757 88.0444 88.9863 87.8921C88.597 87.7355 88.2839 87.5176 88.0469 87.2383C87.8141 86.959 87.6766 86.631 87.6343 86.2544H88.7642C88.8573 86.5379 89.0392 86.7664 89.3101 86.9399C89.5809 87.1134 89.9342 87.2002 90.3701 87.2002C90.679 87.2002 90.9499 87.1558 91.1826 87.0669C91.4196 86.9738 91.6058 86.849 91.7412 86.6924C91.8766 86.5316 91.9443 86.3475 91.9443 86.1401V86.1274C91.9443 85.8947 91.8512 85.6979 91.665 85.5371C91.4788 85.3721 91.1742 85.2388 90.751 85.1372L89.6909 84.8833C89.0519 84.731 88.5822 84.5088 88.2817 84.2168C87.9813 83.9206 87.8311 83.527 87.8311 83.0361V83.0298C87.8311 82.6489 87.9411 82.3083 88.1611 82.0078C88.3854 81.7074 88.6901 81.4704 89.0752 81.2969C89.4603 81.1234 89.894 81.0366 90.3765 81.0366C90.8547 81.0366 91.2778 81.1128 91.646 81.2651C92.0184 81.4132 92.3167 81.6248 92.541 81.8999C92.7695 82.175 92.9092 82.4987 92.96 82.8711H91.8745C91.8026 82.6003 91.6375 82.3802 91.3794 82.2109C91.1213 82.0417 90.7848 81.957 90.3701 81.957C90.0993 81.957 89.8581 82.0015 89.6465 82.0903C89.4349 82.175 89.2677 82.2935 89.145 82.4458C89.0223 82.5981 88.9609 82.7759 88.9609 82.979V82.9917C88.9609 83.2244 89.0519 83.417 89.2339 83.5693C89.4159 83.7217 89.7078 83.8465 90.1099 83.9438L91.1636 84.1978C91.8068 84.3543 92.285 84.5786 92.5981 84.8706C92.9155 85.1626 93.0742 85.554 93.0742 86.0449V86.0576C93.0742 86.4639 92.9536 86.8236 92.7124 87.1367C92.4712 87.4456 92.1432 87.6868 91.7285 87.8604C91.318 88.0339 90.8525 88.1206 90.332 88.1206ZM10.8276 104.121C10.1886 104.121 9.63428 103.975 9.16455 103.683C8.69482 103.391 8.33089 102.978 8.07275 102.445C7.81462 101.912 7.68555 101.283 7.68555 100.56V100.547C7.68555 99.8359 7.8125 99.2181 8.06641 98.6934C8.32454 98.1686 8.68848 97.7624 9.1582 97.4746C9.62793 97.1826 10.1823 97.0366 10.8213 97.0366C11.3757 97.0366 11.8538 97.134 12.2559 97.3286C12.6579 97.5233 12.9795 97.7856 13.2207 98.1157C13.4619 98.4416 13.6164 98.8076 13.6841 99.2139L13.6904 99.252H12.5923L12.5859 99.2329C12.5013 98.8944 12.3088 98.6066 12.0083 98.3696C11.7078 98.1326 11.3122 98.0142 10.8213 98.0142C10.4108 98.0142 10.0553 98.1178 9.75488 98.3252C9.45443 98.5326 9.22168 98.8267 9.05664 99.2075C8.89583 99.5841 8.81543 100.031 8.81543 100.547V100.56C8.81543 101.084 8.89795 101.541 9.06299 101.931C9.22803 102.316 9.46077 102.614 9.76123 102.826C10.0617 103.037 10.415 103.143 10.8213 103.143C11.2826 103.143 11.6592 103.044 11.9512 102.845C12.2432 102.646 12.4526 102.356 12.5796 101.975L12.5923 101.937L13.6841 101.931L13.6714 102C13.5783 102.411 13.4132 102.777 13.1763 103.099C12.9393 103.416 12.6261 103.666 12.2368 103.848C11.8475 104.03 11.3778 104.121 10.8276 104.121ZM18.1147 104.121C17.4673 104.121 16.9066 103.979 16.4326 103.695C15.9629 103.408 15.599 102.999 15.3408 102.47C15.0869 101.941 14.96 101.313 14.96 100.585V100.572C14.96 99.8402 15.0869 99.2096 15.3408 98.6807C15.599 98.1517 15.9629 97.7454 16.4326 97.4619C16.9066 97.1784 17.4673 97.0366 18.1147 97.0366C18.7664 97.0366 19.3271 97.1784 19.7969 97.4619C20.2666 97.7454 20.6284 98.1517 20.8823 98.6807C21.1405 99.2096 21.2695 99.8402 21.2695 100.572V100.585C21.2695 101.313 21.1405 101.941 20.8823 102.47C20.6284 102.999 20.2666 103.408 19.7969 103.695C19.3271 103.979 18.7664 104.121 18.1147 104.121ZM18.1147 103.143C18.5464 103.143 18.9124 103.042 19.2129 102.838C19.5133 102.635 19.7419 102.343 19.8984 101.962C20.0592 101.582 20.1396 101.122 20.1396 100.585V100.572C20.1396 100.031 20.0592 99.5693 19.8984 99.1885C19.7419 98.8076 19.5133 98.5177 19.2129 98.3188C18.9124 98.1157 18.5464 98.0142 18.1147 98.0142C17.6831 98.0142 17.3171 98.1157 17.0166 98.3188C16.7161 98.5177 16.4855 98.8076 16.3247 99.1885C16.1681 99.5693 16.0898 100.031 16.0898 100.572V100.585C16.0898 101.122 16.1681 101.582 16.3247 101.962C16.4855 102.343 16.7161 102.635 17.0166 102.838C17.3171 103.042 17.6831 103.143 18.1147 103.143ZM22.9834 104V97.1572H24.0879V98.1982H24.1895C24.3418 97.8301 24.5745 97.5444 24.8877 97.3413C25.2051 97.1382 25.5881 97.0366 26.0366 97.0366C26.3455 97.0366 26.6227 97.0874 26.8682 97.189C27.1136 97.2905 27.3252 97.4323 27.5029 97.6143C27.6807 97.792 27.8224 97.9993 27.9282 98.2363H28.0298C28.1525 97.9951 28.3175 97.7856 28.5249 97.6079C28.7323 97.4259 28.9714 97.2863 29.2422 97.189C29.5173 97.0874 29.8114 97.0366 30.1245 97.0366C30.59 97.0366 30.9836 97.1234 31.3052 97.2969C31.631 97.4704 31.8786 97.7243 32.0479 98.0586C32.2171 98.3887 32.3018 98.7928 32.3018 99.271V104H31.1973V99.5249C31.1973 99.0213 31.0788 98.6447 30.8418 98.395C30.609 98.1411 30.2515 98.0142 29.769 98.0142C29.4517 98.0142 29.1745 98.0861 28.9375 98.23C28.7005 98.3739 28.5164 98.5664 28.3853 98.8076C28.2541 99.0446 28.1885 99.3091 28.1885 99.6011V104H27.084V99.3535C27.084 98.9473 26.9549 98.6235 26.6968 98.3823C26.4386 98.1369 26.0938 98.0142 25.6621 98.0142C25.3659 98.0142 25.0972 98.0924 24.856 98.249C24.619 98.4056 24.4307 98.6172 24.291 98.8838C24.1556 99.1462 24.0879 99.4382 24.0879 99.7598V104H22.9834ZM34.2949 106.285V97.1572H35.3994V98.249H35.501C35.6406 97.9951 35.8162 97.7793 36.0278 97.6016C36.2394 97.4196 36.4806 97.2799 36.7515 97.1826C37.0223 97.0853 37.3164 97.0366 37.6338 97.0366C38.2135 97.0366 38.7171 97.1847 39.1445 97.481C39.5762 97.7729 39.9105 98.1834 40.1475 98.7124C40.3844 99.2414 40.5029 99.8613 40.5029 100.572V100.585C40.5029 101.3 40.3844 101.922 40.1475 102.451C39.9105 102.98 39.5762 103.391 39.1445 103.683C38.7171 103.975 38.2135 104.121 37.6338 104.121C37.3206 104.121 37.0244 104.072 36.7451 103.975C36.4701 103.873 36.2246 103.733 36.0088 103.556C35.7972 103.378 35.6279 103.166 35.501 102.921H35.3994V106.285H34.2949ZM37.3799 103.143C37.7988 103.143 38.1564 103.042 38.4526 102.838C38.7489 102.631 38.9753 102.337 39.1318 101.956C39.2926 101.571 39.373 101.114 39.373 100.585V100.572C39.373 100.039 39.2926 99.582 39.1318 99.2012C38.9753 98.8203 38.7489 98.5283 38.4526 98.3252C38.1564 98.1178 37.7988 98.0142 37.3799 98.0142C36.9652 98.0142 36.6076 98.1178 36.3071 98.3252C36.0067 98.5326 35.776 98.8267 35.6152 99.2075C35.4544 99.5884 35.374 100.043 35.374 100.572V100.585C35.374 101.11 35.4544 101.565 35.6152 101.95C35.776 102.331 36.0067 102.625 36.3071 102.832C36.6076 103.039 36.9652 103.143 37.3799 103.143ZM44.1084 104.121C43.6768 104.121 43.2874 104.038 42.9404 103.873C42.5977 103.708 42.3247 103.473 42.1216 103.168C41.9227 102.864 41.8232 102.504 41.8232 102.089V102.077C41.8232 101.467 42.0391 100.991 42.4707 100.648C42.9066 100.301 43.5223 100.105 44.3179 100.058L46.8315 99.9058V100.788L44.4512 100.94C43.9307 100.97 43.5498 101.078 43.3086 101.264C43.0716 101.45 42.9531 101.713 42.9531 102.051V102.064C42.9531 102.411 43.0843 102.682 43.3467 102.876C43.609 103.067 43.9391 103.162 44.3369 103.162C44.7135 103.162 45.0479 103.088 45.3398 102.94C45.6318 102.788 45.8604 102.582 46.0254 102.324C46.1947 102.066 46.2793 101.774 46.2793 101.448V99.3154C46.2793 98.8923 46.1502 98.5706 45.8921 98.3506C45.6382 98.1263 45.2552 98.0142 44.7432 98.0142C44.3327 98.0142 43.9963 98.0882 43.7339 98.2363C43.4715 98.3802 43.2959 98.5854 43.207 98.8521L43.2007 98.8711H42.0962L42.1025 98.833C42.1618 98.4733 42.3099 98.1602 42.5469 97.8936C42.7881 97.6227 43.0991 97.4132 43.48 97.2651C43.8608 97.1128 44.2946 97.0366 44.7812 97.0366C45.3398 97.0366 45.8117 97.1276 46.1968 97.3096C46.5861 97.4915 46.8802 97.7539 47.0791 98.0967C47.2822 98.4352 47.3838 98.8415 47.3838 99.3154V104H46.2793V102.991H46.1777C46.0339 103.232 45.8582 103.437 45.6509 103.606C45.4478 103.776 45.2171 103.905 44.959 103.994C44.7008 104.078 44.4173 104.121 44.1084 104.121ZM49.4023 104V97.1572H50.5068V98.1729H50.6084C50.7396 97.8132 50.9618 97.5339 51.2749 97.335C51.5881 97.1361 51.9753 97.0366 52.4365 97.0366C52.5423 97.0366 52.646 97.043 52.7476 97.0557C52.8534 97.0641 52.9338 97.0726 52.9888 97.0811V98.1538C52.8745 98.1326 52.7624 98.1178 52.6523 98.1094C52.5465 98.0967 52.4323 98.0903 52.3096 98.0903C51.9583 98.0903 51.6473 98.1602 51.3765 98.2998C51.1056 98.4395 50.8919 98.6341 50.7354 98.8838C50.583 99.1335 50.5068 99.4255 50.5068 99.7598V104H49.4023ZM56.9561 104.121C56.3044 104.121 55.7437 103.977 55.2739 103.689C54.8084 103.401 54.4487 102.995 54.1948 102.47C53.9451 101.941 53.8203 101.319 53.8203 100.604V100.598C53.8203 99.891 53.9451 99.271 54.1948 98.7378C54.4487 98.2046 54.8063 97.7878 55.2676 97.4873C55.7288 97.1868 56.2684 97.0366 56.8862 97.0366C57.5083 97.0366 58.0415 97.1805 58.4858 97.4683C58.9344 97.756 59.2772 98.158 59.5142 98.6743C59.7554 99.1864 59.876 99.783 59.876 100.464V100.896H54.3916V100.014H59.311L58.7651 100.82V100.382C58.7651 99.8444 58.6847 99.4022 58.5239 99.0552C58.3631 98.7082 58.141 98.45 57.8574 98.2808C57.5739 98.1073 57.248 98.0205 56.8799 98.0205C56.5117 98.0205 56.1816 98.1115 55.8896 98.2935C55.6019 98.4712 55.3734 98.7357 55.2041 99.0869C55.0348 99.4382 54.9502 99.8698 54.9502 100.382V100.82C54.9502 101.306 55.0327 101.723 55.1978 102.07C55.3628 102.413 55.5977 102.678 55.9023 102.864C56.207 103.046 56.5667 103.137 56.9814 103.137C57.2904 103.137 57.5591 103.094 57.7876 103.01C58.0161 102.925 58.2044 102.817 58.3525 102.686C58.5007 102.555 58.6043 102.422 58.6636 102.286L58.689 102.229H59.7935L59.7808 102.28C59.7215 102.513 59.6157 102.739 59.4634 102.959C59.3153 103.175 59.1227 103.372 58.8857 103.549C58.6488 103.723 58.3674 103.862 58.0415 103.968C57.7199 104.07 57.3581 104.121 56.9561 104.121ZM64.1162 104.121C63.5407 104.121 63.0371 103.975 62.6055 103.683C62.1738 103.391 61.8395 102.98 61.6025 102.451C61.3656 101.918 61.2471 101.296 61.2471 100.585V100.572C61.2471 99.8571 61.3656 99.235 61.6025 98.7061C61.8395 98.1771 62.1717 97.7666 62.5991 97.4746C63.0308 97.1826 63.5365 97.0366 64.1162 97.0366C64.5859 97.0366 65.0112 97.1466 65.3921 97.3667C65.7772 97.5825 66.0628 97.8724 66.249 98.2363H66.3506V94.4404H67.4551V104H66.3506V102.908H66.249C66.0417 103.289 65.7539 103.587 65.3857 103.803C65.0176 104.015 64.5944 104.121 64.1162 104.121ZM64.3701 103.143C64.7848 103.143 65.1424 103.039 65.4429 102.832C65.7433 102.625 65.974 102.331 66.1348 101.95C66.2956 101.565 66.376 101.11 66.376 100.585V100.572C66.376 100.043 66.2956 99.5884 66.1348 99.2075C65.974 98.8267 65.7433 98.5326 65.4429 98.3252C65.1424 98.1178 64.7848 98.0142 64.3701 98.0142C63.9554 98.0142 63.5978 98.1178 63.2974 98.3252C63.0011 98.5283 62.7726 98.8203 62.6118 99.2012C62.4552 99.582 62.377 100.039 62.377 100.572V100.585C62.377 101.114 62.4552 101.571 62.6118 101.956C62.7726 102.337 63.0011 102.631 63.2974 102.838C63.5978 103.042 63.9554 103.143 64.3701 103.143ZM75.6626 104.051C74.9601 104.051 74.4502 103.909 74.1328 103.625C73.8197 103.342 73.6631 102.874 73.6631 102.223V98.0713H72.584V97.1572H73.6631V95.3862H74.8057V97.1572H76.3037V98.0713H74.8057V101.943C74.8057 102.345 74.8818 102.635 75.0342 102.813C75.1865 102.986 75.4404 103.073 75.7959 103.073C75.8932 103.073 75.9757 103.071 76.0435 103.067C76.1154 103.063 76.2021 103.056 76.3037 103.048V103.987C76.1979 104.004 76.0921 104.019 75.9863 104.032C75.8805 104.044 75.7726 104.051 75.6626 104.051ZM80.6772 104.121C80.0298 104.121 79.4691 103.979 78.9951 103.695C78.5254 103.408 78.1615 102.999 77.9033 102.47C77.6494 101.941 77.5225 101.313 77.5225 100.585V100.572C77.5225 99.8402 77.6494 99.2096 77.9033 98.6807C78.1615 98.1517 78.5254 97.7454 78.9951 97.4619C79.4691 97.1784 80.0298 97.0366 80.6772 97.0366C81.3289 97.0366 81.8896 97.1784 82.3594 97.4619C82.8291 97.7454 83.1909 98.1517 83.4448 98.6807C83.703 99.2096 83.832 99.8402 83.832 100.572V100.585C83.832 101.313 83.703 101.941 83.4448 102.47C83.1909 102.999 82.8291 103.408 82.3594 103.695C81.8896 103.979 81.3289 104.121 80.6772 104.121ZM80.6772 103.143C81.1089 103.143 81.4749 103.042 81.7754 102.838C82.0758 102.635 82.3044 102.343 82.4609 101.962C82.6217 101.582 82.7021 101.122 82.7021 100.585V100.572C82.7021 100.031 82.6217 99.5693 82.4609 99.1885C82.3044 98.8076 82.0758 98.5177 81.7754 98.3188C81.4749 98.1157 81.1089 98.0142 80.6772 98.0142C80.2456 98.0142 79.8796 98.1157 79.5791 98.3188C79.2786 98.5177 79.048 98.8076 78.8872 99.1885C78.7306 99.5693 78.6523 100.031 78.6523 100.572V100.585C78.6523 101.122 78.7306 101.582 78.8872 101.962C79.048 102.343 79.2786 102.635 79.5791 102.838C79.8796 103.042 80.2456 103.143 80.6772 103.143ZM92.0142 104.121C91.3667 104.121 90.806 103.979 90.332 103.695C89.8623 103.408 89.4984 102.999 89.2402 102.47C88.9863 101.941 88.8594 101.313 88.8594 100.585V100.572C88.8594 99.8402 88.9863 99.2096 89.2402 98.6807C89.4984 98.1517 89.8623 97.7454 90.332 97.4619C90.806 97.1784 91.3667 97.0366 92.0142 97.0366C92.6659 97.0366 93.2266 97.1784 93.6963 97.4619C94.166 97.7454 94.5278 98.1517 94.7817 98.6807C95.0399 99.2096 95.1689 99.8402 95.1689 100.572V100.585C95.1689 101.313 95.0399 101.941 94.7817 102.47C94.5278 102.999 94.166 103.408 93.6963 103.695C93.2266 103.979 92.6659 104.121 92.0142 104.121ZM92.0142 103.143C92.4458 103.143 92.8118 103.042 93.1123 102.838C93.4128 102.635 93.6413 102.343 93.7979 101.962C93.9587 101.582 94.0391 101.122 94.0391 100.585V100.572C94.0391 100.031 93.9587 99.5693 93.7979 99.1885C93.6413 98.8076 93.4128 98.5177 93.1123 98.3188C92.8118 98.1157 92.4458 98.0142 92.0142 98.0142C91.5825 98.0142 91.2165 98.1157 90.916 98.3188C90.6156 98.5177 90.3849 98.8076 90.2241 99.1885C90.0675 99.5693 89.9893 100.031 89.9893 100.572V100.585C89.9893 101.122 90.0675 101.582 90.2241 101.962C90.3849 102.343 90.6156 102.635 90.916 102.838C91.2165 103.042 91.5825 103.143 92.0142 103.143ZM99.314 104.051C98.6115 104.051 98.1016 103.909 97.7842 103.625C97.471 103.342 97.3145 102.874 97.3145 102.223V98.0713H96.2354V97.1572H97.3145V95.3862H98.457V97.1572H99.9551V98.0713H98.457V101.943C98.457 102.345 98.5332 102.635 98.6855 102.813C98.8379 102.986 99.0918 103.073 99.4473 103.073C99.5446 103.073 99.6271 103.071 99.6948 103.067C99.7668 103.063 99.8535 103.056 99.9551 103.048V103.987C99.8493 104.004 99.7435 104.019 99.6377 104.032C99.5319 104.044 99.424 104.051 99.314 104.051ZM101.669 104V94.4404H102.773V98.1855H102.875C103.049 97.8216 103.298 97.5402 103.624 97.3413C103.95 97.1382 104.365 97.0366 104.868 97.0366C105.38 97.0366 105.814 97.1361 106.169 97.335C106.525 97.5296 106.796 97.8153 106.982 98.1919C107.168 98.5685 107.261 99.0277 107.261 99.5693V104H106.157V99.8359C106.157 99.2181 106.026 98.7611 105.763 98.4648C105.505 98.1644 105.103 98.0142 104.557 98.0142C104.193 98.0142 103.878 98.0924 103.611 98.249C103.345 98.4056 103.137 98.6278 102.989 98.9155C102.845 99.2033 102.773 99.5482 102.773 99.9502V104H101.669ZM112.054 104.121C111.402 104.121 110.841 103.977 110.372 103.689C109.906 103.401 109.546 102.995 109.292 102.47C109.043 101.941 108.918 101.319 108.918 100.604V100.598C108.918 99.891 109.043 99.271 109.292 98.7378C109.546 98.2046 109.904 97.7878 110.365 97.4873C110.826 97.1868 111.366 97.0366 111.984 97.0366C112.606 97.0366 113.139 97.1805 113.583 97.4683C114.032 97.756 114.375 98.158 114.612 98.6743C114.853 99.1864 114.974 99.783 114.974 100.464V100.896H109.489V100.014H114.409L113.863 100.82V100.382C113.863 99.8444 113.782 99.4022 113.622 99.0552C113.461 98.7082 113.239 98.45 112.955 98.2808C112.672 98.1073 112.346 98.0205 111.978 98.0205C111.609 98.0205 111.279 98.1115 110.987 98.2935C110.7 98.4712 110.471 98.7357 110.302 99.0869C110.132 99.4382 110.048 99.8698 110.048 100.382V100.82C110.048 101.306 110.13 101.723 110.295 102.07C110.46 102.413 110.695 102.678 111 102.864C111.305 103.046 111.664 103.137 112.079 103.137C112.388 103.137 112.657 103.094 112.885 103.01C113.114 102.925 113.302 102.817 113.45 102.686C113.598 102.555 113.702 102.422 113.761 102.286L113.787 102.229H114.891L114.878 102.28C114.819 102.513 114.713 102.739 114.561 102.959C114.413 103.175 114.22 103.372 113.983 103.549C113.746 103.723 113.465 103.862 113.139 103.968C112.818 104.07 112.456 104.121 112.054 104.121ZM116.688 104V97.1572H117.792V98.1729H117.894C118.025 97.8132 118.247 97.5339 118.56 97.335C118.873 97.1361 119.26 97.0366 119.722 97.0366C119.827 97.0366 119.931 97.043 120.033 97.0557C120.139 97.0641 120.219 97.0726 120.274 97.0811V98.1538C120.16 98.1326 120.048 98.1178 119.938 98.1094C119.832 98.0967 119.717 98.0903 119.595 98.0903C119.243 98.0903 118.932 98.1602 118.662 98.2998C118.391 98.4395 118.177 98.6341 118.021 98.8838C117.868 99.1335 117.792 99.4255 117.792 99.7598V104H116.688ZM10.377 120.121C9.86914 120.121 9.42057 120.044 9.03125 119.892C8.64193 119.736 8.32878 119.518 8.0918 119.238C7.85905 118.959 7.72152 118.631 7.6792 118.254H8.80908C8.90218 118.538 9.08415 118.766 9.35498 118.94C9.62581 119.113 9.97917 119.2 10.415 119.2C10.724 119.2 10.9948 119.156 11.2275 119.067C11.4645 118.974 11.6507 118.849 11.7861 118.692C11.9215 118.532 11.9893 118.347 11.9893 118.14V118.127C11.9893 117.895 11.8962 117.698 11.71 117.537C11.5238 117.372 11.2191 117.239 10.7959 117.137L9.73584 116.883C9.09684 116.731 8.62712 116.509 8.32666 116.217C8.0262 115.921 7.87598 115.527 7.87598 115.036V115.03C7.87598 114.649 7.986 114.308 8.20605 114.008C8.43034 113.707 8.73503 113.47 9.12012 113.297C9.50521 113.123 9.93896 113.037 10.4214 113.037C10.8996 113.037 11.3228 113.113 11.6909 113.265C12.0633 113.413 12.3617 113.625 12.5859 113.9C12.8145 114.175 12.9541 114.499 13.0049 114.871H11.9194C11.8475 114.6 11.6825 114.38 11.4243 114.211C11.1662 114.042 10.8298 113.957 10.415 113.957C10.1442 113.957 9.90299 114.001 9.69141 114.09C9.47982 114.175 9.31266 114.293 9.18994 114.446C9.06722 114.598 9.00586 114.776 9.00586 114.979V114.992C9.00586 115.224 9.09684 115.417 9.27881 115.569C9.46077 115.722 9.75277 115.847 10.1548 115.944L11.2085 116.198C11.8517 116.354 12.3299 116.579 12.6431 116.871C12.9604 117.163 13.1191 117.554 13.1191 118.045V118.058C13.1191 118.464 12.9985 118.824 12.7573 119.137C12.5161 119.446 12.1882 119.687 11.7734 119.86C11.363 120.034 10.8975 120.121 10.377 120.121ZM17.626 120.121C16.9743 120.121 16.4136 119.977 15.9438 119.689C15.4784 119.401 15.1187 118.995 14.8647 118.47C14.6151 117.941 14.4902 117.319 14.4902 116.604V116.598C14.4902 115.891 14.6151 115.271 14.8647 114.738C15.1187 114.205 15.4762 113.788 15.9375 113.487C16.3988 113.187 16.9383 113.037 17.5562 113.037C18.1782 113.037 18.7114 113.181 19.1558 113.468C19.6043 113.756 19.9471 114.158 20.1841 114.674C20.4253 115.186 20.5459 115.783 20.5459 116.464V116.896H15.0615V116.014H19.981L19.4351 116.82V116.382C19.4351 115.844 19.3547 115.402 19.1938 115.055C19.033 114.708 18.8109 114.45 18.5273 114.281C18.2438 114.107 17.918 114.021 17.5498 114.021C17.1816 114.021 16.8516 114.111 16.5596 114.293C16.2718 114.471 16.0433 114.736 15.874 115.087C15.7048 115.438 15.6201 115.87 15.6201 116.382V116.82C15.6201 117.306 15.7026 117.723 15.8677 118.07C16.0327 118.413 16.2676 118.678 16.5723 118.864C16.877 119.046 17.2367 119.137 17.6514 119.137C17.9603 119.137 18.229 119.094 18.4575 119.01C18.686 118.925 18.8743 118.817 19.0225 118.686C19.1706 118.555 19.2743 118.422 19.3335 118.286L19.3589 118.229H20.4634L20.4507 118.28C20.3914 118.513 20.2856 118.739 20.1333 118.959C19.9852 119.175 19.7926 119.372 19.5557 119.549C19.3187 119.723 19.0373 119.862 18.7114 119.968C18.3898 120.07 18.028 120.121 17.626 120.121ZM24.1387 120.121C23.707 120.121 23.3177 120.038 22.9707 119.873C22.6279 119.708 22.355 119.473 22.1519 119.168C21.953 118.864 21.8535 118.504 21.8535 118.089V118.077C21.8535 117.467 22.0693 116.991 22.501 116.648C22.9368 116.301 23.5526 116.105 24.3481 116.058L26.8618 115.906V116.788L24.4814 116.94C23.9609 116.97 23.5801 117.078 23.3389 117.264C23.1019 117.45 22.9834 117.713 22.9834 118.051V118.064C22.9834 118.411 23.1146 118.682 23.377 118.876C23.6393 119.067 23.9694 119.162 24.3672 119.162C24.7438 119.162 25.0781 119.088 25.3701 118.94C25.6621 118.788 25.8906 118.582 26.0557 118.324C26.2249 118.066 26.3096 117.774 26.3096 117.448V115.315C26.3096 114.892 26.1805 114.571 25.9224 114.351C25.6685 114.126 25.2855 114.014 24.7734 114.014C24.363 114.014 24.0265 114.088 23.7642 114.236C23.5018 114.38 23.3262 114.585 23.2373 114.852L23.231 114.871H22.1265L22.1328 114.833C22.1921 114.473 22.3402 114.16 22.5771 113.894C22.8184 113.623 23.1294 113.413 23.5103 113.265C23.8911 113.113 24.3249 113.037 24.8115 113.037C25.3701 113.037 25.842 113.128 26.2271 113.31C26.6164 113.492 26.9105 113.754 27.1094 114.097C27.3125 114.435 27.4141 114.841 27.4141 115.315V120H26.3096V118.991H26.208C26.0641 119.232 25.8885 119.437 25.6812 119.606C25.478 119.776 25.2474 119.905 24.9893 119.994C24.7311 120.078 24.4476 120.121 24.1387 120.121ZM29.4326 120V113.157H30.5371V114.173H30.6387C30.7699 113.813 30.992 113.534 31.3052 113.335C31.6183 113.136 32.0055 113.037 32.4668 113.037C32.5726 113.037 32.6763 113.043 32.7778 113.056C32.8836 113.064 32.964 113.073 33.019 113.081V114.154C32.9048 114.133 32.7926 114.118 32.6826 114.109C32.5768 114.097 32.4626 114.09 32.3398 114.09C31.9886 114.09 31.6776 114.16 31.4067 114.3C31.1359 114.439 30.9222 114.634 30.7656 114.884C30.6133 115.133 30.5371 115.425 30.5371 115.76V120H29.4326ZM36.9927 120.121C36.3537 120.121 35.7993 119.975 35.3296 119.683C34.8599 119.391 34.4959 118.978 34.2378 118.445C33.9797 117.912 33.8506 117.283 33.8506 116.56V116.547C33.8506 115.836 33.9775 115.218 34.2314 114.693C34.4896 114.169 34.8535 113.762 35.3232 113.475C35.793 113.183 36.3473 113.037 36.9863 113.037C37.5407 113.037 38.0189 113.134 38.4209 113.329C38.8229 113.523 39.1445 113.786 39.3857 114.116C39.627 114.442 39.7814 114.808 39.8491 115.214L39.8555 115.252H38.7573L38.751 115.233C38.6663 114.894 38.4738 114.607 38.1733 114.37C37.8729 114.133 37.4772 114.014 36.9863 114.014C36.5758 114.014 36.2204 114.118 35.9199 114.325C35.6195 114.533 35.3867 114.827 35.2217 115.208C35.0609 115.584 34.9805 116.031 34.9805 116.547V116.56C34.9805 117.084 35.063 117.541 35.228 117.931C35.3931 118.316 35.6258 118.614 35.9263 118.826C36.2267 119.037 36.5801 119.143 36.9863 119.143C37.4476 119.143 37.8242 119.044 38.1162 118.845C38.4082 118.646 38.6177 118.356 38.7446 117.975L38.7573 117.937L39.8491 117.931L39.8364 118C39.7433 118.411 39.5783 118.777 39.3413 119.099C39.1043 119.416 38.7912 119.666 38.4019 119.848C38.0125 120.03 37.5428 120.121 36.9927 120.121ZM41.5312 120V110.44H42.6357V114.186H42.7373C42.9108 113.822 43.1605 113.54 43.4863 113.341C43.8122 113.138 44.2269 113.037 44.7305 113.037C45.2425 113.037 45.6763 113.136 46.0317 113.335C46.3872 113.53 46.658 113.815 46.8442 114.192C47.0304 114.569 47.1235 115.028 47.1235 115.569V120H46.019V115.836C46.019 115.218 45.8879 114.761 45.6255 114.465C45.3674 114.164 44.9653 114.014 44.4194 114.014C44.0555 114.014 43.7402 114.092 43.4736 114.249C43.207 114.406 42.9997 114.628 42.8516 114.916C42.7077 115.203 42.6357 115.548 42.6357 115.95V120H41.5312ZM52.7793 120V113.157H53.8838V114.198H53.9854C54.1377 113.83 54.3704 113.544 54.6836 113.341C55.001 113.138 55.384 113.037 55.8325 113.037C56.1414 113.037 56.4186 113.087 56.6641 113.189C56.9095 113.291 57.1211 113.432 57.2988 113.614C57.4766 113.792 57.6183 113.999 57.7241 114.236H57.8257C57.9484 113.995 58.1134 113.786 58.3208 113.608C58.5282 113.426 58.7673 113.286 59.0381 113.189C59.3132 113.087 59.6073 113.037 59.9204 113.037C60.3859 113.037 60.7795 113.123 61.1011 113.297C61.4269 113.47 61.6745 113.724 61.8438 114.059C62.013 114.389 62.0977 114.793 62.0977 115.271V120H60.9932V115.525C60.9932 115.021 60.8747 114.645 60.6377 114.395C60.4049 114.141 60.0474 114.014 59.5649 114.014C59.2476 114.014 58.9704 114.086 58.7334 114.23C58.4964 114.374 58.3123 114.566 58.1812 114.808C58.05 115.045 57.9844 115.309 57.9844 115.601V120H56.8799V115.354C56.8799 114.947 56.7508 114.624 56.4927 114.382C56.2345 114.137 55.8896 114.014 55.458 114.014C55.1618 114.014 54.8931 114.092 54.6519 114.249C54.4149 114.406 54.2266 114.617 54.0869 114.884C53.9515 115.146 53.8838 115.438 53.8838 115.76V120H52.7793ZM66.8838 120.121C66.2321 120.121 65.6714 119.977 65.2017 119.689C64.7362 119.401 64.3765 118.995 64.1226 118.47C63.8729 117.941 63.748 117.319 63.748 116.604V116.598C63.748 115.891 63.8729 115.271 64.1226 114.738C64.3765 114.205 64.734 113.788 65.1953 113.487C65.6566 113.187 66.1961 113.037 66.814 113.037C67.436 113.037 67.9692 113.181 68.4136 113.468C68.8621 113.756 69.2049 114.158 69.4419 114.674C69.6831 115.186 69.8037 115.783 69.8037 116.464V116.896H64.3193V116.014H69.2388L68.6929 116.82V116.382C68.6929 115.844 68.6125 115.402 68.4517 115.055C68.2909 114.708 68.0687 114.45 67.7852 114.281C67.5016 114.107 67.1758 114.021 66.8076 114.021C66.4395 114.021 66.1094 114.111 65.8174 114.293C65.5296 114.471 65.3011 114.736 65.1318 115.087C64.9626 115.438 64.8779 115.87 64.8779 116.382V116.82C64.8779 117.306 64.9604 117.723 65.1255 118.07C65.2905 118.413 65.5254 118.678 65.8301 118.864C66.1348 119.046 66.4945 119.137 66.9092 119.137C67.2181 119.137 67.4868 119.094 67.7153 119.01C67.9438 118.925 68.1322 118.817 68.2803 118.686C68.4284 118.555 68.5321 118.422 68.5913 118.286L68.6167 118.229H69.7212L69.7085 118.28C69.6493 118.513 69.5435 118.739 69.3911 118.959C69.243 119.175 69.0505 119.372 68.8135 119.549C68.5765 119.723 68.2951 119.862 67.9692 119.968C67.6476 120.07 67.2858 120.121 66.8838 120.121ZM73.9487 120.051C73.2463 120.051 72.7363 119.909 72.4189 119.625C72.1058 119.342 71.9492 118.874 71.9492 118.223V114.071H70.8701V113.157H71.9492V111.386H73.0918V113.157H74.5898V114.071H73.0918V117.943C73.0918 118.345 73.168 118.635 73.3203 118.813C73.4727 118.986 73.7266 119.073 74.082 119.073C74.1794 119.073 74.2619 119.071 74.3296 119.067C74.4015 119.063 74.4883 119.056 74.5898 119.048V119.987C74.484 120.004 74.3783 120.019 74.2725 120.032C74.1667 120.044 74.0588 120.051 73.9487 120.051ZM76.3037 120V110.44H77.4082V114.186H77.5098C77.6833 113.822 77.9329 113.54 78.2588 113.341C78.5846 113.138 78.9993 113.037 79.5029 113.037C80.015 113.037 80.4487 113.136 80.8042 113.335C81.1597 113.53 81.4305 113.815 81.6167 114.192C81.8029 114.569 81.896 115.028 81.896 115.569V120H80.7915V115.836C80.7915 115.218 80.6603 114.761 80.3979 114.465C80.1398 114.164 79.7378 114.014 79.1919 114.014C78.828 114.014 78.5127 114.092 78.2461 114.249C77.9795 114.406 77.7721 114.628 77.624 114.916C77.4801 115.203 77.4082 115.548 77.4082 115.95V120H76.3037ZM86.7075 120.121C86.0601 120.121 85.4993 119.979 85.0254 119.695C84.5557 119.408 84.1917 118.999 83.9336 118.47C83.6797 117.941 83.5527 117.313 83.5527 116.585V116.572C83.5527 115.84 83.6797 115.21 83.9336 114.681C84.1917 114.152 84.5557 113.745 85.0254 113.462C85.4993 113.178 86.0601 113.037 86.7075 113.037C87.3592 113.037 87.9199 113.178 88.3896 113.462C88.8594 113.745 89.2212 114.152 89.4751 114.681C89.7332 115.21 89.8623 115.84 89.8623 116.572V116.585C89.8623 117.313 89.7332 117.941 89.4751 118.47C89.2212 118.999 88.8594 119.408 88.3896 119.695C87.9199 119.979 87.3592 120.121 86.7075 120.121ZM86.7075 119.143C87.1392 119.143 87.5052 119.042 87.8057 118.838C88.1061 118.635 88.3346 118.343 88.4912 117.962C88.652 117.582 88.7324 117.122 88.7324 116.585V116.572C88.7324 116.031 88.652 115.569 88.4912 115.188C88.3346 114.808 88.1061 114.518 87.8057 114.319C87.5052 114.116 87.1392 114.014 86.7075 114.014C86.2759 114.014 85.9098 114.116 85.6094 114.319C85.3089 114.518 85.0783 114.808 84.9175 115.188C84.7609 115.569 84.6826 116.031 84.6826 116.572V116.585C84.6826 117.122 84.7609 117.582 84.9175 117.962C85.0783 118.343 85.3089 118.635 85.6094 118.838C85.9098 119.042 86.2759 119.143 86.7075 119.143ZM94.1025 120.121C93.527 120.121 93.0234 119.975 92.5918 119.683C92.1602 119.391 91.8258 118.98 91.5889 118.451C91.3519 117.918 91.2334 117.296 91.2334 116.585V116.572C91.2334 115.857 91.3519 115.235 91.5889 114.706C91.8258 114.177 92.158 113.767 92.5854 113.475C93.0171 113.183 93.5228 113.037 94.1025 113.037C94.5723 113.037 94.9976 113.147 95.3784 113.367C95.7635 113.583 96.0492 113.872 96.2354 114.236H96.3369V110.44H97.4414V120H96.3369V118.908H96.2354C96.028 119.289 95.7402 119.587 95.3721 119.803C95.0039 120.015 94.5807 120.121 94.1025 120.121ZM94.3564 119.143C94.7712 119.143 95.1287 119.039 95.4292 118.832C95.7297 118.625 95.9603 118.331 96.1211 117.95C96.2819 117.565 96.3623 117.11 96.3623 116.585V116.572C96.3623 116.043 96.2819 115.588 96.1211 115.208C95.9603 114.827 95.7297 114.533 95.4292 114.325C95.1287 114.118 94.7712 114.014 94.3564 114.014C93.9417 114.014 93.5841 114.118 93.2837 114.325C92.9875 114.528 92.759 114.82 92.5981 115.201C92.4416 115.582 92.3633 116.039 92.3633 116.572V116.585C92.3633 117.114 92.4416 117.571 92.5981 117.956C92.759 118.337 92.9875 118.631 93.2837 118.838C93.5841 119.042 93.9417 119.143 94.3564 119.143ZM101.91 120.121C101.402 120.121 100.954 120.044 100.564 119.892C100.175 119.736 99.862 119.518 99.625 119.238C99.3923 118.959 99.2547 118.631 99.2124 118.254H100.342C100.435 118.538 100.617 118.766 100.888 118.94C101.159 119.113 101.512 119.2 101.948 119.2C102.257 119.2 102.528 119.156 102.761 119.067C102.998 118.974 103.184 118.849 103.319 118.692C103.455 118.532 103.522 118.347 103.522 118.14V118.127C103.522 117.895 103.429 117.698 103.243 117.537C103.057 117.372 102.752 117.239 102.329 117.137L101.269 116.883C100.63 116.731 100.16 116.509 99.8599 116.217C99.5594 115.921 99.4092 115.527 99.4092 115.036V115.03C99.4092 114.649 99.5192 114.308 99.7393 114.008C99.9635 113.707 100.268 113.47 100.653 113.297C101.038 113.123 101.472 113.037 101.955 113.037C102.433 113.037 102.856 113.113 103.224 113.265C103.597 113.413 103.895 113.625 104.119 113.9C104.348 114.175 104.487 114.499 104.538 114.871H103.453C103.381 114.6 103.216 114.38 102.958 114.211C102.699 114.042 102.363 113.957 101.948 113.957C101.677 113.957 101.436 114.001 101.225 114.09C101.013 114.175 100.846 114.293 100.723 114.446C100.6 114.598 100.539 114.776 100.539 114.979V114.992C100.539 115.224 100.63 115.417 100.812 115.569C100.994 115.722 101.286 115.847 101.688 115.944L102.742 116.198C103.385 116.354 103.863 116.579 104.176 116.871C104.494 117.163 104.652 117.554 104.652 118.045V118.058C104.652 118.464 104.532 118.824 104.291 119.137C104.049 119.446 103.721 119.687 103.307 119.86C102.896 120.034 102.431 120.121 101.91 120.121Z" fill="black"/>
</svg>
