<svg width="161" height="116" viewBox="0 0 161 116" fill="none" xmlns="http://www.w3.org/2000/svg">
<g clip-path="url(#clip0_965_12)">
<rect width="161" height="116" rx="8" fill="#F2F2F2" fill-opacity="0.8"/>
<path d="M10.0659 31L7.57129 21.8403H8.76465L10.5864 29.2861H10.6626L12.7129 21.8403H13.8682L15.9185 29.2861H15.9946L17.8164 21.8403H19.0098L16.5151 31H15.436L13.3286 23.77H13.2524L11.145 31H10.0659ZM20.6729 31V21.4404H21.7773V25.1855H21.8789C22.0524 24.8216 22.3021 24.5402 22.6279 24.3413C22.9538 24.1382 23.3685 24.0366 23.8721 24.0366C24.3841 24.0366 24.8179 24.1361 25.1733 24.335C25.5288 24.5296 25.7996 24.8153 25.9858 25.1919C26.172 25.5685 26.2651 26.0277 26.2651 26.5693V31H25.1606V26.8359C25.1606 26.2181 25.0295 25.7611 24.7671 25.4648C24.509 25.1644 24.1069 25.0142 23.561 25.0142C23.1971 25.0142 22.8818 25.0924 22.6152 25.249C22.3486 25.4056 22.1413 25.6278 21.9932 25.9155C21.8493 26.2033 21.7773 26.5482 21.7773 26.9502V31H20.6729ZM31.0576 31.1206C30.4059 31.1206 29.8452 30.9767 29.3755 30.689C28.91 30.4012 28.5503 29.995 28.2964 29.4702C28.0467 28.9412 27.9219 28.3192 27.9219 27.604V27.5977C27.9219 26.891 28.0467 26.271 28.2964 25.7378C28.5503 25.2046 28.9079 24.7878 29.3691 24.4873C29.8304 24.1868 30.37 24.0366 30.9878 24.0366C31.6099 24.0366 32.1431 24.1805 32.5874 24.4683C33.036 24.756 33.3787 25.158 33.6157 25.6743C33.8569 26.1864 33.9775 26.783 33.9775 27.4644V27.896H28.4932V27.0137H33.4126L32.8667 27.8198V27.3818C32.8667 26.8444 32.7863 26.4022 32.6255 26.0552C32.4647 25.7082 32.2425 25.45 31.959 25.2808C31.6755 25.1073 31.3496 25.0205 30.9814 25.0205C30.6133 25.0205 30.2832 25.1115 29.9912 25.2935C29.7035 25.4712 29.4749 25.7357 29.3057 26.0869C29.1364 26.4382 29.0518 26.8698 29.0518 27.3818V27.8198C29.0518 28.3065 29.1343 28.7233 29.2993 29.0703C29.4644 29.4131 29.6992 29.6776 30.0039 29.8638C30.3086 30.0457 30.6683 30.1367 31.083 30.1367C31.3919 30.1367 31.6606 30.0944 31.8892 30.0098C32.1177 29.9251 32.306 29.8172 32.4541 29.686C32.6022 29.5549 32.7059 29.4215 32.7651 29.2861L32.7905 29.229H33.895L33.8823 29.2798C33.8231 29.5125 33.7173 29.7389 33.5649 29.959C33.4168 30.1748 33.2243 30.3716 32.9873 30.5493C32.7503 30.7228 32.4689 30.8625 32.1431 30.9683C31.8215 31.0698 31.4596 31.1206 31.0576 31.1206ZM35.6914 31V24.1572H36.7959V25.1855H36.8975C37.071 24.8216 37.3206 24.5402 37.6465 24.3413C37.9723 24.1382 38.387 24.0366 38.8906 24.0366C39.6608 24.0366 40.2511 24.2567 40.6616 24.6968C41.0763 25.1326 41.2837 25.7568 41.2837 26.5693V31H40.1792V26.8359C40.1792 26.2181 40.048 25.7611 39.7856 25.4648C39.5275 25.1644 39.1255 25.0142 38.5796 25.0142C38.2157 25.0142 37.9004 25.0924 37.6338 25.249C37.3672 25.4056 37.1598 25.6278 37.0117 25.9155C36.8678 26.2033 36.7959 26.5482 36.7959 26.9502V31H35.6914ZM49.231 31.1206C48.7147 31.1206 48.2809 31.0233 47.9297 30.8286C47.5785 30.6297 47.314 30.342 47.1362 29.9653C46.9627 29.5845 46.876 29.1253 46.876 28.5879V24.1572H47.9805V28.3213C47.9805 28.9349 48.099 29.3919 48.3359 29.6924C48.5771 29.9928 48.9707 30.1431 49.5166 30.1431C49.9186 30.1431 50.2572 30.0648 50.5322 29.9082C50.8073 29.7516 51.0146 29.5295 51.1543 29.2417C51.2939 28.9497 51.3638 28.6048 51.3638 28.207V24.1572H52.4683V31H51.3638V29.978H51.2622C51.0929 30.342 50.8369 30.6234 50.4941 30.8223C50.1556 31.0212 49.7345 31.1206 49.231 31.1206ZM56.8799 31.1206C56.3721 31.1206 55.9235 31.0444 55.5342 30.8921C55.1449 30.7355 54.8317 30.5176 54.5947 30.2383C54.362 29.959 54.2244 29.631 54.1821 29.2544H55.312C55.4051 29.5379 55.5871 29.7664 55.8579 29.9399C56.1287 30.1134 56.4821 30.2002 56.918 30.2002C57.2269 30.2002 57.4977 30.1558 57.7305 30.0669C57.9674 29.9738 58.1536 29.849 58.2891 29.6924C58.4245 29.5316 58.4922 29.3475 58.4922 29.1401V29.1274C58.4922 28.8947 58.3991 28.6979 58.2129 28.5371C58.0267 28.3721 57.722 28.2388 57.2988 28.1372L56.2388 27.8833C55.5998 27.731 55.13 27.5088 54.8296 27.2168C54.5291 26.9206 54.3789 26.527 54.3789 26.0361V26.0298C54.3789 25.6489 54.4889 25.3083 54.709 25.0078C54.9333 24.7074 55.238 24.4704 55.623 24.2969C56.0081 24.1234 56.4419 24.0366 56.9243 24.0366C57.4025 24.0366 57.8257 24.1128 58.1938 24.2651C58.5662 24.4132 58.8646 24.6248 59.0889 24.8999C59.3174 25.175 59.457 25.4987 59.5078 25.8711H58.4224C58.3504 25.6003 58.1854 25.3802 57.9272 25.2109C57.6691 25.0417 57.3327 24.957 56.918 24.957C56.6471 24.957 56.4059 25.0015 56.1943 25.0903C55.9827 25.175 55.8156 25.2935 55.6929 25.4458C55.5701 25.5981 55.5088 25.7759 55.5088 25.979V25.9917C55.5088 26.2244 55.5998 26.417 55.7817 26.5693C55.9637 26.7217 56.2557 26.8465 56.6577 26.9438L57.7114 27.1978C58.3547 27.3543 58.8328 27.5786 59.146 27.8706C59.4634 28.1626 59.6221 28.554 59.6221 29.0449V29.0576C59.6221 29.4639 59.5015 29.8236 59.2603 30.1367C59.019 30.4456 58.6911 30.6868 58.2764 30.8604C57.8659 31.0339 57.4004 31.1206 56.8799 31.1206ZM61.3613 31V24.1572H62.4658V31H61.3613ZM61.9199 22.8369C61.7126 22.8369 61.5327 22.7629 61.3804 22.6147C61.2323 22.4624 61.1582 22.2826 61.1582 22.0752C61.1582 21.8636 61.2323 21.6838 61.3804 21.5356C61.5327 21.3875 61.7126 21.3135 61.9199 21.3135C62.1315 21.3135 62.3114 21.3875 62.4595 21.5356C62.6076 21.6838 62.6816 21.8636 62.6816 22.0752C62.6816 22.2826 62.6076 22.4624 62.4595 22.6147C62.3114 22.7629 62.1315 22.8369 61.9199 22.8369ZM64.5479 31V24.1572H65.6523V25.1855H65.7539C65.9274 24.8216 66.1771 24.5402 66.5029 24.3413C66.8288 24.1382 67.2435 24.0366 67.7471 24.0366C68.5173 24.0366 69.1076 24.2567 69.5181 24.6968C69.9328 25.1326 70.1401 25.7568 70.1401 26.5693V31H69.0356V26.8359C69.0356 26.2181 68.9045 25.7611 68.6421 25.4648C68.384 25.1644 67.9819 25.0142 67.436 25.0142C67.0721 25.0142 66.7568 25.0924 66.4902 25.249C66.2236 25.4056 66.0163 25.6278 65.8682 25.9155C65.7243 26.2033 65.6523 26.5482 65.6523 26.9502V31H64.5479ZM74.958 33.4121C74.4079 33.4121 73.9276 33.3338 73.5171 33.1772C73.1066 33.0249 72.7786 32.807 72.5332 32.5234C72.292 32.2441 72.1418 31.9183 72.0825 31.5459L72.0952 31.5396H73.2378L73.2441 31.5459C73.3034 31.804 73.4811 32.0156 73.7773 32.1807C74.0736 32.3499 74.4671 32.4346 74.958 32.4346C75.5716 32.4346 76.0498 32.2949 76.3926 32.0156C76.7396 31.7406 76.9131 31.3512 76.9131 30.8477V29.4639H76.8115C76.6676 29.7135 76.4878 29.9272 76.272 30.105C76.0562 30.2827 75.8128 30.4181 75.542 30.5112C75.2712 30.6001 74.9792 30.6445 74.666 30.6445C74.0778 30.6445 73.5679 30.5049 73.1362 30.2256C72.7088 29.9421 72.3787 29.5527 72.146 29.0576C71.9132 28.5625 71.7969 27.9954 71.7969 27.3564V27.3438C71.7969 26.7048 71.9132 26.1377 72.146 25.6426C72.383 25.1432 72.7173 24.7518 73.1489 24.4683C73.5806 24.1805 74.0947 24.0366 74.6914 24.0366C75.013 24.0366 75.3092 24.0874 75.5801 24.189C75.8509 24.2905 76.09 24.4344 76.2974 24.6206C76.509 24.8068 76.6846 25.029 76.8242 25.2871H76.9004V24.1572H78.0049V30.9048C78.0049 31.4126 77.88 31.8548 77.6304 32.2314C77.3849 32.6081 77.0337 32.8979 76.5767 33.1011C76.1196 33.3084 75.5801 33.4121 74.958 33.4121ZM74.9072 29.667C75.3304 29.667 75.6922 29.5697 75.9927 29.375C76.2974 29.1761 76.5301 28.9032 76.6909 28.5562C76.856 28.2091 76.9385 27.8092 76.9385 27.3564V27.3438C76.9385 26.891 76.856 26.4889 76.6909 26.1377C76.5301 25.7865 76.2974 25.5114 75.9927 25.3125C75.6922 25.1136 75.3304 25.0142 74.9072 25.0142C74.484 25.0142 74.1243 25.1136 73.8281 25.3125C73.5361 25.5114 73.3118 25.7865 73.1553 26.1377C73.0029 26.4889 72.9268 26.891 72.9268 27.3438V27.3564C72.9268 27.8092 73.0029 28.2091 73.1553 28.5562C73.3118 28.9032 73.5361 29.1761 73.8281 29.375C74.1243 29.5697 74.484 29.667 74.9072 29.667ZM86.1489 31.0508C85.4465 31.0508 84.9365 30.909 84.6191 30.6255C84.306 30.342 84.1494 29.8743 84.1494 29.2227V25.0713H83.0703V24.1572H84.1494V22.3862H85.292V24.1572H86.79V25.0713H85.292V28.9434C85.292 29.3454 85.3682 29.6353 85.5205 29.813C85.6729 29.9865 85.9268 30.0732 86.2822 30.0732C86.3796 30.0732 86.4621 30.0711 86.5298 30.0669C86.6017 30.0627 86.6885 30.0563 86.79 30.0479V30.9873C86.6842 31.0042 86.5785 31.019 86.4727 31.0317C86.3669 31.0444 86.259 31.0508 86.1489 31.0508ZM88.5039 31V21.4404H89.6084V25.1855H89.71C89.8835 24.8216 90.1331 24.5402 90.459 24.3413C90.7848 24.1382 91.1995 24.0366 91.7031 24.0366C92.2152 24.0366 92.6489 24.1361 93.0044 24.335C93.3599 24.5296 93.6307 24.8153 93.8169 25.1919C94.0031 25.5685 94.0962 26.0277 94.0962 26.5693V31H92.9917V26.8359C92.9917 26.2181 92.8605 25.7611 92.5981 25.4648C92.34 25.1644 91.938 25.0142 91.3921 25.0142C91.0282 25.0142 90.7129 25.0924 90.4463 25.249C90.1797 25.4056 89.9723 25.6278 89.8242 25.9155C89.6803 26.2033 89.6084 26.5482 89.6084 26.9502V31H88.5039ZM98.8887 31.1206C98.237 31.1206 97.6763 30.9767 97.2065 30.689C96.741 30.4012 96.3813 29.995 96.1274 29.4702C95.8778 28.9412 95.7529 28.3192 95.7529 27.604V27.5977C95.7529 26.891 95.8778 26.271 96.1274 25.7378C96.3813 25.2046 96.7389 24.7878 97.2002 24.4873C97.6615 24.1868 98.201 24.0366 98.8188 24.0366C99.4409 24.0366 99.9741 24.1805 100.418 24.4683C100.867 24.756 101.21 25.158 101.447 25.6743C101.688 26.1864 101.809 26.783 101.809 27.4644V27.896H96.3242V27.0137H101.244L100.698 27.8198V27.3818C100.698 26.8444 100.617 26.4022 100.457 26.0552C100.296 25.7082 100.074 25.45 99.79 25.2808C99.5065 25.1073 99.1807 25.0205 98.8125 25.0205C98.4443 25.0205 98.1143 25.1115 97.8223 25.2935C97.5345 25.4712 97.306 25.7357 97.1367 26.0869C96.9674 26.4382 96.8828 26.8698 96.8828 27.3818V27.8198C96.8828 28.3065 96.9653 28.7233 97.1304 29.0703C97.2954 29.4131 97.5303 29.6776 97.835 29.8638C98.1396 30.0457 98.4993 30.1367 98.9141 30.1367C99.223 30.1367 99.4917 30.0944 99.7202 30.0098C99.9487 29.9251 100.137 29.8172 100.285 29.686C100.433 29.5549 100.537 29.4215 100.596 29.2861L100.622 29.229H101.726L101.713 29.2798C101.654 29.5125 101.548 29.7389 101.396 29.959C101.248 30.1748 101.055 30.3716 100.818 30.5493C100.581 30.7228 100.3 30.8625 99.9741 30.9683C99.6525 31.0698 99.2907 31.1206 98.8887 31.1206ZM8.16797 47V37.8403H9.27881L14.5283 45.3687L13.7666 44.9688H14.3506V37.8403H15.4805V47H14.3696L9.12012 39.4971L9.88184 39.897H9.29785V47H8.16797ZM20.4888 47.1206C19.8413 47.1206 19.2806 46.9788 18.8066 46.6953C18.3369 46.4076 17.973 45.9992 17.7148 45.4702C17.4609 44.9412 17.334 44.3128 17.334 43.585V43.5723C17.334 42.8402 17.4609 42.2096 17.7148 41.6807C17.973 41.1517 18.3369 40.7454 18.8066 40.4619C19.2806 40.1784 19.8413 40.0366 20.4888 40.0366C21.1405 40.0366 21.7012 40.1784 22.1709 40.4619C22.6406 40.7454 23.0024 41.1517 23.2563 41.6807C23.5145 42.2096 23.6436 42.8402 23.6436 43.5723V43.585C23.6436 44.3128 23.5145 44.9412 23.2563 45.4702C23.0024 45.9992 22.6406 46.4076 22.1709 46.6953C21.7012 46.9788 21.1405 47.1206 20.4888 47.1206ZM20.4888 46.1431C20.9204 46.1431 21.2865 46.0415 21.5869 45.8384C21.8874 45.6353 22.1159 45.3433 22.2725 44.9624C22.4333 44.5815 22.5137 44.1224 22.5137 43.585V43.5723C22.5137 43.0306 22.4333 42.5693 22.2725 42.1885C22.1159 41.8076 21.8874 41.5177 21.5869 41.3188C21.2865 41.1157 20.9204 41.0142 20.4888 41.0142C20.0571 41.0142 19.6911 41.1157 19.3906 41.3188C19.0902 41.5177 18.8595 41.8076 18.6987 42.1885C18.5422 42.5693 18.4639 43.0306 18.4639 43.5723V43.585C18.4639 44.1224 18.5422 44.5815 18.6987 44.9624C18.8595 45.3433 19.0902 45.6353 19.3906 45.8384C19.6911 46.0415 20.0571 46.1431 20.4888 46.1431ZM28.7598 47.1206C28.2858 47.1206 27.8647 47.0148 27.4966 46.8032C27.1284 46.5874 26.8385 46.2891 26.627 45.9082H26.5254V47H25.4209V37.4404H26.5254V41.2363H26.627C26.8132 40.8724 27.0967 40.5825 27.4775 40.3667C27.8626 40.1466 28.29 40.0366 28.7598 40.0366C29.3395 40.0366 29.8431 40.1826 30.2705 40.4746C30.7021 40.7666 31.0365 41.1771 31.2734 41.7061C31.5104 42.235 31.6289 42.8571 31.6289 43.5723V43.585C31.6289 44.2959 31.5104 44.918 31.2734 45.4512C31.0365 45.9801 30.7021 46.3906 30.2705 46.6826C29.8431 46.9746 29.3395 47.1206 28.7598 47.1206ZM28.5059 46.1431C28.9248 46.1431 29.2824 46.0415 29.5786 45.8384C29.8748 45.631 30.1012 45.3369 30.2578 44.9561C30.4186 44.571 30.499 44.1139 30.499 43.585V43.5723C30.499 43.0391 30.4186 42.582 30.2578 42.2012C30.1012 41.8203 29.8748 41.5283 29.5786 41.3252C29.2824 41.1178 28.9248 41.0142 28.5059 41.0142C28.0911 41.0142 27.7336 41.1178 27.4331 41.3252C27.1326 41.5326 26.902 41.8267 26.7412 42.2075C26.5804 42.5884 26.5 43.0433 26.5 43.5723V43.585C26.5 44.1097 26.5804 44.5646 26.7412 44.9497C26.902 45.3306 27.1326 45.6247 27.4331 45.832C27.7336 46.0394 28.0911 46.1431 28.5059 46.1431ZM33.3428 47V40.1572H34.4473V41.1729H34.5488C34.68 40.8132 34.9022 40.5339 35.2153 40.335C35.5285 40.1361 35.9157 40.0366 36.377 40.0366C36.4827 40.0366 36.5864 40.043 36.688 40.0557C36.7938 40.0641 36.8742 40.0726 36.9292 40.0811V41.1538C36.8149 41.1326 36.7028 41.1178 36.5928 41.1094C36.487 41.0967 36.3727 41.0903 36.25 41.0903C35.8988 41.0903 35.5877 41.1602 35.3169 41.2998C35.0461 41.4395 34.8324 41.6341 34.6758 41.8838C34.5234 42.1335 34.4473 42.4255 34.4473 42.7598V47H33.3428ZM40.9155 47.1206C40.2681 47.1206 39.7074 46.9788 39.2334 46.6953C38.7637 46.4076 38.3997 45.9992 38.1416 45.4702C37.8877 44.9412 37.7607 44.3128 37.7607 43.585V43.5723C37.7607 42.8402 37.8877 42.2096 38.1416 41.6807C38.3997 41.1517 38.7637 40.7454 39.2334 40.4619C39.7074 40.1784 40.2681 40.0366 40.9155 40.0366C41.5672 40.0366 42.1279 40.1784 42.5977 40.4619C43.0674 40.7454 43.4292 41.1517 43.6831 41.6807C43.9412 42.2096 44.0703 42.8402 44.0703 43.5723V43.585C44.0703 44.3128 43.9412 44.9412 43.6831 45.4702C43.4292 45.9992 43.0674 46.4076 42.5977 46.6953C42.1279 46.9788 41.5672 47.1206 40.9155 47.1206ZM40.9155 46.1431C41.3472 46.1431 41.7132 46.0415 42.0137 45.8384C42.3141 45.6353 42.5426 45.3433 42.6992 44.9624C42.86 44.5815 42.9404 44.1224 42.9404 43.585V43.5723C42.9404 43.0306 42.86 42.5693 42.6992 42.1885C42.5426 41.8076 42.3141 41.5177 42.0137 41.3188C41.7132 41.1157 41.3472 41.0142 40.9155 41.0142C40.4839 41.0142 40.1178 41.1157 39.8174 41.3188C39.5169 41.5177 39.2863 41.8076 39.1255 42.1885C38.9689 42.5693 38.8906 43.0306 38.8906 43.5723V43.585C38.8906 44.1224 38.9689 44.5815 39.1255 44.9624C39.2863 45.3433 39.5169 45.6353 39.8174 45.8384C40.1178 46.0415 40.4839 46.1431 40.9155 46.1431ZM45.8477 47V37.4404H46.9521V47H45.8477ZM50.1577 47L47.4854 43.6484L48.2979 42.9438L51.5479 47H50.1577ZM46.8125 44.5371L46.7617 43.147H47.0537L50.0117 40.1572H51.3511L48.1011 43.293L47.8345 43.5532L46.8125 44.5371ZM55.3184 47.1206C54.6667 47.1206 54.106 46.9767 53.6362 46.689C53.1707 46.4012 52.811 45.995 52.5571 45.4702C52.3075 44.9412 52.1826 44.3192 52.1826 43.604V43.5977C52.1826 42.891 52.3075 42.271 52.5571 41.7378C52.811 41.2046 53.1686 40.7878 53.6299 40.4873C54.0911 40.1868 54.6307 40.0366 55.2485 40.0366C55.8706 40.0366 56.4038 40.1805 56.8481 40.4683C57.2967 40.756 57.6395 41.158 57.8765 41.6743C58.1177 42.1864 58.2383 42.783 58.2383 43.4644V43.896H52.7539V43.0137H57.6733L57.1274 43.8198V43.3818C57.1274 42.8444 57.047 42.4022 56.8862 42.0552C56.7254 41.7082 56.5033 41.45 56.2197 41.2808C55.9362 41.1073 55.6104 41.0205 55.2422 41.0205C54.874 41.0205 54.5439 41.1115 54.252 41.2935C53.9642 41.4712 53.7357 41.7357 53.5664 42.0869C53.3971 42.4382 53.3125 42.8698 53.3125 43.3818V43.8198C53.3125 44.3065 53.395 44.7233 53.5601 45.0703C53.7251 45.4131 53.96 45.6776 54.2646 45.8638C54.5693 46.0457 54.929 46.1367 55.3438 46.1367C55.6527 46.1367 55.9214 46.0944 56.1499 46.0098C56.3784 45.9251 56.5667 45.8172 56.7148 45.686C56.863 45.5549 56.9666 45.4215 57.0259 45.2861L57.0513 45.229H58.1558L58.1431 45.2798C58.0838 45.5125 57.978 45.7389 57.8257 45.959C57.6776 46.1748 57.485 46.3716 57.248 46.5493C57.0111 46.7228 56.7297 46.8625 56.4038 46.9683C56.0822 47.0698 55.7204 47.1206 55.3184 47.1206ZM59.9521 47V40.1572H61.0566V41.1729H61.1582C61.2894 40.8132 61.5116 40.5339 61.8247 40.335C62.1379 40.1361 62.5251 40.0366 62.9863 40.0366C63.0921 40.0366 63.1958 40.043 63.2974 40.0557C63.4032 40.0641 63.4836 40.0726 63.5386 40.0811V41.1538C63.4243 41.1326 63.3122 41.1178 63.2021 41.1094C63.0964 41.0967 62.9821 41.0903 62.8594 41.0903C62.5081 41.0903 62.1971 41.1602 61.9263 41.2998C61.6554 41.4395 61.4417 41.6341 61.2852 41.8838C61.1328 42.1335 61.0566 42.4255 61.0566 42.7598V47H59.9521ZM68.6992 47V37.8403H69.8418V47H68.6992ZM77.0146 47L75.0977 40.1572H76.2021L77.5479 45.6289H77.6494L79.1792 40.1572H80.2266L81.7563 45.6289H81.8579L83.2036 40.1572H84.3018L82.3848 47H81.2739L79.7441 41.7061H79.6426L78.1191 47H77.0146ZM87.4502 47.1206C87.0186 47.1206 86.6292 47.0381 86.2822 46.873C85.9395 46.708 85.6665 46.4731 85.4634 46.1685C85.2645 45.8638 85.165 45.5041 85.165 45.0894V45.0767C85.165 44.4673 85.3809 43.9912 85.8125 43.6484C86.2484 43.3014 86.8641 43.1047 87.6597 43.0581L90.1733 42.9058V43.7881L87.793 43.9404C87.2725 43.9701 86.8916 44.078 86.6504 44.2642C86.4134 44.4504 86.2949 44.7127 86.2949 45.0513V45.064C86.2949 45.411 86.4261 45.6818 86.6885 45.8765C86.9508 46.0669 87.2809 46.1621 87.6787 46.1621C88.0553 46.1621 88.3896 46.0881 88.6816 45.9399C88.9736 45.7876 89.2021 45.5824 89.3672 45.3242C89.5365 45.0661 89.6211 44.7741 89.6211 44.4482V42.3154C89.6211 41.8923 89.492 41.5706 89.2339 41.3506C88.98 41.1263 88.597 41.0142 88.085 41.0142C87.6745 41.0142 87.3381 41.0882 87.0757 41.2363C86.8133 41.3802 86.6377 41.5854 86.5488 41.8521L86.5425 41.8711H85.438L85.4443 41.833C85.5036 41.4733 85.6517 41.1602 85.8887 40.8936C86.1299 40.6227 86.4409 40.4132 86.8218 40.2651C87.2026 40.1128 87.6364 40.0366 88.123 40.0366C88.6816 40.0366 89.1535 40.1276 89.5386 40.3096C89.9279 40.4915 90.222 40.7539 90.4209 41.0967C90.624 41.4352 90.7256 41.8415 90.7256 42.3154V47H89.6211V45.9907H89.5195C89.3757 46.2319 89.2 46.4372 88.9927 46.6064C88.7896 46.7757 88.5589 46.9048 88.3008 46.9937C88.0426 47.0783 87.7591 47.1206 87.4502 47.1206ZM95.0928 47.1206C94.585 47.1206 94.1364 47.0444 93.7471 46.8921C93.3577 46.7355 93.0446 46.5176 92.8076 46.2383C92.5749 45.959 92.4373 45.631 92.395 45.2544H93.5249C93.618 45.5379 93.8 45.7664 94.0708 45.9399C94.3416 46.1134 94.695 46.2002 95.1309 46.2002C95.4398 46.2002 95.7106 46.1558 95.9434 46.0669C96.1803 45.9738 96.3665 45.849 96.502 45.6924C96.6374 45.5316 96.7051 45.3475 96.7051 45.1401V45.1274C96.7051 44.8947 96.612 44.6979 96.4258 44.5371C96.2396 44.3721 95.9349 44.2388 95.5117 44.1372L94.4517 43.8833C93.8127 43.731 93.3429 43.5088 93.0425 43.2168C92.742 42.9206 92.5918 42.527 92.5918 42.0361V42.0298C92.5918 41.6489 92.7018 41.3083 92.9219 41.0078C93.1462 40.7074 93.4508 40.4704 93.8359 40.2969C94.221 40.1234 94.6548 40.0366 95.1372 40.0366C95.6154 40.0366 96.0386 40.1128 96.4067 40.2651C96.7791 40.4132 97.0775 40.6248 97.3018 40.8999C97.5303 41.175 97.6699 41.4987 97.7207 41.8711H96.6353C96.5633 41.6003 96.3983 41.3802 96.1401 41.2109C95.882 41.0417 95.5456 40.957 95.1309 40.957C94.86 40.957 94.6188 41.0015 94.4072 41.0903C94.1956 41.175 94.0285 41.2935 93.9058 41.4458C93.783 41.5981 93.7217 41.7759 93.7217 41.979V41.9917C93.7217 42.2244 93.8127 42.417 93.9946 42.5693C94.1766 42.7217 94.4686 42.8465 94.8706 42.9438L95.9243 43.1978C96.5675 43.3543 97.0457 43.5786 97.3589 43.8706C97.6763 44.1626 97.835 44.554 97.835 45.0449V45.0576C97.835 45.4639 97.7144 45.8236 97.4731 46.1367C97.2319 46.4456 96.904 46.6868 96.4893 46.8604C96.0788 47.0339 95.6133 47.1206 95.0928 47.1206ZM105.084 47.1206C104.652 47.1206 104.263 47.0381 103.916 46.873C103.573 46.708 103.3 46.4731 103.097 46.1685C102.898 45.8638 102.799 45.5041 102.799 45.0894V45.0767C102.799 44.4673 103.015 43.9912 103.446 43.6484C103.882 43.3014 104.498 43.1047 105.293 43.0581L107.807 42.9058V43.7881L105.427 43.9404C104.906 43.9701 104.525 44.078 104.284 44.2642C104.047 44.4504 103.929 44.7127 103.929 45.0513V45.064C103.929 45.411 104.06 45.6818 104.322 45.8765C104.585 46.0669 104.915 46.1621 105.312 46.1621C105.689 46.1621 106.023 46.0881 106.315 45.9399C106.607 45.7876 106.836 45.5824 107.001 45.3242C107.17 45.0661 107.255 44.7741 107.255 44.4482V42.3154C107.255 41.8923 107.126 41.5706 106.868 41.3506C106.614 41.1263 106.231 41.0142 105.719 41.0142C105.308 41.0142 104.972 41.0882 104.709 41.2363C104.447 41.3802 104.271 41.5854 104.183 41.8521L104.176 41.8711H103.072L103.078 41.833C103.137 41.4733 103.285 41.1602 103.522 40.8936C103.764 40.6227 104.075 40.4132 104.456 40.2651C104.836 40.1128 105.27 40.0366 105.757 40.0366C106.315 40.0366 106.787 40.1276 107.172 40.3096C107.562 40.4915 107.856 40.7539 108.055 41.0967C108.258 41.4352 108.359 41.8415 108.359 42.3154V47H107.255V45.9907H107.153C107.009 46.2319 106.834 46.4372 106.626 46.6064C106.423 46.7757 106.193 46.9048 105.935 46.9937C105.676 47.0783 105.393 47.1206 105.084 47.1206ZM113.78 47.1206C113.306 47.1206 112.885 47.0148 112.517 46.8032C112.149 46.5874 111.859 46.2891 111.647 45.9082H111.546V47H110.441V37.4404H111.546V41.2363H111.647C111.834 40.8724 112.117 40.5825 112.498 40.3667C112.883 40.1466 113.311 40.0366 113.78 40.0366C114.36 40.0366 114.864 40.1826 115.291 40.4746C115.723 40.7666 116.057 41.1771 116.294 41.7061C116.531 42.235 116.649 42.8571 116.649 43.5723V43.585C116.649 44.2959 116.531 44.918 116.294 45.4512C116.057 45.9801 115.723 46.3906 115.291 46.6826C114.864 46.9746 114.36 47.1206 113.78 47.1206ZM113.526 46.1431C113.945 46.1431 114.303 46.0415 114.599 45.8384C114.895 45.631 115.122 45.3369 115.278 44.9561C115.439 44.571 115.52 44.1139 115.52 43.585V43.5723C115.52 43.0391 115.439 42.582 115.278 42.2012C115.122 41.8203 114.895 41.5283 114.599 41.3252C114.303 41.1178 113.945 41.0142 113.526 41.0142C113.112 41.0142 112.754 41.1178 112.454 41.3252C112.153 41.5326 111.923 41.8267 111.762 42.2075C111.601 42.5884 111.521 43.0433 111.521 43.5723V43.585C111.521 44.1097 111.601 44.5646 111.762 44.9497C111.923 45.3306 112.153 45.6247 112.454 45.832C112.754 46.0394 113.112 46.1431 113.526 46.1431ZM118.427 47V37.4404H119.531V47H118.427ZM124.444 47.1206C123.793 47.1206 123.232 46.9767 122.762 46.689C122.297 46.4012 121.937 45.995 121.683 45.4702C121.433 44.9412 121.309 44.3192 121.309 43.604V43.5977C121.309 42.891 121.433 42.271 121.683 41.7378C121.937 41.2046 122.295 40.7878 122.756 40.4873C123.217 40.1868 123.757 40.0366 124.375 40.0366C124.997 40.0366 125.53 40.1805 125.974 40.4683C126.423 40.756 126.765 41.158 127.002 41.6743C127.244 42.1864 127.364 42.783 127.364 43.4644V43.896H121.88V43.0137H126.799L126.253 43.8198V43.3818C126.253 42.8444 126.173 42.4022 126.012 42.0552C125.851 41.7082 125.629 41.45 125.346 41.2808C125.062 41.1073 124.736 41.0205 124.368 41.0205C124 41.0205 123.67 41.1115 123.378 41.2935C123.09 41.4712 122.862 41.7357 122.692 42.0869C122.523 42.4382 122.438 42.8698 122.438 43.3818V43.8198C122.438 44.3065 122.521 44.7233 122.686 45.0703C122.851 45.4131 123.086 45.6776 123.391 45.8638C123.695 46.0457 124.055 46.1367 124.47 46.1367C124.779 46.1367 125.047 46.0944 125.276 46.0098C125.504 45.9251 125.693 45.8172 125.841 45.686C125.989 45.5549 126.093 45.4215 126.152 45.2861L126.177 45.229H127.282L127.269 45.2798C127.21 45.5125 127.104 45.7389 126.952 45.959C126.804 46.1748 126.611 46.3716 126.374 46.5493C126.137 46.7228 125.856 46.8625 125.53 46.9683C125.208 47.0698 124.846 47.1206 124.444 47.1206ZM135.166 47.0508C134.463 47.0508 133.953 46.909 133.636 46.6255C133.323 46.342 133.166 45.8743 133.166 45.2227V41.0713H132.087V40.1572H133.166V38.3862H134.309V40.1572H135.807V41.0713H134.309V44.9434C134.309 45.3454 134.385 45.6353 134.537 45.813C134.689 45.9865 134.943 46.0732 135.299 46.0732C135.396 46.0732 135.479 46.0711 135.546 46.0669C135.618 46.0627 135.705 46.0563 135.807 46.0479V46.9873C135.701 47.0042 135.595 47.019 135.489 47.0317C135.383 47.0444 135.276 47.0508 135.166 47.0508ZM140.18 47.1206C139.533 47.1206 138.972 46.9788 138.498 46.6953C138.028 46.4076 137.664 45.9992 137.406 45.4702C137.152 44.9412 137.025 44.3128 137.025 43.585V43.5723C137.025 42.8402 137.152 42.2096 137.406 41.6807C137.664 41.1517 138.028 40.7454 138.498 40.4619C138.972 40.1784 139.533 40.0366 140.18 40.0366C140.832 40.0366 141.393 40.1784 141.862 40.4619C142.332 40.7454 142.694 41.1517 142.948 41.6807C143.206 42.2096 143.335 42.8402 143.335 43.5723V43.585C143.335 44.3128 143.206 44.9412 142.948 45.4702C142.694 45.9992 142.332 46.4076 141.862 46.6953C141.393 46.9788 140.832 47.1206 140.18 47.1206ZM140.18 46.1431C140.612 46.1431 140.978 46.0415 141.278 45.8384C141.579 45.6353 141.807 45.3433 141.964 44.9624C142.125 44.5815 142.205 44.1224 142.205 43.585V43.5723C142.205 43.0306 142.125 42.5693 141.964 42.1885C141.807 41.8076 141.579 41.5177 141.278 41.3188C140.978 41.1157 140.612 41.0142 140.18 41.0142C139.749 41.0142 139.382 41.1157 139.082 41.3188C138.782 41.5177 138.551 41.8076 138.39 42.1885C138.234 42.5693 138.155 43.0306 138.155 43.5723V43.585C138.155 44.1224 138.234 44.5815 138.39 44.9624C138.551 45.3433 138.782 45.6353 139.082 45.8384C139.382 46.0415 139.749 46.1431 140.18 46.1431ZM8.48535 63V57.0713H7.34912V56.1572H8.48535V55.3955C8.48535 54.7142 8.65462 54.2085 8.99316 53.8784C9.33171 53.5441 9.82471 53.377 10.4722 53.377C10.6076 53.377 10.7345 53.3833 10.853 53.396C10.9757 53.4045 11.0942 53.4193 11.2085 53.4404V54.3228C11.1408 54.3101 11.0625 54.3016 10.9736 54.2974C10.8848 54.2931 10.7917 54.291 10.6943 54.291C10.3008 54.291 10.0173 54.3862 9.84375 54.5767C9.67448 54.7671 9.58984 55.0506 9.58984 55.4272V56.1572H11.145V57.0713H9.58984V63H8.48535ZM12.7637 63V56.1572H13.8682V63H12.7637ZM13.3223 54.8369C13.1149 54.8369 12.9351 54.7629 12.7827 54.6147C12.6346 54.4624 12.5605 54.2826 12.5605 54.0752C12.5605 53.8636 12.6346 53.6838 12.7827 53.5356C12.9351 53.3875 13.1149 53.3135 13.3223 53.3135C13.5339 53.3135 13.7137 53.3875 13.8618 53.5356C14.0099 53.6838 14.084 53.8636 14.084 54.0752C14.084 54.2826 14.0099 54.4624 13.8618 54.6147C13.7137 54.7629 13.5339 54.8369 13.3223 54.8369ZM15.9502 63V56.1572H17.0547V57.1855H17.1562C17.3298 56.8216 17.5794 56.5402 17.9053 56.3413C18.2311 56.1382 18.6458 56.0366 19.1494 56.0366C19.9196 56.0366 20.5099 56.2567 20.9204 56.6968C21.3351 57.1326 21.5425 57.7568 21.5425 58.5693V63H20.438V58.8359C20.438 58.2181 20.3068 57.7611 20.0444 57.4648C19.7863 57.1644 19.3843 57.0142 18.8384 57.0142C18.4744 57.0142 18.1592 57.0924 17.8926 57.249C17.626 57.4056 17.4186 57.6278 17.2705 57.9155C17.1266 58.2033 17.0547 58.5482 17.0547 58.9502V63H15.9502ZM26.0684 63.1206C25.4928 63.1206 24.9893 62.9746 24.5576 62.6826C24.126 62.3906 23.7917 61.9801 23.5547 61.4512C23.3177 60.918 23.1992 60.2959 23.1992 59.585V59.5723C23.1992 58.8571 23.3177 58.235 23.5547 57.7061C23.7917 57.1771 24.1239 56.7666 24.5513 56.4746C24.9829 56.1826 25.4886 56.0366 26.0684 56.0366C26.5381 56.0366 26.9634 56.1466 27.3442 56.3667C27.7293 56.5825 28.015 56.8724 28.2012 57.2363H28.3027V53.4404H29.4072V63H28.3027V61.9082H28.2012C27.9938 62.2891 27.7061 62.5874 27.3379 62.8032C26.9697 63.0148 26.5465 63.1206 26.0684 63.1206ZM26.3223 62.1431C26.737 62.1431 27.0946 62.0394 27.395 61.832C27.6955 61.6247 27.9261 61.3306 28.0869 60.9497C28.2477 60.5646 28.3281 60.1097 28.3281 59.585V59.5723C28.3281 59.0433 28.2477 58.5884 28.0869 58.2075C27.9261 57.8267 27.6955 57.5326 27.395 57.3252C27.0946 57.1178 26.737 57.0142 26.3223 57.0142C25.9076 57.0142 25.55 57.1178 25.2495 57.3252C24.9533 57.5283 24.7248 57.8203 24.564 58.2012C24.4074 58.582 24.3291 59.0391 24.3291 59.5723V59.585C24.3291 60.1139 24.4074 60.571 24.564 60.9561C24.7248 61.3369 24.9533 61.631 25.2495 61.8384C25.55 62.0415 25.9076 62.1431 26.3223 62.1431ZM35.1836 65.2852V56.1572H36.2881V57.249H36.3896C36.5293 56.9951 36.7049 56.7793 36.9165 56.6016C37.1281 56.4196 37.3693 56.2799 37.6401 56.1826C37.911 56.0853 38.2051 56.0366 38.5225 56.0366C39.1022 56.0366 39.6058 56.1847 40.0332 56.481C40.4648 56.7729 40.7992 57.1834 41.0361 57.7124C41.2731 58.2414 41.3916 58.8613 41.3916 59.5723V59.585C41.3916 60.3001 41.2731 60.9222 41.0361 61.4512C40.7992 61.9801 40.4648 62.3906 40.0332 62.6826C39.6058 62.9746 39.1022 63.1206 38.5225 63.1206C38.2093 63.1206 37.9131 63.0719 37.6338 62.9746C37.3587 62.873 37.1133 62.7334 36.8975 62.5557C36.6859 62.3779 36.5166 62.1663 36.3896 61.9209H36.2881V65.2852H35.1836ZM38.2686 62.1431C38.6875 62.1431 39.0451 62.0415 39.3413 61.8384C39.6375 61.631 39.8639 61.3369 40.0205 60.9561C40.1813 60.571 40.2617 60.1139 40.2617 59.585V59.5723C40.2617 59.0391 40.1813 58.582 40.0205 58.2012C39.8639 57.8203 39.6375 57.5283 39.3413 57.3252C39.0451 57.1178 38.6875 57.0142 38.2686 57.0142C37.8538 57.0142 37.4963 57.1178 37.1958 57.3252C36.8953 57.5326 36.6647 57.8267 36.5039 58.2075C36.3431 58.5884 36.2627 59.0433 36.2627 59.5723V59.585C36.2627 60.1097 36.3431 60.5646 36.5039 60.9497C36.6647 61.3306 36.8953 61.6247 37.1958 61.832C37.4963 62.0394 37.8538 62.1431 38.2686 62.1431ZM43.1182 63V56.1572H44.2227V57.1729H44.3242C44.4554 56.8132 44.6776 56.5339 44.9907 56.335C45.3039 56.1361 45.6911 56.0366 46.1523 56.0366C46.2581 56.0366 46.3618 56.043 46.4634 56.0557C46.5692 56.0641 46.6496 56.0726 46.7046 56.0811V57.1538C46.5903 57.1326 46.4782 57.1178 46.3682 57.1094C46.2624 57.0967 46.1481 57.0903 46.0254 57.0903C45.6742 57.0903 45.3631 57.1602 45.0923 57.2998C44.8215 57.4395 44.6077 57.6341 44.4512 57.8838C44.2988 58.1335 44.2227 58.4255 44.2227 58.7598V63H43.1182ZM50.6909 63.1206C50.0435 63.1206 49.4827 62.9788 49.0088 62.6953C48.5391 62.4076 48.1751 61.9992 47.917 61.4702C47.6631 60.9412 47.5361 60.3128 47.5361 59.585V59.5723C47.5361 58.8402 47.6631 58.2096 47.917 57.6807C48.1751 57.1517 48.5391 56.7454 49.0088 56.4619C49.4827 56.1784 50.0435 56.0366 50.6909 56.0366C51.3426 56.0366 51.9033 56.1784 52.373 56.4619C52.8428 56.7454 53.2046 57.1517 53.4585 57.6807C53.7166 58.2096 53.8457 58.8402 53.8457 59.5723V59.585C53.8457 60.3128 53.7166 60.9412 53.4585 61.4702C53.2046 61.9992 52.8428 62.4076 52.373 62.6953C51.9033 62.9788 51.3426 63.1206 50.6909 63.1206ZM50.6909 62.1431C51.1226 62.1431 51.4886 62.0415 51.7891 61.8384C52.0895 61.6353 52.318 61.3433 52.4746 60.9624C52.6354 60.5815 52.7158 60.1224 52.7158 59.585V59.5723C52.7158 59.0306 52.6354 58.5693 52.4746 58.1885C52.318 57.8076 52.0895 57.5177 51.7891 57.3188C51.4886 57.1157 51.1226 57.0142 50.6909 57.0142C50.2593 57.0142 49.8932 57.1157 49.5928 57.3188C49.2923 57.5177 49.0617 57.8076 48.9009 58.1885C48.7443 58.5693 48.666 59.0306 48.666 59.5723V59.585C48.666 60.1224 48.7443 60.5815 48.9009 60.9624C49.0617 61.3433 49.2923 61.6353 49.5928 61.8384C49.8932 62.0415 50.2593 62.1431 50.6909 62.1431ZM55.5596 65.2852V56.1572H56.6641V57.249H56.7656C56.9053 56.9951 57.0809 56.7793 57.2925 56.6016C57.5041 56.4196 57.7453 56.2799 58.0161 56.1826C58.2869 56.0853 58.5811 56.0366 58.8984 56.0366C59.4782 56.0366 59.9818 56.1847 60.4092 56.481C60.8408 56.7729 61.1751 57.1834 61.4121 57.7124C61.6491 58.2414 61.7676 58.8613 61.7676 59.5723V59.585C61.7676 60.3001 61.6491 60.9222 61.4121 61.4512C61.1751 61.9801 60.8408 62.3906 60.4092 62.6826C59.9818 62.9746 59.4782 63.1206 58.8984 63.1206C58.5853 63.1206 58.2891 63.0719 58.0098 62.9746C57.7347 62.873 57.4893 62.7334 57.2734 62.5557C57.0618 62.3779 56.8926 62.1663 56.7656 61.9209H56.6641V65.2852H55.5596ZM58.6445 62.1431C59.0635 62.1431 59.4211 62.0415 59.7173 61.8384C60.0135 61.631 60.2399 61.3369 60.3965 60.9561C60.5573 60.571 60.6377 60.1139 60.6377 59.585V59.5723C60.6377 59.0391 60.5573 58.582 60.3965 58.2012C60.2399 57.8203 60.0135 57.5283 59.7173 57.3252C59.4211 57.1178 59.0635 57.0142 58.6445 57.0142C58.2298 57.0142 57.8722 57.1178 57.5718 57.3252C57.2713 57.5326 57.0407 57.8267 56.8799 58.2075C56.7191 58.5884 56.6387 59.0433 56.6387 59.5723V59.585C56.6387 60.1097 56.7191 60.5646 56.8799 60.9497C57.0407 61.3306 57.2713 61.6247 57.5718 61.832C57.8722 62.0394 58.2298 62.1431 58.6445 62.1431ZM66.2871 63.1206C65.6354 63.1206 65.0747 62.9767 64.605 62.689C64.1395 62.4012 63.7798 61.995 63.5259 61.4702C63.2762 60.9412 63.1514 60.3192 63.1514 59.604V59.5977C63.1514 58.891 63.2762 58.271 63.5259 57.7378C63.7798 57.2046 64.1374 56.7878 64.5986 56.4873C65.0599 56.1868 65.5994 56.0366 66.2173 56.0366C66.8394 56.0366 67.3726 56.1805 67.8169 56.4683C68.2655 56.756 68.6082 57.158 68.8452 57.6743C69.0864 58.1864 69.207 58.783 69.207 59.4644V59.896H63.7227V59.0137H68.6421L68.0962 59.8198V59.3818C68.0962 58.8444 68.0158 58.4022 67.855 58.0552C67.6942 57.7082 67.472 57.45 67.1885 57.2808C66.9049 57.1073 66.5791 57.0205 66.2109 57.0205C65.8428 57.0205 65.5127 57.1115 65.2207 57.2935C64.9329 57.4712 64.7044 57.7357 64.5352 58.0869C64.3659 58.4382 64.2812 58.8698 64.2812 59.3818V59.8198C64.2812 60.3065 64.3638 60.7233 64.5288 61.0703C64.6938 61.4131 64.9287 61.6776 65.2334 61.8638C65.5381 62.0457 65.8978 62.1367 66.3125 62.1367C66.6214 62.1367 66.8901 62.0944 67.1187 62.0098C67.3472 61.9251 67.5355 61.8172 67.6836 61.686C67.8317 61.5549 67.9354 61.4215 67.9946 61.2861L68.02 61.229H69.1245L69.1118 61.2798C69.0526 61.5125 68.9468 61.7389 68.7944 61.959C68.6463 62.1748 68.4538 62.3716 68.2168 62.5493C67.9798 62.7228 67.6984 62.8625 67.3726 62.9683C67.0509 63.0698 66.6891 63.1206 66.2871 63.1206ZM70.9209 63V56.1572H72.0254V57.1729H72.127C72.2581 56.8132 72.4803 56.5339 72.7935 56.335C73.1066 56.1361 73.4938 56.0366 73.9551 56.0366C74.0609 56.0366 74.1646 56.043 74.2661 56.0557C74.3719 56.0641 74.4523 56.0726 74.5073 56.0811V57.1538C74.3931 57.1326 74.2809 57.1178 74.1709 57.1094C74.0651 57.0967 73.9508 57.0903 73.8281 57.0903C73.4769 57.0903 73.1659 57.1602 72.895 57.2998C72.6242 57.4395 72.4105 57.6341 72.2539 57.8838C72.1016 58.1335 72.0254 58.4255 72.0254 58.7598V63H70.9209ZM78.6841 63.0508C77.9816 63.0508 77.4717 62.909 77.1543 62.6255C76.8411 62.342 76.6846 61.8743 76.6846 61.2227V57.0713H75.6055V56.1572H76.6846V54.3862H77.8271V56.1572H79.3252V57.0713H77.8271V60.9434C77.8271 61.3454 77.9033 61.6353 78.0557 61.813C78.208 61.9865 78.4619 62.0732 78.8174 62.0732C78.9147 62.0732 78.9972 62.0711 79.0649 62.0669C79.1369 62.0627 79.2236 62.0563 79.3252 62.0479V62.9873C79.2194 63.0042 79.1136 63.019 79.0078 63.0317C78.902 63.0444 78.7941 63.0508 78.6841 63.0508ZM81.5596 65.3994C81.4876 65.3994 81.4072 65.3952 81.3184 65.3867C81.2295 65.3825 81.147 65.374 81.0708 65.3613V64.4536C81.1385 64.4663 81.2126 64.4748 81.293 64.479C81.3734 64.4832 81.4517 64.4854 81.5278 64.4854C81.841 64.4854 82.097 64.4049 82.2959 64.2441C82.499 64.0833 82.6619 63.8062 82.7847 63.4126L82.9116 63.0063L80.3789 56.1572H81.5596L83.667 62.4795L83.229 61.7876H83.7495L83.3115 62.4795L85.4126 56.1572H86.5742L83.9019 63.4189C83.7114 63.931 83.5125 64.3309 83.3052 64.6187C83.1021 64.9064 82.8608 65.1074 82.5815 65.2217C82.3065 65.3402 81.9658 65.3994 81.5596 65.3994ZM91.6841 63V62.2129L94.7817 58.8613C95.1711 58.4382 95.4757 58.089 95.6958 57.814C95.9159 57.5347 96.0703 57.2829 96.1592 57.0586C96.248 56.8343 96.2925 56.5889 96.2925 56.3223V56.3096C96.2925 55.988 96.2227 55.7002 96.083 55.4463C95.9434 55.1924 95.7445 54.9914 95.4863 54.8433C95.2282 54.6951 94.9193 54.6211 94.5596 54.6211C94.1956 54.6211 93.8761 54.6973 93.6011 54.8496C93.326 54.9977 93.1123 55.2072 92.96 55.478C92.8076 55.7446 92.7314 56.0578 92.7314 56.4175L92.7251 56.4302L91.6333 56.4238L91.6206 56.4175C91.6248 55.8758 91.756 55.3955 92.0142 54.9766C92.2723 54.5534 92.6278 54.2233 93.0806 53.9863C93.5334 53.7451 94.0518 53.6245 94.6357 53.6245C95.1689 53.6245 95.6493 53.7367 96.0767 53.9609C96.5041 54.181 96.8405 54.4836 97.0859 54.8687C97.3356 55.2537 97.4604 55.6938 97.4604 56.189V56.2017C97.4604 56.5487 97.3991 56.883 97.2764 57.2046C97.1579 57.5262 96.9463 57.8838 96.6416 58.2773C96.3369 58.6667 95.9074 59.147 95.353 59.7183L92.9854 62.1621L93.271 61.6353V62.1621L92.9917 61.9717H97.6128V63H91.6841ZM102.596 63.2158C101.919 63.2158 101.339 63.0212 100.856 62.6318C100.378 62.2425 100.01 61.6903 99.752 60.9751C99.4938 60.2557 99.3647 59.4051 99.3647 58.4233V58.4106C99.3647 57.4289 99.4938 56.5804 99.752 55.8652C100.01 55.1501 100.378 54.5978 100.856 54.2085C101.339 53.8192 101.919 53.6245 102.596 53.6245C103.273 53.6245 103.853 53.8192 104.335 54.2085C104.817 54.5978 105.188 55.1501 105.446 55.8652C105.708 56.5804 105.839 57.4289 105.839 58.4106V58.4233C105.839 59.4051 105.708 60.2557 105.446 60.9751C105.188 61.6903 104.817 62.2425 104.335 62.6318C103.853 63.0212 103.273 63.2158 102.596 63.2158ZM102.596 62.2192C103.036 62.2192 103.41 62.0648 103.719 61.7559C104.032 61.4469 104.271 61.009 104.437 60.4419C104.606 59.8748 104.69 59.202 104.69 58.4233V58.4106C104.69 57.632 104.606 56.9613 104.437 56.3984C104.271 55.8314 104.032 55.3955 103.719 55.0908C103.41 54.7819 103.036 54.6274 102.596 54.6274C102.16 54.6274 101.785 54.7819 101.472 55.0908C101.163 55.3955 100.926 55.8314 100.761 56.3984C100.596 56.9613 100.514 57.632 100.514 58.4106V58.4233C100.514 59.202 100.596 59.8748 100.761 60.4419C100.926 61.009 101.163 61.4469 101.472 61.7559C101.785 62.0648 102.16 62.2192 102.596 62.2192ZM109.426 58.6582C108.842 58.6582 108.383 58.436 108.048 57.9917C107.718 57.5474 107.553 56.9465 107.553 56.189V56.1826C107.553 55.4251 107.718 54.8263 108.048 54.3862C108.383 53.9419 108.842 53.7197 109.426 53.7197C110.01 53.7197 110.469 53.9419 110.803 54.3862C111.138 54.8263 111.305 55.4251 111.305 56.1826V56.189C111.305 56.9465 111.138 57.5474 110.803 57.9917C110.469 58.436 110.01 58.6582 109.426 58.6582ZM109.426 57.9028C109.739 57.9028 109.982 57.7526 110.156 57.4521C110.333 57.1475 110.422 56.7264 110.422 56.189V56.1826C110.422 55.6452 110.333 55.2262 110.156 54.9258C109.982 54.6253 109.739 54.4751 109.426 54.4751C109.113 54.4751 108.869 54.6253 108.696 54.9258C108.522 55.2262 108.436 55.6452 108.436 56.1826V56.189C108.436 56.7264 108.522 57.1475 108.696 57.4521C108.869 57.7526 109.113 57.9028 109.426 57.9028ZM110.111 63H109.083L115.316 53.8403H116.345L110.111 63ZM115.989 63.1206C115.405 63.1206 114.946 62.8984 114.612 62.4541C114.282 62.0098 114.117 61.4089 114.117 60.6514V60.645C114.117 59.8875 114.282 59.2887 114.612 58.8486C114.946 58.4043 115.405 58.1821 115.989 58.1821C116.573 58.1821 117.032 58.4043 117.367 58.8486C117.701 59.2887 117.868 59.8875 117.868 60.645V60.6514C117.868 61.4089 117.701 62.0098 117.367 62.4541C117.032 62.8984 116.573 63.1206 115.989 63.1206ZM115.989 62.3652C116.302 62.3652 116.546 62.215 116.719 61.9146C116.897 61.6099 116.986 61.1888 116.986 60.6514V60.645C116.986 60.1076 116.897 59.6886 116.719 59.3882C116.546 59.0877 116.302 58.9375 115.989 58.9375C115.676 58.9375 115.433 59.0877 115.259 59.3882C115.086 59.6886 114.999 60.1076 114.999 60.645V60.6514C114.999 61.1888 115.086 61.6099 115.259 61.9146C115.433 62.215 115.676 62.3652 115.989 62.3652ZM8.48535 79V73.0713H7.34912V72.1572H8.48535V71.3955C8.48535 70.7142 8.65462 70.2085 8.99316 69.8784C9.33171 69.5441 9.82471 69.377 10.4722 69.377C10.6076 69.377 10.7345 69.3833 10.853 69.396C10.9757 69.4045 11.0942 69.4193 11.2085 69.4404V70.3228C11.1408 70.3101 11.0625 70.3016 10.9736 70.2974C10.8848 70.2931 10.7917 70.291 10.6943 70.291C10.3008 70.291 10.0173 70.3862 9.84375 70.5767C9.67448 70.7671 9.58984 71.0506 9.58984 71.4272V72.1572H11.145V73.0713H9.58984V79H8.48535ZM14.4268 79.1206C13.9951 79.1206 13.6058 79.0381 13.2588 78.873C12.916 78.708 12.6431 78.4731 12.4399 78.1685C12.241 77.8638 12.1416 77.5041 12.1416 77.0894V77.0767C12.1416 76.4673 12.3574 75.9912 12.7891 75.6484C13.2249 75.3014 13.8407 75.1047 14.6362 75.0581L17.1499 74.9058V75.7881L14.7695 75.9404C14.249 75.9701 13.8682 76.078 13.627 76.2642C13.39 76.4504 13.2715 76.7127 13.2715 77.0513V77.064C13.2715 77.411 13.4027 77.6818 13.665 77.8765C13.9274 78.0669 14.2575 78.1621 14.6553 78.1621C15.0319 78.1621 15.3662 78.0881 15.6582 77.9399C15.9502 77.7876 16.1787 77.5824 16.3438 77.3242C16.513 77.0661 16.5977 76.7741 16.5977 76.4482V74.3154C16.5977 73.8923 16.4686 73.5706 16.2104 73.3506C15.9565 73.1263 15.5736 73.0142 15.0615 73.0142C14.651 73.0142 14.3146 73.0882 14.0522 73.2363C13.7899 73.3802 13.6143 73.5854 13.5254 73.8521L13.519 73.8711H12.4146L12.4209 73.833C12.4801 73.4733 12.6283 73.1602 12.8652 72.8936C13.1064 72.6227 13.4175 72.4132 13.7983 72.2651C14.1792 72.1128 14.613 72.0366 15.0996 72.0366C15.6582 72.0366 16.13 72.1276 16.5151 72.3096C16.9045 72.4915 17.1986 72.7539 17.3975 73.0967C17.6006 73.4352 17.7021 73.8415 17.7021 74.3154V79H16.5977V77.9907H16.4961C16.3522 78.2319 16.1766 78.4372 15.9692 78.6064C15.7661 78.7757 15.5355 78.9048 15.2773 78.9937C15.0192 79.0783 14.7357 79.1206 14.4268 79.1206ZM22.0693 79.1206C21.5615 79.1206 21.113 79.0444 20.7236 78.8921C20.3343 78.7355 20.0212 78.5176 19.7842 78.2383C19.5514 77.959 19.4139 77.631 19.3716 77.2544H20.5015C20.5946 77.5379 20.7765 77.7664 21.0474 77.9399C21.3182 78.1134 21.6715 78.2002 22.1074 78.2002C22.4163 78.2002 22.6872 78.1558 22.9199 78.0669C23.1569 77.9738 23.3431 77.849 23.4785 77.6924C23.6139 77.5316 23.6816 77.3475 23.6816 77.1401V77.1274C23.6816 76.8947 23.5885 76.6979 23.4023 76.5371C23.2161 76.3721 22.9115 76.2388 22.4883 76.1372L21.4282 75.8833C20.7892 75.731 20.3195 75.5088 20.019 75.2168C19.7186 74.9206 19.5684 74.527 19.5684 74.0361V74.0298C19.5684 73.6489 19.6784 73.3083 19.8984 73.0078C20.1227 72.7074 20.4274 72.4704 20.8125 72.2969C21.1976 72.1234 21.6313 72.0366 22.1138 72.0366C22.592 72.0366 23.0151 72.1128 23.3833 72.2651C23.7557 72.4132 24.054 72.6248 24.2783 72.8999C24.5068 73.175 24.6465 73.4987 24.6973 73.8711H23.6118C23.5399 73.6003 23.3748 73.3802 23.1167 73.2109C22.8586 73.0417 22.5221 72.957 22.1074 72.957C21.8366 72.957 21.5954 73.0015 21.3838 73.0903C21.1722 73.175 21.005 73.2935 20.8823 73.4458C20.7596 73.5981 20.6982 73.7759 20.6982 73.979V73.9917C20.6982 74.2244 20.7892 74.417 20.9712 74.5693C21.1532 74.7217 21.4451 74.8465 21.8472 74.9438L22.9009 75.1978C23.5441 75.3543 24.0223 75.5786 24.3354 75.8706C24.6528 76.1626 24.8115 76.554 24.8115 77.0449V77.0576C24.8115 77.4639 24.6909 77.8236 24.4497 78.1367C24.2085 78.4456 23.8805 78.6868 23.4658 78.8604C23.0553 79.0339 22.5898 79.1206 22.0693 79.1206ZM28.8931 79.0508C28.1906 79.0508 27.6807 78.909 27.3633 78.6255C27.0501 78.342 26.8936 77.8743 26.8936 77.2227V73.0713H25.8145V72.1572H26.8936V70.3862H28.0361V72.1572H29.5342V73.0713H28.0361V76.9434C28.0361 77.3454 28.1123 77.6353 28.2646 77.813C28.417 77.9865 28.6709 78.0732 29.0264 78.0732C29.1237 78.0732 29.2062 78.0711 29.2739 78.0669C29.3459 78.0627 29.4326 78.0563 29.5342 78.0479V78.9873C29.4284 79.0042 29.3226 79.019 29.2168 79.0317C29.111 79.0444 29.0031 79.0508 28.8931 79.0508ZM33.8887 79.1206C33.237 79.1206 32.6763 78.9767 32.2065 78.689C31.741 78.4012 31.3813 77.995 31.1274 77.4702C30.8778 76.9412 30.7529 76.3192 30.7529 75.604V75.5977C30.7529 74.891 30.8778 74.271 31.1274 73.7378C31.3813 73.2046 31.7389 72.7878 32.2002 72.4873C32.6615 72.1868 33.201 72.0366 33.8188 72.0366C34.4409 72.0366 34.9741 72.1805 35.4185 72.4683C35.867 72.756 36.2098 73.158 36.4468 73.6743C36.688 74.1864 36.8086 74.783 36.8086 75.4644V75.896H31.3242V75.0137H36.2437L35.6978 75.8198V75.3818C35.6978 74.8444 35.6174 74.4022 35.4565 74.0552C35.2957 73.7082 35.0736 73.45 34.79 73.2808C34.5065 73.1073 34.1807 73.0205 33.8125 73.0205C33.4443 73.0205 33.1143 73.1115 32.8223 73.2935C32.5345 73.4712 32.306 73.7357 32.1367 74.0869C31.9674 74.4382 31.8828 74.8698 31.8828 75.3818V75.8198C31.8828 76.3065 31.9653 76.7233 32.1304 77.0703C32.2954 77.4131 32.5303 77.6776 32.835 77.8638C33.1396 78.0457 33.4993 78.1367 33.9141 78.1367C34.223 78.1367 34.4917 78.0944 34.7202 78.0098C34.9487 77.9251 35.137 77.8172 35.2852 77.686C35.4333 77.5549 35.5369 77.4215 35.5962 77.2861L35.6216 77.229H36.7261L36.7134 77.2798C36.6541 77.5125 36.5483 77.7389 36.396 77.959C36.2479 78.1748 36.0553 78.3716 35.8184 78.5493C35.5814 78.7228 35.3 78.8625 34.9741 78.9683C34.6525 79.0698 34.2907 79.1206 33.8887 79.1206ZM38.5225 79V72.1572H39.627V73.1729H39.7285C39.8597 72.8132 40.0819 72.5339 40.395 72.335C40.7082 72.1361 41.0954 72.0366 41.5566 72.0366C41.6624 72.0366 41.7661 72.043 41.8677 72.0557C41.9735 72.0641 42.0539 72.0726 42.1089 72.0811V73.1538C41.9946 73.1326 41.8825 73.1178 41.7725 73.1094C41.6667 73.0967 41.5524 73.0903 41.4297 73.0903C41.0785 73.0903 40.7674 73.1602 40.4966 73.2998C40.2257 73.4395 40.012 73.6341 39.8555 73.8838C39.7031 74.1335 39.627 74.4255 39.627 74.7598V79H38.5225ZM49.561 79.0508C48.8586 79.0508 48.3486 78.909 48.0312 78.6255C47.7181 78.342 47.5615 77.8743 47.5615 77.2227V73.0713H46.4824V72.1572H47.5615V70.3862H48.7041V72.1572H50.2021V73.0713H48.7041V76.9434C48.7041 77.3454 48.7803 77.6353 48.9326 77.813C49.085 77.9865 49.3389 78.0732 49.6943 78.0732C49.7917 78.0732 49.8742 78.0711 49.9419 78.0669C50.0138 78.0627 50.1006 78.0563 50.2021 78.0479V78.9873C50.0964 79.0042 49.9906 79.019 49.8848 79.0317C49.779 79.0444 49.6711 79.0508 49.561 79.0508ZM51.916 79V69.4404H53.0205V73.1855H53.1221C53.2956 72.8216 53.5452 72.5402 53.8711 72.3413C54.1969 72.1382 54.6117 72.0366 55.1152 72.0366C55.6273 72.0366 56.061 72.1361 56.4165 72.335C56.772 72.5296 57.0428 72.8153 57.229 73.1919C57.4152 73.5685 57.5083 74.0277 57.5083 74.5693V79H56.4038V74.8359C56.4038 74.2181 56.2726 73.7611 56.0103 73.4648C55.7521 73.1644 55.3501 73.0142 54.8042 73.0142C54.4403 73.0142 54.125 73.0924 53.8584 73.249C53.5918 73.4056 53.3844 73.6278 53.2363 73.9155C53.0924 74.2033 53.0205 74.5482 53.0205 74.9502V79H51.916ZM61.3867 79.1206C60.9551 79.1206 60.5658 79.0381 60.2188 78.873C59.876 78.708 59.603 78.4731 59.3999 78.1685C59.201 77.8638 59.1016 77.5041 59.1016 77.0894V77.0767C59.1016 76.4673 59.3174 75.9912 59.749 75.6484C60.1849 75.3014 60.8006 75.1047 61.5962 75.0581L64.1099 74.9058V75.7881L61.7295 75.9404C61.209 75.9701 60.8281 76.078 60.5869 76.2642C60.3499 76.4504 60.2314 76.7127 60.2314 77.0513V77.064C60.2314 77.411 60.3626 77.6818 60.625 77.8765C60.8874 78.0669 61.2174 78.1621 61.6152 78.1621C61.9919 78.1621 62.3262 78.0881 62.6182 77.9399C62.9102 77.7876 63.1387 77.5824 63.3037 77.3242C63.473 77.0661 63.5576 76.7741 63.5576 76.4482V74.3154C63.5576 73.8923 63.4285 73.5706 63.1704 73.3506C62.9165 73.1263 62.5335 73.0142 62.0215 73.0142C61.611 73.0142 61.2746 73.0882 61.0122 73.2363C60.7498 73.3802 60.5742 73.5854 60.4854 73.8521L60.479 73.8711H59.3745L59.3809 73.833C59.4401 73.4733 59.5882 73.1602 59.8252 72.8936C60.0664 72.6227 60.3774 72.4132 60.7583 72.2651C61.1392 72.1128 61.5729 72.0366 62.0596 72.0366C62.6182 72.0366 63.09 72.1276 63.4751 72.3096C63.8644 72.4915 64.1585 72.7539 64.3574 73.0967C64.5605 73.4352 64.6621 73.8415 64.6621 74.3154V79H63.5576V77.9907H63.4561C63.3122 78.2319 63.1366 78.4372 62.9292 78.6064C62.7261 78.7757 62.4954 78.9048 62.2373 78.9937C61.9792 79.0783 61.6956 79.1206 61.3867 79.1206ZM66.6807 79V72.1572H67.7852V73.1855H67.8867C68.0602 72.8216 68.3099 72.5402 68.6357 72.3413C68.9616 72.1382 69.3763 72.0366 69.8799 72.0366C70.6501 72.0366 71.2404 72.2567 71.6509 72.6968C72.0656 73.1326 72.2729 73.7568 72.2729 74.5693V79H71.1685V74.8359C71.1685 74.2181 71.0373 73.7611 70.7749 73.4648C70.5168 73.1644 70.1147 73.0142 69.5688 73.0142C69.2049 73.0142 68.8896 73.0924 68.623 73.249C68.3564 73.4056 68.1491 73.6278 68.001 73.9155C67.8571 74.2033 67.7852 74.5482 67.7852 74.9502V79H66.6807ZM80.7407 79.1206C80.0933 79.1206 79.5326 78.9788 79.0586 78.6953C78.5889 78.4076 78.2249 77.9992 77.9668 77.4702C77.7129 76.9412 77.5859 76.3128 77.5859 75.585V75.5723C77.5859 74.8402 77.7129 74.2096 77.9668 73.6807C78.2249 73.1517 78.5889 72.7454 79.0586 72.4619C79.5326 72.1784 80.0933 72.0366 80.7407 72.0366C81.3924 72.0366 81.9531 72.1784 82.4229 72.4619C82.8926 72.7454 83.2544 73.1517 83.5083 73.6807C83.7664 74.2096 83.8955 74.8402 83.8955 75.5723V75.585C83.8955 76.3128 83.7664 76.9412 83.5083 77.4702C83.2544 77.9992 82.8926 78.4076 82.4229 78.6953C81.9531 78.9788 81.3924 79.1206 80.7407 79.1206ZM80.7407 78.1431C81.1724 78.1431 81.5384 78.0415 81.8389 77.8384C82.1393 77.6353 82.3678 77.3433 82.5244 76.9624C82.6852 76.5815 82.7656 76.1224 82.7656 75.585V75.5723C82.7656 75.0306 82.6852 74.5693 82.5244 74.1885C82.3678 73.8076 82.1393 73.5177 81.8389 73.3188C81.5384 73.1157 81.1724 73.0142 80.7407 73.0142C80.3091 73.0142 79.943 73.1157 79.6426 73.3188C79.3421 73.5177 79.1115 73.8076 78.9507 74.1885C78.7941 74.5693 78.7158 75.0306 78.7158 75.5723V75.585C78.7158 76.1224 78.7941 76.5815 78.9507 76.9624C79.1115 77.3433 79.3421 77.6353 79.6426 77.8384C79.943 78.0415 80.3091 78.1431 80.7407 78.1431ZM88.0405 79.0508C87.3381 79.0508 86.8281 78.909 86.5107 78.6255C86.1976 78.342 86.041 77.8743 86.041 77.2227V73.0713H84.9619V72.1572H86.041V70.3862H87.1836V72.1572H88.6816V73.0713H87.1836V76.9434C87.1836 77.3454 87.2598 77.6353 87.4121 77.813C87.5645 77.9865 87.8184 78.0732 88.1738 78.0732C88.2712 78.0732 88.3537 78.0711 88.4214 78.0669C88.4933 78.0627 88.5801 78.0563 88.6816 78.0479V78.9873C88.5758 79.0042 88.4701 79.019 88.3643 79.0317C88.2585 79.0444 88.1506 79.0508 88.0405 79.0508ZM90.3955 79V69.4404H91.5V73.1855H91.6016C91.7751 72.8216 92.0247 72.5402 92.3506 72.3413C92.6764 72.1382 93.0911 72.0366 93.5947 72.0366C94.1068 72.0366 94.5405 72.1361 94.896 72.335C95.2515 72.5296 95.5223 72.8153 95.7085 73.1919C95.8947 73.5685 95.9878 74.0277 95.9878 74.5693V79H94.8833V74.8359C94.8833 74.2181 94.7521 73.7611 94.4897 73.4648C94.2316 73.1644 93.8296 73.0142 93.2837 73.0142C92.9198 73.0142 92.6045 73.0924 92.3379 73.249C92.0713 73.4056 91.8639 73.6278 91.7158 73.9155C91.5719 74.2033 91.5 74.5482 91.5 74.9502V79H90.3955ZM100.78 79.1206C100.129 79.1206 99.5679 78.9767 99.0981 78.689C98.6326 78.4012 98.2729 77.995 98.019 77.4702C97.7694 76.9412 97.6445 76.3192 97.6445 75.604V75.5977C97.6445 74.891 97.7694 74.271 98.019 73.7378C98.2729 73.2046 98.6305 72.7878 99.0918 72.4873C99.5531 72.1868 100.093 72.0366 100.71 72.0366C101.333 72.0366 101.866 72.1805 102.31 72.4683C102.759 72.756 103.101 73.158 103.338 73.6743C103.58 74.1864 103.7 74.783 103.7 75.4644V75.896H98.2158V75.0137H103.135L102.589 75.8198V75.3818C102.589 74.8444 102.509 74.4022 102.348 74.0552C102.187 73.7082 101.965 73.45 101.682 73.2808C101.398 73.1073 101.072 73.0205 100.704 73.0205C100.336 73.0205 100.006 73.1115 99.7139 73.2935C99.4261 73.4712 99.1976 73.7357 99.0283 74.0869C98.859 74.4382 98.7744 74.8698 98.7744 75.3818V75.8198C98.7744 76.3065 98.8569 76.7233 99.022 77.0703C99.187 77.4131 99.4219 77.6776 99.7266 77.8638C100.031 78.0457 100.391 78.1367 100.806 78.1367C101.115 78.1367 101.383 78.0944 101.612 78.0098C101.84 77.9251 102.029 77.8172 102.177 77.686C102.325 77.5549 102.429 77.4215 102.488 77.2861L102.513 77.229H103.618L103.605 77.2798C103.546 77.5125 103.44 77.7389 103.288 77.959C103.139 78.1748 102.947 78.3716 102.71 78.5493C102.473 78.7228 102.192 78.8625 101.866 78.9683C101.544 79.0698 101.182 79.1206 100.78 79.1206ZM105.414 79V72.1572H106.519V73.1729H106.62C106.751 72.8132 106.973 72.5339 107.287 72.335C107.6 72.1361 107.987 72.0366 108.448 72.0366C108.554 72.0366 108.658 72.043 108.759 72.0557C108.865 72.0641 108.945 72.0726 109 72.0811V73.1538C108.886 73.1326 108.774 73.1178 108.664 73.1094C108.558 73.0967 108.444 73.0903 108.321 73.0903C107.97 73.0903 107.659 73.1602 107.388 73.2998C107.117 73.4395 106.904 73.6341 106.747 73.8838C106.595 74.1335 106.519 74.4255 106.519 74.7598V79H105.414ZM116.453 79.0508C115.75 79.0508 115.24 78.909 114.923 78.6255C114.61 78.342 114.453 77.8743 114.453 77.2227V73.0713H113.374V72.1572H114.453V70.3862H115.596V72.1572H117.094V73.0713H115.596V76.9434C115.596 77.3454 115.672 77.6353 115.824 77.813C115.977 77.9865 116.23 78.0732 116.586 78.0732C116.683 78.0732 116.766 78.0711 116.833 78.0669C116.905 78.0627 116.992 78.0563 117.094 78.0479V78.9873C116.988 79.0042 116.882 79.019 116.776 79.0317C116.671 79.0444 116.563 79.0508 116.453 79.0508ZM120.064 79L118.147 72.1572H119.252L120.598 77.6289H120.699L122.229 72.1572H123.276L124.806 77.6289H124.908L126.253 72.1572H127.352L125.435 79H124.324L122.794 73.7061H122.692L121.169 79H120.064ZM131.37 79.1206C130.722 79.1206 130.161 78.9788 129.688 78.6953C129.218 78.4076 128.854 77.9992 128.596 77.4702C128.342 76.9412 128.215 76.3128 128.215 75.585V75.5723C128.215 74.8402 128.342 74.2096 128.596 73.6807C128.854 73.1517 129.218 72.7454 129.688 72.4619C130.161 72.1784 130.722 72.0366 131.37 72.0366C132.021 72.0366 132.582 72.1784 133.052 72.4619C133.521 72.7454 133.883 73.1517 134.137 73.6807C134.395 74.2096 134.524 74.8402 134.524 75.5723V75.585C134.524 76.3128 134.395 76.9412 134.137 77.4702C133.883 77.9992 133.521 78.4076 133.052 78.6953C132.582 78.9788 132.021 79.1206 131.37 79.1206ZM131.37 78.1431C131.801 78.1431 132.167 78.0415 132.468 77.8384C132.768 77.6353 132.997 77.3433 133.153 76.9624C133.314 76.5815 133.395 76.1224 133.395 75.585V75.5723C133.395 75.0306 133.314 74.5693 133.153 74.1885C132.997 73.8076 132.768 73.5177 132.468 73.3188C132.167 73.1157 131.801 73.0142 131.37 73.0142C130.938 73.0142 130.572 73.1157 130.271 73.3188C129.971 73.5177 129.74 73.8076 129.58 74.1885C129.423 74.5693 129.345 75.0306 129.345 75.5723V75.585C129.345 76.1224 129.423 76.5815 129.58 76.9624C129.74 77.3433 129.971 77.6353 130.271 77.8384C130.572 78.0415 130.938 78.1431 131.37 78.1431ZM9.34863 95L7.43164 88.1572H8.53613L9.88184 93.6289H9.9834L11.5132 88.1572H12.5605L14.0903 93.6289H14.1919L15.5376 88.1572H16.6357L14.7188 95H13.6079L12.0781 89.7061H11.9766L10.4531 95H9.34863ZM18.1592 95V85.4404H19.2637V89.1855H19.3652C19.5387 88.8216 19.7884 88.5402 20.1143 88.3413C20.4401 88.1382 20.8548 88.0366 21.3584 88.0366C21.8704 88.0366 22.3042 88.1361 22.6597 88.335C23.0151 88.5296 23.286 88.8153 23.4722 89.1919C23.6584 89.5685 23.7515 90.0277 23.7515 90.5693V95H22.647V90.8359C22.647 90.2181 22.5158 89.7611 22.2534 89.4648C21.9953 89.1644 21.5933 89.0142 21.0474 89.0142C20.6834 89.0142 20.3682 89.0924 20.1016 89.249C19.835 89.4056 19.6276 89.6278 19.4795 89.9155C19.3356 90.2033 19.2637 90.5482 19.2637 90.9502V95H18.1592ZM25.7764 95V88.1572H26.8809V95H25.7764ZM26.335 86.8369C26.1276 86.8369 25.9478 86.7629 25.7954 86.6147C25.6473 86.4624 25.5732 86.2826 25.5732 86.0752C25.5732 85.8636 25.6473 85.6838 25.7954 85.5356C25.9478 85.3875 26.1276 85.3135 26.335 85.3135C26.5465 85.3135 26.7264 85.3875 26.8745 85.5356C27.0226 85.6838 27.0967 85.8636 27.0967 86.0752C27.0967 86.2826 27.0226 86.4624 26.8745 86.6147C26.7264 86.7629 26.5465 86.8369 26.335 86.8369ZM31.7622 95.1206C31.1232 95.1206 30.5688 94.9746 30.0991 94.6826C29.6294 94.3906 29.2655 93.978 29.0073 93.4448C28.7492 92.9116 28.6201 92.2832 28.6201 91.5596V91.5469C28.6201 90.8359 28.7471 90.2181 29.001 89.6934C29.2591 89.1686 29.623 88.7624 30.0928 88.4746C30.5625 88.1826 31.1169 88.0366 31.7559 88.0366C32.3102 88.0366 32.7884 88.134 33.1904 88.3286C33.5924 88.5233 33.9141 88.7856 34.1553 89.1157C34.3965 89.4416 34.5509 89.8076 34.6187 90.2139L34.625 90.252H33.5269L33.5205 90.2329C33.4359 89.8944 33.2433 89.6066 32.9429 89.3696C32.6424 89.1326 32.2467 89.0142 31.7559 89.0142C31.3454 89.0142 30.9899 89.1178 30.6895 89.3252C30.389 89.5326 30.1562 89.8267 29.9912 90.2075C29.8304 90.5841 29.75 91.0306 29.75 91.5469V91.5596C29.75 92.0843 29.8325 92.5413 29.9976 92.9307C30.1626 93.3158 30.3953 93.6141 30.6958 93.8257C30.9963 94.0373 31.3496 94.1431 31.7559 94.1431C32.2171 94.1431 32.5938 94.0436 32.8857 93.8447C33.1777 93.6458 33.3872 93.356 33.5142 92.9751L33.5269 92.937L34.6187 92.9307L34.606 93.0005C34.5129 93.411 34.3478 93.777 34.1108 94.0986C33.8739 94.416 33.5607 94.6657 33.1714 94.8477C32.7821 95.0296 32.3123 95.1206 31.7622 95.1206ZM36.3008 95V85.4404H37.4053V89.1855H37.5068C37.6803 88.8216 37.93 88.5402 38.2559 88.3413C38.5817 88.1382 38.9964 88.0366 39.5 88.0366C40.012 88.0366 40.4458 88.1361 40.8013 88.335C41.1567 88.5296 41.4276 88.8153 41.6138 89.1919C41.8 89.5685 41.8931 90.0277 41.8931 90.5693V95H40.7886V90.8359C40.7886 90.2181 40.6574 89.7611 40.395 89.4648C40.1369 89.1644 39.7349 89.0142 39.189 89.0142C38.825 89.0142 38.5098 89.0924 38.2432 89.249C37.9766 89.4056 37.7692 89.6278 37.6211 89.9155C37.4772 90.2033 37.4053 90.5482 37.4053 90.9502V95H36.3008ZM49.4277 95.1206C48.9961 95.1206 48.6068 95.0381 48.2598 94.873C47.917 94.708 47.644 94.4731 47.4409 94.1685C47.242 93.8638 47.1426 93.5041 47.1426 93.0894V93.0767C47.1426 92.4673 47.3584 91.9912 47.79 91.6484C48.2259 91.3014 48.8416 91.1047 49.6372 91.0581L52.1509 90.9058V91.7881L49.7705 91.9404C49.25 91.9701 48.8691 92.078 48.6279 92.2642C48.391 92.4504 48.2725 92.7127 48.2725 93.0513V93.064C48.2725 93.411 48.4036 93.6818 48.666 93.8765C48.9284 94.0669 49.2585 94.1621 49.6562 94.1621C50.0329 94.1621 50.3672 94.0881 50.6592 93.9399C50.9512 93.7876 51.1797 93.5824 51.3447 93.3242C51.514 93.0661 51.5986 92.7741 51.5986 92.4482V90.3154C51.5986 89.8923 51.4696 89.5706 51.2114 89.3506C50.9575 89.1263 50.5745 89.0142 50.0625 89.0142C49.652 89.0142 49.3156 89.0882 49.0532 89.2363C48.7909 89.3802 48.6152 89.5854 48.5264 89.8521L48.52 89.8711H47.4155L47.4219 89.833C47.4811 89.4733 47.6292 89.1602 47.8662 88.8936C48.1074 88.6227 48.4185 88.4132 48.7993 88.2651C49.1802 88.1128 49.6139 88.0366 50.1006 88.0366C50.6592 88.0366 51.131 88.1276 51.5161 88.3096C51.9054 88.4915 52.1995 88.7539 52.3984 89.0967C52.6016 89.4352 52.7031 89.8415 52.7031 90.3154V95H51.5986V93.9907H51.4971C51.3532 94.2319 51.1776 94.4372 50.9702 94.6064C50.7671 94.7757 50.5365 94.9048 50.2783 94.9937C50.0202 95.0783 49.7367 95.1206 49.4277 95.1206ZM54.7217 95V88.1572H55.8262V89.1982H55.9277C56.0801 88.8301 56.3128 88.5444 56.626 88.3413C56.9434 88.1382 57.3263 88.0366 57.7749 88.0366C58.0838 88.0366 58.361 88.0874 58.6064 88.189C58.8519 88.2905 59.0635 88.4323 59.2412 88.6143C59.4189 88.792 59.5607 88.9993 59.6665 89.2363H59.7681C59.8908 88.9951 60.0558 88.7856 60.2632 88.6079C60.4705 88.4259 60.7096 88.2863 60.9805 88.189C61.2555 88.0874 61.5496 88.0366 61.8628 88.0366C62.3283 88.0366 62.7218 88.1234 63.0435 88.2969C63.3693 88.4704 63.6169 88.7243 63.7861 89.0586C63.9554 89.3887 64.04 89.7928 64.04 90.271V95H62.9355V90.5249C62.9355 90.0213 62.8171 89.6447 62.5801 89.395C62.3473 89.1411 61.9897 89.0142 61.5073 89.0142C61.1899 89.0142 60.9128 89.0861 60.6758 89.23C60.4388 89.3739 60.2547 89.5664 60.1235 89.8076C59.9924 90.0446 59.9268 90.3091 59.9268 90.6011V95H58.8223V90.3535C58.8223 89.9473 58.6932 89.6235 58.4351 89.3823C58.1769 89.1369 57.832 89.0142 57.4004 89.0142C57.1042 89.0142 56.8354 89.0924 56.5942 89.249C56.3573 89.4056 56.1689 89.6172 56.0293 89.8838C55.8939 90.1462 55.8262 90.4382 55.8262 90.7598V95H54.7217ZM67.9121 95.1206C67.4805 95.1206 67.0911 95.0381 66.7441 94.873C66.4014 94.708 66.1284 94.4731 65.9253 94.1685C65.7264 93.8638 65.627 93.5041 65.627 93.0894V93.0767C65.627 92.4673 65.8428 91.9912 66.2744 91.6484C66.7103 91.3014 67.326 91.1047 68.1216 91.0581L70.6353 90.9058V91.7881L68.2549 91.9404C67.7344 91.9701 67.3535 92.078 67.1123 92.2642C66.8753 92.4504 66.7568 92.7127 66.7568 93.0513V93.064C66.7568 93.411 66.888 93.6818 67.1504 93.8765C67.4128 94.0669 67.7428 94.1621 68.1406 94.1621C68.5173 94.1621 68.8516 94.0881 69.1436 93.9399C69.4355 93.7876 69.6641 93.5824 69.8291 93.3242C69.9984 93.0661 70.083 92.7741 70.083 92.4482V90.3154C70.083 89.8923 69.9539 89.5706 69.6958 89.3506C69.4419 89.1263 69.0589 89.0142 68.5469 89.0142C68.1364 89.0142 67.8 89.0882 67.5376 89.2363C67.2752 89.3802 67.0996 89.5854 67.0107 89.8521L67.0044 89.8711H65.8999L65.9062 89.833C65.9655 89.4733 66.1136 89.1602 66.3506 88.8936C66.5918 88.6227 66.9028 88.4132 67.2837 88.2651C67.6646 88.1128 68.0983 88.0366 68.585 88.0366C69.1436 88.0366 69.6154 88.1276 70.0005 88.3096C70.3898 88.4915 70.6839 88.7539 70.8828 89.0967C71.0859 89.4352 71.1875 89.8415 71.1875 90.3154V95H70.083V93.9907H69.9814C69.8376 94.2319 69.6619 94.4372 69.4546 94.6064C69.2515 94.7757 69.0208 94.9048 68.7627 94.9937C68.5046 95.0783 68.221 95.1206 67.9121 95.1206ZM73.0474 95V94.2002L76.9956 89.1729V89.0713H73.0537V88.1572H78.2969V88.9761L74.3677 93.9844V94.0859H78.3159V95H73.0474ZM82.8164 95.1206C82.1647 95.1206 81.604 94.9767 81.1343 94.689C80.6688 94.4012 80.3091 93.995 80.0552 93.4702C79.8055 92.9412 79.6807 92.3192 79.6807 91.604V91.5977C79.6807 90.891 79.8055 90.271 80.0552 89.7378C80.3091 89.2046 80.6667 88.7878 81.1279 88.4873C81.5892 88.1868 82.1287 88.0366 82.7466 88.0366C83.3687 88.0366 83.9019 88.1805 84.3462 88.4683C84.7948 88.756 85.1375 89.158 85.3745 89.6743C85.6157 90.1864 85.7363 90.783 85.7363 91.4644V91.896H80.252V91.0137H85.1714L84.6255 91.8198V91.3818C84.6255 90.8444 84.5451 90.4022 84.3843 90.0552C84.2235 89.7082 84.0013 89.45 83.7178 89.2808C83.4342 89.1073 83.1084 89.0205 82.7402 89.0205C82.3721 89.0205 82.042 89.1115 81.75 89.2935C81.4622 89.4712 81.2337 89.7357 81.0645 90.0869C80.8952 90.4382 80.8105 90.8698 80.8105 91.3818V91.8198C80.8105 92.3065 80.8931 92.7233 81.0581 93.0703C81.2231 93.4131 81.458 93.6776 81.7627 93.8638C82.0674 94.0457 82.4271 94.1367 82.8418 94.1367C83.1507 94.1367 83.4194 94.0944 83.6479 94.0098C83.8765 93.9251 84.0648 93.8172 84.2129 93.686C84.361 93.5549 84.4647 93.4215 84.5239 93.2861L84.5493 93.229H85.6538L85.6411 93.2798C85.5819 93.5125 85.4761 93.7389 85.3237 93.959C85.1756 94.1748 84.9831 94.3716 84.7461 94.5493C84.5091 94.7228 84.2277 94.8625 83.9019 94.9683C83.5802 95.0698 83.2184 95.1206 82.8164 95.1206ZM89.7988 95.1206C89.291 95.1206 88.8424 95.0444 88.4531 94.8921C88.0638 94.7355 87.7507 94.5176 87.5137 94.2383C87.2809 93.959 87.1434 93.631 87.1011 93.2544H88.231C88.3241 93.5379 88.506 93.7664 88.7769 93.9399C89.0477 94.1134 89.401 94.2002 89.8369 94.2002C90.1458 94.2002 90.4167 94.1558 90.6494 94.0669C90.8864 93.9738 91.0726 93.849 91.208 93.6924C91.3434 93.5316 91.4111 93.3475 91.4111 93.1401V93.1274C91.4111 92.8947 91.318 92.6979 91.1318 92.5371C90.9456 92.3721 90.641 92.2388 90.2178 92.1372L89.1577 91.8833C88.5187 91.731 88.049 91.5088 87.7485 91.2168C87.4481 90.9206 87.2979 90.527 87.2979 90.0361V90.0298C87.2979 89.6489 87.4079 89.3083 87.6279 89.0078C87.8522 88.7074 88.1569 88.4704 88.542 88.2969C88.9271 88.1234 89.3608 88.0366 89.8433 88.0366C90.3215 88.0366 90.7446 88.1128 91.1128 88.2651C91.4852 88.4132 91.7835 88.6248 92.0078 88.8999C92.2363 89.175 92.376 89.4987 92.4268 89.8711H91.3413C91.2694 89.6003 91.1043 89.3802 90.8462 89.2109C90.5881 89.0417 90.2516 88.957 89.8369 88.957C89.5661 88.957 89.3249 89.0015 89.1133 89.0903C88.9017 89.175 88.7345 89.2935 88.6118 89.4458C88.4891 89.5981 88.4277 89.7759 88.4277 89.979V89.9917C88.4277 90.2244 88.5187 90.417 88.7007 90.5693C88.8826 90.7217 89.1746 90.8465 89.5767 90.9438L90.6304 91.1978C91.2736 91.3543 91.7518 91.5786 92.0649 91.8706C92.3823 92.1626 92.541 92.554 92.541 93.0449V93.0576C92.541 93.4639 92.4204 93.8236 92.1792 94.1367C91.938 94.4456 91.61 94.6868 91.1953 94.8604C90.7848 95.0339 90.3193 95.1206 89.7988 95.1206ZM97.9111 95V88.1572H99.0156V89.1982H99.1172C99.2695 88.8301 99.5023 88.5444 99.8154 88.3413C100.133 88.1382 100.516 88.0366 100.964 88.0366C101.273 88.0366 101.55 88.0874 101.796 88.189C102.041 88.2905 102.253 88.4323 102.431 88.6143C102.608 88.792 102.75 88.9993 102.856 89.2363H102.958C103.08 88.9951 103.245 88.7856 103.453 88.6079C103.66 88.4259 103.899 88.2863 104.17 88.189C104.445 88.0874 104.739 88.0366 105.052 88.0366C105.518 88.0366 105.911 88.1234 106.233 88.2969C106.559 88.4704 106.806 88.7243 106.976 89.0586C107.145 89.3887 107.229 89.7928 107.229 90.271V95H106.125V90.5249C106.125 90.0213 106.007 89.6447 105.77 89.395C105.537 89.1411 105.179 89.0142 104.697 89.0142C104.379 89.0142 104.102 89.0861 103.865 89.23C103.628 89.3739 103.444 89.5664 103.313 89.8076C103.182 90.0446 103.116 90.3091 103.116 90.6011V95H102.012V90.3535C102.012 89.9473 101.883 89.6235 101.625 89.3823C101.366 89.1369 101.021 89.0142 100.59 89.0142C100.294 89.0142 100.025 89.0924 99.7837 89.249C99.5467 89.4056 99.3584 89.6172 99.2188 89.8838C99.0833 90.1462 99.0156 90.4382 99.0156 90.7598V95H97.9111ZM112.016 95.1206C111.364 95.1206 110.803 94.9767 110.333 94.689C109.868 94.4012 109.508 93.995 109.254 93.4702C109.005 92.9412 108.88 92.3192 108.88 91.604V91.5977C108.88 90.891 109.005 90.271 109.254 89.7378C109.508 89.2046 109.866 88.7878 110.327 88.4873C110.788 88.1868 111.328 88.0366 111.946 88.0366C112.568 88.0366 113.101 88.1805 113.545 88.4683C113.994 88.756 114.337 89.158 114.574 89.6743C114.815 90.1864 114.936 90.783 114.936 91.4644V91.896H109.451V91.0137H114.371L113.825 91.8198V91.3818C113.825 90.8444 113.744 90.4022 113.583 90.0552C113.423 89.7082 113.201 89.45 112.917 89.2808C112.633 89.1073 112.308 89.0205 111.939 89.0205C111.571 89.0205 111.241 89.1115 110.949 89.2935C110.661 89.4712 110.433 89.7357 110.264 90.0869C110.094 90.4382 110.01 90.8698 110.01 91.3818V91.8198C110.01 92.3065 110.092 92.7233 110.257 93.0703C110.422 93.4131 110.657 93.6776 110.962 93.8638C111.267 94.0457 111.626 94.1367 112.041 94.1367C112.35 94.1367 112.619 94.0944 112.847 94.0098C113.076 93.9251 113.264 93.8172 113.412 93.686C113.56 93.5549 113.664 93.4215 113.723 93.2861L113.749 93.229H114.853L114.84 93.2798C114.781 93.5125 114.675 93.7389 114.523 93.959C114.375 94.1748 114.182 94.3716 113.945 94.5493C113.708 94.7228 113.427 94.8625 113.101 94.9683C112.779 95.0698 112.418 95.1206 112.016 95.1206ZM117.551 95.0635C117.326 95.0635 117.132 94.9831 116.967 94.8223C116.806 94.6572 116.726 94.4626 116.726 94.2383C116.726 94.0098 116.806 93.8151 116.967 93.6543C117.132 93.4935 117.326 93.4131 117.551 93.4131C117.779 93.4131 117.974 93.4935 118.135 93.6543C118.296 93.8151 118.376 94.0098 118.376 94.2383C118.376 94.4626 118.296 94.6572 118.135 94.8223C117.974 94.9831 117.779 95.0635 117.551 95.0635Z" fill="black"/>
</g>
<defs>
<clipPath id="clip0_965_12">
<rect width="161" height="116" rx="8" fill="white"/>
</clipPath>
</defs>
</svg>
