<svg width="195" height="139" viewBox="0 0 195 139" fill="none" xmlns="http://www.w3.org/2000/svg">
<path d="M18.7107 25.1227C25.5908 25.1227 31.1682 19.4988 31.1682 12.5614C31.1682 5.62392 25.5908 0 18.7107 0C11.8306 0 6.25317 5.62392 6.25317 12.5614C6.25317 19.4988 11.8306 25.1227 18.7107 25.1227Z" fill="#097AFB"/>
<path d="M24.2183 31.2336H13.2021C5.91154 31.2336 0 37.1929 0 44.5468V63H37.4204V44.5468C37.4204 37.1929 31.5088 31.2336 24.2183 31.2336Z" fill="#097AFB"/>
<path d="M71.1311 25.1227C78.0112 25.1227 83.5886 19.4988 83.5886 12.5614C83.5886 5.62392 78.0112 0 71.1311 0C64.251 0 58.6736 5.62392 58.6736 12.5614C58.6736 19.4988 64.251 25.1227 71.1311 25.1227Z" fill="#097AFB"/>
<path d="M76.6387 31.2336H65.6225C58.3319 31.2336 52.4204 37.1929 52.4204 44.5468V63H89.8408V44.5468C89.8408 37.1929 83.9292 31.2336 76.6387 31.2336Z" fill="#097AFB"/>
<path d="M123.551 25.1227C130.432 25.1227 136.009 19.4988 136.009 12.5614C136.009 5.62392 130.432 0 123.551 0C116.671 0 111.094 5.62392 111.094 12.5614C111.094 19.4988 116.671 25.1227 123.551 25.1227Z" fill="#097AFB"/>
<path d="M129.059 31.2336H118.043C110.752 31.2336 104.841 37.1929 104.841 44.5468V63H142.261V44.5468C142.261 37.1929 136.35 31.2336 129.059 31.2336Z" fill="#097AFB"/>
<path d="M175.972 25.1227C182.852 25.1227 188.429 19.4988 188.429 12.5614C188.429 5.62392 182.852 0 175.972 0C169.092 0 163.514 5.62392 163.514 12.5614C163.514 19.4988 169.092 25.1227 175.972 25.1227Z" fill="#010002"/>
<path d="M181.479 31.2336H170.463C163.173 31.2336 157.261 37.1929 157.261 44.5468V63H194.681V44.5468C194.681 37.1929 188.77 31.2336 181.479 31.2336Z" fill="#010002"/>
<path d="M18.7107 101.123C25.5908 101.123 31.1682 95.4988 31.1682 88.5614C31.1682 81.6239 25.5908 76 18.7107 76C11.8306 76 6.25317 81.6239 6.25317 88.5614C6.25317 95.4988 11.8306 101.123 18.7107 101.123Z" fill="#097AFB"/>
<path d="M24.2183 107.234H13.2021C5.91154 107.234 0 113.193 0 120.547V139H37.4204V120.547C37.4204 113.193 31.5088 107.234 24.2183 107.234Z" fill="#097AFB"/>
<path d="M71.1311 101.123C78.0112 101.123 83.5886 95.4988 83.5886 88.5614C83.5886 81.6239 78.0112 76 71.1311 76C64.251 76 58.6736 81.6239 58.6736 88.5614C58.6736 95.4988 64.251 101.123 71.1311 101.123Z" fill="#097AFB"/>
<path d="M76.6387 107.234H65.6225C58.3319 107.234 52.4204 113.193 52.4204 120.547V139H89.8408V120.547C89.8408 113.193 83.9292 107.234 76.6387 107.234Z" fill="#097AFB"/>
<path d="M123.551 101.123C130.432 101.123 136.009 95.4988 136.009 88.5614C136.009 81.6239 130.432 76 123.551 76C116.671 76 111.094 81.6239 111.094 88.5614C111.094 95.4988 116.671 101.123 123.551 101.123Z" fill="#097AFB"/>
<path d="M129.059 107.234H118.043C110.752 107.234 104.841 113.193 104.841 120.547V139H142.261V120.547C142.261 113.193 136.35 107.234 129.059 107.234Z" fill="#097AFB"/>
<path d="M175.972 101.123C182.852 101.123 188.429 95.4988 188.429 88.5614C188.429 81.6239 182.852 76 175.972 76C169.092 76 163.514 81.6239 163.514 88.5614C163.514 95.4988 169.092 101.123 175.972 101.123Z" fill="#010002"/>
<path d="M181.479 107.234H170.463C163.173 107.234 157.261 113.193 157.261 120.547V139H194.681V120.547C194.681 113.193 188.77 107.234 181.479 107.234Z" fill="#010002"/>
</svg>
