<svg width="2451" height="1249" viewBox="0 0 2451 1249" fill="none" xmlns="http://www.w3.org/2000/svg">
<rect width="2451" height="1249" fill="white"/>
<g filter="url(#filter0_bd_1003_4)">
<rect x="28" y="58" width="574" height="537" fill="#F1F2F5"/>
</g>
<g filter="url(#filter1_bd_1003_4)">
<rect x="621" y="58" width="574" height="537" fill="#F1F2F5"/>
</g>
<g filter="url(#filter2_bd_1003_4)">
<rect x="1215" y="58" width="574" height="537" fill="#F1F2F5"/>
</g>
<g filter="url(#filter3_bd_1003_4)">
<rect x="1808" y="58" width="574" height="537" fill="#F1F2F5"/>
</g>
<g filter="url(#filter4_bd_1003_4)">
<rect x="28" y="654" width="574" height="537" fill="#F1F2F5"/>
</g>
<g filter="url(#filter5_bd_1003_4)">
<rect x="621" y="654" width="574" height="537" fill="#F1F2F5"/>
</g>
<g filter="url(#filter6_bd_1003_4)">
<rect x="1215" y="654" width="574" height="537" fill="#F1F2F5"/>
</g>
<g filter="url(#filter7_bd_1003_4)">
<rect x="1808" y="654" width="574" height="537" fill="#F1F2F5"/>
</g>
<path d="M345.058 488.389C349.24 488.389 348.87 488.299 345.058 486.605C337.551 483.269 330.968 479.806 323.39 475.389C293.298 457.848 262.236 443.041 232.13 425.935C213.17 415.163 207.499 408.161 196.442 386.933C193.235 380.774 169.091 340.653 175.794 330.597C188.207 311.979 207.893 295.062 221.679 277.83C225.763 272.725 228.407 272.155 234.425 268.143C262.501 249.425 294.739 237.356 325.429 223.406C333.305 219.826 346.681 233.378 353.215 237.298C368.247 246.317 383.684 254.048 398.972 262.28C410.317 268.389 413.917 261.239 424.209 254.378C445.186 240.393 466.553 225.827 486.025 209.895C491.499 205.416 496.477 206.201 496.477 198.042C496.477 190.609 494.716 176.801 488.447 171.785C483.602 167.909 487.512 162.608 479.27 162.608C473.535 162.608 456.328 162.608 462.063 162.608C481.554 162.608 504.691 163.556 521.713 173.57C530.739 178.879 534.769 195.913 537.773 204.924C542.426 218.882 546.707 232.939 551.029 246.985C554.324 257.696 541.661 273.275 537.263 281.908C529.014 298.102 522.448 317.551 512.027 332.382C503.872 343.986 492.84 352.239 485.006 363.991C476.121 377.318 474.378 380.522 481.564 396.493C486.56 407.594 513.483 469.208 493.8 478.065C477.579 485.365 454.522 495.272 436.827 495.272C426.734 495.272 415.137 489.642 408.149 482.654C402.422 476.927 400.568 466.943 394.384 462.133C387.901 457.091 355.597 477.384 347.352 481.507" stroke="black" stroke-width="3" stroke-linecap="round"/>
<path d="M257.877 380.56C257.556 378.32 256.697 387.122 262.465 387.443C271.941 387.969 267.73 373.656 265.269 368.834C256.737 352.112 244.84 393.839 264.759 380.56" stroke="black" stroke-width="3" stroke-linecap="round"/>
<path d="M257.877 398.914C257.877 405.465 264.409 409.907 270.622 407.836C291.533 400.866 302.111 378.677 291.78 357.618C282.346 338.387 255.191 330.479 239.523 346.147C226.222 359.447 222.401 375.685 225.757 393.306C233.396 433.408 292.456 409.961 302.614 384.002C310.603 363.585 305.31 345.25 282.731 340.411C252.908 334.021 222.398 334.186 216.581 369.089" stroke="black" stroke-width="3" stroke-linecap="round"/>
<path d="M397.825 346.147C414.217 364.588 414.365 315.842 402.414 327.793C390.849 339.357 405.23 347.84 411.591 333.529C420.456 313.582 394.041 328.895 401.267 334.676C411.063 342.513 418.959 311.41 397.825 325.499" stroke="black" stroke-width="3" stroke-linecap="round"/>
<path d="M393.236 373.678C393.236 380.778 399.656 384.433 406.491 383.62C431.782 380.609 450.708 359.008 448.043 333.019C445.18 305.104 426.388 296.075 400.119 298.096C375.996 299.951 361.818 321.479 359.332 343.853C352.758 403.024 444.063 378.292 458.494 341.559C466.59 320.951 447.112 303.67 427.394 302.684C390.112 300.82 371.312 335.191 363.411 366.795" stroke="black" stroke-width="3" stroke-linecap="round"/>
<path d="M306.056 263.554C312.725 264.388 313.226 273.281 320.841 263.427C324.543 258.636 326.364 247.698 316.38 249.916C311.592 250.98 310.424 257.296 310.644 261.26C311.256 272.268 318.842 262.897 322.115 261.26" stroke="black" stroke-width="3" stroke-linecap="round"/>
<path d="M310.644 293.379C310.644 297.823 314.321 303.636 319.439 302.173C338.541 296.716 348.566 279.441 347.224 259.985C344 213.236 281.207 231.251 277.505 268.27C273.393 309.392 326.196 318.471 345.058 285.986C355.785 267.512 352.484 241.023 329.508 233.729C303.857 225.586 293.097 244.266 287.702 265.848" stroke="black" stroke-width="3" stroke-linecap="round"/>
<path d="M666.25 155.725C666.716 151.993 672.605 153.509 675.427 153.431C705.392 152.598 736.524 151.327 766.304 147.695C793.112 144.426 821.074 146.548 848.004 146.548C871.835 146.548 895.331 144.707 919.125 144.126C970.579 142.871 1021.47 137.371 1072.84 137.371C1105.15 137.371 1121.64 155.579 1125.22 187.844C1127.16 205.297 1131.98 222.438 1131.98 240.102C1131.98 252.479 1130.39 265.673 1134.27 277.319" stroke="black" stroke-width="3" stroke-linecap="round"/>
<path d="M673.133 162.608C667.727 157.878 654.385 163.898 654.779 171.785C656.069 197.584 661.062 223.482 661.662 249.279C661.821 256.111 662.972 267.358 665.103 273.751C667.427 280.722 664.709 288.242 666.76 295.163C669.74 305.22 670.026 322.873 668.417 301.154C666.184 271.008 657.073 242.345 657.073 212.061C657.073 203.382 656.291 179.705 662.936 173.059C670.693 165.303 699.821 163.317 709.713 162.735C752.098 160.242 794.04 156.01 836.788 155.725C891.641 155.359 945.837 151.137 1000.7 151.137C1035.52 151.137 1071.4 153.431 1105.6 153.431C1132.57 153.431 1126.65 219.428 1130.83 236.151C1135.04 252.984 1139.83 269.215 1145.74 285.477C1148.84 293.997 1151.03 312.982 1145.74 320.91" stroke="black" stroke-width="3" stroke-linecap="round"/>
<path d="M693.781 233.729C693.781 245.022 712.585 250.314 721.312 248.004C732.557 245.028 742.667 229.287 738.518 217.67C732.033 199.51 704.807 179.009 690.977 203.904C686.592 211.797 681.782 225.03 686.388 233.729C690.1 240.74 705.369 249.126 713.282 247.367C723.151 245.174 737.371 240.306 737.371 227.866C737.371 218.985 735.478 199.316 723.606 199.316" stroke="black" stroke-width="3" stroke-linecap="round"/>
<path d="M700.663 224.553C701.098 221.074 716.234 209.885 719.017 208.493" stroke="black" stroke-width="3" stroke-linecap="round"/>
<path d="M709.84 208.492C719.852 208.492 725.899 206.347 725.899 219.964" stroke="black" stroke-width="3" stroke-linecap="round"/>
<path d="M801.609 206.198C790.256 206.198 773.075 208.302 769.49 221.748C766.676 232.301 786.487 231.435 792.432 231.435C820.025 231.435 792.824 242.906 778.667 242.906" stroke="black" stroke-width="3" stroke-linecap="round"/>
<path d="M817.67 224.552C832.404 224.552 828.537 209.096 817.67 219.963C806.783 230.85 830.414 231.435 836.023 231.435" stroke="black" stroke-width="3" stroke-linecap="round"/>
<path d="M849.788 217.67C849.788 208.735 840.012 214.463 837.17 219.199C835.274 222.36 831.225 235.323 839.337 230.161C842.576 228.1 843.763 224.455 846.475 222.131C855.599 214.31 841.829 230.759 850.936 225.7C854.357 223.799 861.402 214.153 863.426 221.239C866.185 230.895 872.221 214.243 873.241 211.297C876.493 201.9 871.215 217.653 875.025 221.239C878.187 224.215 881.332 217.305 882.417 215.376C884.35 211.939 885.832 218.149 887.006 219.454C892.427 225.478 897.654 220.591 900.261 215.376" stroke="black" stroke-width="3" stroke-linecap="round"/>
<path d="M911.732 201.61C912.773 192.248 921.124 192.31 918.105 202.12C916.769 206.465 916.461 209.603 916.321 214.101C916.1 221.163 912.782 216.59 914.536 213.082C916.606 208.943 931.361 202.568 931.361 210.787C931.361 217.124 916.335 219.964 911.732 219.964" stroke="black" stroke-width="3" stroke-linecap="round"/>
<path d="M927.792 208.492C937.485 207.281 926.934 211.889 932.763 218.689C938.171 224.998 949.007 197.243 948.44 222.768C948.351 226.786 936.807 257.778 933.655 246.22C930.576 234.93 943.265 224.943 950.734 219.963" stroke="black" stroke-width="3" stroke-linecap="round"/>
<path d="M996.62 199.316C984.857 198.009 975.746 201.118 973.677 217.67C972.729 225.256 988.717 223.448 992.031 224.552" stroke="black" stroke-width="3" stroke-linecap="round"/>
<path d="M1005.8 215.375C1005.26 211.072 997.003 222.258 1008.09 222.258C1022.27 222.258 1011.2 198.5 998.913 210.787" stroke="black" stroke-width="3" stroke-linecap="round"/>
<path d="M1021.86 208.492C1032.3 208.492 1021.44 224.83 1028.74 212.061C1034.22 202.475 1034.64 219.368 1036.77 217.669C1043.87 211.985 1040.01 204.52 1046.58 217.669C1047.18 218.857 1056.27 200.427 1056.27 213.081C1056.27 229.212 1061.73 208.747 1064.3 208.747C1068.29 208.747 1064.71 228.569 1073.6 210.787C1077.98 202.025 1077.1 224.693 1083.29 207.983C1084.23 205.432 1086.68 192.531 1085.58 194.727C1082.85 200.199 1082.51 207.054 1081.51 213.081" stroke="black" stroke-width="3" stroke-linecap="round"/>
<path d="M1076.92 201.61C1074.34 198.66 1087.04 193.81 1090.56 194.982C1090.93 195.107 1102.15 212.648 1102.15 199.315C1102.15 195.368 1099.25 195.478 1096.55 197.021C1094.01 198.472 1095.27 204.765 1095.27 207.345C1095.27 216.421 1106.25 212.479 1111.33 210.786" stroke="black" stroke-width="3" stroke-linecap="round"/>
<path d="M659.367 353.029C658.88 349.135 645.316 360.979 648.405 369.089C653.567 382.639 650.19 400.49 650.19 414.973" stroke="black" stroke-width="3" stroke-linecap="round"/>
<path d="M668.544 353.029C736.535 353.029 804.654 350.735 872.731 350.735C922.516 350.735 972.742 346.146 1022.37 346.146C1044.66 346.146 1066.78 343.852 1089.28 343.852C1098.63 343.852 1125.79 338.943 1132.49 345.637C1137.5 350.647 1134.27 369.297 1134.27 376.099C1134.27 391.582 1131.98 406.374 1131.98 421.856" stroke="black" stroke-width="3" stroke-linecap="round"/>
<path d="M657.073 426.444C764.143 426.444 871.155 431.033 978.266 431.033C1024.35 431.033 1070.13 428.739 1115.92 428.739" stroke="black" stroke-width="3" stroke-linecap="round"/>
<path d="M645.602 453.976C655.887 465.546 654.778 490.455 654.778 504.449" stroke="black" stroke-width="3" stroke-linecap="round"/>
<path d="M657.073 444.798C693.569 444.798 730.064 444.798 766.559 444.798C812.069 444.798 857.162 441.197 902.556 440.21C931.463 439.582 959.707 440.21 988.59 440.21C1010.48 440.21 1032.43 442.504 1054.49 442.504C1073.59 442.504 1122.77 433.127 1131.47 452.701C1135.2 461.092 1138.23 481.81 1135.42 490.811C1132.38 500.543 1131.98 512.566 1131.98 522.802" stroke="black" stroke-width="3" stroke-linecap="round"/>
<path d="M657.073 522.803C718.712 522.803 780.27 527.391 841.886 527.391C895.346 527.391 948.218 535.372 1001.46 536.568C1038.83 537.408 1076.14 538.862 1113.63 538.862" stroke="black" stroke-width="3" stroke-linecap="round"/>
<path d="M677.721 479.212C678.43 485.593 684.507 482.622 687.407 479.722C694.213 472.916 682.843 466.059 682.309 480.996C681.786 495.636 692.388 492.075 700.153 484.31C709.475 474.988 705.281 485.586 714.428 486.094C719.699 486.387 723.738 473.92 727.684 477.427C729.992 479.478 732.408 492.332 737.371 487.369C739.569 485.17 748.459 461.129 742.469 461.877C737.667 462.478 747.297 483.777 748.842 486.094" stroke="black" stroke-width="3" stroke-linecap="round"/>
<path d="M748.842 483.8C753.704 483.26 760.058 480.689 760.058 474.878C760.058 471.245 758.679 484.354 762.097 485.585C768.961 488.056 767.064 479.212 772.931 479.212C780.565 479.212 778.667 487.578 778.667 492.977" stroke="black" stroke-width="3" stroke-linecap="round"/>
<path d="M801.609 474.623C802.09 471.26 803.904 483.771 803.904 486.094" stroke="black" stroke-width="3" stroke-linecap="round"/>
<path d="M803.903 488.389C806.033 488.123 811.71 484.366 813.08 482.653C816.431 478.465 820.407 488.869 817.669 492.977" stroke="black" stroke-width="3" stroke-linecap="round"/>
<path d="M826.846 488.389C827.491 493.552 833.224 485.939 836.023 486.094C839.296 486.276 842.067 493.859 845.2 492.467C847.926 491.256 855.136 483.617 858.455 486.604C860.627 488.559 860.64 496.374 863.553 496.546C872.55 497.075 877.123 482.977 876.809 483.29C867.57 492.53 882.917 495.271 888.79 495.271" stroke="black" stroke-width="3" stroke-linecap="round"/>
<path d="M689.192 382.855C689.192 392.157 687.289 401.557 684.731 410.513C681.773 420.866 687.382 388.106 693.908 379.541C698.633 373.339 724.023 363.381 720.801 378.776C718.863 388.036 709.24 396.055 700.663 398.914" stroke="black" stroke-width="3" stroke-linecap="round"/>
<path d="M719.018 394.326C725.173 394.326 729.924 395.001 732.273 387.953C733.159 385.295 724.383 396.648 726.41 401.208C729.178 407.436 739.582 401.972 741.96 398.404C745.213 393.524 746.988 383.176 752.411 385.149C756.921 386.788 762.923 393.328 760.314 397.894C755.869 405.672 763.939 404.21 768.216 399.934C772.479 395.671 776.373 385.761 776.373 379.668C776.373 373.207 778.668 392.453 778.668 398.914" stroke="black" stroke-width="3" stroke-linecap="round"/>
<path d="M769.49 389.737C776.621 388.945 782.796 383.874 790.393 383.874C796.932 383.874 792.433 392.152 792.433 396.62" stroke="black" stroke-width="3" stroke-linecap="round"/>
<path d="M799.315 389.737C799.315 398.35 806.331 391.959 810.277 389.228C819.651 382.737 823.814 396.147 832.582 394.198C837.455 393.115 838.295 377.848 834.876 384.002C833.984 385.608 832.605 389.888 834.239 391.522C835.735 393.018 838.104 386.463 838.827 385.659C844.002 379.909 842.383 389.25 847.494 391.522C852.287 393.652 854.377 372.13 854.377 377.374C854.377 381.412 856.082 392.865 862.407 390.757C869.715 388.321 868.142 384.092 868.142 394.326" stroke="black" stroke-width="3" stroke-linecap="round"/>
<path d="M868.143 373.678V375.972" stroke="black" stroke-width="3" stroke-linecap="round"/>
<path d="M872.731 382.854C872.731 387.103 879.359 392.701 879.359 386.295C879.359 378.246 873.169 381.05 870.437 385.148" stroke="black" stroke-width="3" stroke-linecap="round"/>
<path d="M877.319 387.443C883.736 387.443 884.314 394.637 886.496 394.325C898.726 392.578 900.975 378.902 907.144 394.325" stroke="black" stroke-width="3" stroke-linecap="round"/>
<path d="M925.498 385.149C928.684 385.149 929.787 384.584 932.381 382.854" stroke="black" stroke-width="3" stroke-linecap="round"/>
<path d="M1269.63 137.372C1269.63 94.5696 1262.97 222.792 1262.75 265.594C1262.59 296.29 1265.04 326.685 1265.04 357.363C1265.04 385.682 1269.63 413.84 1269.63 442.377C1269.63 449.219 1266.71 465.108 1274.22 469.526C1289.79 478.685 1316.6 470.24 1333.36 470.035C1374.43 469.535 1415.54 470.035 1456.61 470.035C1520.56 470.035 1584.24 463.153 1648.18 463.153C1677.46 463.153 1708 460.859 1736.51 460.859C1746.61 460.859 1742.24 442.017 1742.24 434.22C1742.24 399.934 1742.24 365.648 1742.24 331.362C1742.24 280.141 1751.42 229.765 1751.42 178.668C1751.42 167.393 1753.72 155.892 1753.72 144.255C1753.72 139.86 1752.43 125.258 1749.13 123.606" stroke="black" stroke-width="3" stroke-linecap="round"/>
<path d="M1262.75 277.32C1270.83 269.24 1270.8 251.771 1281.1 245.711C1296.53 236.635 1317.84 238.318 1335.15 238.318C1367.23 238.318 1400.78 240.049 1432.52 235.514C1450.59 232.934 1468.84 233.73 1487.07 233.73C1502.75 233.73 1520.46 231.398 1535.76 234.877C1561.13 240.641 1592.3 236.024 1618.36 236.024C1639.17 236.024 1659.99 236.024 1680.81 236.024C1694.43 236.024 1708.58 233.758 1720.58 240.612C1729.76 245.861 1725.5 264.358 1733.07 268.143" stroke="black" stroke-width="3" stroke-linecap="round"/>
<path d="M1271.93 343.853C1274.27 346.487 1275.15 352.207 1278.04 354.049C1283.62 357.6 1295.5 355.324 1301.75 355.324C1336.71 355.324 1371.97 356.894 1406.78 353.539C1459.89 348.42 1513.63 354.542 1566.74 350.608C1601.25 348.051 1636.66 346.147 1671.25 346.147C1680.64 346.147 1731.55 351.479 1735.36 343.853" stroke="black" stroke-width="3" stroke-linecap="round"/>
<path d="M1315.52 256.672C1359.85 261.105 1403.53 273.882 1448.33 276.81C1492.89 279.723 1537.15 286.012 1581.65 289.938C1624.75 293.742 1669.23 307.145 1712.42 307.145" stroke="black" stroke-width="3" stroke-linecap="round"/>
<path d="M1657.36 249.789C1638.82 251.643 1618.53 260.084 1601.15 265.084C1558.97 277.22 1517.43 290.605 1476.11 305.36C1446.38 315.98 1415.95 325.247 1386.64 336.97" stroke="black" stroke-width="3" stroke-linecap="round"/>
<path d="M1299.46 389.737C1300.04 385.049 1431.22 385.149 1455.47 385.149" stroke="black" stroke-width="3" stroke-linecap="round"/>
<path d="M1320.11 398.914C1350.71 398.914 1381.26 396.62 1411.87 396.62" stroke="black" stroke-width="3" stroke-linecap="round"/>
<path d="M1331.58 410.385C1332.44 417.259 1378.64 410.989 1380.78 410.895C1389.94 410.49 1406.01 413.528 1414.17 408.091" stroke="black" stroke-width="3" stroke-linecap="round"/>
<path d="M1267.34 453.976C1267.34 466.219 1265.85 482.599 1274.73 492.468C1286.98 506.077 1303.2 506.743 1321.38 506.743C1399.14 506.743 1477.3 506.743 1555.39 506.743C1579.45 506.743 1604.04 509.037 1627.66 509.037C1648.15 509.037 1669.15 504.449 1689.48 504.449C1698.56 504.449 1720.14 506.27 1726.18 498.713C1729.59 494.462 1731.69 490.336 1733.19 485.075C1734.1 481.907 1735.02 473.647 1737.66 472.329" stroke="black" stroke-width="3" stroke-linecap="round"/>
<path d="M1462.35 486.095H1551.82" stroke="black" stroke-width="3" stroke-linecap="round"/>
<path d="M2266.09 144.249C2207.43 144.249 2147.4 142.756 2088.92 148.073C2045.05 152.061 1998.2 149.259 1954.95 158.269C1932.49 162.948 1904.11 169.74 1881.17 169.74C1857.12 169.74 1865.6 182.546 1862.76 201.746C1852.13 273.448 1858.23 345.135 1858.23 417.007C1858.23 432.695 1862.35 453.324 1857.66 468.557C1855.22 476.48 1854.61 495.435 1863.32 500.563C1891.03 516.859 1929.65 519.829 1961.47 521.381C2009.58 523.728 2057.45 528.908 2105.49 531.577C2168.65 535.086 2230.44 534.179 2292.15 520.956C2312.75 516.541 2314.88 510.119 2320.9 492.065C2324.51 481.213 2322.17 466.579 2322.17 455.244C2322.17 436.976 2322.17 418.707 2322.17 400.438C2322.17 335.165 2320.85 269.958 2314.38 205.287C2312.84 189.91 2311.97 175.115 2311.97 159.544C2311.97 145.958 2307.94 141.7 2293.56 141.7C2257.24 141.7 2217.56 138.62 2180.83 141.558C2116.7 146.689 2050.04 141.7 1985.68 141.7C1959.59 141.7 1931.29 141.909 1905.24 144.39C1891.42 145.707 1875.54 149.347 1862.05 149.347C1828.66 149.347 1838.5 182.685 1832.17 204.862C1827.71 220.466 1834.32 238.704 1828.91 253.862C1823.55 268.865 1827.64 291.591 1827.64 307.394C1827.64 328.578 1825.01 351.794 1829.62 372.539C1833.26 388.936 1834.64 411.161 1835.28 427.77C1835.96 445.479 1840.03 463.077 1844.91 480.169C1847.34 488.677 1847.48 512.325 1855.68 516.424" stroke="black" stroke-width="3" stroke-linecap="round"/>
<path d="M2054.51 396.615C2055.81 386.179 2058.23 383.869 2043.32 383.869C2036.15 383.869 2022.82 385.491 2016.27 388.401C2002.35 394.59 1983.84 382.577 1974.21 375.089C1970.16 371.933 1967.51 358.894 1967.84 353.279C1968.21 346.893 1975.74 344.423 1978.04 339.259C1981.03 332.518 1985.52 327.197 1975.49 320.707C1965.91 314.508 1955.34 306.128 1951.13 295.215C1945.88 281.626 1952.49 251.434 1958.21 238.568C1966.34 220.27 2002.97 237.064 2016.13 238.709C2079.91 246.681 2144.43 213.076 2208.87 213.076C2217.57 213.076 2222.3 220.298 2222.75 228.371C2223.54 242.467 2236.77 247.229 2245.55 255.137C2256.76 265.226 2257.3 264.265 2245.13 277.371C2232.79 290.665 2227.39 307.514 2227.85 325.239C2228.18 337.868 2236.67 352.417 2244.28 362.201C2250.49 370.186 2260.14 383.441 2259.86 394.065C2259.33 413.597 2236.41 427.204 2218.93 427.204C2201.76 427.204 2186.35 408.254 2184.66 391.375C2182.84 373.184 2183.85 355.986 2178.85 337.984C2176.84 330.739 2171.44 313.513 2165.4 308.811C2155.64 301.224 2140.88 312.607 2132.97 317.591C2122.19 324.377 2112.82 327.788 2099.83 327.788C2094.92 327.788 2081.76 323.559 2080.14 329.204C2077.04 340.079 2077.45 350.664 2077.45 362.06C2077.45 374.244 2087.95 394.813 2074.9 399.164" stroke="black" stroke-width="3" stroke-linecap="round"/>
<path d="M1776.65 493.482C1783.7 492.601 1793.18 481.937 1797.9 477.337C1808.96 466.539 1818.81 456.543 1832.73 449.58C1858.38 436.756 1879.75 417.553 1907.23 407.377C1922.67 401.659 1937.97 393.463 1952.54 386.984C1959.77 383.771 1995.88 379.412 1998.29 390.241C2001.69 405.549 1985.47 422.56 1976.9 433.577C1964.34 449.724 1948.66 463.33 1936.12 479.461C1928.51 489.244 1916.2 505.228 1905.53 511.326C1901.33 513.725 1893.98 520.918 1891.36 525.488C1887.46 532.315 1879.15 535.747 1876.07 541.915" stroke="black" stroke-width="3" stroke-linecap="round"/>
<path d="M1927.05 404.262C1922.73 404.802 1916.54 413.265 1914.87 417.007C1911 425.73 1927.17 428.105 1932.15 430.32C1943.27 435.259 1962.12 436.157 1967.84 447.597" stroke="black" stroke-width="3" stroke-linecap="round"/>
<path d="M1957.64 373.672C1933.98 373.672 1931.66 330.07 1935.27 313.625C1956.05 218.942 2087.86 218.548 2160.44 231.486C2203.44 239.151 2281.31 259.571 2257.87 319.573C2245.43 351.435 2222.72 374.781 2191.6 388.966C2162.48 402.235 2131.79 405.49 2101.53 414.458C2083.91 419.677 2061.6 424.143 2043.18 424.654C2028.37 425.066 2015.75 425.358 2000.98 424.654C1992.05 424.229 1983.4 419.556 1975.49 419.556" stroke="black" stroke-width="3" stroke-linecap="round"/>
<path d="M400.115 720.355C328.358 720.355 260.061 722.475 191.085 743.298C171.313 749.267 149.48 752.382 131.888 763.691C123.989 768.769 106.449 773.012 104.272 782.81C99.8686 802.625 100.67 818.507 101.723 839.032C102.624 856.61 99.3154 873.692 99.3154 891.148C99.3154 904.768 101.865 918.187 101.865 931.935C101.865 955.615 100.199 983.936 105.688 1006.99C108.759 1019.89 107.599 1037.25 112.628 1049.2C115.789 1056.7 116.381 1065.77 122.824 1071.57C127.298 1075.6 137.412 1077.16 142.934 1078.37C157.515 1081.56 173.164 1085.04 187.969 1086.87C280.323 1098.27 375.889 1095.01 467.809 1082.33C484.194 1080.07 503.5 1078.87 518.65 1072.14C530.048 1067.07 525.193 1045.46 522.474 1036.45C513.584 1007 512.809 972.6 507.179 942.131C501.144 909.473 498.318 875.877 494.433 842.856C492.302 824.745 493.47 801.536 488.06 784.226C485.163 774.954 489.518 763.727 485.511 754.911C480.411 743.69 476.945 747.205 464.835 744.572C443.223 739.874 418.189 741.218 396.149 740.749C380.448 740.415 366.9 738.178 351.114 740.182C326.891 743.258 301.134 739.789 277.189 743.864C254.031 747.806 229.786 744.902 206.946 748.963C185.008 752.863 160.995 756.043 138.686 756.043C116.569 756.043 104.414 760.364 104.414 784.226C104.414 825.259 109.512 865.569 109.512 906.443C109.512 960.392 122.258 1015.65 122.258 1069.59" stroke="black" stroke-width="3" stroke-linecap="round"/>
<path d="M300.698 873.304C280.384 870.765 259.912 844.389 259.912 824.871C259.912 800.659 280.581 781.535 304.522 781.535C329.637 781.535 333.063 809.873 328.88 828.694C327.727 833.884 330.366 840.327 328.172 845.264C326.486 849.057 323.857 856.881 323.64 860.559C323.252 867.152 317.055 882.97 310.895 886.05" stroke="black" stroke-width="3" stroke-linecap="round"/>
<path d="M145.2 919.189C139.182 919.941 139.851 946.696 144.067 950.911C151.154 957.999 163.533 957.426 173.099 957.426C193.807 957.426 214.593 959.975 235.553 959.975C267.35 959.975 299.046 956.225 330.721 954.877C379.745 952.791 429.031 942.131 477.864 942.131C487.502 942.131 498.874 942.232 492.45 929.385C488.205 920.894 486.796 914.808 479.705 908.426C475.104 904.285 452.923 908.992 445.999 908.992C417.08 908.992 388.294 912.253 359.47 913.949C325.586 915.942 291.254 916.64 257.363 916.64C221.315 916.64 184.486 919.189 147.749 919.189" stroke="black" stroke-width="3" stroke-linecap="round"/>
<path d="M140.102 967.623C140.102 980.131 137.552 991.968 137.552 1004.59C137.552 1022.06 137.552 997.457 137.552 991.84C137.552 977.952 146.692 979.918 156.813 976.545C177.123 969.775 204.094 969.465 225.356 967.764C267.85 964.365 309.464 965.073 351.681 965.073C368.457 965.073 384.455 967.623 401.389 967.623C416.694 967.623 436.641 970.91 451.239 966.348C461.802 963.047 473.823 965.073 484.236 965.073C498.162 965.073 496.982 970.525 496.982 982.918C496.982 993.185 497.46 1000.35 486.219 1000.76C449.262 1002.13 412.127 1009.35 375.189 1012.94C338.651 1016.49 300.565 1023.19 263.877 1023.7C241.816 1024.01 217.72 1023.58 196.183 1028.24C179.714 1031.8 159.593 1028.8 142.651 1028.8C131.579 1028.8 119.582 1028.87 135.003 1021.15" stroke="black" stroke-width="3" stroke-linecap="round"/>
<path d="M168.142 924.287C168.142 925.512 167.55 941.623 165.451 940.573C159.787 937.741 164.388 929.104 167.576 926.27C170.143 923.988 187.065 963.499 188.535 937.033C189.561 918.569 186.688 962.955 201.847 947.796C206.488 943.155 200.704 934.59 198.873 940.998C196.926 947.816 202.724 957.377 207.654 948.504C211.78 941.078 203.636 942.876 208.362 952.328C213.841 963.286 213.759 945.514 220.258 947.371C227.369 949.403 217.37 958.048 226.206 949.212C230.268 945.15 228.862 955.244 235.694 949.779C242.117 944.641 260.287 969.119 264.868 948.504C267.118 938.379 253.443 948.674 262.46 954.31C268.014 957.781 279.61 958.815 282.854 952.328" stroke="black" stroke-width="3" stroke-linecap="round"/>
<path d="M168.142 998.212C168.142 1003.51 165.88 1006.08 165.593 1010.96C165.373 1014.7 162.894 1003.61 165.593 998.212C169.002 991.395 185.684 985.769 178.339 993.114C174.605 996.848 167.892 999.145 163.044 1000.76" stroke="black" stroke-width="3" stroke-linecap="round"/>
<path d="M188.535 988.016C188.535 995.947 186.862 1003.08 185.986 1010.96" stroke="black" stroke-width="3" stroke-linecap="round"/>
<path d="M203.83 990.565C203.83 987.701 195.619 999.492 196.749 1002.04C200.003 1009.36 208.121 1001.21 209.07 996.938C209.627 994.431 212.29 987.189 211.336 989.574C210.282 992.21 205.198 1007.84 212.611 1005.72C216.06 1004.73 218.705 998.751 220.258 996.088C222.238 992.694 221.492 1000.3 223.091 1001.89C228.674 1007.48 233.123 987.187 234.42 998.212C235.6 1008.24 251.379 1001.4 254.247 995.663C257.382 989.394 246.56 984.75 247.166 995.663C247.686 1005.02 258.157 1005.86 265.01 1005.86" stroke="black" stroke-width="3" stroke-linecap="round"/>
<path d="M293.051 842.715C292.52 838.467 286.031 836.442 282.854 834.501C275.437 829.968 271.722 821.638 270.25 813.541C269.238 807.973 275.722 780.905 285.403 793.006C292.15 801.44 303.247 803.86 303.247 817.223C303.247 829.678 298.149 841.66 298.149 852.911" stroke="black" stroke-width="3" stroke-linecap="round"/>
<path d="M649.931 733.101C707.094 733.101 764.09 718.729 821.29 717.807C873.725 716.961 926.231 710.159 978.771 710.159C1028.05 710.159 1077.34 710.159 1126.62 710.159C1137.91 710.159 1141.92 714.181 1141.92 724.888C1141.92 744.914 1140.58 765.4 1142.06 785.359C1143.84 809.411 1141.92 832.595 1141.92 856.735C1141.92 873.826 1145.97 890.315 1144.32 907.576C1141.27 939.605 1136.82 970.769 1136.82 1003.31C1136.82 1024.29 1131.72 1044.98 1131.72 1065.76C1131.72 1074.48 1124.02 1075.58 1117.56 1078.51C1109.42 1082.21 1096.73 1081.49 1087.82 1082.9C1067.01 1086.2 1046.84 1089.84 1025.79 1091.96C993.205 1095.26 961.126 1097.63 928.354 1097.63C905.919 1097.63 880.574 1094.25 858.395 1098.2C824.307 1104.26 788.942 1101.23 755.013 1107.26C742.039 1109.57 727.433 1107.83 714.226 1107.83C703.239 1107.83 688.893 1114.41 677.972 1109.81C666.443 1104.95 659.016 1099.07 649.931 1089.98C638.304 1078.35 638.101 1064.5 633.362 1049.34C609.353 972.51 622.29 887.749 629.396 809.576C631.504 786.395 630.91 758.252 637.044 736.784C640.316 725.332 643.877 730.552 655.029 730.552C664.376 730.552 673.723 730.552 683.07 730.552" stroke="black" stroke-width="3" stroke-linecap="round"/>
<path d="M698.364 763.691C683.859 762.08 667.703 757.216 653.754 764.966C643.966 770.404 644.665 782.716 641.717 792.298C638.015 804.33 638.09 817.24 634.777 828.836C633.989 831.596 633.401 842.446 635.202 844.697C639.738 850.367 642.99 848.489 648.656 851.637C656.144 855.796 671.122 852.911 679.387 852.911C697.413 852.911 715.464 852.625 733.486 852.911C773.595 853.548 814.216 855.053 854.429 850.929C894.547 846.814 936.185 852.405 976.08 846.538C1006.27 842.099 1037.8 843.662 1067.99 840.307C1082.27 838.72 1094.2 839.857 1101.7 824.871C1107.71 812.851 1108.62 800.706 1111.47 787.908C1114.71 773.312 1116.69 768.604 1103.68 763.125C1092.51 758.421 1077.2 761.142 1065.3 761.142C1040.59 761.142 1016.1 763.354 991.516 763.691C920.997 764.657 850.16 768.189 780.079 774.029C739.475 777.413 698.39 781.535 657.578 781.535" stroke="black" stroke-width="3" stroke-linecap="round"/>
<path d="M655.029 799.38C660.972 800.122 650.471 819.536 652.622 804.478C653.247 800.099 655.589 791.455 658.853 788.192C661.25 785.795 663.608 803.243 663.951 804.478C669.065 822.887 680.21 815.671 685.619 800.796C689.367 790.489 683.071 832.234 694.541 820.764C702.814 812.491 697.937 790.711 685.619 804.478C674.901 816.457 701.05 820.916 707.995 807.027C712.871 797.275 697.367 828.486 713.659 820.339C717.005 818.666 721.074 808.392 721.307 812.125C721.623 817.18 721.307 822.351 721.307 827.42" stroke="black" stroke-width="3" stroke-linecap="round"/>
<path d="M731.503 799.379V801.928" stroke="black" stroke-width="3" stroke-linecap="round"/>
<path d="M749.347 801.928C744.378 801.928 738.804 800.532 736.601 806.177C733.162 814.99 747.307 823.11 745.24 826.003C742.017 830.517 737.848 825.154 735.327 825.154C733.42 825.154 745.708 827.491 748.781 827.42C756.819 827.233 763.893 823.133 766.625 815.24C768.742 809.123 764.498 806.202 760.96 812.266C752.551 826.681 780.294 836.902 785.035 827.42" stroke="black" stroke-width="3" stroke-linecap="round"/>
<path d="M996.614 776.437C977.885 776.437 959.419 780.857 941.1 781.535C930.342 781.934 910.572 780.053 901.022 785.359C886.124 793.635 875.303 829.777 898.472 834.926C919.655 839.633 947.492 835.067 968.574 835.067C987.867 835.067 1007.04 832.518 1026.64 832.518C1049.28 832.518 1080.74 836.107 1080.74 807.027C1080.74 800.461 1087.97 782.834 1082.72 777.004C1075.23 768.685 1053.89 773.888 1044.91 773.888C1028.58 773.888 1013.04 776.437 996.614 776.437ZM996.614 776.437C984.256 776.437 971.849 781.535 959.652 781.535C939.068 781.535 920.147 786.634 899.747 786.634C867.912 786.634 876.805 807.335 876.805 829.969" stroke="black" stroke-width="3" stroke-linecap="round"/>
<path d="M1006.81 809.576C1009.87 809.958 1010.53 813.402 1011.91 815.807C1014.57 820.458 1025.62 822.6 1030.04 823.738C1039.67 826.219 1050.17 825.61 1059.21 822.322C1071.7 817.78 1084.21 795.944 1076.91 782.81C1063.48 758.627 1008.98 782.125 1017.15 810.709C1021.56 826.159 1049.06 833.01 1062.33 832.518C1081 831.826 1086.45 812.897 1085.83 797.397C1085.16 780.524 1055.09 778.401 1043.07 782.102C1030.53 785.959 1002.42 799.173 1014.46 817.223" stroke="black" stroke-width="3" stroke-linecap="round"/>
<path d="M739.151 875.853C719.538 875.853 700.159 878.403 680.52 878.403C670.811 878.403 656.945 879.094 651.913 888.599C644.195 903.178 646.918 923.351 647.381 939.582C647.768 953.132 656.143 963.787 657.578 975.27C658.972 986.42 723.842 980.368 732.07 980.368C777.411 980.368 823.614 981.459 868.59 975.837C886.556 973.591 907.133 973.05 925.238 972.721C942.52 972.407 959.404 970.172 976.788 970.172C993.609 970.172 1010.12 968.016 1026.64 967.623C1036.17 967.396 1050.15 970.34 1058.93 966.348C1074.09 959.457 1070.54 946.116 1070.54 930.66C1070.54 911.076 1073.09 891.785 1073.09 872.03C1073.09 855.38 1069.28 852.911 1052.7 852.911C1016.77 852.911 981.443 858.009 945.631 858.009C915.178 858.009 878.288 853.632 848.764 861.833C839.627 864.371 828.82 864.073 819.449 865.515C809.633 867.025 798.786 868.206 788.859 868.206C780.79 868.206 770.289 869.726 762.093 870.897C755.322 871.864 743.828 871.809 737.734 874.579C729.967 878.11 702.152 873.376 698.364 880.952" stroke="black" stroke-width="3" stroke-linecap="round"/>
<path d="M779.937 982.917C780.895 975.254 730.567 985.447 721.307 987.449C704.37 991.111 684.837 988.646 669.05 995.663C660.901 999.285 660.337 1023.57 663.951 1030.08C669.711 1040.44 657.811 1059.92 663.243 1072.14C665.771 1077.82 666.397 1094.58 675.422 1095.08C711.692 1097.09 748.606 1092.53 785.036 1092.53C827.928 1092.53 872.591 1090.24 915.042 1083.61C943.083 1079.23 973.984 1075.33 1002.28 1074.69C1034.42 1073.96 1068.13 1069.59 1099.86 1069.59C1112.43 1069.59 1102 1040.48 1101.27 1033.9C1099.35 1016.63 1101.13 1000.95 1101.13 983.484C1101.13 975.504 1104.6 956.922 1090.93 961.958C1083.06 964.859 1070.53 962.524 1062.33 962.524C1045.61 962.524 1028.9 962.524 1012.19 962.524C986.589 962.524 961.001 965.222 935.577 967.764C911.925 970.129 886.943 971.281 864.059 977.819" stroke="black" stroke-width="3" stroke-linecap="round"/>
<path d="M677.972 914.091C677.972 904.453 677.972 921.493 677.972 924.287C677.972 945.135 682.822 932.51 688.168 923.154C690.467 919.131 694.441 939.087 699.498 935.475C703.425 932.67 703.083 910.781 706.012 916.64" stroke="black" stroke-width="3" stroke-linecap="round"/>
<path d="M723.856 919.189C723.856 907.392 712.852 925.458 714.226 932.501C718.242 953.084 726.98 903.412 723.998 924.287C721.263 943.43 733.807 920.322 734.053 920.322C737.08 920.322 733.39 926.619 734.619 929.386C736.198 932.938 739.028 936.873 742.975 932.926C745.168 930.733 758.98 907.826 753.171 920.605C750.405 926.691 748.491 941.782 756.995 936.467C760.147 934.497 760.276 930.052 762.66 927.403C766.489 923.149 759.792 924.607 760.961 928.111C764.132 937.627 770.418 939.582 779.938 939.582" stroke="black" stroke-width="3" stroke-linecap="round"/>
<path d="M805.428 916.64C804.452 908.831 773.011 918.414 787.726 923.013C789.438 923.548 804.637 924.327 804.295 927.403C803.972 930.318 792.493 931.322 790.134 932.501C785.501 934.818 798.17 931.796 800.188 930.66C801.149 930.12 812.111 921.239 812.934 923.296C814.334 926.796 812.105 931.935 818.174 931.935C823.583 931.935 827.85 927.449 823.272 922.871C815.317 914.916 798.171 932.959 820.582 923.155C823.126 922.042 830.219 917.609 832.903 919.756C835.54 921.866 836.107 925.332 839.134 922.305C841.577 919.862 843.396 917.621 846.215 915.507C848.346 913.908 850.086 925.232 854.995 920.322C858.332 916.985 854.135 912 853.862 916.64C853.443 923.763 854.516 925.438 861.51 926.837" stroke="black" stroke-width="3" stroke-linecap="round"/>
<path d="M920.141 893.697C920.141 880.007 884.452 893.931 884.452 909.559C884.452 930.38 879.912 950.257 904.987 952.186C915.206 952.972 925.289 949.778 935.577 949.778C946.209 949.778 956.773 950.202 967.3 948.504C987.818 945.194 1010.92 944.68 1031.74 944.68C1043.79 944.68 1055.3 942.131 1067.42 942.131C1080.3 942.131 1074.44 934.086 1073.23 924.429C1071.65 911.743 1074.8 880.951 1057.65 880.951C1017.94 880.951 977.084 878.585 937.418 885.483C930.636 886.663 876.838 884.024 874.398 892.564C871.247 903.592 883.428 927.848 889.551 937.033" stroke="black" stroke-width="3" stroke-linecap="round"/>
<path d="M1047.6 883.501C1046.15 871.888 1009.15 892.232 1005.54 898.654C996.489 914.738 1002.71 930.246 1020.12 936.466C1050.31 947.246 1075.12 914.877 1050.15 891.148C1024.17 866.47 968.605 918.075 1013.89 937.033C1026.14 942.162 1055.27 950.795 1057.65 929.385C1060.09 907.404 1051.71 893.697 1029.75 893.697" stroke="black" stroke-width="3" stroke-linecap="round"/>
<path d="M698.364 1026.25C698.364 1016.87 699.234 1045.06 700.913 1054.29" stroke="black" stroke-width="3" stroke-linecap="round"/>
<path d="M685.619 1033.9C674.238 1032.64 679.785 1023.5 688.168 1022.57C692.552 1022.08 718.816 1021.1 710.544 1029.37C707.937 1031.98 698.749 1034.8 702.046 1036.45C705.421 1038.14 731.794 1032.59 723.573 1044.1C720.193 1048.83 706.818 1055.91 703.463 1049.2" stroke="black" stroke-width="3" stroke-linecap="round"/>
<path d="M731.503 1036.45C732.859 1025.6 734.052 1046.05 734.052 1049.2" stroke="black" stroke-width="3" stroke-linecap="round"/>
<path d="M739.15 1026.25C746.147 1027.13 743.765 1052.19 746.798 1045.37C748.665 1041.17 750.656 1036.56 753.879 1033.33C754.008 1033.2 755.794 1040.12 756.994 1042.82C759.675 1048.85 764.854 1046.43 768.466 1042.82C770.617 1040.67 775.847 1027.49 770.307 1031.92C760 1040.16 775.716 1052.54 779.937 1044.1" stroke="black" stroke-width="3" stroke-linecap="round"/>
<path d="M805.429 1026.25C804.706 1020.47 787.275 1026.81 800.331 1033.33C814.095 1040.22 806.901 1037.53 797.781 1046.65" stroke="black" stroke-width="3" stroke-linecap="round"/>
<path d="M815.625 1033.9C815.625 1023.92 803.904 1036.54 811.802 1042.68C815.505 1045.56 823.217 1044.3 826.955 1042.4C835.824 1037.87 833.665 1029.2 830.92 1032.63C827.04 1037.48 832.293 1049.24 838.001 1043.53C840.794 1040.74 829.785 1028.52 825.822 1036.45" stroke="black" stroke-width="3" stroke-linecap="round"/>
<path d="M841.116 1033.9C846.588 1034.51 845.487 1043.41 849.33 1039.57C854.093 1034.8 855.04 1029.49 861.509 1026.25" stroke="black" stroke-width="3" stroke-linecap="round"/>
<path d="M866.608 1036.45C879.92 1036.45 862.182 1019.92 861.509 1031.35C860.707 1045 877.412 1039.27 884.452 1036.45" stroke="black" stroke-width="3" stroke-linecap="round"/>
<path d="M930.336 998.213C936.176 997.483 928.619 995.664 926.513 995.664C917.723 995.664 908.096 999.682 899.18 1000.62C888.463 1001.75 899.747 1016.36 899.747 1022.43C899.747 1035.15 904.618 1046.26 907.252 1058.12C909.995 1070.46 925.51 1068.02 935.435 1065.77C956.755 1060.92 981.842 1057.32 1003.7 1056.84C1022.93 1056.42 1041.74 1051.74 1060.91 1051.74C1067.36 1051.74 1092.97 1053.27 1093.48 1044.1C1094.28 1029.72 1085.83 1015 1085.83 1000.2C1085.83 994.478 1088.11 975.271 1079.46 975.271C1058.13 975.271 1034.15 977.819 1013.18 981.785C990.12 986.148 965.975 988.109 943.365 994.389C932.301 997.463 916.067 996.51 906.12 1002.04C899.229 1005.86 888.37 999.789 882.469 1006.43C881.746 1007.24 888.01 1024.06 888.984 1026.25C895.074 1039.96 898.312 1053.97 904.845 1067.04" stroke="black" stroke-width="3" stroke-linecap="round"/>
<path d="M1057.79 985.467C1043.79 985.467 1026.48 991.695 1020.97 1005.86C1013.19 1025.87 1027.72 1039.43 1047.46 1041.41C1057.27 1042.39 1075.63 1045.13 1080.17 1033.33C1086.47 1016.95 1079.33 1003.71 1065.44 993.681C1031.64 969.266 991.832 1024.55 1027.35 1047.64C1041.48 1056.82 1071.65 1059.26 1083.85 1046.08C1095.19 1033.83 1085.16 1005.86 1067.99 1005.86" stroke="black" stroke-width="3" stroke-linecap="round"/>
<path d="M1687.43 730.552C1664.65 707.771 1624.17 706.759 1594.11 701.237C1556.24 694.281 1517.93 690.192 1479.68 687.358C1434.19 683.989 1388.87 688.17 1352.22 716.673C1341.98 724.641 1338.13 737.858 1334.23 749.529C1326.29 773.377 1317.93 797.934 1311.43 822.463C1295.49 882.709 1266.93 938.67 1261.87 1001.89C1260.63 1017.32 1257.71 1040.56 1266.82 1053.73C1290.6 1088.07 1346.62 1101.82 1384.65 1107.83C1440.57 1116.66 1497.35 1118.55 1553.74 1112.36C1581.41 1109.32 1610.99 1101.23 1638.43 1100.18C1645.69 1099.9 1661.15 1097.88 1666.47 1091.96C1669.91 1088.15 1671.64 1075.33 1672 1070.58C1673.33 1052.61 1677.6 1035.43 1679.22 1017.47C1681.77 989.063 1678.57 960.264 1679.93 931.793C1680.99 909.463 1683.43 886.785 1685.45 864.524C1688.37 832.373 1694.8 800.679 1699.61 768.789C1701.24 758.008 1705.05 720.765 1692.53 715.399C1672.84 706.961 1648.5 702.875 1627.39 699.962C1593.61 695.303 1561.2 687.624 1527.12 684.526C1509.19 682.896 1491.67 682.118 1473.45 682.118C1442.87 682.118 1413.34 689.766 1382.67 689.766C1374.23 689.766 1354.42 686.055 1348.4 693.589C1333.59 712.102 1326.96 738.916 1317.81 761.283C1300.36 803.928 1284.78 846.834 1268.81 890.015C1256.69 922.779 1241.79 956.614 1235.67 991.131C1233.35 1004.21 1226.36 1015.89 1223.49 1028.8C1221.81 1036.34 1221.16 1044.7 1217.82 1051.74C1211.83 1064.4 1229.01 1064.83 1238.78 1069.59C1311.38 1104.91 1384.64 1109.5 1464.52 1110.37C1488.24 1110.64 1513.46 1111.52 1537.03 1114.2C1557.44 1116.52 1577.86 1114.55 1598.21 1117.46C1611.47 1119.35 1625.63 1119.21 1639 1120.43C1646.51 1121.11 1654.55 1123.12 1661.94 1123.12" stroke="black" stroke-width="3" stroke-linecap="round"/>
<path d="M1259.18 1026.25C1284.26 1026.25 1308.79 1029.79 1330.84 1042.82C1349.82 1054.04 1366.12 1056.84 1387.2 1056.84C1407.11 1056.84 1420.87 1047.33 1438.89 1040.27C1460.47 1031.83 1504.08 1005.58 1525.56 1022.29C1538.25 1032.16 1561.89 1046.81 1577.68 1041.55C1601.92 1033.47 1623.6 1001.22 1628.8 977.82C1630.43 970.486 1636.45 951.689 1633.33 944.681C1629.22 935.415 1623.53 928.935 1618.61 920.322C1610.7 906.491 1647.32 875.475 1658.12 867.073C1660.8 864.986 1681.94 854.985 1672.14 849.796C1656.65 841.597 1634.45 841.498 1617.19 840.307C1599.35 839.077 1581.86 837.617 1563.94 837.617C1550.13 837.617 1554.47 830.943 1554.88 820.339C1555.28 809.813 1557.43 798.963 1557.43 787.908C1557.43 781.594 1552.74 775.704 1552.33 768.79C1551.61 756.621 1527.43 772.317 1524 774.03C1511.75 780.157 1499.87 786.873 1488.03 793.715C1480.78 797.906 1471.97 798.826 1465.66 804.478C1455.83 813.269 1451.5 813.574 1455.46 827.42C1457.85 835.781 1463.23 841.262 1467.64 848.38C1472.48 856.204 1474.01 865.051 1478.4 872.738C1484.17 882.831 1498.76 899.283 1501.2 910.267C1504.86 926.739 1466.66 920.816 1458.58 919.756C1435.09 916.676 1405.99 912.887 1396.26 886.617C1389.63 868.704 1385.41 849.239 1361.71 857.443C1346.76 862.617 1334.01 865.657 1317.81 865.657" stroke="black" stroke-width="3" stroke-linecap="round"/>
<path d="M1534.48 699.963C1507.92 697.011 1481.24 692.315 1454.19 692.315C1437.46 692.315 1419.66 685.807 1414.53 708.885C1413.14 715.154 1403.9 728.557 1409.01 733.668C1417.06 741.714 1434.69 742.101 1445.41 743.44C1464.03 745.767 1482.62 752.454 1501.35 753.495C1515.6 754.287 1533.73 755.604 1547.37 759.868C1556.79 762.811 1571.97 763.691 1581.64 763.691C1594.86 763.691 1594.23 761.192 1598.78 750.946C1602.45 742.694 1602.92 731.761 1607.13 724.18C1612.57 714.391 1610.2 712.371 1600.76 708.177C1587.81 702.421 1568.88 706.652 1555.02 704.919C1541.01 703.169 1524.36 704.647 1510.98 700.529C1501.73 697.684 1484.3 697.413 1474.58 697.413C1464.81 697.413 1455.04 697.413 1445.26 697.413" stroke="black" stroke-width="3" stroke-linecap="round"/>
<path d="M1468.21 710.159C1461.27 703.993 1433.57 712.658 1457.44 720.922C1460.07 721.831 1472.49 724.516 1463.11 725.454C1455.31 726.233 1447.44 728.127 1440.17 730.552" stroke="black" stroke-width="3" stroke-linecap="round"/>
<path d="M1478.4 722.905C1478.4 712.411 1454.96 738.122 1474.44 739.05C1480.88 739.357 1496.05 733.058 1493.56 724.321C1492.03 718.981 1481.24 728.536 1481.24 731.686C1481.24 743.237 1502.64 715.506 1491.71 731.119C1488.2 736.145 1500.45 732.259 1501.91 731.119C1504.36 729.216 1503.07 740.441 1508.43 735.084C1512.86 730.646 1515.51 734.235 1520.46 738.2C1526.49 743.019 1532.28 738.388 1537.03 732.96C1541.51 727.848 1552.89 716.026 1541.99 728.287C1541.36 729 1528.25 750.032 1534.48 747.83C1537.54 746.753 1549.49 738.148 1549.78 743.298C1550.63 758.661 1572.72 755.231 1572.72 743.298" stroke="black" stroke-width="3" stroke-linecap="round"/>
<path d="M1203.09 1123.12C1210.1 1122.34 1222.59 1113.3 1227.59 1110.09C1247.81 1097.12 1267.11 1082.75 1287.22 1069.59C1313.54 1052.36 1343.76 1038.02 1366.81 1016.62C1378.19 1006.05 1395.04 1001.69 1406.46 992.548C1413.02 987.298 1437.38 1012.05 1443.99 1017.19C1447.47 1019.9 1457.85 1022.73 1452.34 1028.24C1443.89 1036.69 1432.73 1042.69 1423.6 1050.47C1396.44 1073.6 1374.1 1100.61 1343.3 1119.44C1326.04 1129.99 1296.48 1153.02 1287.22 1171.55" stroke="black" stroke-width="3" stroke-linecap="round"/>
<path d="M1378.99 1013.51C1369.01 1024.74 1390.35 1042.13 1399.38 1046.65" stroke="black" stroke-width="3" stroke-linecap="round"/>
<path d="M1358.59 1151.16C1351.07 1152 1352.44 1160.69 1362.42 1156.26C1373.17 1151.48 1377.91 1135.61 1364.26 1128.79C1355.65 1124.48 1337.43 1142.2 1347.12 1149.74C1352.55 1153.97 1370.91 1152.29 1376.44 1148.61" stroke="black" stroke-width="3" stroke-linecap="round"/>
<path d="M1396.83 1133.32C1396.83 1129.79 1393.08 1141.95 1392.3 1143.51C1387.29 1153.52 1395.76 1135.68 1397.4 1133.88C1409.64 1120.42 1393.61 1163.5 1412.13 1151.16" stroke="black" stroke-width="3" stroke-linecap="round"/>
<path d="M1432.52 1128.22C1432.52 1132.85 1430.53 1137.58 1429.4 1142.1C1427.19 1150.94 1428.57 1141.35 1433.79 1137.28C1441.62 1131.2 1437.75 1143.92 1437.62 1146.06C1437.49 1148.01 1447.26 1133.6 1451.49 1133.6C1453.61 1133.6 1452.98 1147.92 1456.03 1150.03C1462.41 1154.44 1473.11 1147.22 1476.99 1142.24C1489.51 1126.14 1452.97 1153.43 1467.07 1153.43C1471.34 1153.43 1474.43 1145.74 1475.71 1142.52C1477.05 1139.19 1471.33 1150.6 1473.87 1153.14C1483.93 1163.21 1492.48 1127.84 1486.62 1159.37C1485.49 1165.45 1483.5 1183.82 1483.5 1177.64C1483.5 1167.14 1487.44 1153.66 1494.83 1146.06C1501.37 1139.34 1512.02 1138.23 1501.06 1144.93C1495.46 1148.35 1487.65 1153.71 1480.95 1153.71" stroke="black" stroke-width="3" stroke-linecap="round"/>
<path d="M1531.93 1123.12C1520.42 1124.4 1525.36 1129.83 1531.93 1132.75C1534.65 1133.96 1542.69 1131.91 1539.3 1137.57C1535.87 1143.28 1530.27 1146.62 1524.29 1148.61" stroke="black" stroke-width="3" stroke-linecap="round"/>
<path d="M1549.78 1143.51C1562.34 1142.12 1555 1119.85 1547.8 1135.87C1541.74 1149.32 1562.83 1153.1 1567.62 1143.51" stroke="black" stroke-width="3" stroke-linecap="round"/>
<path d="M1585.47 1133.32C1584.79 1127.88 1576.61 1137.49 1575.27 1139.83C1567.75 1152.99 1587.15 1139.65 1590.42 1134.73C1591.85 1132.6 1587.7 1139.57 1588.16 1142.1C1588.97 1146.56 1592.07 1143.9 1594.39 1142.1C1608.99 1130.74 1595.53 1140.75 1604.73 1143.37C1614.66 1146.21 1615.41 1124.99 1620.59 1124.25C1624.82 1123.65 1617.84 1132.34 1616.62 1136.43C1615.92 1138.8 1615.95 1146.65 1620.59 1142.95C1627.18 1137.67 1624.02 1140.15 1629.37 1145.5C1634.44 1150.56 1642.04 1143.27 1646.65 1140.96" stroke="black" stroke-width="3" stroke-linecap="round"/>
<path d="M555.612 141.7C553.819 127.356 398.953 133.01 382.27 135.327C329.436 142.665 281.801 154.449 232.437 174.839C195.208 190.216 156.835 204.713 136.278 241.258C125.519 260.385 122.985 286.617 120.275 307.961C116.105 340.802 119.708 376.155 119.708 409.218C119.708 434.872 122.402 460.231 124.948 485.693C125.953 495.735 127.422 512.591 131.888 521.522C139.464 536.675 157.68 537.741 173.24 539.933C191.048 542.441 208.37 548.248 226.206 550.696C250.259 553.997 275.371 552.097 299.565 552.679C329.829 553.406 360.065 554.661 390.343 554.661C436.633 554.661 482.291 549.496 527.572 544.465C555.562 541.355 545.669 450.474 545.416 434.285C544.498 375.564 541.733 316.147 551.789 257.828C557.621 223.999 553.063 186.351 553.063 151.896C553.063 142.637 547.836 141.7 539.751 141.7C513.895 141.7 486.148 147.191 460.303 150.48C424.018 155.098 387.466 157.12 351.114 161.526C322.98 164.937 292.203 167.191 263.877 167.191C248.509 167.191 233.954 167.727 218.983 169.599C211.469 170.538 197.89 166.704 191.084 170.307C184.304 173.896 178.216 188.536 176.356 195.232C170.096 217.767 163.593 240.623 156.671 262.926C138.691 320.863 137.552 387.355 137.552 447.597C137.552 472.787 140.51 497.671 142.509 522.655C143.652 536.939 140.684 551.312 145.2 564.858" stroke="black" stroke-width="3" stroke-linecap="round"/>
<path d="M1875.44 735.342C1952.9 735.342 2029.96 737.964 2107.35 737.964C2149.45 737.964 2191.46 737.964 2233.5 737.964C2252.74 737.964 2276.02 734.351 2294.39 740.003C2299.63 741.614 2302.84 738.977 2302.84 745.83C2302.84 751.549 2300.7 759.963 2298.91 765.35C2294.66 778.096 2295.44 793.97 2293.37 807.304C2288.21 840.595 2286.58 870.561 2287.11 903.739C2287.59 934.042 2284.82 963.061 2287.25 993.473C2288.93 1014.41 2291.79 1036.56 2295.56 1057.28C2298.95 1075.96 2296.37 1125.49 2276.62 1137.11C2254.49 1150.13 2228.59 1153.39 2203.06 1154.73C2162.53 1156.87 2122.64 1160.12 2082 1160.12C2053.34 1160.12 2024.82 1160.12 1996.05 1160.12C1980.91 1160.12 1965.87 1160.19 1950.75 1161.43C1940.2 1162.3 1927.51 1164.96 1917.39 1160.7C1908.9 1157.13 1900.44 1161.24 1892.48 1154.88C1884.27 1148.31 1884.62 1124.72 1883.45 1115.4C1879.94 1087.33 1884.29 1055.53 1891.17 1028.43C1897.19 1004.74 1893.79 977.45 1893.79 953.122C1893.79 905.308 1901.83 860.952 1907.05 814.005C1908.96 796.82 1922.22 753.016 1897.58 745.976C1892.84 744.62 1889.44 745.882 1884.76 743.208C1878.27 739.5 1883.4 743.746 1880.1 747.87C1874.66 754.671 1879.77 767.623 1877.91 775.984C1875.31 787.713 1872.82 802.465 1872.82 814.588C1872.82 832.103 1867.57 849.375 1867.57 866.738C1867.57 910.81 1866.25 955.127 1870.05 998.863C1872.53 1027.39 1866.98 1055.42 1869.61 1084.37C1871.13 1101.07 1865.84 1123.28 1871.5 1139.15C1875.27 1149.68 1871.98 1160.22 1877.48 1170.61C1882.67 1180.43 1901.07 1169.4 1909.53 1167.99" stroke="black" stroke-width="3" stroke-linecap="round"/>
<path d="M1867.57 842.847C1871.32 842.431 1882.97 831.597 1885.93 833.816C1892.12 838.459 1893.79 844.384 1893.79 852.025C1893.79 866.961 1896.41 882.327 1896.41 897.912C1896.41 916.026 1893.79 933.494 1893.79 951.665C1893.79 958.333 1900.03 965.095 1893.79 971.33C1888.39 976.735 1880.08 976.575 1872.82 976.575C1860.34 976.575 1867.57 948.358 1867.57 938.554C1867.57 930.577 1872.82 924.115 1872.82 916.266C1872.82 911.128 1873.9 897.435 1876.02 892.667C1879.15 885.622 1875.73 876.938 1879.37 870.38C1882.81 864.198 1876.78 849.642 1881.99 845.47C1883.83 844.002 1890.31 828.683 1893.94 841.391C1896.07 848.849 1899.04 853.787 1899.04 862.513C1899.04 899.27 1891.17 935.65 1891.17 972.642C1891.17 982.597 1891.46 985.04 1880.68 984.441C1871.52 983.932 1867.57 979.135 1867.57 970.748C1867.57 948.987 1862.73 928.221 1867.43 907.089C1870.33 894.028 1872.82 876.597 1872.82 863.824C1872.82 852.446 1875.9 827.081 1892.48 836.292C1911.67 846.953 1894.48 866.928 1893.79 885.384C1892.8 912.08 1891.17 938.89 1891.17 966.086" stroke="black" stroke-width="3" stroke-linecap="round"/>
<path d="M1938.37 814.005C1889.37 814.005 2036.36 814.005 2085.35 814.005C2135.4 814.005 2184.35 817.473 2234.08 819.249C2242.06 819.534 2270.45 818.109 2264.97 830.903C2263.38 834.604 2264.44 846.911 2263.66 852.025C2262.07 862.34 2265.91 874.148 2262.93 884.219C2258.51 899.119 2262.01 919.486 2254.33 933.311C2245.28 949.599 2257.8 959.45 2232.04 960.843C2210.49 962.008 2189.16 968.36 2167.66 970.748C2143.07 973.481 2117.92 974.977 2093.22 976.43C2044.33 979.306 1995.13 989.686 1946.38 989.686C1940.97 989.686 1928.79 988.443 1923.95 985.753C1917.46 982.147 1920.01 972.277 1920.01 965.504C1920.01 936.154 1927.47 908.296 1930.36 879.412C1931.38 869.214 1933.12 856.646 1933.12 846.781C1933.12 840.651 1931.16 830.235 1933.71 824.493C1937.22 816.593 1939.03 814.897 1948.86 817.21C1963.35 820.62 1978.66 819.249 1993.58 819.249C2013.55 819.249 2033.78 815.398 2053.74 814.151C2074.38 812.861 2095.16 815.073 2115.8 813.422C2153.93 810.372 2191.23 808.761 2229.42 808.761C2241.66 808.761 2254.87 812.326 2255.64 827.115C2256.12 836.186 2257.03 847.473 2254.33 856.104C2251.16 866.245 2256.32 878.547 2250.4 887.424" stroke="black" stroke-width="3" stroke-linecap="round"/>
<path d="M1946.24 753.696C1950.47 753.167 1944.96 753.96 1943.03 759.523C1941.01 765.352 1931.89 793.829 1943.03 783.122C1945.82 780.443 1951.13 770.493 1951.48 779.334C1951.67 784.046 1954.34 793.062 1960.8 788.949C1975.18 779.797 1964.74 763.485 1955.41 783.996C1953.19 788.881 1958.29 795.449 1963.28 791.571C1970.88 785.657 1968.53 778.59 1964.59 790.405" stroke="black" stroke-width="3" stroke-linecap="round"/>
<path d="M1990.81 785.161C1990.81 771.81 1975.51 798.717 1989.65 796.524C1991.35 796.259 2014.53 789.07 2008.58 783.122C2004.22 778.756 1998.68 791.226 1998.68 794.339C1998.68 801.971 2005.79 796.559 2007.85 792.882C2012.53 784.569 2011.79 781.004 2011.79 790.405C2011.79 807.933 2028.26 773.621 2027.67 776.275C2024.75 789.4 2031.16 797.258 2041.94 786.472C2048.69 779.721 2043.09 789.047 2047.33 790.26C2053.37 791.986 2059.1 781.797 2061.61 777.878C2066.15 770.779 2052.07 805.186 2068.16 789.094C2084.64 772.62 2074.72 791.31 2074.72 803.516" stroke="black" stroke-width="3" stroke-linecap="round"/>
<path d="M2106.18 764.185C2111.49 763.522 2104.74 770.385 2103.56 776.567C2098.02 805.642 2114.6 786.303 2110.12 785.308C2102.85 783.692 2105.36 787.79 2112.01 785.745C2122.98 782.37 2124.54 780.714 2124.54 790.406" stroke="black" stroke-width="3" stroke-linecap="round"/>
<path d="M2137.65 777.295C2145.94 770.037 2130.45 804.253 2140.27 785.161C2140.91 783.924 2155.71 766.576 2155.71 773.507C2155.71 779.011 2147.22 782.539 2142.89 782.539" stroke="black" stroke-width="3" stroke-linecap="round"/>
<path d="M1961.97 911.022C1962.32 908.206 1972.96 911.987 1977.41 910.44C1994.82 904.385 2006.54 895.872 2006.54 876.935C2006.54 849.883 1972.82 854.928 1960.8 870.38C1955.85 876.741 1954.77 884.77 1957.31 892.085C1965.21 914.928 1993.02 907.747 2009.02 896.747C2046.3 871.115 1989.29 829.607 1972.46 871.691" stroke="black" stroke-width="3" stroke-linecap="round"/>
<path d="M1982.94 879.557C1964.2 879.557 1995.67 888.206 1984.98 877.517C1983.27 875.799 1980.01 881.726 1980.47 883.344C1981.67 887.543 1990.11 879.848 1986.73 879.848C1979.65 879.848 1976.47 901.758 1989.21 883.927C1995.09 875.689 1973.34 910.443 1982.94 913.644" stroke="black" stroke-width="3" stroke-linecap="round"/>
<path d="M2045.88 863.824C2049.21 860.861 2052.07 861.282 2056.36 861.202C2082.45 860.719 2108.49 858.58 2134.59 858.58C2146.1 858.58 2157.61 858.58 2169.11 858.58" stroke="black" stroke-width="3" stroke-linecap="round"/>
<path d="M2079.96 876.936C2053.93 880.19 2184.86 874.313 2158.62 874.313" stroke="black" stroke-width="3" stroke-linecap="round"/>
<path d="M2085.21 892.668C2078.82 892.668 2082.74 892.668 2086.66 892.668C2097.72 892.668 2108.28 891.423 2119.29 890.046" stroke="black" stroke-width="3" stroke-linecap="round"/>
<path d="M1996.05 921.511C1996.05 926.961 1993.43 931.077 1993.43 937.243" stroke="black" stroke-width="3" stroke-linecap="round"/>
<path d="M1996.05 924.133C2004.23 924.133 2106.18 909.828 2106.18 924.133C2106.18 941.094 2107.16 944.17 2089.29 947.149C2063.83 951.393 2036.25 958.221 2010.48 958.221C1999.99 958.221 1995.63 959.598 1993.29 949.043C1992.34 944.788 1988.33 926.153 1994.89 924.279C2014.13 918.781 2035.01 922.908 2055.05 920.2C2072.76 917.808 2090.95 918.889 2108.81 918.889" stroke="black" stroke-width="3" stroke-linecap="round"/>
<path d="M2137.65 913.645C2137.44 912.194 2129.14 942.78 2132.55 918.889C2134.67 904.045 2139.76 905.778 2155.27 905.778C2171.84 905.778 2191.71 902.847 2207.86 907.818C2215 910.015 2216.31 907.528 2216.31 916.267C2216.31 919.61 2218.03 930.183 2214.85 931.999C2200.15 940.399 2177.87 939.048 2161.68 941.177C2152.45 942.391 2141.48 945.11 2132.4 945.11" stroke="black" stroke-width="3" stroke-linecap="round"/>
<path d="M1938.37 1034.26C1937.58 1027.93 1930.66 1064.58 1930.5 1065.73C1930.3 1067.23 1927.73 1099.64 1930.5 1082.33C1933.06 1066.38 1931.56 1052.18 1930.65 1036.16C1929.42 1014.64 1929.46 1012.27 1949.29 1009.35C1991.68 1003.12 2036.43 1010.66 2079.09 1010.66C2107.79 1010.66 2136.27 1008.04 2165.04 1008.04C2171.25 1008.04 2182.65 1005.59 2186.89 1011.25C2194.38 1021.24 2195.8 1043.56 2197.37 1055.53C2198.84 1066.69 2197.91 1077.76 2195.92 1088.74C2194.5 1096.53 2195.34 1105.02 2195.34 1112.92" stroke="black" stroke-width="3" stroke-linecap="round"/>
<path d="M1959.35 1057.86C1959.35 1072.89 1980.89 1077.69 1990.81 1067.77C2000.57 1058 2002.67 1025.24 1981.34 1030.76C1969.94 1033.72 1946.71 1060.28 1964.88 1069.37C1973.81 1073.83 1988.08 1071.14 1993.43 1063.1" stroke="black" stroke-width="3" stroke-linecap="round"/>
<path d="M1985.57 1057.86C1984.77 1051.47 1977.99 1058.08 1977.99 1061.79C1977.99 1067.82 1982.94 1061.18 1982.94 1057.86C1982.94 1041.46 1972.69 1075.27 1985.57 1059.17C1992.44 1050.58 1970.58 1063.88 1976.54 1065.58C1979.79 1066.51 1988.53 1058.37 1987.61 1060.48C1984.97 1066.51 1985.57 1072.22 1985.57 1078.84" stroke="black" stroke-width="3" stroke-linecap="round"/>
<path d="M2019.65 1049.99C2015.93 1050.53 2032.71 1052.58 2035.24 1052.47C2044.23 1052.1 2090.54 1042.3 2095.69 1052.62" stroke="black" stroke-width="3" stroke-linecap="round"/>
<path d="M2040.63 1073.59C2031.6 1073.59 2043.22 1073.59 2046.02 1073.59C2060.02 1073.59 2092.27 1064.92 2100.94 1073.59" stroke="black" stroke-width="3" stroke-linecap="round"/>
<path d="M2030.14 1097.19H2066.85" stroke="black" stroke-width="3" stroke-linecap="round"/>
<path d="M2006.54 1115.55C2000.47 1116.31 2005.28 1147.72 2006.54 1113.51C2006.79 1106.75 2063.63 1110.3 2072.1 1110.3C2084.43 1110.3 2086.95 1109.21 2093.66 1117.59C2097.54 1122.45 2095.21 1133.66 2100.94 1136.52" stroke="black" stroke-width="3" stroke-linecap="round"/>
<path d="M2108.81 1115.55C2118.56 1114.33 2111.84 1118.54 2111.43 1126.03C2110.52 1142.34 2113.48 1115.11 2114.63 1112.92C2121.39 1100.17 2171.92 1107.68 2184.85 1107.68" stroke="black" stroke-width="3" stroke-linecap="round"/>
<defs>
<filter id="filter0_bd_1003_4" x="8" y="38" width="614" height="577" filterUnits="userSpaceOnUse" color-interpolation-filters="sRGB">
<feFlood flood-opacity="0" result="BackgroundImageFix"/>
<feGaussianBlur in="BackgroundImageFix" stdDeviation="10"/>
<feComposite in2="SourceAlpha" operator="in" result="effect1_backgroundBlur_1003_4"/>
<feColorMatrix in="SourceAlpha" type="matrix" values="0 0 0 0 0 0 0 0 0 0 0 0 0 0 0 0 0 0 127 0" result="hardAlpha"/>
<feOffset dy="0.5"/>
<feColorMatrix type="matrix" values="0 0 0 0 0 0 0 0 0 0 0 0 0 0 0 0 0 0 0.3 0"/>
<feBlend mode="normal" in2="effect1_backgroundBlur_1003_4" result="effect2_dropShadow_1003_4"/>
<feBlend mode="normal" in="SourceGraphic" in2="effect2_dropShadow_1003_4" result="shape"/>
</filter>
<filter id="filter1_bd_1003_4" x="601" y="38" width="614" height="577" filterUnits="userSpaceOnUse" color-interpolation-filters="sRGB">
<feFlood flood-opacity="0" result="BackgroundImageFix"/>
<feGaussianBlur in="BackgroundImageFix" stdDeviation="10"/>
<feComposite in2="SourceAlpha" operator="in" result="effect1_backgroundBlur_1003_4"/>
<feColorMatrix in="SourceAlpha" type="matrix" values="0 0 0 0 0 0 0 0 0 0 0 0 0 0 0 0 0 0 127 0" result="hardAlpha"/>
<feOffset dy="0.5"/>
<feColorMatrix type="matrix" values="0 0 0 0 0 0 0 0 0 0 0 0 0 0 0 0 0 0 0.3 0"/>
<feBlend mode="normal" in2="effect1_backgroundBlur_1003_4" result="effect2_dropShadow_1003_4"/>
<feBlend mode="normal" in="SourceGraphic" in2="effect2_dropShadow_1003_4" result="shape"/>
</filter>
<filter id="filter2_bd_1003_4" x="1195" y="38" width="614" height="577" filterUnits="userSpaceOnUse" color-interpolation-filters="sRGB">
<feFlood flood-opacity="0" result="BackgroundImageFix"/>
<feGaussianBlur in="BackgroundImageFix" stdDeviation="10"/>
<feComposite in2="SourceAlpha" operator="in" result="effect1_backgroundBlur_1003_4"/>
<feColorMatrix in="SourceAlpha" type="matrix" values="0 0 0 0 0 0 0 0 0 0 0 0 0 0 0 0 0 0 127 0" result="hardAlpha"/>
<feOffset dy="0.5"/>
<feColorMatrix type="matrix" values="0 0 0 0 0 0 0 0 0 0 0 0 0 0 0 0 0 0 0.3 0"/>
<feBlend mode="normal" in2="effect1_backgroundBlur_1003_4" result="effect2_dropShadow_1003_4"/>
<feBlend mode="normal" in="SourceGraphic" in2="effect2_dropShadow_1003_4" result="shape"/>
</filter>
<filter id="filter3_bd_1003_4" x="1788" y="38" width="614" height="577" filterUnits="userSpaceOnUse" color-interpolation-filters="sRGB">
<feFlood flood-opacity="0" result="BackgroundImageFix"/>
<feGaussianBlur in="BackgroundImageFix" stdDeviation="10"/>
<feComposite in2="SourceAlpha" operator="in" result="effect1_backgroundBlur_1003_4"/>
<feColorMatrix in="SourceAlpha" type="matrix" values="0 0 0 0 0 0 0 0 0 0 0 0 0 0 0 0 0 0 127 0" result="hardAlpha"/>
<feOffset dy="0.5"/>
<feColorMatrix type="matrix" values="0 0 0 0 0 0 0 0 0 0 0 0 0 0 0 0 0 0 0.3 0"/>
<feBlend mode="normal" in2="effect1_backgroundBlur_1003_4" result="effect2_dropShadow_1003_4"/>
<feBlend mode="normal" in="SourceGraphic" in2="effect2_dropShadow_1003_4" result="shape"/>
</filter>
<filter id="filter4_bd_1003_4" x="8" y="634" width="614" height="577" filterUnits="userSpaceOnUse" color-interpolation-filters="sRGB">
<feFlood flood-opacity="0" result="BackgroundImageFix"/>
<feGaussianBlur in="BackgroundImageFix" stdDeviation="10"/>
<feComposite in2="SourceAlpha" operator="in" result="effect1_backgroundBlur_1003_4"/>
<feColorMatrix in="SourceAlpha" type="matrix" values="0 0 0 0 0 0 0 0 0 0 0 0 0 0 0 0 0 0 127 0" result="hardAlpha"/>
<feOffset dy="0.5"/>
<feColorMatrix type="matrix" values="0 0 0 0 0 0 0 0 0 0 0 0 0 0 0 0 0 0 0.3 0"/>
<feBlend mode="normal" in2="effect1_backgroundBlur_1003_4" result="effect2_dropShadow_1003_4"/>
<feBlend mode="normal" in="SourceGraphic" in2="effect2_dropShadow_1003_4" result="shape"/>
</filter>
<filter id="filter5_bd_1003_4" x="601" y="634" width="614" height="577" filterUnits="userSpaceOnUse" color-interpolation-filters="sRGB">
<feFlood flood-opacity="0" result="BackgroundImageFix"/>
<feGaussianBlur in="BackgroundImageFix" stdDeviation="10"/>
<feComposite in2="SourceAlpha" operator="in" result="effect1_backgroundBlur_1003_4"/>
<feColorMatrix in="SourceAlpha" type="matrix" values="0 0 0 0 0 0 0 0 0 0 0 0 0 0 0 0 0 0 127 0" result="hardAlpha"/>
<feOffset dy="0.5"/>
<feColorMatrix type="matrix" values="0 0 0 0 0 0 0 0 0 0 0 0 0 0 0 0 0 0 0.3 0"/>
<feBlend mode="normal" in2="effect1_backgroundBlur_1003_4" result="effect2_dropShadow_1003_4"/>
<feBlend mode="normal" in="SourceGraphic" in2="effect2_dropShadow_1003_4" result="shape"/>
</filter>
<filter id="filter6_bd_1003_4" x="1195" y="634" width="614" height="577" filterUnits="userSpaceOnUse" color-interpolation-filters="sRGB">
<feFlood flood-opacity="0" result="BackgroundImageFix"/>
<feGaussianBlur in="BackgroundImageFix" stdDeviation="10"/>
<feComposite in2="SourceAlpha" operator="in" result="effect1_backgroundBlur_1003_4"/>
<feColorMatrix in="SourceAlpha" type="matrix" values="0 0 0 0 0 0 0 0 0 0 0 0 0 0 0 0 0 0 127 0" result="hardAlpha"/>
<feOffset dy="0.5"/>
<feColorMatrix type="matrix" values="0 0 0 0 0 0 0 0 0 0 0 0 0 0 0 0 0 0 0.3 0"/>
<feBlend mode="normal" in2="effect1_backgroundBlur_1003_4" result="effect2_dropShadow_1003_4"/>
<feBlend mode="normal" in="SourceGraphic" in2="effect2_dropShadow_1003_4" result="shape"/>
</filter>
<filter id="filter7_bd_1003_4" x="1788" y="634" width="614" height="577" filterUnits="userSpaceOnUse" color-interpolation-filters="sRGB">
<feFlood flood-opacity="0" result="BackgroundImageFix"/>
<feGaussianBlur in="BackgroundImageFix" stdDeviation="10"/>
<feComposite in2="SourceAlpha" operator="in" result="effect1_backgroundBlur_1003_4"/>
<feColorMatrix in="SourceAlpha" type="matrix" values="0 0 0 0 0 0 0 0 0 0 0 0 0 0 0 0 0 0 127 0" result="hardAlpha"/>
<feOffset dy="0.5"/>
<feColorMatrix type="matrix" values="0 0 0 0 0 0 0 0 0 0 0 0 0 0 0 0 0 0 0.3 0"/>
<feBlend mode="normal" in2="effect1_backgroundBlur_1003_4" result="effect2_dropShadow_1003_4"/>
<feBlend mode="normal" in="SourceGraphic" in2="effect2_dropShadow_1003_4" result="shape"/>
</filter>
</defs>
</svg>
