<svg width="240" height="324" viewBox="0 0 240 324" fill="none" xmlns="http://www.w3.org/2000/svg">
<path fill-rule="evenodd" clip-rule="evenodd" d="M189.444 219.788C188.032 215.446 189.714 210.431 188.615 205.75C188.238 203.898 187.522 197.02 186.802 192.997C186.4 190.747 188.807 190.049 189.177 189.151C191.78 181.083 172.79 162.105 171.631 161.405C169.894 160.401 168.356 159.537 166.659 158.511C161.708 156.771 155.771 151.931 151.282 155.039C143.505 143.458 146.581 129.189 142.361 127.493C138.141 125.797 125.679 122.369 118.554 126.746C114.284 129.907 114.598 135.349 112.65 139.836C111.506 141.949 110.944 145.009 109.613 146.387C105.089 151.068 99.4475 151.875 93.1407 152.669C92.6603 152.73 92.155 151.423 91.6882 151.584C81.0496 155.263 68.6706 156.336 56.6224 176.933C54.9209 179.879 50.3306 184.605 51.8655 188.009C41.7525 211.534 31.8018 264.485 59.5507 277.69C60.4377 278.258 66.455 275.214 67.4355 275.242C69.0699 275.289 65.9383 279.259 67.4355 278.552C78.4275 279.386 138.911 277.234 162.095 279.386C178.038 279.267 188.136 282.063 191.817 279.267C190.345 275.709 190.414 271.898 190.879 268.137C194.267 265.615 190.078 247.839 190.433 242.635C193.605 238.831 191.079 224.566 189.444 219.788Z" fill="white"/>
<path fill-rule="evenodd" clip-rule="evenodd" d="M184.39 193.752C182.869 195.965 181.472 198.243 180.209 200.613C179.557 201.835 178.95 203.081 178.403 204.353C178.289 201.603 178.264 198.821 177.943 196.098C177.92 195.901 177.592 195.806 177.558 196.045C177.203 198.514 177.144 201.047 177.01 203.543C176.855 203.496 176.685 203.468 176.497 203.468C174.671 203.468 172.874 203.618 171.055 203.766C170.24 203.832 169.387 203.882 168.556 204.012C169.225 203.273 169.848 202.492 170.423 201.677C171.01 200.846 171.68 199.548 170.658 198.75C169.529 197.869 167.314 199.021 166.222 199.47C165.669 199.697 165.127 199.944 164.593 200.206C163.919 198.317 161.852 198.067 160.081 198.327C158.818 198.514 157.592 198.946 156.361 199.275C154.798 199.692 153.229 200.086 151.654 200.455C148.818 201.119 145.962 201.699 143.093 202.202C143.017 202.114 142.912 202.045 142.771 202.009C141.789 201.764 140.705 201.952 139.697 201.971C138.661 201.99 137.625 201.988 136.589 201.967C134.738 201.929 132.889 201.914 131.038 201.882C130.512 201.563 129.845 201.105 129.682 200.504C129.478 199.755 130.115 198.925 130.41 198.287C131.546 195.838 131.943 193.097 131.497 190.43C131.418 189.955 131.254 189.435 131.018 188.948C133.046 189.165 135.047 189.312 137.085 189.379C141.156 189.511 145.226 189.65 149.298 189.68C157.441 189.741 165.584 189.741 173.726 189.682C178.33 189.648 182.923 189.606 187.522 189.371C187.147 189.846 186.782 190.331 186.427 190.824C186.353 190.802 186.257 190.842 186.268 190.933C186.272 190.965 186.275 190.996 186.279 191.028C185.63 191.935 185.005 192.857 184.39 193.752M175.336 277.968C173.444 277.908 171.552 277.847 169.66 277.787C165.946 277.669 162.232 277.551 158.518 277.433C151.16 277.198 143.802 276.972 136.443 276.769C129.102 276.567 121.758 276.352 114.414 276.581C107.054 276.811 99.7132 277.405 92.367 277.882C88.283 278.147 84.1961 278.377 80.1044 278.487C76.2076 278.591 72.2763 278.433 68.3856 278.711C68.2549 277.749 68.351 276.789 68.3368 275.831C69.6131 275.093 70.8657 274.309 72.1037 273.539C76.6172 270.731 80.8836 267.554 84.9078 264.081C85.5264 263.547 86.133 263.001 86.7334 262.45C86.3155 263.364 86.6499 264.541 87.8476 264.928C89.3081 265.4 90.8034 265.232 92.3203 265.196C93.8607 265.16 95.4011 265.126 96.9416 265.093C99.9524 265.029 102.963 264.972 105.974 264.922C111.856 264.823 117.739 264.75 123.621 264.703C135.457 264.607 147.284 264.768 159.117 264.982C162.444 265.042 165.768 265.117 169.096 265.041C170.761 265.003 172.432 264.991 174.095 264.902C175.427 264.83 176.768 264.641 178.1 264.472C178.268 266.793 178.443 269.113 178.639 271.432C178.768 272.963 178.901 274.494 179.033 276.025C179.087 276.656 179.091 277.301 179.18 277.901C177.901 277.971 176.63 278.009 175.336 277.968M176.637 212.433C176.591 214.21 176.566 215.987 176.553 217.765C176.4 217.677 176.227 217.613 176.032 217.583C173.962 217.267 171.748 217.507 169.654 217.542C167.631 217.576 165.6 217.565 163.578 217.66C161.552 217.756 159.527 217.87 157.502 217.975C156.552 218.025 155.612 218.067 154.669 218.196C154.023 218.284 153.196 218.278 152.506 218.462C155.402 215.656 158.281 212.835 161.169 210.022C161.255 209.937 161.318 209.848 161.362 209.757C163.287 208.583 165.135 207.262 166.809 205.75C168.136 206.262 169.647 206.326 171.055 206.44C172.874 206.588 174.671 206.738 176.497 206.738C176.62 206.738 176.736 206.726 176.845 206.704C176.755 208.613 176.687 210.522 176.637 212.433M101.458 246.944C105.879 248.356 110.668 248.34 115.267 248.623C120.169 248.925 125.064 249.175 129.972 249.367C139.775 249.747 149.571 250.265 159.372 250.677C164.971 250.912 170.568 251.172 176.164 251.454C176.561 251.473 176.939 251.372 177.273 251.185C177.461 254.872 177.681 258.557 177.938 262.24C177.97 262.7 178.005 263.16 178.038 263.621C175.404 263.291 172.79 262.974 170.137 262.75C167.157 262.498 164.179 262.286 161.195 262.088C155.38 261.702 149.556 261.186 143.731 260.998C131.856 260.614 119.955 260.744 108.075 260.829C104.714 260.853 101.353 260.885 97.9918 260.926C96.3114 260.946 94.631 260.969 92.9506 260.993C91.2617 261.018 89.4467 260.842 87.8476 261.432C87.8324 261.437 87.8195 261.446 87.8045 261.451C92.6288 256.879 96.9507 251.825 101.458 246.944M116.997 232.325C124.385 233.67 131.888 233.578 139.376 233.711C147.038 233.848 154.711 233.757 162.374 233.773C166.727 233.782 171.118 233.973 175.455 233.586C175.968 233.54 176.365 233.346 176.648 233.07C176.727 237.685 176.872 242.298 177.072 246.909C176.79 246.79 176.483 246.717 176.164 246.698C166.372 246.122 156.579 245.599 146.774 245.28C136.978 244.96 127.169 244.582 117.368 244.7C112.584 244.758 107.526 244.452 102.809 245.495C104.601 243.589 106.433 241.719 108.348 239.928C111.141 237.317 114.121 234.871 116.997 232.325M122.641 226.892C122.651 226.881 122.656 226.868 122.664 226.857C122.69 226.876 122.723 226.89 122.765 226.889C129.681 226.733 137.439 228.915 143.906 225.566C146.794 224.071 149.185 221.708 151.506 219.436C151.507 219.453 151.509 219.47 151.51 219.487C151.525 219.671 151.603 219.893 151.79 219.975C152.553 220.309 153.446 220.331 154.265 220.451C155.208 220.588 156.133 220.668 157.083 220.725C159.178 220.851 161.273 220.984 163.369 221.103C165.46 221.221 167.561 221.231 169.654 221.283C171.754 221.335 173.954 221.59 176.032 221.29C176.223 221.262 176.392 221.202 176.543 221.119C176.546 223.809 176.57 226.498 176.596 229.186C176.6 229.624 176.608 230.062 176.613 230.5C176.333 230.243 175.947 230.063 175.455 230.019C171.601 229.68 167.718 229.831 163.851 229.844C160.053 229.856 156.255 229.869 152.457 229.882C144.789 229.907 137.127 229.982 129.46 230.128C125.731 230.199 122.019 230.513 118.345 231.116C119.833 229.761 121.279 228.365 122.641 226.892M62.5561 275.791C61.1404 276.224 59.7351 276.036 58.3166 276.333C58.2294 276.351 58.1489 276.385 58.0751 276.43C53.8274 274.614 50.996 270.971 49.0582 266.888C47.0157 262.585 45.6078 257.985 44.6647 253.322C42.7202 243.708 42.7168 233.74 43.7233 224.014C44.7122 214.459 46.6703 204.955 49.4645 195.766C51.383 189.456 53.828 183.082 57.2229 177.329C61.1429 179.956 64.1831 183.739 67.047 187.437C70.4694 191.856 73.5534 196.533 76.3141 201.392C76.0287 202.224 75.9843 203.268 75.8474 204.012C75.5835 205.446 75.3452 206.899 75.1578 208.346C74.7575 211.439 74.3734 214.533 73.9641 217.624C73.1548 223.738 72.1884 229.834 71.1209 235.907C71.0345 236.399 71.1727 236.815 71.4268 237.127C69.3095 238.244 67.2199 239.41 65.1839 240.674C60.7077 243.452 56.5244 246.689 53.2401 250.84C53.1547 250.948 53.2884 251.092 53.3941 250.995C60.4373 244.484 69.1876 240.397 77.7788 236.357C82.1691 234.293 86.538 232.195 90.7502 229.782C95.1551 227.258 99.356 224.406 103.382 221.315C107.98 217.786 112.308 213.928 116.365 209.788C116.843 209.3 116.727 208.689 116.367 208.304C116.489 208.266 116.587 208.16 116.593 207.984C116.69 205.281 117.502 202.977 119.091 200.79C120.565 198.76 122.443 197.087 124.137 195.25C124.89 194.434 125.61 193.584 126.252 192.676C126.914 191.743 127.317 190.712 127.892 189.737C128.565 188.597 129.137 189.179 129.449 190.211C129.802 191.381 129.78 192.75 129.638 193.953C129.488 195.225 129.101 196.465 128.543 197.615C128.019 198.696 127.415 199.794 127.767 201.032C128.347 203.067 130.831 204.245 132.714 204.704C134.809 205.214 137.002 205.115 139.124 204.85C141.782 204.518 144.427 204.033 147.054 203.517C150.096 202.92 153.121 202.23 156.122 201.451C157.532 201.084 158.933 200.603 160.357 200.299C160.865 200.191 161.805 200.029 162.402 200.294C154.73 204.869 146.366 207.917 137.87 210.573C136.815 210.903 137.248 212.498 138.328 212.234C147.454 210.001 156.041 205.858 164.212 201.32C164.337 201.251 164.444 201.143 164.521 201.016C165.344 200.727 166.179 200.475 167.032 200.268C167.412 200.175 169.372 199.529 169.617 199.777C169.964 200.129 168.763 201.272 168.463 201.604C166.327 203.971 163.787 205.902 161.038 207.499C158.249 209.118 155.281 210.409 152.3 211.628C148.96 212.993 145.43 214.066 142.184 215.634C140.894 216.258 141.799 218.375 143.158 217.946C144.909 217.392 146.61 216.578 148.312 215.887C149.757 215.301 151.203 214.714 152.64 214.107C153.642 213.684 154.637 213.247 155.623 212.79C154.147 214.18 152.67 215.57 151.194 216.96C148.638 219.368 146.209 222.111 143.084 223.799C139.996 225.468 136.474 225.662 133.037 225.626C131.312 225.608 129.594 225.553 127.868 225.622C126.053 225.696 124.44 225.975 122.719 226.546C122.688 226.557 122.664 226.576 122.645 226.598C122.585 226.524 122.483 226.487 122.377 226.55C117.701 229.316 113.439 232.903 109.34 236.449C105.115 240.104 101.139 243.991 97.3517 248.096C93.7261 252.026 90.1295 255.97 86.1843 259.585C82.3322 263.115 78.2157 266.321 73.9172 269.287C71.5751 270.904 69.1751 272.46 66.6919 273.852C65.3649 274.595 64.0172 275.344 62.5561 275.791M62.9493 169.398C64.6238 167.516 66.4261 165.772 68.3332 164.159C69.1747 164.408 70.058 164.477 70.9481 164.487C72.3063 164.5 73.6675 164.557 75.0258 164.543C77.641 164.516 80.2553 164.433 82.8712 164.419C88.2198 164.39 93.5702 164.389 98.9189 164.435C99.6196 164.441 100.125 164.141 100.437 163.706C101.52 164.934 102.636 166.134 103.761 167.314C105.589 169.232 107.538 171.063 109.613 172.73C109.209 172.733 108.805 172.737 108.404 172.734C106.553 172.721 104.703 172.71 102.853 172.7C99.1407 172.679 95.4281 172.664 91.7155 172.654C84.3346 172.635 76.9308 172.696 69.5594 173.074C67.5135 173.179 65.4515 173.222 63.4128 173.421C62.307 173.529 61.2025 173.656 60.0978 173.773C59.8718 173.797 59.655 173.828 59.4422 173.862C60.5241 172.307 61.6895 170.813 62.9493 169.398M92.5105 152.626C92.4606 152.659 92.4068 152.69 92.359 152.726C92.2504 152.807 92.2675 152.955 92.3956 153.004C92.5658 153.071 92.7448 153.121 92.929 153.161C93.4884 153.973 93.9256 154.976 94.2308 155.485C95.1078 156.946 96.1162 158.338 97.1421 159.697C97.3483 159.97 97.5585 160.24 97.7696 160.509C92.8016 160.497 87.8362 160.522 82.8712 160.71C80.2572 160.81 77.6343 160.893 75.0258 161.089C73.9532 161.169 72.8812 161.305 71.812 161.439C77.3768 157.415 83.6349 154.342 90.1181 152.061C90.1092 152.071 90.1001 152.078 90.0913 152.088C89.9484 152.246 90.1616 152.452 90.3224 152.319C91.1658 151.621 91.8978 151.949 92.5105 152.626M117.612 199.925C117.471 200.139 117.333 200.36 117.197 200.587C116.871 200.262 116.416 200.044 115.83 200.026C109.322 199.823 102.817 199.646 96.3053 199.641C93.094 199.639 89.8536 199.531 86.6463 199.69C85.0358 199.77 83.426 199.865 81.8163 199.956C80.6909 200.02 79.4953 200.099 78.3963 200.425C75.8634 195.993 73.0517 191.732 69.9811 187.658C76.9479 188.513 84.034 188.422 91.0403 188.659C98.9782 188.928 106.921 188.986 114.861 189.174C117.04 189.226 119.218 189.282 121.395 189.343C122.519 189.375 123.644 189.407 124.768 189.441C125.119 189.452 125.483 189.462 125.847 189.452C125.819 189.509 125.791 189.566 125.764 189.622C125.151 190.888 124.38 192.054 123.482 193.136C121.573 195.436 119.266 197.417 117.612 199.925M109.075 213.577C108.833 212.907 108.246 212.391 107.31 212.434C101.978 212.676 96.6357 212.844 91.3094 213.195C88.7149 213.366 86.1097 213.482 83.5194 213.709C82.1833 213.826 80.8496 214.044 79.5192 214.217C78.6072 214.336 77.6522 214.474 76.7774 214.798C76.947 212.925 77.0966 211.05 77.2265 209.172C77.3307 207.663 77.3624 206.141 77.3544 204.628C77.3503 203.863 77.3244 203.093 77.2874 202.328C77.366 202.343 77.4448 202.351 77.5221 202.342C77.6586 202.325 77.786 202.309 77.9043 202.277C79.1303 202.757 80.5179 202.863 81.8163 202.956C83.3565 203.065 84.8962 203.182 86.4363 203.292C89.7133 203.526 93.0211 203.511 96.3053 203.618C102.77 203.829 109.237 203.951 115.703 204.124C115.403 205.412 115.392 206.735 115.872 207.981C115.538 207.87 115.153 207.922 114.824 208.247C112.962 210.088 111.044 211.863 109.075 213.577M90.2645 227.27C90.1329 226.906 89.8844 226.571 89.5903 226.344C88.4596 225.473 86.3956 225.974 85.0384 226.041C83.4317 226.119 81.8248 226.198 80.2181 226.277C79.7305 226.3 77.2418 226.427 75.4139 226.817C75.7916 223.964 76.1343 221.106 76.4406 218.242C76.5049 217.641 76.5644 217.04 76.6234 216.439C77.4845 216.716 78.4204 216.817 79.3086 216.86C80.6396 216.923 81.9767 217.03 83.3089 217.051C85.9707 217.093 88.6472 216.962 91.3094 216.917C96.1035 216.838 100.898 216.609 105.69 216.42C100.879 220.326 95.7953 223.891 90.4925 227.134C90.4168 227.18 90.3401 227.224 90.2645 227.27M75.1225 228.963C75.5275 229.017 75.9291 229.034 76.2363 229.066C77.7786 229.221 79.2968 229.362 80.8468 229.385C82.3838 229.407 83.9206 229.43 85.4575 229.452C85.7844 229.457 86.1112 229.462 86.438 229.467C82.391 231.678 78.2197 233.659 74.1074 235.745C74.4697 233.487 74.808 231.227 75.1225 228.963M119.221 178.606C128.444 182.527 140.274 182.882 148.2 176.369C148.988 176.585 149.859 176.657 150.554 176.726C152.117 176.883 153.665 177.028 155.235 177.077C158.295 177.172 161.358 177.316 164.42 177.353C170.613 177.43 176.807 177.466 183 177.521C183.528 177.526 183.949 177.365 184.269 177.107C184.896 178.171 185.48 179.261 186.012 180.379C186.789 182.01 187.448 183.696 187.988 185.419C187.872 185.399 187.752 185.385 187.623 185.383C179.484 185.242 171.338 185.476 163.197 185.51C155.054 185.544 146.912 185.51 138.77 185.567C136.516 185.584 134.28 185.584 132.032 185.751C130.862 185.838 129.678 185.876 128.52 186.065C128.39 186.086 128.258 186.105 128.126 186.124C126.573 185.216 124.646 185.405 122.871 185.372C120.833 185.334 118.796 185.299 116.758 185.269C112.754 185.21 108.748 185.166 104.743 185.139C96.7941 185.084 88.8646 185.287 80.9208 185.565C76.9684 185.702 73.031 185.936 69.1295 186.545C68.8675 186.205 68.6081 185.864 68.3427 185.528C65.5783 182.023 62.3011 177.536 57.7521 176.45C57.9266 176.165 58.1037 175.882 58.2834 175.601C61.4351 176.433 64.912 176.391 68.1321 176.565C71.8439 176.766 75.5478 176.904 79.264 176.996C86.651 177.177 94.0365 177.291 101.425 177.403C103.475 177.435 105.526 177.467 107.577 177.502C108.683 177.52 109.789 177.541 110.895 177.558C111.513 177.568 112.065 177.566 112.654 177.361C113.2 177.171 113.731 176.886 114.258 176.65C114.442 176.567 114.592 176.445 114.714 176.301C116.162 177.167 117.663 177.943 119.221 178.606M155.261 165.568C156.421 165.89 157.618 165.944 158.845 166.036C160.455 166.158 162.061 166.179 163.675 166.189C166.248 166.205 168.822 166.188 171.395 166.117C172.5 166.086 173.146 165.346 173.337 164.499C173.364 164.52 173.391 164.542 173.418 164.564C176.549 167.144 179.386 170.096 181.79 173.363C176 173.381 170.21 173.385 164.42 173.424C161.359 173.445 158.295 173.571 155.235 173.649C153.734 173.688 152.255 173.812 150.76 173.954C150.73 173.957 150.699 173.96 150.669 173.963C150.827 173.78 150.984 173.595 151.138 173.404C152.925 171.189 154.395 168.459 155.261 165.568M192.906 281.851C193.417 280.445 193.219 278.937 193.19 277.458C193.16 275.941 193.144 274.425 193.139 272.908C193.129 269.942 193.109 266.976 193.076 264.01C193.01 258.011 192.94 252.006 192.704 246.01C192.238 234.156 191.339 222.331 189.873 210.557C189.16 204.833 188.275 199.122 187.074 193.479C187.091 193.456 187.108 193.433 187.125 193.41C188.32 191.812 189.68 190.335 190.855 188.725C190.959 188.583 191.002 188.4 191.001 188.215C191.044 188.194 191.087 188.172 191.131 188.147C192.105 187.592 191.225 186.079 190.251 186.641C190.364 186.576 188.746 182.423 188.575 182.004C187.959 180.502 187.266 179.033 186.485 177.61C186.014 176.751 185.51 175.91 184.982 175.085C184.889 174.468 184.557 173.897 183.985 173.592C182.982 172.154 181.898 170.772 180.743 169.456C176.015 164.066 170.109 159.716 163.657 156.617C162.724 156.169 161.764 155.796 160.808 155.405C159.789 154.988 158.845 154.444 157.841 154.007C156.209 153.295 154.596 153.336 152.992 154.089C152.855 154.154 152.954 154.365 153.093 154.328C154.126 154.059 155.183 154.014 156.219 154.306C157.233 154.593 158.004 155.226 158.89 155.754C160.468 156.696 162.233 157.31 163.85 158.189C165.989 159.351 168.08 160.628 170.079 162.03C168.008 162.14 165.934 162.219 163.86 162.274C162.32 162.315 160.78 162.322 159.242 162.411C158.147 162.475 157.009 162.457 155.914 162.634C156.178 160.819 156.179 158.989 155.849 157.221C155.849 157.221 155.849 157.22 155.849 157.219C155.769 156.793 155.673 156.371 155.554 155.953C155.301 155.064 154.491 154.93 153.903 155.267C153.844 155.224 153.785 155.182 153.729 155.136C153.025 154.563 152.39 153.879 151.839 153.159C150.693 151.664 149.767 149.933 149.066 148.188C148.355 146.421 147.852 144.573 147.359 142.736C147.112 141.815 146.845 140.899 146.593 139.979C146.374 139.179 146.215 138.295 145.813 137.566C145.737 137.43 145.51 137.455 145.474 137.61C145.261 138.523 145.374 139.565 145.413 140.496C145.456 141.529 145.515 142.553 145.653 143.578C145.938 145.706 146.398 147.798 147.134 149.818C147.841 151.756 148.773 153.564 150.039 155.197C150.88 156.281 152.074 157.717 153.458 158.301C153.639 160.337 153.618 162.375 153.137 164.39C152.509 167.028 151.305 169.536 149.65 171.685C146.182 176.189 140.816 178.735 135.217 179.259C129.425 179.802 123.498 178.506 118.293 175.957C112.504 173.123 107.702 168.75 103.388 164.029C100.902 161.308 98.3235 158.631 96.019 155.752C95.6106 155.242 94.957 154.206 94.1816 153.273C94.9707 153.266 95.7805 153.148 96.4789 153.058C97.924 152.873 99.3363 152.585 100.748 152.226C103.389 151.554 106.173 150.62 108.48 149.141C113.362 146.013 115.267 142.044 115.918 136.577C116.124 134.849 113.136 134.429 112.858 136.162C112.431 138.828 111.784 140.124 110.934 142.685C110.116 145.145 108.931 146.062 106.667 147.418C104.542 148.692 102.126 149.432 99.7842 150.196C98.4866 150.62 97.1736 151.006 95.865 151.395C95.032 151.643 94.043 151.859 93.1979 152.242C92.757 151.855 92.2971 151.563 91.834 151.453C91.868 151.396 91.8239 151.307 91.7385 151.323C91.6025 151.351 91.4668 151.381 91.3308 151.409C91.1941 151.419 91.058 151.446 90.9222 151.495C82.766 153.262 74.9334 157.024 68.2916 162.15C67.9568 162.29 67.6329 162.461 67.3246 162.678C67.166 162.789 67.0608 162.966 67.0306 163.149C66.0321 163.965 65.0632 164.811 64.1271 165.687C56.5878 172.741 51.8108 182.125 48.4667 191.777C45.1724 201.286 42.9425 211.257 41.7163 221.24C40.4662 231.417 40.3221 241.805 42.1352 251.924C43.1087 257.357 44.6848 262.697 47.011 267.708C49.1001 272.209 52.5004 277.337 57.8413 277.885C57.8584 277.902 57.8744 277.92 57.8937 277.936C59.9892 279.662 63.1092 278.47 65.3001 277.439C65.6474 277.275 65.992 277.103 66.3351 276.927C66.1538 277.625 66.072 278.356 66.0342 279.041C65.9554 280.463 67.9606 280.544 68.3402 279.363C71.5906 279.935 74.947 279.943 78.2345 279.925C81.9078 279.905 85.5798 279.777 89.2489 279.604C96.5288 279.261 103.8 278.736 111.085 278.497C125.835 278.014 140.626 279.047 155.364 279.567C159.499 279.713 163.633 279.858 167.768 280.004C171.992 280.153 176.212 280.182 180.402 280.753C181.943 280.963 182.533 279.453 182.099 278.512C182.207 277.88 182.099 277.187 182.04 276.442C181.929 275.051 181.825 273.659 181.726 272.267C181.535 269.552 181.35 266.836 181.175 264.12C180.819 258.617 180.514 253.11 180.216 247.603C179.625 236.654 179.172 225.697 178.839 214.737C178.758 212.066 178.652 209.393 178.518 206.724C178.677 206.471 178.837 206.217 178.99 205.961C179.502 205.106 180.005 204.246 180.523 203.396C181.564 201.691 182.611 199.997 183.705 198.325C184.649 196.882 185.624 195.46 186.642 194.068C187.906 204.748 189.03 215.439 189.546 226.188C190.114 238.027 190.416 249.883 190.58 261.734C190.625 265.045 190.656 268.356 190.692 271.667C190.71 273.391 190.728 275.114 190.714 276.838C190.7 278.487 190.451 280.29 191.036 281.851C191.377 282.761 192.57 282.777 192.906 281.851Z" fill="black"/>
<path fill-rule="evenodd" clip-rule="evenodd" d="M128.546 56.3938C138.852 56.3938 158.739 68.3415 158.739 68.3415C158.739 68.3415 168.077 107.488 166.195 118.668C164.314 129.849 154.514 143.546 138.289 143.546C122.064 143.546 117.656 137.819 113.753 135.216C109.85 132.613 101.984 120.768 101.984 120.768C101.984 120.768 96.6465 122.431 95.0799 121.469C92.8551 120.103 93.1252 116.509 92.4221 113.034C91.9039 110.473 90.1396 107.961 90.1403 106.535C90.1403 101.362 93.8141 101.732 95.6649 100.492C91.6095 96.4962 92.6768 82.6374 97.7856 75.3587C102.894 68.0799 118.241 56.3938 128.546 56.3938Z" fill="white"/>
<path fill-rule="evenodd" clip-rule="evenodd" d="M147.083 47.5651C147.985 47.4207 148.709 48.6884 147.755 49.1585C143.692 51.1606 139.427 52.6669 135.291 54.4919C137.404 54.7455 139.559 55.1462 141.641 55.7665C144.036 54.7814 146.497 53.9834 149.03 53.4193L149.833 53.2411C152.412 52.6752 155.316 52.1398 157.821 53.0072C158.682 53.3049 158.629 54.3926 157.821 54.7077C156.367 55.2749 154.76 55.4237 153.22 55.6017C151.67 55.7807 150.137 55.9992 148.609 56.3218C147.496 56.5566 146.389 56.8294 145.292 57.1395C145.98 57.4609 146.651 57.8133 147.298 58.2036C150.786 60.3074 153.961 62.7094 156.618 65.8268C159.197 68.8523 161.226 72.2787 162.606 76.0082C162.968 76.9846 163.2 78.0224 163.35 79.0527C163.47 79.8778 163.395 80.6862 163.415 81.5001C163.459 81.517 163.496 81.5498 163.508 81.5993C164.002 83.5612 164.065 85.6933 164.221 87.7104C164.383 89.8028 164.549 91.8945 164.687 93.9888C164.825 96.0723 164.803 98.2465 165.193 100.3C165.547 102.165 166.599 103.821 167.191 105.627C170.744 116.459 167.276 129.439 158.636 136.92C154.273 140.697 148.834 143.091 143.128 143.88C140.161 144.291 137.215 144.28 134.251 143.843C132.845 143.635 131.455 143.323 130.097 142.9L129.594 142.744C129.031 142.568 128.459 142.377 127.938 142.118C127.197 141.748 126.875 141.125 126.615 140.368C126.457 139.909 126.712 139.203 127.17 139.003L127.319 138.939C128.104 138.609 128.737 138.468 129.594 138.791C130.284 139.051 130.985 139.282 131.694 139.483C133.102 139.882 134.546 140.179 136.003 140.322C138.938 140.61 141.908 140.463 144.788 139.818C149.962 138.658 154.701 136.056 158.289 132.13C161.796 128.295 163.992 123.402 164.834 118.293C165.251 115.759 165.286 113.098 164.95 110.551C164.776 109.23 164.48 107.919 164.096 106.643C163.88 105.923 163.601 105.225 163.375 104.509C163.169 103.86 163.107 103.167 163.013 102.49L162.991 102.334C162.736 100.614 162.824 98.8615 162.826 97.1278C162.827 95.3839 162.817 93.6397 162.835 91.8958L162.852 89.9241C162.858 89.2667 162.865 88.6092 162.876 87.952C162.636 87.9903 162.337 87.8134 162.314 87.527C162.23 86.4673 161.99 85.4382 161.857 84.3844L161.822 84.1072C161.697 83.1387 161.545 82.1892 161.14 81.2932C160.319 79.4741 159.74 77.5546 158.962 75.7176C157.415 72.068 155.109 68.7003 152.254 65.9515C148.827 62.6515 144.58 60.308 140.03 58.971C139.885 59.0317 139.739 59.0896 139.595 59.1515C136.713 60.3955 133.977 61.9961 131.379 63.7543C130.04 64.6606 128.752 65.6389 127.522 66.6891C126.923 67.2004 126.323 67.7112 125.738 68.2383C125.488 68.4636 125.24 68.6921 124.995 68.9235C124.831 69.0774 124.669 69.2327 124.508 69.3893C124.138 69.6497 124.13 70.0162 124.484 70.4879C124.61 70.4359 124.692 70.6437 124.576 70.7054C123.874 71.0782 123.323 70.2814 123.472 69.621C123.59 69.098 124.075 68.6179 124.416 68.2072L124.461 68.1517C124.991 67.4963 125.535 66.8455 126.111 66.2296C129.147 62.9854 132.73 60.303 136.615 58.1664C134.982 57.8737 133.327 57.7055 131.672 57.664C130.719 57.6406 129.77 57.656 128.826 57.7089C127.353 58.5094 125.9 59.343 124.474 60.2275C123.284 60.9658 122.111 61.7323 120.958 62.5281C120.358 62.9425 119.765 63.3665 119.173 63.7938C118.876 64.0096 118.42 64.2656 118.181 64.5363L118.163 64.5586C117.996 64.7773 117.512 65.7322 118.141 65.7057C118.208 65.703 118.221 65.8069 118.157 65.8226C117.583 65.9621 117.508 65.3705 117.607 64.9244C117.852 63.8117 119.336 62.9126 120.171 62.2186L120.225 62.1736C121.914 60.7379 123.659 59.3673 125.452 58.0629C119.864 58.9214 114.547 61.1162 109.925 64.4871C103.985 68.8183 99.5204 74.9231 96.546 81.6007C95.1326 84.7739 93.9605 88.1556 93.5411 91.6141C93.1653 94.7138 93.5654 98.1137 95.9828 100.305C96.1144 100.292 96.246 100.279 96.3776 100.27L96.5827 100.257C98.3043 100.165 101.895 100.282 101.779 102.653C101.774 102.751 101.624 102.813 101.576 102.708C101.011 101.481 99.3626 101.701 98.1875 101.895L97.5263 102.004C96.1534 102.232 94.7504 102.526 93.5435 103.24C92.3857 103.925 91.3714 105.021 91.1479 106.393C90.9273 107.745 91.8242 108.765 92.597 109.759C93.4731 110.887 94.1775 112.053 94.2616 113.517C94.3456 114.991 93.6237 116.475 93.8331 117.932C94.3002 121.187 99.0354 120.138 101.071 119.638C101.681 119.488 102.523 119.721 102.804 120.344C104.151 123.321 105.982 126.039 108.288 128.357C109.429 129.503 110.663 130.552 111.997 131.466C113.345 132.389 114.655 133.147 115.579 134.544C115.937 135.085 115.451 135.689 114.895 135.736C113.073 135.89 111.587 134.993 110.15 133.98C108.702 132.959 107.331 131.821 106.083 130.563C103.855 128.316 101.999 125.715 100.611 122.874L100.421 122.91C97.2951 123.485 93.8295 123.482 91.8005 120.623C90.898 119.351 90.7974 117.861 91.0311 116.363C91.2586 114.903 91.7916 113.536 90.9677 112.173C90.2198 110.936 89.1552 109.917 88.7282 108.497C88.3156 107.125 88.5493 105.671 89.1651 104.401C90.3436 101.973 92.7751 100.776 95.3204 100.386C92.2554 98.5402 91.2275 94.7636 91.2223 91.3119C91.2155 86.9889 92.743 82.6203 94.4747 78.7202C97.7416 71.3631 103.253 64.8806 109.979 60.4657C116.22 56.3689 123.744 54.1611 131.219 54.2275C133.139 53.0763 135.11 52.0104 137.116 51.0186L137.545 50.8083C140.618 49.3143 143.683 48.1102 147.083 47.5651ZM94.6152 107.418C94.9873 106.51 96.6227 106.513 97.3947 106.544L97.5365 106.55C99.8855 106.674 103.779 107.633 104.26 110.26C104.341 110.699 104.059 111.278 103.525 111.226C102.752 111.151 102.166 111.009 101.53 110.554L101.209 110.324C100.674 109.944 100.142 109.58 99.5559 109.267C98.8372 108.884 98.0961 108.608 97.3137 108.386C96.993 108.296 96.67 108.202 96.3478 108.116C96.1347 108.06 95.92 108.011 95.7041 107.968C95.4508 107.812 95.286 107.908 95.2101 108.258C95.3097 108.292 95.3006 108.465 95.1837 108.452C94.72 108.403 94.4346 107.859 94.6152 107.418ZM102.079 103.606C102.079 103.595 102.093 103.593 102.098 103.6L102.1 103.606V104.58C102.1 104.591 102.087 104.593 102.081 104.586L102.079 104.58V103.606Z" fill="black"/>
<path fill-rule="evenodd" clip-rule="evenodd" d="M143.152 128.274C141.732 127.695 140.465 126.728 139.538 125.493C139.216 125.063 139.133 124.61 139.2 124.195C139.276 123.729 139.552 123.306 139.928 123.023C140.305 122.739 140.777 122.598 141.233 122.67C141.63 122.732 142.024 122.949 142.337 123.399L142.402 123.489C142.953 124.235 143.67 124.846 144.488 125.241C145.276 125.621 146.158 125.798 147.07 125.695C148.808 125.499 150.005 124.559 151.278 123.282C151.436 123.121 151.594 122.955 151.752 122.786C151.852 122.633 151.991 122.534 152.146 122.483C152.317 122.425 152.511 122.429 152.689 122.491C152.86 122.55 153.013 122.664 153.116 122.815C153.213 122.958 153.269 123.135 153.251 123.339C153.134 124.661 152.443 125.842 151.461 126.769C150.37 127.799 148.924 128.511 147.563 128.761C146.064 129.036 144.536 128.839 143.152 128.274V128.274ZM148.271 107.866C149.866 108.836 152.297 111.098 150.581 113.503C148.56 115.624 145.652 113.193 144.219 112.093C142.889 111.241 141.396 113.433 142.629 114.428C152.986 122.099 157.19 108.12 149.078 106.726C148.184 106.572 147.853 107.566 148.271 107.866ZM129.711 98.9429C129.887 96.7541 133.219 96.257 133.551 98.423C133.847 100.363 133.498 102.145 132.624 103.892C131.79 105.561 129.692 104.783 129.533 103.263C129.32 101.226 129.601 100.304 129.711 98.9429ZM155.076 97.9739C155.541 97.3652 156.211 96.9497 157.015 97.1845C159.526 97.9185 158.786 101.485 157.904 103.22C157.425 104.163 155.876 104.402 155.176 103.572C154.035 102.219 153.489 99.5157 154.939 98.1825C154.979 98.1136 155.022 98.044 155.076 97.9739ZM132.589 89.3654L132.986 89.2959C134.213 89.0836 135.738 88.8796 136.606 89.8665C137.067 90.3898 137.225 91.3624 136.606 91.8633C135.518 92.7446 134.314 92.4031 133.01 92.4777C131.935 92.5394 130.902 92.7174 129.867 93.0135C127.595 93.6629 125.744 94.8486 123.804 96.1505C123.55 96.3213 123.29 95.9956 123.411 95.7574C124.531 93.563 126.701 91.7604 128.875 90.6616C130.036 90.0751 131.305 89.5885 132.589 89.3654ZM152.787 88.3823L153.091 88.4445C156.394 89.1353 160.687 90.5153 162.251 93.7615C162.311 94.2205 162.248 94.3189 162.197 94.3832L162.179 94.4046C162.137 94.4595 162.104 94.5351 161.905 94.5976C161.85 94.5844 161.794 94.5705 161.737 94.5557C161.02 94.3677 160.453 94.1087 159.904 93.84L159.308 93.5465C158.617 93.2076 157.92 92.881 157.181 92.6399C155.605 92.1255 153.983 91.7631 152.337 91.5696C151.98 91.5277 151.636 91.4072 151.365 91.2006C151.107 91.0046 150.911 90.7332 150.821 90.3724C150.705 89.9056 150.738 89.5521 150.989 89.1309C151.177 88.8146 151.447 88.5953 151.756 88.4694C152.071 88.3411 152.43 88.3108 152.787 88.3823Z" fill="black"/>
<path fill-rule="evenodd" clip-rule="evenodd" d="M148.503 116.101C146.153 115.042 141.934 115.966 140.403 116.333C136.842 117.188 133.26 119.034 132.153 121.926C130.905 125.186 133.394 126.212 133.76 126.044C136.225 126.218 139.161 124.668 141.744 124.268C143.841 123.94 146.053 123.654 148.018 122.539C149.453 123.329 152.693 123.755 155.307 124.446C157.534 125.033 158.499 126.307 160.564 126.037C163.038 125.712 162.025 120.506 159.268 118.397C156.25 116.088 151.145 115.152 148.503 116.101ZM153.155 138.361C151.1 138.863 150.961 134.356 150.731 132.763C150.551 131.519 149.537 128.311 146.964 128.45C144.392 128.588 143.425 131.276 143.555 132.948C143.64 134.032 144.639 139.523 141.451 140.218C139.419 140.21 137.068 140.073 134.931 139.679C132.416 139.109 129.146 137.114 128.282 141.043C127.971 142.457 139.05 146.658 143.966 147.038C148.951 148.049 154.785 146.495 158.334 142.679C159.142 141.811 161.416 138.208 161.578 137.326C161.919 135.471 161.13 134.278 158.836 134.931C157.216 135.797 154.477 138.039 153.155 138.361Z" fill="black"/>
</svg>
