<svg width="160" height="33" viewBox="0 0 160 33" fill="none" xmlns="http://www.w3.org/2000/svg">
<path d="M1.36719 13V1.72656H3.72656V6.30469H8.80469V1.72656H11.1641V13H8.80469V8.25H3.72656V13H1.36719ZM17.4922 13.1797C16.612 13.1797 15.8542 13.0026 15.2188 12.6484C14.5833 12.2891 14.0964 11.776 13.7578 11.1094C13.4193 10.4375 13.25 9.63542 13.25 8.70312V8.6875C13.25 7.76042 13.4219 6.96354 13.7656 6.29688C14.1094 5.63021 14.5964 5.11719 15.2266 4.75781C15.862 4.39323 16.6172 4.21094 17.4922 4.21094C18.3672 4.21094 19.1198 4.39062 19.75 4.75C20.3854 5.10938 20.875 5.625 21.2188 6.29688C21.5625 6.96354 21.7344 7.76042 21.7344 8.6875V8.70312C21.7344 9.63542 21.5651 10.4375 21.2266 11.1094C20.888 11.776 20.401 12.2891 19.7656 12.6484C19.1354 13.0026 18.3776 13.1797 17.4922 13.1797ZM17.4922 11.3906C17.8984 11.3906 18.2422 11.2839 18.5234 11.0703C18.8047 10.8568 19.0208 10.5495 19.1719 10.1484C19.3229 9.7474 19.3984 9.26562 19.3984 8.70312V8.6875C19.3984 8.125 19.3229 7.64583 19.1719 7.25C19.0208 6.84896 18.8021 6.54167 18.5156 6.32812C18.2344 6.10938 17.8932 6 17.4922 6C17.0911 6 16.7474 6.10938 16.4609 6.32812C16.1797 6.54167 15.9635 6.84896 15.8125 7.25C15.6615 7.64583 15.5859 8.125 15.5859 8.6875V8.70312C15.5859 9.27083 15.6589 9.75521 15.8047 10.1562C15.9557 10.5573 16.1719 10.8646 16.4531 11.0781C16.7396 11.2865 17.0859 11.3906 17.4922 11.3906ZM24.8672 13L22.5703 4.39844H24.875L26.1562 10.625H26.2969L27.8047 4.39844H29.9766L31.4922 10.625H31.6328L32.9141 4.39844H35.1719L32.8828 13H30.4609L28.9219 7H28.7812L27.2578 13H24.8672ZM43.9922 13.1328C43.2786 13.1328 42.6589 12.9557 42.1328 12.6016C41.612 12.2422 41.2083 11.7318 40.9219 11.0703C40.6406 10.4089 40.5 9.61979 40.5 8.70312V8.6875C40.5 7.76562 40.638 6.97396 40.9141 6.3125C41.1953 5.65104 41.5964 5.14323 42.1172 4.78906C42.638 4.4349 43.263 4.25781 43.9922 4.25781C44.5807 4.25781 45.1016 4.39323 45.5547 4.66406C46.013 4.9349 46.349 5.30469 46.5625 5.77344H46.7031V1.10938H48.9844V13H46.7031V11.6641H46.5625C46.3438 12.1276 46.013 12.4896 45.5703 12.75C45.1276 13.0052 44.6016 13.1328 43.9922 13.1328ZM44.7656 11.2422C45.1719 11.2422 45.5208 11.1406 45.8125 10.9375C46.1042 10.7344 46.3281 10.4427 46.4844 10.0625C46.6458 9.68229 46.7266 9.23177 46.7266 8.71094V8.69531C46.7266 8.16406 46.6458 7.71094 46.4844 7.33594C46.3281 6.95573 46.1016 6.66406 45.8047 6.46094C45.513 6.2526 45.1667 6.14844 44.7656 6.14844C44.3698 6.14844 44.0234 6.2526 43.7266 6.46094C43.4349 6.66406 43.2109 6.95573 43.0547 7.33594C42.8984 7.71094 42.8203 8.16146 42.8203 8.6875V8.70312C42.8203 9.22917 42.8984 9.68229 43.0547 10.0625C43.2109 10.4427 43.4349 10.7344 43.7266 10.9375C44.0182 11.1406 44.3646 11.2422 44.7656 11.2422ZM51.3594 13V4.39844H53.6406V13H51.3594ZM52.5078 3.07812C52.1589 3.07812 51.8568 2.95573 51.6016 2.71094C51.3464 2.46094 51.2188 2.16146 51.2188 1.8125C51.2188 1.45833 51.3464 1.15885 51.6016 0.914062C51.8568 0.664062 52.1589 0.539062 52.5078 0.539062C52.862 0.539062 53.1641 0.664062 53.4141 0.914062C53.6641 1.15885 53.7891 1.45833 53.7891 1.8125C53.7891 2.16146 53.6641 2.46094 53.4141 2.71094C53.1641 2.95573 52.862 3.07812 52.5078 3.07812ZM59.0078 13.1328C58.2943 13.1328 57.6745 12.9557 57.1484 12.6016C56.6276 12.2422 56.224 11.7318 55.9375 11.0703C55.6562 10.4089 55.5156 9.61979 55.5156 8.70312V8.6875C55.5156 7.76562 55.6536 6.97396 55.9297 6.3125C56.2109 5.65104 56.612 5.14323 57.1328 4.78906C57.6536 4.4349 58.2786 4.25781 59.0078 4.25781C59.5964 4.25781 60.1172 4.39323 60.5703 4.66406C61.0286 4.9349 61.3646 5.30469 61.5781 5.77344H61.7188V1.10938H64V13H61.7188V11.6641H61.5781C61.3594 12.1276 61.0286 12.4896 60.5859 12.75C60.1432 13.0052 59.6172 13.1328 59.0078 13.1328ZM59.7812 11.2422C60.1875 11.2422 60.5365 11.1406 60.8281 10.9375C61.1198 10.7344 61.3438 10.4427 61.5 10.0625C61.6615 9.68229 61.7422 9.23177 61.7422 8.71094V8.69531C61.7422 8.16406 61.6615 7.71094 61.5 7.33594C61.3438 6.95573 61.1172 6.66406 60.8203 6.46094C60.5286 6.2526 60.1823 6.14844 59.7812 6.14844C59.3854 6.14844 59.0391 6.2526 58.7422 6.46094C58.4505 6.66406 58.2266 6.95573 58.0703 7.33594C57.9141 7.71094 57.8359 8.16146 57.8359 8.6875V8.70312C57.8359 9.22917 57.9141 9.68229 58.0703 10.0625C58.2266 10.4427 58.4505 10.7344 58.7422 10.9375C59.0339 11.1406 59.3802 11.2422 59.7812 11.2422ZM70.5 13V4.39844H72.7812V13H70.5ZM71.6484 3.07812C71.2995 3.07812 70.9974 2.95573 70.7422 2.71094C70.487 2.46094 70.3594 2.16146 70.3594 1.8125C70.3594 1.45833 70.487 1.15885 70.7422 0.914062C70.9974 0.664062 71.2995 0.539062 71.6484 0.539062C72.0026 0.539062 72.3047 0.664062 72.5547 0.914062C72.8047 1.15885 72.9297 1.45833 72.9297 1.8125C72.9297 2.16146 72.8047 2.46094 72.5547 2.71094C72.3047 2.95573 72.0026 3.07812 71.6484 3.07812ZM78.6484 13.0312C77.6068 13.0312 76.8568 12.849 76.3984 12.4844C75.9401 12.1146 75.7109 11.513 75.7109 10.6797V6.11719H74.3828V4.39844H75.7109V2.34375H78.0156V4.39844H79.7891V6.11719H78.0156V10.1562C78.0156 10.5417 78.1016 10.8255 78.2734 11.0078C78.4505 11.1849 78.7318 11.2734 79.1172 11.2734C79.263 11.2734 79.3828 11.2708 79.4766 11.2656C79.5755 11.2552 79.6797 11.2448 79.7891 11.2344V12.9297C79.6484 12.9557 79.4792 12.9792 79.2812 13C79.0833 13.0208 78.8724 13.0312 78.6484 13.0312ZM89.6094 16.0234C88.8125 16.0234 88.1302 15.9193 87.5625 15.7109C87 15.5078 86.5573 15.2188 86.2344 14.8438C85.9115 14.474 85.7188 14.0469 85.6562 13.5625V13.5234H87.9141L87.9219 13.5547C87.9844 13.8047 88.1615 14.0078 88.4531 14.1641C88.75 14.3203 89.151 14.3984 89.6562 14.3984C90.2656 14.3984 90.7396 14.2604 91.0781 13.9844C91.4167 13.7135 91.5859 13.3281 91.5859 12.8281V11.2266H91.4453C91.2891 11.5286 91.0833 11.7839 90.8281 11.9922C90.5781 12.2005 90.2865 12.3594 89.9531 12.4688C89.625 12.5729 89.263 12.625 88.8672 12.625C88.1484 12.625 87.526 12.4531 87 12.1094C86.4792 11.7604 86.0755 11.276 85.7891 10.6562C85.5078 10.0365 85.3672 9.32031 85.3672 8.50781V8.49219C85.3672 7.64844 85.5078 6.90885 85.7891 6.27344C86.0755 5.63802 86.4818 5.14323 87.0078 4.78906C87.5391 4.4349 88.1719 4.25781 88.9062 4.25781C89.3021 4.25781 89.6641 4.32031 89.9922 4.44531C90.3255 4.57031 90.6172 4.7474 90.8672 4.97656C91.1172 5.20573 91.3177 5.48177 91.4688 5.80469H91.5781V4.39844H93.8594V12.7344C93.8594 13.4062 93.6849 13.987 93.3359 14.4766C92.9922 14.9714 92.5026 15.3516 91.8672 15.6172C91.2318 15.888 90.4792 16.0234 89.6094 16.0234ZM89.6406 10.875C90.0521 10.875 90.4036 10.776 90.6953 10.5781C90.987 10.375 91.2109 10.0964 91.3672 9.74219C91.5286 9.38802 91.6094 8.97396 91.6094 8.5V8.48438C91.6094 8.01562 91.5286 7.60156 91.3672 7.24219C91.2109 6.88281 90.987 6.60417 90.6953 6.40625C90.4036 6.20833 90.0521 6.10938 89.6406 6.10938C89.2292 6.10938 88.8802 6.20833 88.5938 6.40625C88.3073 6.60417 88.0859 6.88281 87.9297 7.24219C87.7786 7.59635 87.7031 8.01042 87.7031 8.48438V8.5C87.7031 8.96875 87.7786 9.38281 87.9297 9.74219C88.0859 10.0964 88.3073 10.375 88.5938 10.5781C88.8802 10.776 89.2292 10.875 89.6406 10.875ZM99.9609 13.1797C99.0807 13.1797 98.3229 13.0026 97.6875 12.6484C97.0521 12.2891 96.5651 11.776 96.2266 11.1094C95.888 10.4375 95.7188 9.63542 95.7188 8.70312V8.6875C95.7188 7.76042 95.8906 6.96354 96.2344 6.29688C96.5781 5.63021 97.0651 5.11719 97.6953 4.75781C98.3307 4.39323 99.0859 4.21094 99.9609 4.21094C100.836 4.21094 101.589 4.39062 102.219 4.75C102.854 5.10938 103.344 5.625 103.688 6.29688C104.031 6.96354 104.203 7.76042 104.203 8.6875V8.70312C104.203 9.63542 104.034 10.4375 103.695 11.1094C103.357 11.776 102.87 12.2891 102.234 12.6484C101.604 13.0026 100.846 13.1797 99.9609 13.1797ZM99.9609 11.3906C100.367 11.3906 100.711 11.2839 100.992 11.0703C101.273 10.8568 101.49 10.5495 101.641 10.1484C101.792 9.7474 101.867 9.26562 101.867 8.70312V8.6875C101.867 8.125 101.792 7.64583 101.641 7.25C101.49 6.84896 101.271 6.54167 100.984 6.32812C100.703 6.10938 100.362 6 99.9609 6C99.5599 6 99.2161 6.10938 98.9297 6.32812C98.6484 6.54167 98.4323 6.84896 98.2812 7.25C98.1302 7.64583 98.0547 8.125 98.0547 8.6875V8.70312C98.0547 9.27083 98.1276 9.75521 98.2734 10.1562C98.4245 10.5573 98.6406 10.8646 98.9219 11.0781C99.2083 11.2865 99.5547 11.3906 99.9609 11.3906ZM107.969 9.46094L107.953 9.00781C107.922 8.59635 107.948 8.23958 108.031 7.9375C108.12 7.63021 108.273 7.35677 108.492 7.11719C108.716 6.8776 109.005 6.65365 109.359 6.44531C109.698 6.24219 109.961 6.05729 110.148 5.89062C110.341 5.72396 110.477 5.54948 110.555 5.36719C110.633 5.1849 110.672 4.97135 110.672 4.72656V4.71094C110.672 4.46615 110.609 4.25 110.484 4.0625C110.365 3.86979 110.193 3.71875 109.969 3.60938C109.745 3.49479 109.484 3.4375 109.188 3.4375C108.891 3.4375 108.63 3.4974 108.406 3.61719C108.182 3.73698 108.005 3.90625 107.875 4.125C107.745 4.33854 107.672 4.59115 107.656 4.88281L107.641 4.89062L105.531 4.89844V4.88281C105.547 4.2474 105.703 3.6849 106 3.19531C106.302 2.70052 106.732 2.3151 107.289 2.03906C107.852 1.76302 108.531 1.625 109.328 1.625C110.073 1.625 110.721 1.7526 111.273 2.00781C111.831 2.26302 112.263 2.61719 112.57 3.07031C112.883 3.52344 113.039 4.04688 113.039 4.64062V4.65625C113.039 5.24479 112.898 5.7526 112.617 6.17969C112.336 6.60156 111.919 6.97396 111.367 7.29688C111.023 7.49479 110.755 7.67969 110.562 7.85156C110.37 8.01823 110.234 8.19531 110.156 8.38281C110.078 8.57031 110.039 8.79167 110.039 9.04688V9.46094H107.969ZM109.086 13.2266C108.648 13.2266 108.302 13.1094 108.047 12.875C107.792 12.6406 107.664 12.3229 107.664 11.9219C107.664 11.5104 107.792 11.1901 108.047 10.9609C108.302 10.7266 108.648 10.6094 109.086 10.6094C109.523 10.6094 109.867 10.7266 110.117 10.9609C110.372 11.1901 110.5 11.5104 110.5 11.9219C110.5 12.3229 110.372 12.6406 110.117 12.875C109.867 13.1094 109.523 13.2266 109.086 13.2266ZM121.641 13L118.656 1.72656H121.109L122.867 9.78125H122.992L125.047 1.72656H127.039L129.133 9.78125H129.258L131 1.72656H133.438L130.445 13H128.234L126.102 5.40625H125.977L123.867 13H121.641ZM135.344 13V1.10938H137.625V5.72656H137.766C137.964 5.25781 138.271 4.88802 138.688 4.61719C139.104 4.34635 139.62 4.21094 140.234 4.21094C140.875 4.21094 141.411 4.33854 141.844 4.59375C142.281 4.84375 142.612 5.20833 142.836 5.6875C143.065 6.16667 143.18 6.75 143.18 7.4375V13H140.898V7.95312C140.898 7.34375 140.771 6.88281 140.516 6.57031C140.26 6.25781 139.862 6.10156 139.32 6.10156C138.971 6.10156 138.669 6.18229 138.414 6.34375C138.164 6.5 137.969 6.72135 137.828 7.00781C137.693 7.29427 137.625 7.63281 137.625 8.02344V13H135.344ZM147.734 13.1328C147.193 13.1328 146.708 13.0286 146.281 12.8203C145.859 12.6068 145.529 12.3073 145.289 11.9219C145.049 11.5312 144.93 11.0755 144.93 10.5547V10.5391C144.93 9.76302 145.219 9.15625 145.797 8.71875C146.375 8.27604 147.198 8.02344 148.266 7.96094L151.469 7.76562V9.15625L148.609 9.34375C148.12 9.36979 147.755 9.47396 147.516 9.65625C147.276 9.83854 147.156 10.0859 147.156 10.3984V10.4141C147.156 10.7422 147.281 11 147.531 11.1875C147.781 11.375 148.104 11.4688 148.5 11.4688C148.854 11.4688 149.169 11.3984 149.445 11.2578C149.721 11.1172 149.94 10.9271 150.102 10.6875C150.263 10.4427 150.344 10.1693 150.344 9.86719V7.125C150.344 6.75 150.219 6.46354 149.969 6.26562C149.724 6.0625 149.367 5.96094 148.898 5.96094C148.487 5.96094 148.151 6.03125 147.891 6.17188C147.635 6.30729 147.464 6.5026 147.375 6.75781L147.359 6.78906H145.25L145.258 6.71875C145.32 6.21354 145.51 5.77344 145.828 5.39844C146.151 5.02344 146.583 4.73177 147.125 4.52344C147.672 4.3151 148.305 4.21094 149.023 4.21094C149.784 4.21094 150.43 4.32812 150.961 4.5625C151.492 4.79167 151.896 5.125 152.172 5.5625C152.453 5.99479 152.594 6.51562 152.594 7.125V13H150.344V11.8594H150.203C150.057 12.125 149.862 12.3542 149.617 12.5469C149.378 12.7344 149.096 12.8802 148.773 12.9844C148.456 13.0833 148.109 13.1328 147.734 13.1328ZM158.398 13.0312C157.357 13.0312 156.607 12.849 156.148 12.4844C155.69 12.1146 155.461 11.513 155.461 10.6797V6.11719H154.133V4.39844H155.461V2.34375H157.766V4.39844H159.539V6.11719H157.766V10.1562C157.766 10.5417 157.852 10.8255 158.023 11.0078C158.201 11.1849 158.482 11.2734 158.867 11.2734C159.013 11.2734 159.133 11.2708 159.227 11.2656C159.326 11.2552 159.43 11.2448 159.539 11.2344V12.9297C159.398 12.9557 159.229 12.9792 159.031 13C158.833 13.0208 158.622 13.0312 158.398 13.0312ZM4.21094 32.1328C3.4974 32.1328 2.8776 31.9557 2.35156 31.6016C1.83073 31.2422 1.42708 30.7318 1.14062 30.0703C0.859375 29.4089 0.71875 28.6198 0.71875 27.7031V27.6875C0.71875 26.7656 0.856771 25.974 1.13281 25.3125C1.41406 24.651 1.8151 24.1432 2.33594 23.7891C2.85677 23.4349 3.48177 23.2578 4.21094 23.2578C4.79948 23.2578 5.32031 23.3932 5.77344 23.6641C6.23177 23.9349 6.56771 24.3047 6.78125 24.7734H6.92188V20.1094H9.20312V32H6.92188V30.6641H6.78125C6.5625 31.1276 6.23177 31.4896 5.78906 31.75C5.34635 32.0052 4.82031 32.1328 4.21094 32.1328ZM4.98438 30.2422C5.39062 30.2422 5.73958 30.1406 6.03125 29.9375C6.32292 29.7344 6.54688 29.4427 6.70312 29.0625C6.86458 28.6823 6.94531 28.2318 6.94531 27.7109V27.6953C6.94531 27.1641 6.86458 26.7109 6.70312 26.3359C6.54688 25.9557 6.32031 25.6641 6.02344 25.4609C5.73177 25.2526 5.38542 25.1484 4.98438 25.1484C4.58854 25.1484 4.24219 25.2526 3.94531 25.4609C3.65365 25.6641 3.42969 25.9557 3.27344 26.3359C3.11719 26.7109 3.03906 27.1615 3.03906 27.6875V27.7031C3.03906 28.2292 3.11719 28.6823 3.27344 29.0625C3.42969 29.4427 3.65365 29.7344 3.94531 29.9375C4.23698 30.1406 4.58333 30.2422 4.98438 30.2422ZM11.5781 32V23.3984H13.8594V32H11.5781ZM12.7266 22.0781C12.3776 22.0781 12.0755 21.9557 11.8203 21.7109C11.5651 21.4609 11.4375 21.1615 11.4375 20.8125C11.4375 20.4583 11.5651 20.1589 11.8203 19.9141C12.0755 19.6641 12.3776 19.5391 12.7266 19.5391C13.0807 19.5391 13.3828 19.6641 13.6328 19.9141C13.8828 20.1589 14.0078 20.4583 14.0078 20.8125C14.0078 21.1615 13.8828 21.4609 13.6328 21.7109C13.3828 21.9557 13.0807 22.0781 12.7266 22.0781ZM19.2266 32.1328C18.513 32.1328 17.8932 31.9557 17.3672 31.6016C16.8464 31.2422 16.4427 30.7318 16.1562 30.0703C15.875 29.4089 15.7344 28.6198 15.7344 27.7031V27.6875C15.7344 26.7656 15.8724 25.974 16.1484 25.3125C16.4297 24.651 16.8307 24.1432 17.3516 23.7891C17.8724 23.4349 18.4974 23.2578 19.2266 23.2578C19.8151 23.2578 20.3359 23.3932 20.7891 23.6641C21.2474 23.9349 21.5833 24.3047 21.7969 24.7734H21.9375V20.1094H24.2188V32H21.9375V30.6641H21.7969C21.5781 31.1276 21.2474 31.4896 20.8047 31.75C20.362 32.0052 19.8359 32.1328 19.2266 32.1328ZM20 30.2422C20.4062 30.2422 20.7552 30.1406 21.0469 29.9375C21.3385 29.7344 21.5625 29.4427 21.7188 29.0625C21.8802 28.6823 21.9609 28.2318 21.9609 27.7109V27.6953C21.9609 27.1641 21.8802 26.7109 21.7188 26.3359C21.5625 25.9557 21.3359 25.6641 21.0391 25.4609C20.7474 25.2526 20.401 25.1484 20 25.1484C19.6042 25.1484 19.2578 25.2526 18.9609 25.4609C18.6693 25.6641 18.4453 25.9557 18.2891 26.3359C18.1328 26.7109 18.0547 27.1615 18.0547 27.6875V27.7031C18.0547 28.2292 18.1328 28.6823 18.2891 29.0625C18.4453 29.4427 18.6693 29.7344 18.9609 29.9375C19.2526 30.1406 19.599 30.2422 20 30.2422ZM32.3359 32L30.0391 23.3984H32.3438L33.625 29.625H33.7656L35.2734 23.3984H37.4453L38.9609 29.625H39.1016L40.3828 23.3984H42.6406L40.3516 32H37.9297L36.3906 26H36.25L34.7266 32H32.3359ZM47.6875 32.1797C46.8177 32.1797 46.0677 32 45.4375 31.6406C44.8125 31.276 44.3307 30.7604 43.9922 30.0938C43.6536 29.4271 43.4844 28.6328 43.4844 27.7109V27.7031C43.4844 26.7917 43.651 26 43.9844 25.3281C44.3229 24.6562 44.7995 24.1354 45.4141 23.7656C46.0339 23.3958 46.7604 23.2109 47.5938 23.2109C48.4323 23.2109 49.1562 23.3906 49.7656 23.75C50.375 24.1094 50.8438 24.612 51.1719 25.2578C51.5 25.9036 51.6641 26.6615 51.6641 27.5312V28.2422H44.625V26.8125H50.5703L49.5 28.1641V27.25C49.5 26.7344 49.4193 26.3047 49.2578 25.9609C49.1016 25.6172 48.8828 25.3594 48.6016 25.1875C48.3255 25.0104 48.0026 24.9219 47.6328 24.9219C47.2682 24.9219 46.9427 25.013 46.6562 25.1953C46.375 25.3724 46.151 25.6354 45.9844 25.9844C45.8229 26.3281 45.7422 26.75 45.7422 27.25V28.1719C45.7422 28.6562 45.8229 29.0703 45.9844 29.4141C46.1458 29.7578 46.375 30.0208 46.6719 30.2031C46.9688 30.3854 47.3229 30.4766 47.7344 30.4766C48.0677 30.4766 48.3516 30.4271 48.5859 30.3281C48.8203 30.2292 49.0078 30.1146 49.1484 29.9844C49.2943 29.849 49.3932 29.7266 49.4453 29.6172L49.4688 29.5703H51.5938L51.5781 29.6484C51.5104 29.9193 51.388 30.2031 51.2109 30.5C51.0339 30.7917 50.7891 31.0651 50.4766 31.3203C50.1693 31.5755 49.7839 31.7839 49.3203 31.9453C48.862 32.1016 48.3177 32.1797 47.6875 32.1797ZM57.7344 32V20.1094H60.0156V32H57.7344ZM66.1562 32.1797C65.2865 32.1797 64.5365 32 63.9062 31.6406C63.2812 31.276 62.7995 30.7604 62.4609 30.0938C62.1224 29.4271 61.9531 28.6328 61.9531 27.7109V27.7031C61.9531 26.7917 62.1198 26 62.4531 25.3281C62.7917 24.6562 63.2682 24.1354 63.8828 23.7656C64.5026 23.3958 65.2292 23.2109 66.0625 23.2109C66.901 23.2109 67.625 23.3906 68.2344 23.75C68.8438 24.1094 69.3125 24.612 69.6406 25.2578C69.9688 25.9036 70.1328 26.6615 70.1328 27.5312V28.2422H63.0938V26.8125H69.0391L67.9688 28.1641V27.25C67.9688 26.7344 67.888 26.3047 67.7266 25.9609C67.5703 25.6172 67.3516 25.3594 67.0703 25.1875C66.7943 25.0104 66.4714 24.9219 66.1016 24.9219C65.737 24.9219 65.4115 25.013 65.125 25.1953C64.8438 25.3724 64.6198 25.6354 64.4531 25.9844C64.2917 26.3281 64.2109 26.75 64.2109 27.25V28.1719C64.2109 28.6562 64.2917 29.0703 64.4531 29.4141C64.6146 29.7578 64.8438 30.0208 65.1406 30.2031C65.4375 30.3854 65.7917 30.4766 66.2031 30.4766C66.5365 30.4766 66.8203 30.4271 67.0547 30.3281C67.2891 30.2292 67.4766 30.1146 67.6172 29.9844C67.763 29.849 67.862 29.7266 67.9141 29.6172L67.9375 29.5703H70.0625L70.0469 29.6484C69.9792 29.9193 69.8568 30.2031 69.6797 30.5C69.5026 30.7917 69.2578 31.0651 68.9453 31.3203C68.638 31.5755 68.2526 31.7839 67.7891 31.9453C67.3307 32.1016 66.7865 32.1797 66.1562 32.1797ZM74.3438 32.1328C73.8021 32.1328 73.3177 32.0286 72.8906 31.8203C72.4688 31.6068 72.138 31.3073 71.8984 30.9219C71.6589 30.5312 71.5391 30.0755 71.5391 29.5547V29.5391C71.5391 28.763 71.8281 28.1562 72.4062 27.7188C72.9844 27.276 73.8073 27.0234 74.875 26.9609L78.0781 26.7656V28.1562L75.2188 28.3438C74.7292 28.3698 74.3646 28.474 74.125 28.6562C73.8854 28.8385 73.7656 29.0859 73.7656 29.3984V29.4141C73.7656 29.7422 73.8906 30 74.1406 30.1875C74.3906 30.375 74.7135 30.4688 75.1094 30.4688C75.4635 30.4688 75.7786 30.3984 76.0547 30.2578C76.3307 30.1172 76.5495 29.9271 76.7109 29.6875C76.8724 29.4427 76.9531 29.1693 76.9531 28.8672V26.125C76.9531 25.75 76.8281 25.4635 76.5781 25.2656C76.3333 25.0625 75.9766 24.9609 75.5078 24.9609C75.0964 24.9609 74.7604 25.0312 74.5 25.1719C74.2448 25.3073 74.0729 25.5026 73.9844 25.7578L73.9688 25.7891H71.8594L71.8672 25.7188C71.9297 25.2135 72.1198 24.7734 72.4375 24.3984C72.7604 24.0234 73.1927 23.7318 73.7344 23.5234C74.2812 23.3151 74.9141 23.2109 75.6328 23.2109C76.3932 23.2109 77.0391 23.3281 77.5703 23.5625C78.1016 23.7917 78.5052 24.125 78.7812 24.5625C79.0625 24.9948 79.2031 25.5156 79.2031 26.125V32H76.9531V30.8594H76.8125C76.6667 31.125 76.4714 31.3542 76.2266 31.5469C75.987 31.7344 75.7057 31.8802 75.3828 31.9844C75.0651 32.0833 74.7188 32.1328 74.3438 32.1328ZM81.4375 32V23.3984H83.7188V24.7344H83.8594C84 24.2656 84.2578 23.9036 84.6328 23.6484C85.0078 23.388 85.474 23.2578 86.0312 23.2578C86.1875 23.2578 86.3385 23.2682 86.4844 23.2891C86.6354 23.3099 86.7682 23.3359 86.8828 23.3672V25.3594C86.7109 25.3177 86.5365 25.2865 86.3594 25.2656C86.1875 25.2396 86.013 25.2266 85.8359 25.2266C85.4036 25.2266 85.0286 25.3073 84.7109 25.4688C84.3932 25.625 84.1484 25.849 83.9766 26.1406C83.8047 26.4323 83.7188 26.7812 83.7188 27.1875V32H81.4375ZM88.4844 32V23.3984H90.7656V24.7266H90.9062C91.1042 24.2578 91.4115 23.888 91.8281 23.6172C92.2448 23.3464 92.7604 23.2109 93.375 23.2109C94.3333 23.2109 95.0625 23.4922 95.5625 24.0547C96.0677 24.612 96.3203 25.4062 96.3203 26.4375V32H94.0391V26.9531C94.0391 26.3438 93.9115 25.8828 93.6562 25.5703C93.401 25.2578 93.0026 25.1016 92.4609 25.1016C92.112 25.1016 91.8099 25.1823 91.5547 25.3438C91.3047 25.5 91.1094 25.7214 90.9688 26.0078C90.8333 26.2943 90.7656 26.6328 90.7656 27.0234V32H88.4844ZM102.312 32.1797C101.443 32.1797 100.693 32 100.062 31.6406C99.4375 31.276 98.9557 30.7604 98.6172 30.0938C98.2786 29.4271 98.1094 28.6328 98.1094 27.7109V27.7031C98.1094 26.7917 98.276 26 98.6094 25.3281C98.9479 24.6562 99.4245 24.1354 100.039 23.7656C100.659 23.3958 101.385 23.2109 102.219 23.2109C103.057 23.2109 103.781 23.3906 104.391 23.75C105 24.1094 105.469 24.612 105.797 25.2578C106.125 25.9036 106.289 26.6615 106.289 27.5312V28.2422H99.25V26.8125H105.195L104.125 28.1641V27.25C104.125 26.7344 104.044 26.3047 103.883 25.9609C103.727 25.6172 103.508 25.3594 103.227 25.1875C102.951 25.0104 102.628 24.9219 102.258 24.9219C101.893 24.9219 101.568 25.013 101.281 25.1953C101 25.3724 100.776 25.6354 100.609 25.9844C100.448 26.3281 100.367 26.75 100.367 27.25V28.1719C100.367 28.6562 100.448 29.0703 100.609 29.4141C100.771 29.7578 101 30.0208 101.297 30.2031C101.594 30.3854 101.948 30.4766 102.359 30.4766C102.693 30.4766 102.977 30.4271 103.211 30.3281C103.445 30.2292 103.633 30.1146 103.773 29.9844C103.919 29.849 104.018 29.7266 104.07 29.6172L104.094 29.5703H106.219L106.203 29.6484C106.135 29.9193 106.013 30.2031 105.836 30.5C105.659 30.7917 105.414 31.0651 105.102 31.3203C104.794 31.5755 104.409 31.7839 103.945 31.9453C103.487 32.1016 102.943 32.1797 102.312 32.1797ZM111.227 32.1328C110.513 32.1328 109.893 31.9557 109.367 31.6016C108.846 31.2422 108.443 30.7318 108.156 30.0703C107.875 29.4089 107.734 28.6198 107.734 27.7031V27.6875C107.734 26.7656 107.872 25.974 108.148 25.3125C108.43 24.651 108.831 24.1432 109.352 23.7891C109.872 23.4349 110.497 23.2578 111.227 23.2578C111.815 23.2578 112.336 23.3932 112.789 23.6641C113.247 23.9349 113.583 24.3047 113.797 24.7734H113.938V20.1094H116.219V32H113.938V30.6641H113.797C113.578 31.1276 113.247 31.4896 112.805 31.75C112.362 32.0052 111.836 32.1328 111.227 32.1328ZM112 30.2422C112.406 30.2422 112.755 30.1406 113.047 29.9375C113.339 29.7344 113.562 29.4427 113.719 29.0625C113.88 28.6823 113.961 28.2318 113.961 27.7109V27.6953C113.961 27.1641 113.88 26.7109 113.719 26.3359C113.562 25.9557 113.336 25.6641 113.039 25.4609C112.747 25.2526 112.401 25.1484 112 25.1484C111.604 25.1484 111.258 25.2526 110.961 25.4609C110.669 25.6641 110.445 25.9557 110.289 26.3359C110.133 26.7109 110.055 27.1615 110.055 27.6875V27.7031C110.055 28.2292 110.133 28.6823 110.289 29.0625C110.445 29.4427 110.669 29.7344 110.961 29.9375C111.253 30.1406 111.599 30.2422 112 30.2422ZM120.484 28.4609L120.469 28.0078C120.438 27.5964 120.464 27.2396 120.547 26.9375C120.635 26.6302 120.789 26.3568 121.008 26.1172C121.232 25.8776 121.521 25.6536 121.875 25.4453C122.214 25.2422 122.477 25.0573 122.664 24.8906C122.857 24.724 122.992 24.5495 123.07 24.3672C123.148 24.1849 123.188 23.9714 123.188 23.7266V23.7109C123.188 23.4661 123.125 23.25 123 23.0625C122.88 22.8698 122.708 22.7188 122.484 22.6094C122.26 22.4948 122 22.4375 121.703 22.4375C121.406 22.4375 121.146 22.4974 120.922 22.6172C120.698 22.737 120.521 22.9062 120.391 23.125C120.26 23.3385 120.188 23.5911 120.172 23.8828L120.156 23.8906L118.047 23.8984V23.8828C118.062 23.2474 118.219 22.6849 118.516 22.1953C118.818 21.7005 119.247 21.3151 119.805 21.0391C120.367 20.763 121.047 20.625 121.844 20.625C122.589 20.625 123.237 20.7526 123.789 21.0078C124.346 21.263 124.779 21.6172 125.086 22.0703C125.398 22.5234 125.555 23.0469 125.555 23.6406V23.6562C125.555 24.2448 125.414 24.7526 125.133 25.1797C124.852 25.6016 124.435 25.974 123.883 26.2969C123.539 26.4948 123.271 26.6797 123.078 26.8516C122.885 27.0182 122.75 27.1953 122.672 27.3828C122.594 27.5703 122.555 27.7917 122.555 28.0469V28.4609H120.484ZM121.602 32.2266C121.164 32.2266 120.818 32.1094 120.562 31.875C120.307 31.6406 120.18 31.3229 120.18 30.9219C120.18 30.5104 120.307 30.1901 120.562 29.9609C120.818 29.7266 121.164 29.6094 121.602 29.6094C122.039 29.6094 122.383 29.7266 122.633 29.9609C122.888 30.1901 123.016 30.5104 123.016 30.9219C123.016 31.3229 122.888 31.6406 122.633 31.875C122.383 32.1094 122.039 32.2266 121.602 32.2266Z" fill="black"/>
</svg>
