<svg width="1033" height="417" viewBox="0 0 1033 417" fill="none" xmlns="http://www.w3.org/2000/svg">
<g filter="url(#filter0_bd_1218_4899)">
<rect x="1.5" y="1.5" width="1030" height="413" stroke="black" stroke-width="3" stroke-dasharray="6 6"/>
</g>
<path d="M60 84H357V332H60V84Z" fill="#C5C7D0"/>
<path d="M126.327 111.253C137.989 111.253 149.541 113.183 161.16 113.93C183.969 115.397 207.435 116.074 230.282 115.387C247.678 114.864 265.057 114.913 282.462 114.913C288.643 114.913 294.788 115.469 300.962 115.523C303.306 115.543 305.975 115.964 308.078 114.913" stroke="black" stroke-linecap="square"/>
<path d="M126.937 109.424C123.744 112.262 121.575 115.725 120.364 120.063C118.081 128.238 118.763 135.811 119.314 144.188C120.829 167.255 118.132 190.704 116.433 213.717C115.079 232.074 110.573 250.014 109.25 268.37C108.573 277.772 106.338 287.035 106.201 296.46C106.111 302.61 105.301 308.771 105.625 314.926C105.705 316.445 106.823 320.437 106.201 321.059" stroke="black" stroke-linecap="square"/>
<path d="M312.957 118.572C313.072 119.497 314.122 118.86 314.177 119.792C314.486 125.047 313.815 130.469 313.702 135.717C313.385 150.505 313.681 165.257 314.041 180.037C314.418 195.486 313.107 210.967 312.347 226.389C311.259 248.475 309.782 270.749 309.907 292.868C309.954 301.052 310.402 309.316 311.737 317.4C312.101 319.602 312.957 321.868 312.957 324.109" stroke="black" stroke-linecap="square"/>
<path d="M128.767 124.671C128.169 124.746 127.547 126.2 127.547 126.806C127.547 132.011 126.327 137.181 126.327 142.358" stroke="black" stroke-linecap="square"/>
<path d="M128.767 122.842C130.103 122.842 130.915 123.451 132.46 123.451C151.503 123.451 170.517 122.299 189.554 122.232C211.821 122.153 234.096 121.769 256.372 121.622C265.58 121.561 274.799 120.678 283.987 120.097C287.508 119.874 291 119.828 294.524 119.792C296.315 119.774 298.685 118.932 300.42 119.318C304.722 120.274 302.589 127.472 302.284 130.465C301.88 134.421 301.979 138.387 301.979 142.358" stroke="black" stroke-linecap="square"/>
<path d="M123.888 146.628C160.099 146.628 196.655 147.333 233.026 146.323C248.196 145.901 263.313 145.73 278.464 144.798C284.68 144.415 290.864 142.968 297.099 142.968" stroke="black" stroke-linecap="square"/>
<path d="M134.256 139.919C135.762 139.919 137.325 140.198 138.593 139.241C141.535 137.022 142.415 131.493 137.306 132.735C134.352 133.454 132.152 135.362 133.172 138.699C134.221 142.134 138.621 139.855 140.355 138.699" stroke="black" stroke-linecap="square"/>
<path d="M140.965 138.089C141.142 139.686 144.179 141.303 145.234 142.358" stroke="black" stroke-linecap="square"/>
<path d="M123.278 155.776H293.44" stroke="black" stroke-linecap="square"/>
<path d="M122.668 156.386V271.657" stroke="black" stroke-linecap="square"/>
<path d="M123.888 268.608H298.929" stroke="black" stroke-linecap="square"/>
<path d="M299.539 160.655V267.998" stroke="black" stroke-linecap="square"/>
<path d="M192.197 203.348C193.495 203.348 192.966 203.626 193.552 204.433C193.981 205.022 194.2 208.652 194.568 208.499C195.535 208.096 196.947 204.538 198.363 205.991C199.299 206.951 198.779 209.364 200.667 207.753C201.64 206.924 204.253 203.095 205.818 205.042C207.085 206.62 207.922 209.978 208.664 211.887" stroke="black" stroke-linecap="square"/>
<path d="M215.373 205.178C215.373 200.359 210.518 205.326 214.323 205.619C215.018 205.672 215.133 208.277 215.881 208.804C218.142 210.395 219.732 206.426 220.049 204.975C220.999 200.62 220.042 204.742 219.981 206.906C219.853 211.42 219.971 215.92 220.252 220.426" stroke="black" stroke-linecap="square"/>
<path d="M220.862 210.667C220.513 209.925 219.447 208.489 220.117 207.618C220.679 206.886 223.307 205.343 224.25 205.923C225.141 206.472 218.759 208.837 217.812 208.837" stroke="black" stroke-linecap="square"/>
<path d="M129.987 282.635C129.987 280.95 129.109 281.661 127.852 281.382C122.063 280.095 115.375 283.534 112.944 288.7C111.568 291.623 110.74 296.578 112.435 299.577C115.411 304.841 121.306 305.497 126.87 305.066C133.29 304.568 137.851 299.701 139.373 293.614C140.64 288.543 137.769 284.999 133.341 282.703C128.012 279.94 118.565 282.69 115.349 287.515" stroke="black" stroke-linecap="square"/>
<path d="M154.383 281.416C154.273 280.536 152.651 280.669 151.943 280.806C147.484 281.663 142.255 286.272 140.694 290.53C137.174 300.129 150.087 304.038 157.127 302.999C167.638 301.448 172.807 287.255 162.04 282.025C156.594 279.38 145.959 278.804 142.185 284.465" stroke="black" stroke-linecap="square"/>
<path d="M179.999 281.416C179.613 278.332 169.059 286.256 169.054 286.261C162.941 292.845 171.428 303.061 178.237 304.253C182.669 305.028 188.32 304.483 191.824 301.407C197.031 296.834 197.197 287.954 192.807 282.771C189.439 278.796 183.416 277.512 178.474 278.061C173.364 278.629 171.128 280.663 167.801 284.465" stroke="black" stroke-linecap="square"/>
<path d="M126.327 289.344C125.796 288.879 123.804 289.344 122.905 289.344C119.266 289.344 120.024 289.433 119.314 292.699C119.088 293.735 118.133 299.04 119.754 299.103C122.976 299.227 125.186 299.328 126.327 296.189C126.635 295.344 127.727 289.482 128.598 289.683C130.077 290.024 134.767 288.815 133.951 290.937C133.157 293.003 133.284 296.006 132.291 297.883C131.711 298.979 126.94 299.103 125.718 299.103" stroke="black" stroke-linecap="square"/>
<path d="M151.943 296.053C148.858 295.71 148.953 291.768 149.639 289.48C150.375 287.028 153.49 286.295 155.603 286.295" stroke="black" stroke-linecap="square"/>
<path d="M155.603 289.954C155.188 290.421 154.45 291.793 154.383 292.394C154.055 295.34 154.777 291.291 154.959 290.293C155.194 289 157.62 288.935 157.297 290.09C156.912 291.465 154.513 294.156 155.941 294.156C156.117 294.156 157.605 291.929 158.008 293.342C158.744 295.916 158.497 292.647 159.736 293.749C160.201 294.162 159.219 296.497 158.957 296.968C158.231 298.276 156.983 297.883 155.603 297.883" stroke="black" stroke-linecap="square"/>
<path d="M174.51 294.223C174.658 295.412 175.799 293.882 176.204 293.478C177.542 292.139 177.985 290.66 178.169 288.734C178.218 288.221 184.176 286.905 185.115 286.905C186.062 286.905 183.768 288.273 183.319 289.107C182.561 290.516 182.194 292.632 181.218 293.851C181.161 293.922 179.61 292.27 178.779 293.309C178.106 294.149 176.65 294.983 175.729 295.443" stroke="black" stroke-linecap="square"/>
<path d="M149.504 135.649C148.218 135.81 149.001 137.73 149.809 138.089C153.405 139.687 158.866 132.543 154.349 132.092C151.164 131.773 149.963 135.446 150.859 137.953C152.329 142.069 155.707 135.837 156.822 135.311C160.702 133.479 156.657 141.187 159.872 137.513C162.31 134.727 161.013 142.896 163.836 139.478C165.065 137.991 165.543 135.958 165.835 134.091C166.236 131.534 165.35 135.26 165.361 136.124C165.43 141.262 169.388 139.914 170.85 136.259" stroke="black" stroke-linecap="square"/>
<path d="M166.581 134.43C164.604 134.43 168.628 133.544 169.63 133.21" stroke="black" stroke-linecap="square"/>
<path d="M170.85 136.869C171.134 139.143 174.342 134.43 172.07 134.43C170.015 134.43 170.722 138.159 171.765 138.97C173.554 140.362 174.05 136.186 174.171 135.446C174.979 130.484 174.035 138.053 175.458 135.853C177.702 132.385 176.884 135.401 177.051 137.649C177.287 140.839 181.488 137.209 182.438 136.259" stroke="black" stroke-linecap="square"/>
<path d="M190.977 132.6C191.188 130.912 190.095 138.186 188.944 137.682C185.679 136.254 197.612 128.447 193.145 133.176C191.805 134.595 187.223 136.638 187.927 133.82" stroke="black" stroke-linecap="square"/>
<path d="M196.466 132.6C196.611 131.436 193.445 138.215 192.807 139.309" stroke="black" stroke-linecap="square"/>
<path d="M198.296 135.649C199.266 135.528 198.471 133.034 196.466 135.04C195.36 136.146 195.612 137.536 197.55 136.937C197.902 136.828 199.682 134.972 199.38 134.972C198.877 134.972 198.777 137.338 199.312 137.581C201.977 138.792 201.25 132.659 202.091 137.073C202.665 140.09 206.791 134.214 207.173 134.701C208.105 135.887 208.478 137.585 210.46 136.869C210.947 136.693 213.116 134.138 212.222 134.362C211.067 134.651 210.93 136.319 211.612 137.073C212.882 138.477 214.488 137.853 215.983 137.479" stroke="black" stroke-linecap="square"/>
<path d="M122.463 110.634C118.378 115.231 111.239 117.715 107.829 122.829" stroke="black" stroke-width="2" stroke-linecap="square"/>
<path d="M106 123.439C106 88.3536 104.667 193.633 102.07 228.622C99.7409 260.016 97.2624 291.498 95.0244 322.829" stroke="black" stroke-width="2" stroke-linecap="square"/>
<path d="M159.049 306.976C159.945 307.088 159.659 308.148 159.659 308.839C159.659 318.006 159.45 328.482 161.556 337.43C162.748 342.495 170.185 341.426 173.886 340.851C178.457 340.141 184.143 339.55 188.317 337.463" stroke="black" stroke-linecap="square"/>
<path d="M203.561 288.073C202.633 288.073 202.277 288.528 201.427 288.717C196.8 289.745 210.773 290.343 215.485 290.851C218.406 291.166 227.186 291.952 224.259 291.698C222.36 291.533 220.468 291.302 218.568 291.156C217.784 291.096 222.903 290.703 223.886 290.648C229.864 290.309 221.854 293.795 221.854 296" stroke="black" stroke-linecap="square"/>
<path d="M240.756 286.854C240.817 286.663 241.486 283.887 241.332 285.499C241.01 288.878 239.516 292.222 238.487 295.424C238.344 295.866 238.285 296.347 238.046 296.745C237.84 297.088 238.26 295.974 238.385 295.593C239.594 291.907 240.921 288.166 242.924 284.821C246.833 278.294 245.785 285.185 245.024 288.073" stroke="black" stroke-linecap="square"/>
<path d="M238.927 298.439C240.13 298.305 240.773 297.049 242.043 296.982C244.62 296.847 245.416 302.214 247.463 301.42C250.376 300.291 247.466 294.169 243.805 297.829" stroke="black" stroke-linecap="square"/>
<path d="M249.902 297.22C251.92 297.22 252.406 296.985 252.206 299.049C252.066 300.491 254.042 299.172 254.51 298.913C256.315 297.913 256.162 298.201 257.829 298.439" stroke="black" stroke-linecap="square"/>
<path d="M229.171 310.024C229.459 309.736 227.496 313.205 227.07 314.36C225.773 317.883 229.097 310.1 229.679 309.381C232.435 305.976 232.968 318.122 233.134 319.374C233.545 322.476 234.507 322.336 233.033 320.526C231.492 318.635 229.321 318.978 227.172 319.137C224.327 319.348 228.715 317.4 229.103 317.206C231.467 316.024 236.013 313.931 237.098 314.293" stroke="black" stroke-linecap="square"/>
<path d="M240.146 313.683C240.146 311.41 237.482 314.283 237.335 315.275C236.889 318.286 239.965 316.568 241.027 316.732C241.542 316.811 240.67 317.714 240.553 318.222C240.433 318.742 239.859 321.097 241.23 320.932C242.949 320.726 244.485 318.291 245.397 317.037C246.014 316.188 244.617 319.876 244.55 320.729C244.309 323.814 248.105 319.228 248.547 318.73C250.617 316.402 250.001 318.09 250.173 319.984C250.53 323.909 256.241 314.913 255.661 320.322C255.145 325.141 260.936 314.341 262.538 317.545C263.809 320.088 260.282 324.138 265.485 319.916C268.807 317.221 268.414 318.49 267.585 322.22" stroke="black" stroke-linecap="square"/>
<path d="M268.195 321C268.33 323.434 269.184 323.827 271.515 323.134C273.923 322.418 274.202 324.989 275.885 324.184C276.565 323.859 281.22 319.221 281.474 319.984C282.693 323.641 281.858 327.677 283.439 331.366" stroke="black" stroke-linecap="square"/>
<path d="M78.561 195.39H82.8293" stroke="black" stroke-linecap="square"/>
<path d="M66.3658 215.512H66.9756" stroke="black" stroke-linecap="square"/>
<path d="M368 84H665V332H368V84Z" fill="#C5C7D0"/>
<path d="M400.512 120.39C400.512 137.796 398.518 155.229 397.904 172.626C396.752 205.226 398.655 237.801 397.938 270.39C397.543 288.321 396.248 306.041 397.768 323.947C398.22 329.271 399.293 345.245 399.293 339.902" stroke="black" stroke-linecap="square"/>
<path d="M406 116.732C401.449 116.163 415.113 115.669 419.686 115.309C452.958 112.69 486.07 110.506 519.449 110.024C535.487 109.793 550.68 108.031 566.501 105.824C581.627 103.713 597.066 104.537 612.301 104.537C614.111 104.537 617.466 104.129 618.94 105.553C623.151 109.618 622.218 119.08 622.328 124.184C623.08 158.99 615.036 193.398 612.978 228.046C611.89 246.383 613.269 264.171 615.417 282.28C616.324 289.924 616.536 298.016 616.942 305.722C617.211 310.834 618.195 315.868 618.195 321" stroke="black" stroke-linecap="square"/>
<path d="M430.39 124.049C426.8 124.498 427.647 136.109 428.832 137.463C430.712 139.612 434.954 140.077 437.504 140.512C446.542 142.055 455.813 141.791 464.943 142.07C487.105 142.748 508.844 142.727 530.966 141.156C549.164 139.864 567.766 140.981 585.844 138.344C589.896 137.753 592.185 137.154 593.669 133.195C595.165 129.206 596.681 124.236 596.583 119.916C596.528 117.489 594.49 116.462 592.484 115.817C582.318 112.55 569.463 114.212 559.049 114.428C539.358 114.837 519.707 115.779 500.004 115.478C490.237 115.329 480.506 114.293 470.736 114.293C468.018 114.293 430.489 112.76 432.22 117.951" stroke="black" stroke-linecap="square"/>
<path d="M441.366 130.756H443.805" stroke="black" stroke-linecap="square"/>
<path d="M457.219 130.756C457.342 129.779 458.912 130.146 459.659 130.146" stroke="black" stroke-linecap="square"/>
<path d="M466.366 130.146H468.805" stroke="black" stroke-linecap="square"/>
<path d="M502.951 161.244C495.837 159.602 486.976 160.828 480.119 161.244C468.714 161.936 447.427 163.462 436.081 165.173C431.563 165.855 427.018 166.657 422.701 168.154C417.061 170.111 417.827 171.009 416.942 175.438C414.205 189.122 409.87 202.643 409.184 216.664C408.377 233.169 408.882 250.227 409.659 266.732C409.962 273.177 410.222 279.7 411.014 286.108C411.384 289.108 411.529 293.08 412.436 295.932C413.755 300.078 425.304 299.435 428.425 299.659C453.173 301.433 478.006 302.98 502.816 303.249C521.911 303.456 541.28 304.039 560.37 303.012C568.803 302.559 577.36 302.559 585.743 301.488C589.001 301.071 595.476 301.309 598.073 298.947C599.703 297.465 600.719 295.271 601.393 293.222C603.863 285.714 604.426 277.298 605.39 269.509C608.317 245.875 610.307 222.128 613.283 198.507C614.29 190.513 617.162 181.002 616.298 172.795C615.71 167.204 610.574 165.133 605.729 164.157C590.678 161.126 575.39 160.513 560.065 160.16C530.48 159.479 501.207 162.605 471.718 164.157C461.099 164.716 450.376 164.293 439.74 164.293C435.248 164.293 429.841 164.226 425.377 165.038C422.823 165.502 419.239 165.079 417.281 167.037C415.563 168.754 412.17 171.069 411.217 173.236C409.25 177.705 409.437 183.116 409.184 187.87C408.602 198.797 408.693 209.741 408.1 220.661C406.963 241.621 406.391 263.104 408.71 283.974C409.123 287.689 409.558 291.658 409.659 295.39C409.681 296.224 410.008 298.089 409.659 298.439" stroke="black" stroke-linecap="square"/>
<path d="M449.902 255.146C449.968 255.738 450.225 256.079 450.648 256.501C454.65 260.504 466.021 261.988 470.499 262.972C493.165 267.952 515.691 267.342 537.978 260.634C554.49 255.665 570.827 247.244 581.474 233.297C586.437 226.797 591.697 217.051 583.236 210.973C570.794 202.036 551.745 201.238 537.131 201.318C515.966 201.435 494.434 205.331 474.36 211.989C463.976 215.434 451.487 220.002 443.907 228.385C430.668 243.025 451.358 255.07 463.859 258.534C495.673 267.348 533.468 267.133 564.062 253.995C578.582 247.759 611.085 226.007 584.862 212.057C566.485 202.281 542.419 204.653 522.701 207.043C508.467 208.769 498.322 210.671 484.489 214.191C470.797 217.675 458.24 222.95 445.024 227.707" stroke="black" stroke-linecap="square"/>
<path d="M375.512 303.927C375.592 303.292 380.672 300.795 381.068 300.539C384.976 298.015 389.197 296.134 393.229 293.866C397.156 291.657 401.761 288.865 405.966 287.463C408.123 286.745 415.355 284.745 413.927 282.247C412.639 279.992 412.175 278.031 414.875 276.488C418.31 274.525 418.913 277.52 421.583 278.283C423.027 278.696 424.636 277.82 425.546 276.759C427.989 273.909 433.207 272.031 436.488 270.39C442.583 267.343 450.841 263.683 457.829 263.683C461.804 263.683 456.163 266.73 455.356 267.375C450.446 271.304 444.535 274.559 440.519 279.503C438.859 281.546 438.151 282.103 440.892 281.976C444.147 281.824 446.786 280.892 449.902 282.45C450.622 282.81 438.995 285.505 439.198 287.328C439.275 288.02 446.586 286.328 447.463 286.718C449.938 287.818 442.32 290.738 444.076 290.377C445.022 290.182 448.742 289.942 448.514 291.766C448.311 293.384 445.22 294.202 443.94 294.645C443.153 294.917 451.031 294.245 449.631 297.22C448.494 299.636 444.42 300.109 442.111 300.268C438.289 300.532 434.689 302.707 430.661 302.707C427.924 302.707 425.422 302.554 422.734 302.707C421.199 302.795 420.115 304.382 418.805 304.537C415.969 304.87 412.552 308.603 410.133 310.024C405.399 312.804 400.94 315.806 396.515 319.035C394.422 320.562 392.109 321.791 389.672 322.694C388.456 323.144 385.676 325.874 386.488 323.439" stroke="black" stroke-linecap="square"/>
<path d="M495.634 124.659C496.832 123.31 496.013 122.22 494.381 122.22C491.675 122.22 486.412 127.942 488.046 130.621C489.221 132.548 496.788 130.868 494.719 131.772C493.374 132.361 490.79 133.805 494.211 132.653C496.742 131.801 503.365 127.647 500.715 127.978C497.348 128.399 498.431 139.635 505.593 131.637C510.514 126.142 498.834 131.246 501.833 134.245C503.628 136.04 508.005 126.805 506.339 132.28C505.355 135.512 508.474 132.9 509.591 132.077C512.254 130.115 511.171 131.439 511.86 133.093C512.735 135.194 519.101 125.183 518.127 127.911C516.494 132.483 516.335 136.053 521.108 131.501C523.704 129.026 520.21 136.516 525.241 133.195C528.047 131.344 527.222 133.29 528.866 129.638C530.259 126.542 530.39 126.629 530.39 130.451C530.39 135.128 530.753 132.247 533.71 132.247C535.376 132.247 536.363 133.479 538.182 132.924C539.255 132.597 541.933 130.691 541.23 129.198C540.81 128.304 538.827 131.163 540.079 131.163C541.4 131.163 543.79 127.732 543.398 128.995C541.74 134.338 539.078 139.298 537.707 144.78" stroke="black" stroke-linecap="square"/>
<path d="M485.268 243.561C485.268 242.8 485.344 242.112 484.963 241.427C481.543 235.269 479.098 228.443 474.97 222.694C474.377 221.868 473.035 219.157 472.192 218.595C471.234 217.956 474.496 218.558 475.648 218.527C479.987 218.411 484.301 218.068 488.622 217.68C489.023 217.644 495.184 216.517 495.499 216.867C497.29 218.857 495.291 228.208 495.16 230.553C494.894 235.309 493.805 249.544 493.805 244.78" stroke="black" stroke-linecap="square"/>
<path d="M521.854 243.561C523.669 243.334 519.817 237.617 519.72 237.43C519.026 236.091 518.283 234.735 517.721 233.331C517.699 233.277 517.312 232.252 517.382 232.247C519.555 232.066 521.974 232.692 524.225 232.551C526.576 232.405 528.503 230.524 528.561 233.331C528.675 238.8 529.781 244.182 529.781 249.659" stroke="black" stroke-linecap="square"/>
<path d="M553.561 234.415C552.923 234.972 548.49 223.109 548.073 222.355C547.176 220.732 544.03 216.137 545.058 217.68C546.272 219.501 551.963 219.78 553.9 219.78C556.915 219.78 559.93 219.78 562.944 219.78C564.426 219.78 562.198 226.271 561.996 227.131C559.486 237.8 557.402 249.172 553.561 259.415" stroke="black" stroke-linecap="square"/>
<path d="M676 84H973V332H676V84Z" fill="#C5C7D0"/>
<path d="M735.909 246.078C734.211 246.078 733.588 246.187 734.257 248.06C734.7 249.301 734.377 248.747 736.606 249.822C746.325 254.511 756.838 258.626 767.18 261.641C781.177 265.721 794.94 266.339 809.427 266.339C824.413 266.339 840.559 266.65 855.344 263.696C867.212 261.326 878.541 256.655 889.185 250.997C908.316 240.827 929.102 228.04 943.25 211.246C958.831 192.752 942.475 173.517 926.439 162.687C904.577 147.92 876.786 141.251 850.756 139.159C827.271 137.272 801.878 139.46 780.32 149.547C756.802 160.552 736.706 179.627 719.685 198.877C710.772 208.958 697.519 224.74 710.069 237.343C720.191 247.507 736.51 252.01 749.819 255.878C770.177 261.796 791.089 265.229 812.326 263.953C857.435 261.244 901.055 247.256 933.377 214.366C943.368 204.199 952.541 190.782 944.975 176.341C934.1 155.585 910.021 148.112 889.845 140.371" stroke="black" stroke-linecap="square"/>
<path d="M699.572 314.128C698.947 314.128 695.523 314.724 697.626 314.385C700.576 313.909 710.307 312.109 706.766 317.872C705.641 319.701 703.273 321.547 702.765 323.708C702.105 326.511 711.039 322.501 711.317 322.386C713.651 321.418 715.954 320.376 718.291 319.413C719.589 318.878 717.933 319.985 717.703 320.368C715.579 323.909 719.189 325.483 721.924 323.23C724.557 321.062 724.796 315.825 720.199 317.725C716.166 319.392 717.05 324.014 721.41 321.248C724.278 319.43 721.106 318.761 720.052 321.395" stroke="black" stroke-linecap="square"/>
<path d="M730.623 320.074C731.213 319.484 731.653 318.589 732.275 318.092C733.482 317.126 729.741 321.948 731.284 323.854C732.608 325.49 739.569 318.258 733.78 315.523C730.671 314.054 725.297 316.565 725.998 320.074" stroke="black" stroke-linecap="square"/>
<path d="M740.533 317.431C742.522 315.442 742.515 315.413 741.855 318.055C740.506 323.449 744.17 316.403 745.966 316.403C746.461 316.403 745.812 319.516 745.966 319.927C746.32 320.873 750.261 315.533 751.618 315.78C753.315 316.088 752.603 318.822 754.848 318.642C757.05 318.466 759.02 316.908 761.014 316.11" stroke="black" stroke-linecap="square"/>
<path d="M764.978 315.449C768.242 312.548 765.884 318.054 764.978 319.413" stroke="black" stroke-linecap="square"/>
<path d="M767.621 318.092C767.161 322.227 769.158 317.248 771.658 316.257C775.771 314.626 774.284 319.473 777.604 318.826C779.713 318.415 783.769 315.265 785.459 316.11" stroke="black" stroke-linecap="square"/>
<path d="M806.601 302.896C807.76 300.835 807.857 300.328 805.536 302.346C799.2 307.855 794.409 316.051 789.203 322.57C787.447 324.769 782.148 331.313 784.138 329.323" stroke="black" stroke-linecap="square"/>
<path d="M809.243 315.449C809.441 313.673 810.916 312.594 812.547 312.146C823.322 309.188 810.62 321.047 812.106 321.212C813.959 321.418 821.323 315.428 821.686 316.697C821.988 317.755 823.414 328.776 826.494 322.423C827.458 320.436 826.406 318.255 824.512 317.358C822.894 316.591 820.815 317.385 823.852 316.844C827.219 316.244 833.881 311.463 833.395 317.138C833.13 320.225 836.639 324.592 837.836 319.67C838.839 315.544 836.231 313.21 833.688 316.771" stroke="black" stroke-linecap="square"/>
<path d="M842.277 317.431C848.663 314.426 841.123 325.625 845.727 319.266C847.802 316.402 847.874 315.97 849.031 318.899C850.377 322.31 854.454 315.476 855.49 316.403C857.822 318.489 856.967 322.394 861.583 320.441C863.961 319.435 866.869 314.864 867.016 318.459C867.151 321.782 870.442 321.318 869.732 317.945C868.995 314.444 866.796 311.851 864.74 315.449" stroke="black" stroke-linecap="square"/>
<path d="M873.989 316.771C874.442 316.72 876.732 315.299 876.815 315.449C877.838 317.29 874.458 323.372 878.981 319.56C879.739 318.921 882.255 315.892 883.569 316.257C884.19 316.429 884.126 320.023 884.266 320.624C884.89 323.296 886.019 322.214 887.203 320.735" stroke="black" stroke-linecap="square"/>
<path d="M883.239 314.789C887.854 315.06 892.364 315.068 897.113 314.789" stroke="black" stroke-linecap="square"/>
<path d="M718.07 99.409C711.317 98.7336 704.35 96.6371 697.479 97.0599C692.134 97.3888 692.304 114.472 692.304 118.568" stroke="black" stroke-linecap="square"/>
<path d="M692.304 94.7842C694.712 94.7842 697.039 95.1387 699.461 95.2981C733.162 97.5153 767.401 99.6932 801.132 97.0599C815.553 95.9341 829.82 94.7842 844.296 94.7842C846.658 94.7842 854.378 93.2946 854.499 97.1333C854.715 103.94 852.183 111.011 851.673 117.834C851.456 120.738 851.289 123.619 850.866 126.497C850.523 128.824 835.638 125.932 834.496 125.836C814.976 124.201 795.282 123.487 775.696 123.487C749.74 123.487 723.826 125.836 697.883 125.836C695.59 125.836 692.753 126.354 690.689 125.175C688.784 124.086 690.014 120.714 690.469 119.303C692.306 113.606 695.258 108.17 698.25 103.006C699.627 100.629 700.985 97.937 703.536 97.4269" stroke="black" stroke-linecap="square"/>
<path d="M714.106 106.016C714.986 105.137 717.671 102.467 714.694 105.098C710.082 109.173 706.1 113.819 702.214 118.568" stroke="black" stroke-linecap="square"/>
<path d="M702.875 106.016C702.875 104.697 702.364 103.26 703.389 105.869C705.355 110.873 713.013 116.896 718.07 117.908" stroke="black" stroke-linecap="square"/>
<path d="M704.196 121.872C704.326 120.832 707.247 122.458 708.197 122.239C713.576 120.998 722.558 117.996 722.695 111.228C722.86 103.124 714.528 96.8574 706.839 98.0876C697.68 99.553 692.477 110.244 699.498 117.394C705.78 123.791 721.691 121.059 719.979 110.053C718.693 101.786 707.601 100.513 701.333 103.006C696.874 104.78 692.408 108.637 692.267 113.797C692.123 119.085 696.213 120.335 698.911 123.854" stroke="black" stroke-linecap="square"/>
<path d="M733.266 107.998C734.763 106.314 733.099 109.634 732.862 110.714C732.356 113.018 731.08 119.977 731.467 117.651C732.167 113.456 733.643 108.716 737.083 105.942C742.603 101.49 740.985 110.455 735.395 111.154C734.556 111.259 732.668 110.724 733.927 109.613C734.89 108.763 738.295 113.165 738.698 113.503C746.145 119.754 748.356 109.337 744.497 108.732C740.306 108.074 740.252 119.871 745.158 116.146C746.501 115.127 749.994 108.743 750.7 112.696C751.437 116.819 750.919 116.771 754.334 113.357C757.064 110.626 754.629 115.26 755.876 115.779C758.311 116.794 758.481 108.978 760.023 114.531C760.734 117.089 762.169 114.112 763.143 113.43C763.229 113.37 764.084 119.053 765.345 116.293C766.436 113.907 762.856 108.395 761.491 112.035C759.46 117.453 766.215 113.34 767.547 111.705C771.982 106.262 768.112 117.186 771.585 114.825C773.816 113.307 774.888 107.331 774.888 111.962" stroke="black" stroke-linecap="square"/>
<path d="M776.87 115.926C777.216 115.58 780.217 111.41 778.192 112.549C774.612 114.562 777.667 117.641 780.834 115.265" stroke="black" stroke-linecap="square"/>
<path d="M786.78 108.658C786.598 110.482 785.603 112.334 784.798 113.944" stroke="black" stroke-linecap="square"/>
<path d="M790.744 107.998C791.165 107.624 793.165 106.717 793.644 107.484C794.852 109.417 789.308 112.934 789.423 112.916C792.753 112.39 798.079 113.923 792.58 116.44C791.179 117.081 786.473 116.41 788.762 115.265" stroke="black" stroke-linecap="square"/>
<path d="M800.654 111.301C802.145 111.115 799.832 107.755 798.012 109.98C795.798 112.685 797.981 116.522 799.517 112.255C800.857 108.532 797.52 109.066 796.03 111.301" stroke="black" stroke-linecap="square"/>
<path d="M801.976 111.301C804.569 108.708 803.32 111.853 803.995 113.54C804.099 113.801 806.454 107.557 807.261 109.98" stroke="black" stroke-linecap="square"/>
<path d="M812.547 111.301C812.627 110.661 813.721 108.879 811.739 109.466C810.078 109.958 809.464 111.128 810.087 112.843C811.505 116.742 815.593 110.567 816.327 109.062C816.514 108.68 817.48 104.371 816.364 106.603C815.502 108.326 813.992 111.814 814.675 113.797C816.023 117.706 820.473 110.127 818.823 110.127C818.195 110.127 818.553 113.011 818.64 113.283C819.5 115.979 823.277 113.169 824.182 111.962C824.435 111.624 825.295 108.412 824.953 109.98C824.783 110.754 824.387 113.704 826.054 112.989C832.005 110.439 826.051 113.427 828.807 116.183C829.888 117.264 832.99 116.315 834.349 116.586" stroke="black" stroke-linecap="square"/>
<path d="M753.086 218.991C753.585 219.053 754.154 219.575 754.407 220.019C755.896 222.623 749.318 221.389 753.563 224.129C764.633 231.276 787.473 228.891 792.213 214.733C797.157 199.964 781.274 192.813 769.309 194.399C757.132 196.013 739.476 208.118 744.461 222.478C750.947 241.165 776.516 227.061 784.395 217.302C791.482 208.525 789.756 194.603 775.916 196.381C768.02 197.396 758.547 201.764 755.215 209.521C752.247 216.43 756.137 220.148 759.032 225.598" stroke="black" stroke-linecap="square"/>
<path d="M761.014 212.384C759.608 212.228 757.988 210.37 760.06 209.778C763.303 208.851 762.058 212.866 761.308 214.366C759.856 217.269 765.935 214.043 766.74 213.705C768.645 212.906 771.74 211.382 773.787 212.678C774.254 212.973 775.122 215.39 775.696 214.219C776.683 212.204 777.41 204.434 773.127 206.365C766.595 209.308 774.827 210.87 777.531 211.063" stroke="black" stroke-linecap="square"/>
<path d="M820.475 187.939C820.321 189.327 819.593 190.14 820.622 191.536C823.846 195.913 833.435 195.398 837.762 193.922C845.007 191.451 854.735 182.142 853.031 173.625C851.772 167.329 843.325 164.611 837.799 164.375C828.378 163.973 819.174 170.102 814.162 177.772C810.287 183.701 808.75 192.419 816.584 195.794C824.102 199.032 831.234 196.414 838.313 193.885" stroke="black" stroke-linecap="square"/>
<path d="M827.081 179.35C827.081 177.971 826.901 177.026 826.458 179.02C825.969 181.217 825.916 182.754 826.788 184.856C828.187 188.23 831.357 180.391 832.22 179.277C833.838 177.188 832.367 184.091 832.367 185.957" stroke="black" stroke-linecap="square"/>
<path d="M838.974 179.35C838.974 175.439 837.389 179.463 836.331 180.672C835.659 181.44 837.813 177.679 838.46 178.47C839.668 179.946 838.424 185.079 838.974 187.279" stroke="black" stroke-linecap="square"/>
<path d="M800.655 229.562C801.793 228.281 801.871 228.998 801.976 230.883C802.182 234.586 805.256 238.433 807.335 241.197C814.328 250.495 823.31 253 834.055 248.06C850.636 240.439 842.789 217.139 826.054 216.385C817.731 216.01 810.035 220.805 808.656 229.488C807.631 235.946 809.08 243.684 814.969 247.437C818.635 249.772 821.373 248.301 825.099 248.06" stroke="black" stroke-linecap="square"/>
<path d="M817.171 234.847C817.171 234.191 816.426 236.727 816.511 237.49C816.935 241.308 823.06 232.187 823.631 233.159C824.41 234.482 822.892 237.099 823.264 238.664C823.972 241.638 827.277 236.122 827.595 235.508C827.896 234.926 829.651 229.468 829.724 231.617C829.814 234.251 830.058 236.858 830.385 239.472" stroke="black" stroke-linecap="square"/>
<path d="M809.243 198.51C811.254 198.733 815.081 202.091 816.511 202.768C828.521 208.457 837.596 209.065 849.398 202.474C858.47 197.407 866.359 190.718 869.291 180.378C871.543 172.439 870.38 161.937 862.134 157.879C850.219 152.014 832.373 159.947 822.016 165.77C812.048 171.374 794.11 186.043 798.195 199.721C802.535 214.249 829.352 209.33 839.634 209.741" stroke="black" stroke-linecap="square"/>
<path d="M836.992 211.723C835.486 208.711 834.197 208.299 830.458 208.347C816.813 208.519 806.606 213.502 798.306 224.496C791.733 233.203 788.55 247.282 796.544 256.429C810.172 272.024 834.658 255.057 848.223 249.382" stroke="black" stroke-linecap="square"/>
<path d="M793.387 185.297C791.574 184.967 790.636 183.671 788.616 183.535C774.376 182.575 759.572 187.673 749.966 198.253C742.576 206.393 734.063 219.009 735.028 230.663C736.474 248.13 759.457 242.165 770.264 241.454" stroke="black" stroke-linecap="square"/>
<path d="M860.115 267.22C858.399 265.694 858.534 266.536 860.923 267.514C864.29 268.891 880.471 274.737 881.917 271.845" stroke="black" stroke-linecap="square"/>
<path d="M896.452 274.487C896.661 272.815 896.619 276.046 896.489 276.763C896.323 277.677 896.671 279.37 895.461 279.773C894.178 280.201 894.752 277.053 895.058 275.735C895.803 272.524 897.159 269.345 899.499 266.963C901.255 265.175 908.79 262.671 907.464 268.101C906.817 270.747 896.862 279.535 894.103 276.469C891.975 274.105 900.067 278.717 902.912 280.14C906.971 282.169 912.002 283.43 915.832 280.14C922.083 274.771 910.791 272.358 908.858 278.708C907.966 281.64 913.091 279.093 913.813 278.451C914.998 277.398 915.101 275.526 914.694 276.91C912.726 283.603 922.404 277.046 919.723 275.662C918.019 274.782 915.086 279.02 917.374 279.993C920.967 281.522 926.218 273.837 927.871 271.625C928.905 270.241 930.623 267.356 928.091 270.34C926.581 272.12 923.426 275.693 924.971 278.268C927.155 281.907 929.788 274.363 930.183 277.13C930.574 279.861 934.861 278.817 935.946 277.13C936.158 276.8 935.059 278.613 935.726 278.965C937.045 279.664 938.678 276.827 939.249 276.102C940.883 274.029 937.641 281.2 941.488 278.892C943.952 277.414 945.184 274.521 947.544 273.019C948.15 272.634 947.378 276.555 947.471 277.02C948.499 282.159 955.287 272.056 955.766 271.625C956.741 270.747 955.659 274.441 954.812 275.442C953.37 277.145 951.254 278.138 949.306 279.112" stroke="black" stroke-linecap="square"/>
<path d="M953.27 279.773H954.591" stroke="black" stroke-linecap="square"/>
<path d="M71.4364 51.4832C71.303 50.4156 69.3365 50.8021 68.8613 51.4832C67.3592 53.6362 64.4567 65.4905 69.6406 64.7993C72.6721 64.3951 75.1927 60.3313 75.9768 57.7177C76.0937 57.3281 76.2076 56.8068 75.9429 56.4979C75.3189 55.7699 74.396 57.7359 73.9777 58.5987C71.122 64.4885 74.8211 65.5674 78.9585 61.5804C82.3891 58.2746 79.4395 60.1483 78.9924 63.6134C78.1862 69.8614 84.1979 64.5658 85.7352 62.4614C89.1905 57.7312 85.1671 56.6721 86.3451 61.5804C87.0395 64.4738 87.0282 64.8235 85.6674 67.2728C84.5675 69.2527 91.0285 65.1178 91.292 64.8332C92.3795 63.6592 93.5958 61.9127 94.1383 60.3606C94.7129 58.7166 93.7429 58.3122 92.8846 59.7168C90.1266 64.2298 94.6036 64.3957 97.1877 61.5465C98.9729 59.5782 98.9906 58.0595 98.0687 60.9705C97.277 63.4706 99.5797 61.777 100.576 61.4449C101.666 61.0815 101.193 63.9723 102.474 64.2233C104.011 64.5248 106.03 63.0178 107.421 62.4614" stroke="black" stroke-linecap="square"/>
<path d="M120.838 50.8733C121.215 50.497 122.677 49.24 121.923 48.5692C121.171 47.901 119.281 51.126 119.043 51.4832C117.627 53.6065 117.915 58.0648 118.162 60.3267C119.091 68.8426 124.721 62.0012 123.752 60.835C122.416 59.2249 118.117 60.5859 116.637 61.2416C114.296 62.2784 124.067 60.8555 124.769 60.6995C128.847 59.7931 128.841 59.6522 128.089 63.2746C127.433 66.4379 129.534 65.541 131.274 64.4605C132.826 63.4976 132.588 65.2593 133.511 66.2563C134.669 67.5075 138.435 66.3385 137.509 65.1043C137.326 64.8608 132.462 82.3315 135.645 70.5256C135.73 70.2107 138.143 61.8788 140.016 64.02C141.654 65.8913 136.911 67.5379 136.086 67.9505" stroke="black" stroke-linecap="square"/>
<path d="M148.284 61.8515C148.184 61.0508 146.152 60.8886 146.014 61.5804C145.582 63.7399 147.609 65.6978 147.945 67.7133C148.277 69.7058 144.726 70.4495 143.405 71" stroke="black" stroke-linecap="square"/>
<path d="M159.872 62.4614C159.698 61.0699 157.761 62.3841 157.432 63.0713C156.725 64.5511 160.127 66.1343 160.041 65.2737C159.712 61.982 155.603 64.4319 154.383 64.901" stroke="black" stroke-linecap="square"/>
<path d="M164.751 61.2416C166.228 59.9497 162.685 65.3719 164.887 64.0878C167.538 62.5411 167.497 61.58 167.597 65.1043C167.704 68.8283 171.602 64.759 172.68 63.6812" stroke="black" stroke-linecap="square"/>
<path d="M186.098 59.4119C186.098 57.5183 185.287 58.7101 184.268 59.2764C182.774 60.1065 182.645 62.3229 182.743 63.9184C182.996 68.0255 185.338 67.1997 187.927 66.1208" stroke="black" stroke-linecap="square"/>
<path d="M189.757 56.3624C187.886 54.6988 188.787 57.9147 189.147 55.7525C189.599 53.0425 189.098 53.7144 186.098 54.5327" stroke="black" stroke-linecap="square"/>
<path d="M193.417 58.1921C193.535 57.2414 192.872 57.3871 191.926 57.9549C189.209 59.5846 194.241 62.5129 195.246 63.0713" stroke="black" stroke-linecap="square"/>
<path d="M197.686 60.6317C197.686 58.5567 197.076 61.0114 197.076 61.8515C197.076 62.5689 196.898 63.8899 197.754 62.3259C198.218 61.4771 199.5 59.2252 198.363 58.3276C197.205 57.4131 196.372 59.6206 195.856 60.0218" stroke="black" stroke-linecap="square"/>
<path d="M201.955 59.4119C204.586 57.0736 201.742 60.8779 201.345 61.8515C200.959 62.7987 203.185 60.9262 203.988 60.2929C205.928 58.7626 206.114 59.6215 206.089 61.716C206.038 66.0004 208.969 64.6397 211.714 63.0713" stroke="black" stroke-linecap="square"/>
<path d="M220.252 63.6812C221.133 63.5834 221.201 63.1267 221.607 62.4614C221.961 61.8828 222.417 61.799 222.692 61.0722C223.069 60.076 223.176 54.2911 222.454 55.9897C219.36 63.2715 229.608 65.4574 229.333 60.2251C229.145 56.6518 223.437 67.6688 227.266 63.444C230.169 60.2403 227.963 60.3076 228.384 63.7828C228.87 67.7896 234.85 58.5647 235.229 57.1756C235.699 55.4514 234.401 57.2804 234.28 57.4805C233.159 59.3299 233.025 61.0374 234.619 62.6308C237.027 65.0395 235.146 64.9718 232.45 65.5109" stroke="black" stroke-linecap="square"/>
<path d="M236.719 63.6812C238.107 63.6812 239.362 63.9696 240.379 62.868C242.484 60.5878 243.558 66.1883 246.817 62.5969C249.382 59.7701 250.558 51.8262 247.833 59.2086C247.128 61.118 244.724 66.1208 247.698 66.1208" stroke="black" stroke-linecap="square"/>
<path d="M250.747 63.0713C250.839 63.806 251.826 64.8593 252.577 64.901C253.867 64.9727 256.399 65.9783 257.795 64.9688C259.267 63.9045 259.368 60.3347 257.829 62.3597C255.967 64.8093 257.868 65.0019 259.421 62.5969C259.936 61.8002 263.365 53.2989 261.895 58.3276C261.536 59.5532 260.694 62.324 260.404 63.5795C259.63 66.933 260.523 64.7385 261.115 66.1208" stroke="black" stroke-linecap="square"/>
<path d="M43.8049 350.878C41.6037 348.402 43.7646 341.346 44.4146 338.818C45.2515 335.564 46.5348 332.109 48.3442 329.266C49.6894 327.152 52.5986 327.707 54.7805 327.707C59.3624 327.707 63.1961 327.613 67.5854 326.217C72.9602 324.507 77.4838 324.271 82.2534 320.932C88.4172 316.618 94.5569 312.931 99.9025 307.585C103.457 304.031 106.875 302.005 111.793 300.912C113.207 300.598 115.165 301.274 116.23 302.233C117.605 303.47 115.505 303.646 114.841 304.841C113.065 308.039 112.214 311.11 108.778 313.073C106.744 314.235 104.582 315.575 102.477 316.867C99.9017 318.448 98.0711 320.958 95.6342 322.524C93.0498 324.186 90.7949 328.317 95.6342 328.317C101.957 328.317 97.0006 333.023 93.9404 335.024C88.0642 338.867 96.8537 335.862 96.8537 339.902C96.8537 341.224 95.3719 343.956 97.2263 344.78C99.9747 346.002 100.866 347.777 97.7344 349.388C93.3467 351.644 87.989 349.659 83.439 349.659C77.9593 349.659 73.2591 351.455 68.8049 354.672C64.7803 357.579 60.2028 360.361 56.7453 363.818C55.5133 365.05 50.2806 367.805 50.5122 367.341" stroke="black" stroke-width="2" stroke-linecap="square"/>
<path d="M49.2927 372.829C48.9875 372.558 48.2794 371.96 47.8022 372.22C41.0529 375.883 34.0531 384.542 30.0515 390.851C24.5271 399.56 39.3493 391.85 41.5014 390.715C43.4422 389.693 45.5983 388.423 46.8537 386.854" stroke="black" stroke-linecap="square"/>
<path d="M51.122 376.488C51.122 373.61 50.16 376.196 49.9025 377.741C49.7141 378.872 49.4988 386.173 50.2412 385.431C50.6903 384.982 51.1019 382.812 52.0027 382.924C52.9896 383.047 54.4039 384.982 55.1193 385.533C57.8908 387.664 60.831 386.594 60.3699 382.721C59.8892 378.683 56.8893 382.033 56.7791 384.347C56.6637 386.772 58.3617 388.34 59.8957 385.837C60.227 385.297 61.0296 382.136 61.2168 382.484C61.4994 383.009 61.9711 386.072 62.8428 385.837C64.607 385.362 63.8315 382.126 65.1464 381.434C65.5832 381.204 67.5594 383.937 68.1951 384.144C70.5136 384.896 71.2251 379.258 71.2439 377.978C71.2869 375.054 69.9681 377.986 70.1599 379.401C70.4226 381.339 71.7469 382.28 72.4634 380.011C72.7077 379.237 73.0388 375.33 73.0732 378.046C73.1219 381.895 73.5415 385.537 74.2927 389.293" stroke="black" stroke-linecap="square"/>
<path d="M77.3415 377.707C77.6569 376.722 77.8092 375.791 78.019 374.794C78.6098 371.988 78.1528 371.686 78.3578 374.692C78.8304 381.625 82.483 376.05 84.6586 373.439" stroke="black" stroke-linecap="square"/>
<path d="M90.7561 364.293C90.7561 362.182 90.501 365.247 90.2818 365.986C90.1553 366.414 90.0952 368.838 90.8916 367.612C92.0446 365.839 92.9695 362.764 94.7534 366.122C95.5887 367.694 95.4081 370.595 96.3794 367.409C96.7005 366.356 97.428 360.583 99.2927 362.599C100.451 363.851 102.58 367.586 104.78 366.19C106.352 365.193 106.953 359.38 105.119 360.566C101.851 362.681 107.22 371.307 107.22 362.091C107.22 360.81 108.163 364.758 109.32 365.309C111.185 366.197 111.522 360.665 111.759 359.652C112.212 357.71 113.098 365.528 113.317 366.528C114.231 370.706 114.161 370.746 113.351 366.562C113.09 365.217 111.771 357.203 114.164 356.671C114.741 356.543 114.017 361.835 113.927 362.463" stroke="black" stroke-linecap="square"/>
<path d="M118.805 353.927C120.786 354.147 120.956 359.9 121.244 361.244" stroke="black" stroke-linecap="square"/>
<path d="M121.854 361.854C122.465 360.478 125.176 355.121 126.732 358.94C129.028 364.578 130.269 355.131 131.135 357.314C132.414 360.536 132.112 365.137 131.271 368.425C130.465 371.578 129.909 366.673 130.051 365.851C130.643 362.435 132.571 359.494 134.252 356.535C134.584 355.951 135.873 352.757 136.488 354.875C137.243 357.475 137.44 360.351 137.673 363.039C137.734 363.739 137.285 359.136 137.233 358.331C136.698 349.993 138.14 357.254 140.621 356.569C141.855 356.228 142.864 353.847 143.093 352.775C143.292 351.85 142.608 350.311 142.382 351.894C141.974 354.749 144.778 356.858 146.244 353.927" stroke="black" stroke-linecap="square"/>
<path d="M196.244 338.683C199.836 333.744 196.399 351.413 201.122 341.596C206.031 331.394 199.388 344.255 203.934 346.034C206.239 346.936 208.154 341.49 208.642 340.173C209.131 338.856 209.011 334.723 210.201 336.921C211.109 338.601 213.44 342.106 211.86 344.001C211.229 344.76 206.241 345.636 208.981 345.323C211.592 345.024 214.474 344.193 216.434 342.341C217.024 341.784 217.466 339.805 217.314 340.715C216.402 346.192 221.788 345.48 222.802 340.919C223.025 339.916 222.39 343.06 222.802 344.001C223.375 345.31 224.868 342.289 225.14 341.867C225.761 340.9 225.16 344.325 225.173 344.645C225.338 348.714 227.797 346.653 229.78 345.39" stroke="black" stroke-linecap="square"/>
<path d="M238.927 337.463C236.838 338.446 235.711 338.656 236.962 341.528C238.132 344.216 240.666 347.933 243.873 345.39C244.235 345.103 247.617 340.522 245.228 340.749C242.139 341.043 242.115 347.954 244.448 346.339C247.228 344.415 247.133 338.664 247.463 344.713C247.599 347.197 251.268 342.373 252.206 342.138C253.916 341.711 252.963 347.899 254.238 346.44C255.344 345.177 256.176 341.262 257.558 343.9C259.335 347.291 261.674 344.258 263.317 342.341" stroke="black" stroke-linecap="square"/>
<path d="M202.341 359.415C203.606 358.431 203.102 360.023 202.951 360.702C202.709 361.791 202.398 362.816 202.07 363.886C200.811 368.005 203.859 362.582 204.442 361.989C210.159 356.171 212.379 363.82 208.575 368.324C206.592 370.67 202.925 372.786 201.122 369.78" stroke="black" stroke-linecap="square"/>
<path d="M213.927 364.293C215.046 364.417 215.284 365.275 215.011 366.257C214.899 366.661 216.122 363.813 216.23 363.615C217.416 361.447 217.361 362.351 218.805 363.073" stroke="black" stroke-linecap="square"/>
<path d="M224.293 365.512C224.167 364.378 222.591 364.186 221.955 365.14C221.475 365.86 221.43 367.527 222.125 368.154C223.043 368.983 224.074 365.87 224.293 365.444C224.6 364.849 223.051 367.724 223.48 368.459C224.387 370.016 226.906 365.589 227.342 365.038C228.002 364.204 227.883 368.29 228.324 368.73C229.339 369.745 230.933 365.593 231.339 365.038C231.829 364.367 234.315 365.521 235.539 364.835C237.141 363.938 237.164 362.633 238.927 363.073" stroke="black" stroke-linecap="square"/>
<path d="M247.463 361.244C247.463 359.86 246.322 360.319 245.329 361.007C244.129 361.838 243.45 363.676 243.093 365.004C242.193 368.362 245.545 363.588 245.973 363.005C247.467 360.972 246.114 368.901 248.141 369.238C249.599 369.482 250.893 366.605 252.341 366.122" stroke="black" stroke-linecap="square"/>
<path d="M193.805 389.293C194.502 389.293 195.397 389.462 195.939 388.92C197.621 387.238 197.913 381.72 198.243 379.774C198.532 378.064 200.21 373.769 198.683 374.591C197.038 375.476 197.386 378.111 197.023 379.943C196.621 381.969 195.51 394.207 200.851 389.293C202.699 387.593 201.921 387.504 201.122 389.902" stroke="black" stroke-linecap="square"/>
<path d="M206 385.024C205.846 385.351 204.722 387.802 205.797 387.802C206.325 387.802 207.37 386.983 207.829 387.396C208.777 388.249 208.524 390.01 209.388 390.953C210.416 392.075 212.051 387.867 212.098 387.972C213.623 391.403 214.055 391.864 217.585 389.902" stroke="black" stroke-linecap="square"/>
<path d="M224.903 385.024C225.885 385.305 224.106 387.761 225.106 388.344C226.02 388.878 228.84 388.265 227.071 387.125C225.268 385.963 223.912 387.285 223.073 388.683" stroke="black" stroke-linecap="square"/>
<path d="M229.781 386.854C232.935 386.854 228.672 392.206 232.795 388.717C235.422 386.495 234.862 389.594 236.014 391.461C237.38 393.676 240.321 389.728 241.366 388.683" stroke="black" stroke-linecap="square"/>
<path d="M251.122 381.366C254.007 375.916 251.527 383.019 252.68 385.16C253.163 386.057 253.812 383.866 254.645 384.347C255.36 384.759 255.415 386.718 256.339 386.718C257.56 386.718 257.829 385.042 259.32 385.702C260.68 386.304 262.021 388.557 263.554 387.023C266.224 384.353 263.079 383.66 264.537 388.276C265.87 392.5 268.827 382.887 269.279 386.786C269.561 389.216 269.16 391.762 268.839 394.171C268.58 396.112 269.535 390.284 270.295 388.48C270.487 388.024 274.388 383.529 273.785 385.702C273.393 387.112 271.712 387.913 270.634 388.683" stroke="black" stroke-linecap="square"/>
<path d="M276.732 383.805L277.951 383.195" stroke="black" stroke-linecap="square"/>
<path d="M276.122 335.634C275.979 334.634 274.811 337.157 274.767 337.599C274.373 341.542 279.774 338.721 279.814 339.225C279.993 341.46 281.071 346.955 283.744 343.121C284.396 342.185 285.086 339.831 286.115 339.259C286.414 339.093 286.548 342.795 286.623 343.154C287.143 345.639 289.834 339.158 290.146 338.615C290.722 337.615 291.108 344.537 292.314 342.782C292.895 341.937 294.559 337.587 295.024 340.614C295.671 344.817 294.514 343.334 295.77 341.257C296.927 339.344 299.475 339.354 301.122 338.073C301.686 337.634 300.583 341.462 301.495 341.969C303.035 342.825 304.11 338.094 304.205 338.852C304.443 340.761 305.391 345.591 307.084 341.596C307.826 339.846 307.289 336.167 306.745 339.428C306.049 343.607 310.761 338.976 311.996 338.852C313.387 338.713 313.818 342.453 314.333 342.172C315.543 341.512 316.009 339.936 317.247 339.293C319.116 338.32 319.714 342.552 320.024 343.561" stroke="black" stroke-linecap="square"/>
<path d="M320.024 339.293C322.072 339.293 324.025 338.423 326.122 338.073" stroke="black" stroke-linecap="square"/>
<path d="M280.39 349.659C280.39 348.395 279.86 348.722 279.781 349.794C279.63 351.824 278.897 356.985 282.694 356.467C285.15 356.133 283.73 359.941 286.488 359.449C289.874 358.844 288.992 352.912 284.659 354.537" stroke="black" stroke-linecap="square"/>
<path d="M295.634 354.537C295.51 353.671 293.938 356.09 293.805 356.501C293.337 357.952 295.662 359.288 296.786 359.415C298.685 359.629 298.582 357.064 298.005 357.518C294.979 359.895 297.56 364.997 300.682 359.889C300.99 359.384 302.023 355.696 302.003 355.722C301.038 356.962 301.255 359.171 301.122 360.634" stroke="black" stroke-linecap="square"/>
<path d="M301.732 361.244C304.251 359.91 305.535 358.629 306.61 361.854" stroke="black" stroke-linecap="square"/>
<path d="M309.049 357.585C309.213 360.369 311.879 361.417 309.659 356.976" stroke="black" stroke-linecap="square"/>
<path d="M313.927 356.976C316.157 356.262 316.502 356.584 318.263 357.856C320.033 359.135 321.808 357.401 322.463 360.024" stroke="black" stroke-linecap="square"/>
<path d="M323.073 360.024C324.211 359.598 324.92 358.805 326.122 358.805" stroke="black" stroke-linecap="square"/>
<path d="M27.9512 188.073C28.6033 187.34 28.4122 186.731 27.9512 187.768C25.5785 193.107 24.7075 199.103 22.7344 204.604C21.9607 206.762 23.4661 200.069 24.0894 197.863C24.0928 197.851 27.9074 186.509 28.6965 187.667C29.9804 189.55 29.2442 195.692 29.3062 197.558C29.4665 202.383 29.8786 207.078 30.3902 211.854" stroke="black" stroke-linecap="square"/>
<path d="M20.6342 200.878C19.6356 200.937 17.2713 202.334 19.1775 201.454C24.3119 199.084 29.0222 195.464 34.0488 192.951" stroke="black" stroke-linecap="square"/>
<path d="M35.2683 196C35.2683 198.018 33.6069 203.709 34.7263 202.03C39.0012 195.617 33.5142 205.146 36.4878 205.146" stroke="black" stroke-linecap="square"/>
<path d="M45.0244 195.39C44.2638 195.485 43.0578 196.148 44.1436 194.442C48.3329 187.859 46.4989 203.546 46.2439 205.756" stroke="black" stroke-linecap="square"/>
<path d="M48.6829 203.317C50.9027 199.008 50.4262 203.33 50.6477 203.046C52.5902 200.56 52.5687 195.523 54.3062 200.607C56.1893 206.117 57.966 199.887 58.439 197.355C59.5386 191.469 57.9361 199.672 57.8293 201.488" stroke="black" stroke-linecap="square"/>
<path d="M59.0488 203.317C60.3018 202.612 61.0946 201.602 61.7588 200.336C64.2453 195.596 61.492 202.851 63.5881 203.995C65.2308 204.891 66.2104 197.252 66.3658 199.117C66.7303 203.49 68.5981 204.532 71.6843 200.675C73.431 198.491 70.9412 199.819 70.397 201.996C69.7987 204.389 72.9428 200.86 73.3103 200.37C74.1087 199.305 73.441 203.901 74.0217 203.486C75.1086 202.71 75.2468 199.849 76.2574 201.962C77.3805 204.31 79.5095 197.804 79.5095 197.016C79.5095 194.246 76.8211 199.073 78.0867 201.556C78.7481 202.853 80.0307 202.123 80.8645 201.488C81.3854 201.091 82.1472 199.414 82.2195 200.065C82.3495 201.235 81.8604 205.141 84.252 202.098C85.5813 200.406 83.8605 203.152 85.0312 204.062C85.5215 204.444 87.1831 202.707 88.0461 202.707C89.5256 202.707 91.2981 202.191 91.2981 200.37C91.2981 199.956 90.7561 201.488 90.7561 201.488" stroke="black" stroke-linecap="square"/>
<path d="M35.8781 222.22C37.1822 219.774 35.5915 224.745 35.9797 225.133C36.4555 225.609 39.0001 222.868 39.5366 222.626C41.9698 221.529 40.8496 225.057 41.5014 225.946C41.6978 226.214 44.4723 221.773 44.6856 221.474C46.8533 218.44 47.1898 222.054 47.8022 223.947C48.3963 225.784 49.6936 226.487 50.851 224.523C51.3041 223.754 51.2094 220.189 50.5122 221.542C50.1664 222.213 49.4199 224.783 50.2412 225.37C50.7329 225.721 52.0066 221.893 52.3076 221.542C52.356 221.486 53.4743 224.134 53.6965 224.388C55.281 226.198 57.5841 221.714 58.168 220.797C59.9109 218.058 58.4705 225.758 58.439 226.014C57.4454 234.062 58.046 223.897 58.8794 221.542C58.9628 221.306 62.7186 215.66 62.7751 217.748C62.817 219.3 61.2381 220.104 60.2683 219.78" stroke="black" stroke-linecap="square"/>
<path d="M74.9024 17.9512C74.7777 19.0734 73.4921 20.5453 73.0393 21.3726C71.5039 24.1777 68.7021 29.5766 67.3482 32.1111C61.0483 43.9052 66.5248 33.2182 66.9078 32.5854C67.5892 31.4597 70.9126 25.6881 73.2087 25.1328C77.1541 24.1787 77.1417 35.144 77.2398 36.2439C77.5936 40.2112 77.3776 44.243 79.1707 47.8293" stroke="black" stroke-width="3" stroke-linecap="square"/>
<path d="M59.0488 39.9024C55.5719 41.5387 57.9283 40.5029 61.1491 39.0894C63.063 38.2495 81.8608 29.7876 81.6098 29.5366" stroke="black" stroke-width="3" stroke-linecap="square"/>
<path d="M82.2195 31.3659C83.3985 31.5132 83.2595 35.164 84.4553 34.6856C86.3109 33.9434 90.9952 22.1952 91.9756 27.0976" stroke="black" stroke-width="3" stroke-linecap="square"/>
<path d="M91.3658 39.2927C94.544 41.5174 95.4514 32.6951 95.0921 32.9919C93.6963 34.1449 91.6847 38.5282 94.042 39.7331C96.6443 41.0631 101.019 38.9205 103.561 38.0732" stroke="black" stroke-width="3" stroke-linecap="square"/>
<path d="M110.878 33.1951C112.525 28.0494 109.2 33.9261 108.27 35.668C107.698 36.7375 105.2 43.3057 108.439 38.7168C109.999 36.5067 111.214 33.9009 112.233 31.3997C112.272 31.3037 111.887 37.5068 113.859 39.2249C116.933 41.9033 122.663 37.6684 125.512 36.2439" stroke="black" stroke-width="3" stroke-linecap="square"/>
<path d="M156.61 20.3902C153.743 17.8418 148.345 23.9311 148.005 26.3523C147.331 31.1586 155.101 27.358 148.751 33.5339C147.381 34.8662 143.915 37.2431 143.195 38.6829" stroke="black" stroke-width="3" stroke-linecap="square"/>
<path d="M156.61 31.9756C158.063 30.9875 159.242 30.1871 160.065 28.5881C162.634 23.5965 156.656 30.6001 155.932 32.1789C152.912 38.764 162.098 32.5848 162.098 32.5854" stroke="black" stroke-width="3" stroke-linecap="square"/>
<path d="M173.073 28.9268C173.133 27.9063 173.613 27.1617 173.073 26.2168C172.361 24.9704 164.367 35.9772 165.892 35.2276C168.778 33.808 173.04 24.7233 172.023 27.7751C170.98 30.9042 170.273 33.477 171.854 36.2439" stroke="black" stroke-width="3" stroke-linecap="square"/>
<path d="M184.659 27.0976C184.953 26.0467 185.41 24.714 183.913 24.6585C180.447 24.5301 180.669 32.3244 182.558 32.0095C184.461 31.6924 191.622 22.5732 189.333 21.1016C186.739 19.4338 185.194 32.483 185.81 34.0759C187.282 37.8789 191.853 32.4367 192.924 31.0271C194.5 28.9541 193.604 33.7045 195.16 34.4824C197.587 35.6959 200.226 31.3418 201.257 29.8415C202.269 28.37 200.336 33.292 199.902 35.0244" stroke="black" stroke-width="3" stroke-linecap="square"/>
<path d="M202.951 27.7073C202.951 31.24 203.617 31.4582 207.558 31.1626C209.369 31.0268 209.87 33.8086 212.369 33.2629C214.7 32.7536 219.707 29.0591 218.534 26.0813C218.385 25.7043 215.217 29.3996 217.382 30.6884C219.037 31.6732 222.423 28.2011 222.531 26.6911C222.962 20.655 217.536 37.7569 215.824 43.561C215.077 46.0929 213.295 50.6249 213.825 53.4865C214.053 54.7165 215.163 51.3698 215.756 50.2683" stroke="black" stroke-width="3" stroke-linecap="square"/>
<path d="M204.781 22.8293C204.299 22.8293 202.276 23.4189 202.003 23.2697C199.312 21.8022 199.639 20.853 199.293 24.6585" stroke="black" stroke-width="3" stroke-linecap="square"/>
<path d="M413.317 337.463C413.603 337.106 414.616 334.68 414.13 335.634C412.626 338.587 411.368 342.22 411.081 345.526C410.743 349.427 412.545 348.491 415.146 349.049" stroke="black" stroke-linecap="square"/>
<path d="M408.439 339.902C406.637 339.902 411.035 339.191 411.454 339.259C413.576 339.604 415.743 341.031 416.772 342.951C417.26 343.862 416.473 347.662 417.789 346.881C418.694 346.343 424.359 340.032 425.14 340.986C426.001 342.04 425.851 344.646 426.122 346" stroke="black" stroke-linecap="square"/>
<path d="M428.561 344.171C430.726 343.9 433.716 341.297 434.997 339.767C435.45 339.226 433.69 340.421 433.27 340.986C431.977 342.725 431.691 345.492 434.252 346.271C437.331 347.208 440.107 344.86 441.366 342.341" stroke="black" stroke-linecap="square"/>
<path d="M449.902 344.171C448.429 342.861 448.793 344.799 450.512 344.035C451.52 343.587 453.525 342.227 451.461 341.596C447.152 340.28 446.368 343.445 450.444 342.748C455.388 341.903 458.779 337.152 459.252 332.382C459.783 327.022 457.206 330.778 456.61 333.669C455.867 337.275 454.991 341.248 456 344.78" stroke="black" stroke-linecap="square"/>
<path d="M459.659 338.073C461.511 338.073 461.439 339.181 461.488 340.783C461.578 343.766 464.242 336.412 465.756 338.683" stroke="black" stroke-linecap="square"/>
<path d="M471.854 339.902C473.747 337.772 469.191 338.007 468.568 340.377C468.397 341.027 468.364 342.519 469.211 342.816C470.154 343.145 471.267 340.039 471.583 340.986C472.495 343.722 471.621 345.591 474.631 342.138C476.138 340.41 475.327 344.394 475.614 345.255C476.643 348.343 479.037 341.13 479.137 340.478C479.332 339.211 479.874 343.994 481.136 343.764C483.32 343.367 484.227 340.393 485.878 339.293" stroke="black" stroke-linecap="square"/>
<path d="M488.317 340.512C489.376 339.586 488.382 341.331 488.182 341.732C486.764 344.566 488.785 341.284 489.808 340.343C492.755 337.631 491.657 342.836 492.077 344.306C492.699 346.481 497.262 341.933 498.073 341.122" stroke="black" stroke-linecap="square"/>
<path d="M506.61 337.463C506.61 330.774 500.272 341.794 502.477 341.664C504.876 341.523 507.152 333.773 507.152 336.176C507.152 338.451 506.489 340.15 507.219 342.341" stroke="black" stroke-linecap="square"/>
<path d="M509.659 340.512C513.855 336.316 510.41 342.807 513.385 342.477C514.682 342.333 516.229 336.581 516.976 338.073" stroke="black" stroke-linecap="square"/>
<path d="M519.415 341.732C520.203 341.196 521.665 340.5 522.091 339.564C522.649 338.336 521.154 338.964 520.905 340.038C520.397 342.227 522.364 343.541 524.327 342.714C525.529 342.208 528.466 337.856 526.596 338.683C525.688 339.084 522.934 342.662 524.157 343.663C525.498 344.759 527.462 341.029 527.816 340.309C529.259 337.371 529.005 344.511 529.171 346" stroke="black" stroke-linecap="square"/>
<path d="M537.707 344.171C538.672 345.136 540.718 346.973 541.095 344.509C541.4 342.514 540.051 338.242 538.52 342.07C538.241 342.77 537.975 344.69 539.333 344.713C541.328 344.746 542.923 341.725 543.669 340.411C544.884 338.271 547.713 331.659 545.973 333.398C544.463 334.909 543.993 338.386 543.906 340.377C543.842 341.854 544.203 344.132 546.108 342.68C547.412 341.687 547.747 339.236 547.599 341.799C547.165 349.282 551.781 338.011 550.851 344.035C550.135 348.672 548.838 354.638 545.702 358.297C542.319 362.244 543.715 354.164 544.313 352.911C546.091 349.182 548.923 345.126 552.07 342.409C554.164 340.603 555.487 342.23 555.255 344.509C554.889 348.09 557.202 338.086 558.71 339.869C559.849 341.214 559.783 344.727 562.436 344.442C564.192 344.253 565.122 340.826 564.13 339.564C562.143 337.035 559.368 349.862 563.317 344.171C566.913 338.989 562.702 345.236 564.808 345.119C566.5 345.025 569.415 337.021 569.415 343.222C569.415 347.748 572.467 339.467 572.667 343.256C572.871 347.134 574.836 341.328 575.038 341.664C576.516 344.128 576.253 345.461 578.527 341.766C580.699 338.236 579.22 342.852 578.561 344.171" stroke="black" stroke-linecap="square"/>
<path d="M580.39 337.463C580.52 338.506 581.439 334.061 579.171 337.463" stroke="black" stroke-linecap="square"/>
<path d="M582.829 340.512C582.991 339.222 582.446 341.619 582.084 342.341C581.136 344.237 584.823 343.728 585.81 343.358C587.976 342.546 588.329 339.108 587.098 341.054C586.497 342.003 586.095 346.339 587.572 344.035C588.224 343.018 588.223 340.624 587.843 342.951C587.766 343.423 587.282 347.202 588.588 346.203C590.446 344.783 592.23 337.693 591.874 340.004C591.727 340.958 589.91 346.216 591.197 346.711C593.416 347.565 595.638 340.569 596.108 339.327C597.236 336.347 592.266 350.145 596.21 344.476C599.535 339.696 595.631 349.014 599.157 346.339C601.72 344.395 603.836 341.129 603.222 346.474C602.819 349.988 602.313 353.49 601.732 356.976" stroke="black" stroke-linecap="square"/>
<path d="M423.073 369.171C423.176 369.994 424.276 369.923 424.902 369.645C427.428 368.523 428.156 363.959 428.967 361.65C429.627 359.776 429.585 358.239 427.68 360.228C425.388 362.621 423.808 365.939 422.734 369.035C422.35 370.145 419.969 381.16 424.157 379.266C426.707 378.112 426.54 371.969 425.851 369.78C424.723 366.196 423.37 370.035 424.225 370.255C426.875 370.936 429.733 368.462 431.61 367.003C432.075 366.641 431.415 368.947 431.406 369.035C431.254 370.716 431.84 370.192 432.829 370.39" stroke="black" stroke-linecap="square"/>
<path d="M434.659 363.073C433.731 363.189 433.331 364.698 433.439 365.512C433.523 366.141 434.927 363.146 433.439 366.122" stroke="black" stroke-linecap="square"/>
<path d="M434.659 373.439C434.839 375.065 436.119 374.457 437.098 373.913C438.68 373.034 439.28 370.008 439.808 368.561C440.086 367.798 442.027 361.728 440.146 365.783C439.362 367.475 438.099 371.089 439.977 372.558C442.146 374.256 444.283 370.2 444.753 368.764C445.409 366.763 446.243 360.618 445.228 362.463C443.67 365.296 443.664 369.096 443.195 372.22" stroke="black" stroke-linecap="square"/>
<path d="M444.415 369.781C444.415 368.002 449.628 367.306 451.122 366.732" stroke="black" stroke-linecap="square"/>
<path d="M451.122 367.951C451.471 370.742 452.793 364.604 451.732 366.461C451.249 367.306 451.122 367.903 451.122 368.866C451.122 371.654 453.357 369.881 455.119 368.696C456.726 367.616 458.494 366.352 459.388 364.564C460.146 363.047 459.126 364.525 458.913 365.038C458.488 366.066 456.436 372.205 459.659 370.593C460.911 369.967 463.097 365.357 464.401 367.341C466.078 369.893 462.797 372.007 460.878 372.829" stroke="black" stroke-linecap="square"/>
<path d="M473.683 366.732C472.607 366.597 478.9 359.753 479.645 360.499C481.914 362.767 481.758 367.811 478.696 369.035C478.358 369.171 479.392 368.803 479.713 368.629C481.976 367.394 483.333 365.512 485.201 363.852C486.74 362.484 485.81 365.822 485.743 366.088C484.782 369.863 483.601 373.677 482.355 377.369C481.908 378.693 481.424 379.017 482.016 377.369C483.125 374.279 484.934 370.253 488.046 368.696C490.155 367.642 487.948 370.735 487.538 371.102C486.249 372.255 489.733 371.555 490.35 371.474C491.651 371.303 493.162 370.878 494.008 369.78C494.255 369.46 494.586 367.147 493.805 367.85C491.393 370.02 495.063 371.533 497.057 370.018C501.228 366.848 496.285 371.251 500.038 371.339C502.846 371.404 503.076 367.456 504.543 370.39C506.871 375.046 512.032 361.678 509.862 367.341C508.802 370.107 507.792 373.005 507.355 375.946C507.055 377.966 507.7 377.049 507.457 375.539C506.757 371.202 506.217 371.805 510.743 369.78C511.465 369.457 513.081 368.18 513.927 368.222C514.709 368.261 514.301 370.187 514.841 370.187C515.182 370.187 515.756 365.821 515.756 366.732" stroke="black" stroke-linecap="square"/>
<path d="M518.195 367.951C519.389 365.414 517.856 366.462 517.111 367.951C515.239 371.695 518.654 370.142 521.244 369.171" stroke="black" stroke-linecap="square"/>
<path d="M531 365.512C531.827 364.582 531.185 364.294 531.034 365.275C530.826 366.624 530.788 367.767 530.424 369.137C529.79 371.521 528.649 375.507 527.985 377.673C527.543 379.114 527.122 380.563 526.596 381.976C526.431 382.421 526.276 383.542 525.919 383.229C524.843 382.288 527.855 375.126 528.222 374.252C529.339 371.599 531.249 367.718 534.252 366.664C535.783 366.127 531.761 370.452 530.39 371" stroke="black" stroke-linecap="square"/>
<path d="M533.439 368.561C535.662 366.585 537.427 369.065 539.13 370.39C540.448 371.415 540.519 366.448 542.856 367.341C545.467 368.34 542.768 367.722 544.076 369.645C545.527 371.779 547.857 367.079 546.718 365.444C546.237 364.754 544.31 368.581 548.683 367.68C549.184 367.577 551.597 366.362 552.07 367.003C552.897 368.12 550.974 372.029 550.648 373.033C550.19 374.44 548.526 378.474 549.428 377.301C550.801 375.517 551.253 372.71 552.341 370.729C554.537 366.732 556.598 367.096 553.561 371" stroke="black" stroke-linecap="square"/>
<path d="M557.219 370.39C557.954 369.729 559.373 369.513 559.93 368.798C561.012 367.407 558.101 369.769 559.591 370.865C561.621 372.358 564.345 369.27 565.925 368.392C566.224 368.226 565.824 369.542 565.824 369.747C565.824 370.876 566.72 370.669 567.416 370.153C569.784 368.399 574.287 360.595 572.802 363.141C572.017 364.487 570.206 368.687 570.973 370.221C571.058 370.391 571.449 369.941 571.515 369.916C572.56 369.518 574.084 369.738 575.173 369.645C577.878 369.414 578.597 369.027 577.951 371.61" stroke="black" stroke-linecap="square"/>
<path d="M579.171 368.561C579.305 367.487 580.404 368.11 581 368.425C582.013 368.962 581 369.761 581 370.695C581 372.259 586.008 368.488 586.793 368.663C588.889 369.129 587.083 371.302 585.268 371" stroke="black" stroke-linecap="square"/>
<path d="M571.244 365.512C569.697 364.784 569.3 364.902 571.244 364.902C574.09 364.902 576.935 364.902 579.781 364.902" stroke="black" stroke-linecap="square"/>
<path d="M682.394 346.501C682.975 345.855 684.345 343.631 683.789 344.299C682.58 345.749 678.284 353.222 681.036 354.649C684.002 356.187 688.886 349.128 690.249 347.382C693.449 343.279 690.905 347.009 690.616 349.951C690.233 353.841 692.015 356.559 695.754 353.658C698.453 351.565 700.715 348.646 702.508 345.767C703.504 344.167 702.899 340.591 704.784 340.591C705.754 340.591 704.899 342.531 705.04 343.491C705.425 346.103 706.269 348.076 707.426 350.391C708.49 352.519 702.641 352.052 701.26 352.3C698.958 352.713 705.909 351.536 708.087 350.685C708.672 350.456 716.688 346.169 714.327 344.482C713.315 343.76 712.509 350.232 712.565 350.685C713.177 355.695 717.95 350.814 718.804 348.63C719.557 346.706 718.356 343.531 718.621 346.538C718.952 350.29 722.561 347.296 723.87 345.987C724.757 345.099 723.092 348.778 722.989 349.364C722.233 353.663 727.799 351.486 729.963 351.126" stroke="black" stroke-linecap="square"/>
<path d="M737.23 346.501C740.087 340.609 734.697 349.847 738.955 350.502C741.561 350.903 745.062 348.597 746.516 346.574C747.496 345.211 746.797 343.807 745.121 344.812C742.337 346.483 740.881 353.523 745.158 349.914C746.633 348.669 747.921 346.706 748.572 344.886C748.973 343.763 747.238 346.92 746.957 348.079C745.65 353.452 752.472 345.097 752.939 345.253C753.753 345.524 751.027 353.371 753.894 350.171C755.536 348.338 758.225 344.024 758.372 348.776C758.497 352.858 760.512 351.408 763.657 350.465" stroke="black" stroke-linecap="square"/>
<path d="M776.87 347.822C776.87 341.414 770.069 350.097 770.594 351.896C771.326 354.406 779.284 345.944 779.917 345.216C780.954 344.023 778.681 350.66 782.046 349.878C785.03 349.184 789.291 340.254 788.322 343.161C787.792 344.75 786.695 348.115 787.918 349.621C791.162 353.613 797.134 340.104 798.085 341.803C799.347 344.055 800.06 347.043 798.526 349.364C797.614 350.743 793.969 351.272 796.25 350.318C800.112 348.704 803.218 347.012 806.307 344.152C809.201 341.472 807.337 347.186 807.115 348.63C806.172 354.753 810.722 349.851 813.648 348.409C815.995 347.253 814.075 350.62 814.309 351.786C814.94 354.945 817.685 352.091 817.392 349.951C816.843 345.943 813.704 347.931 811.886 349.144" stroke="black" stroke-linecap="square"/>
<path d="M818.493 349.804C819.896 348.557 821.849 348.01 820.622 350.465C818.902 353.903 821.244 349.761 822.897 349.584C824.893 349.37 825.021 351.864 826.127 350.759C826.762 350.123 828.349 347.384 828.917 349.144C830.281 353.373 836.666 343.741 833.027 349.804" stroke="black" stroke-linecap="square"/>
<path d="M836.331 345.179C838.885 345.463 837.201 347.713 837.432 348.923C837.841 351.07 839.415 352.054 838.533 354.429C837.672 356.748 836.015 358.709 834.349 360.375" stroke="black" stroke-linecap="square"/>
<path d="M840.956 354.429C842.192 353.316 847.658 347.875 846.094 348.776C844.895 349.468 840.899 353.364 844.553 353.475C846.681 353.539 848.887 352.446 850.866 351.786" stroke="black" stroke-linecap="square"/>
<path d="M866.061 343.858C867.301 341.962 868.047 340.633 867.236 344.225C866.488 347.538 865.38 350.647 864.079 353.768" stroke="black" stroke-linecap="square"/>
<path d="M862.758 351.786C862.665 350.86 862.185 350.255 861.804 349.437C860.562 346.776 868.184 343.065 870.099 342.977C875.08 342.749 862.008 357.476 872.888 348.336C875.979 345.74 872.18 355.883 876.999 352.227C877.752 351.656 881.374 348.056 880.816 346.941C880.523 346.355 879.86 347.947 879.752 348.593C879.498 350.116 880.249 351.057 880.596 352.447" stroke="black" stroke-linecap="square"/>
<path d="M895.792 348.483C900.392 343.882 893.096 347.593 892.341 350.612C891.736 353.032 895.319 346.489 897.37 345.069C898.557 344.248 898.434 349.895 898.434 350.465" stroke="black" stroke-linecap="square"/>
<path d="M902.398 347.822C904.244 345.216 904.38 346.065 904.38 348.483C904.38 352.85 909.99 344.508 910.987 346.501" stroke="black" stroke-linecap="square"/>
<path d="M912.308 349.144C913.332 349.03 914.703 346.39 914.217 347.088C912.467 349.599 913.042 350.825 916.419 350.171C918.226 349.822 919.95 349.037 921.338 347.822C921.902 347.328 922.771 345.421 922.072 345.693C920.807 346.185 916.995 348.953 917.447 350.612C917.764 351.775 921.804 347.928 922.108 347.639C923.859 345.976 923.48 348.951 923.577 350.061C923.837 353.056 928.774 350.414 930.147 349.804" stroke="black" stroke-linecap="square"/>
<path d="M692.304 374.249C693.409 374.111 692.645 372.996 691.643 373.442C688.471 374.852 687.205 379.413 685.697 382.177" stroke="black" stroke-linecap="square"/>
<path d="M701.554 373.588C703.78 373.457 705.134 372.682 704.013 376.158C703.392 378.083 701.047 383.731 701.554 378.544C701.886 375.131 703.245 372.474 706.435 370.836C713.434 367.242 702.64 381.641 702.508 378.727C702.39 376.141 705.379 379.329 705.664 379.681C708.113 382.703 711.23 383.924 714.767 381.59C715.633 381.018 720.457 375.864 716.639 375.864C713.428 375.864 710.825 381.184 711.097 383.902C711.544 388.375 722.051 378.064 723.503 377.185C725.62 375.904 723.503 381.596 723.503 382.324C723.503 384.687 733.31 373.472 731.284 380.562C729.952 385.222 736.2 374.15 736.276 378.36C736.29 379.178 735.661 382.176 737.303 381.994C738.879 381.819 740.305 378.255 741.488 378.47C741.953 378.555 742.901 382.275 743.103 381.737C743.78 379.93 741.293 374.019 739.726 377.296C738.768 379.299 740.828 380.317 742.515 379.902C743.277 379.714 748.598 376.028 748.682 376.158C749.502 377.426 746.644 380.778 748.241 381.884C749.843 382.993 752.66 379.285 753.453 378.36C756.422 374.896 753.826 383.346 756.463 380.709C757.714 379.458 760.297 374.974 759.95 376.708C759.551 378.701 760.341 380.634 762.776 380.526C764.371 380.455 768.698 378.107 767.18 375.864C765.91 373.986 763.29 377.188 763.29 378.507C763.29 382.332 767.917 381.638 770.264 380.856" stroke="black" stroke-linecap="square"/>
<path d="M782.816 370.946C783.194 370.899 784.3 369.533 783.991 370.285C783.699 370.993 781.949 374.967 781.935 374.91C781.032 371.116 789.528 372.104 787.074 374.69C784.811 377.074 780.561 377.631 778.852 380.195" stroke="black" stroke-linecap="square"/>
<path d="M789.423 375.57C790.231 373.552 787.311 376.971 788.102 378.213C788.16 378.305 793.678 374.19 791.112 372.194C787.841 369.65 786.547 376.059 786.12 377.552" stroke="black" stroke-linecap="square"/>
<path d="M797.351 376.892C797.86 372.311 796.253 373.996 793.24 378.176C788.957 384.12 793.882 381.193 795.589 377.846C796.055 376.934 797.404 371.342 796.691 374.91" stroke="black" stroke-linecap="square"/>
<path d="M799.333 376.892C799.333 373.021 798.364 380.195 800.655 380.195" stroke="black" stroke-linecap="square"/>
<path d="M803.958 376.892C803.958 376.062 804.142 375.651 804.472 374.91C805.25 373.16 803.845 377.948 803.701 378.58C803.559 379.204 808.217 369.92 809.243 370.946" stroke="black" stroke-linecap="square"/>
<path d="M811.225 373.588C811.225 372.754 810.508 370.239 809.243 371.129C808.04 371.976 803.287 379.333 804.912 378.8C808.484 377.63 810.433 371.817 811.776 368.817C812.797 366.538 814.254 362.212 811.446 366.982C809.93 369.557 805.691 375.97 807.518 379.167C810.082 383.654 815.499 370.304 813.868 376.011C812.076 382.281 815.894 380.069 817.538 375.717C820.23 368.593 815.553 377.955 820.475 374.763C824.265 372.304 822.368 374.822 822.457 377.92C822.513 379.896 824.942 377.825 825.76 377.552" stroke="black" stroke-linecap="square"/>
<path d="M839.634 377.552C839.061 377.552 840.346 377.3 840.809 376.745C842.379 374.861 839.613 375.622 838.68 375.974C834.386 377.596 838.717 375.203 839.781 373.075C841.021 370.595 836.485 379.194 841.249 375.13C843.218 373.451 844.904 370.845 847.122 369.514C848.511 368.681 846.978 374.145 847.159 374.506C847.477 375.143 850.711 371.556 851.38 371.533C852.201 371.505 852.554 375.151 852.921 375.754C855.921 380.683 858.788 368.14 856.812 371.166C856.372 371.839 854.638 375.754 855.931 376.341C857.62 377.109 860.191 370.258 860.629 369.257C861.802 366.577 859.659 372.289 859.601 372.561C859.073 375.034 858.371 378.029 859.454 380.195" stroke="black" stroke-linecap="square"/>
<path d="M867.383 375.57C868.293 375.57 868.593 375.753 869.218 376.378C870.001 377.161 872.214 373.121 871.53 373.992C865.84 381.234 878.94 377.311 880.669 378.213C881.627 378.713 879.685 381.335 878.908 381.076C877.888 380.736 880.636 376.729 880.89 376.415C883.158 373.606 882.766 379.6 885.257 379.351C888.289 379.048 890.199 373.728 887.717 381.296C886.896 383.8 885.832 386.216 885.001 388.711C884.141 391.289 887.106 383.697 888.23 381.223C888.253 381.173 891.521 374.747 891.681 374.947C892.317 375.741 890.787 378.693 890.506 379.535" stroke="black" stroke-linecap="square"/>
<path d="M895.792 374.249C896.384 373.591 896.978 371.974 897.774 371.606C898.817 371.125 897.406 373.882 897.076 374.983C896.622 376.496 896.224 378.021 895.792 379.535" stroke="black" stroke-linecap="square"/>
<path d="M896.452 378.874C898.758 376.568 898.306 377.36 898.434 379.535C898.587 382.132 904.866 372.469 900.416 374.249" stroke="black" stroke-linecap="square"/>
<path d="M901.077 377.552C901.913 377.448 903.72 376.023 903.72 378.213C903.72 378.433 903.193 379.242 903.206 379.241C904.017 379.139 905.718 377.352 906.362 376.892" stroke="black" stroke-linecap="square"/>
<path d="M908.344 378.874C908.586 378.742 911.743 376.58 912.382 377.149C912.777 377.5 912.238 378.588 912.602 379.094C913.43 380.244 915.516 378.667 916.272 378.213" stroke="black" stroke-linecap="square"/>
<path d="M771.585 397.373C771.739 397.218 773.198 395.499 773.2 395.501C773.48 395.687 772.934 397.61 772.906 397.813C772.724 399.137 772.044 402.982 771.805 401.667C771.298 398.876 779.675 387.154 781.055 390.179C782.912 394.25 776.919 400.197 773.567 400.676" stroke="black" stroke-linecap="square"/>
<path d="M777.531 397.373C779.141 396.592 780.268 395.551 780.981 397.813C781.276 398.75 781.606 404.088 783.404 401.924C784.578 400.511 788.762 392.327 788.762 397.373" stroke="black" stroke-linecap="square"/>
<path d="M791.405 398.694C792.257 397.72 789.706 399.615 789.46 400.97C789.298 401.858 792.774 397.419 793.094 396.712C794.267 394.118 791.804 396.637 791.405 398.033" stroke="black" stroke-linecap="square"/>
<path d="M796.69 396.712C800.506 393.32 797.934 401.642 797.425 402.915C797.278 403.281 797.189 403.701 796.911 403.979C796.297 404.593 797.308 402.283 797.645 401.484C798.673 399.042 800.096 396.366 802.196 394.657C803.739 393.401 800.498 399.259 799.994 400.015" stroke="black" stroke-linecap="square"/>
<path d="M803.297 397.373C808.777 396.764 802.841 395.199 803.738 400.382C804.603 405.381 811.016 397.647 811.592 396.198C811.718 395.881 813.154 390.968 811.666 393.629C810.4 395.89 809.537 398.291 808.583 400.676" stroke="black" stroke-linecap="square"/>
<path d="M808.583 400.676C809.347 397.236 822.278 391.725 818.493 398.033" stroke="black" stroke-linecap="square"/>
<path d="M821.796 391.427C822.449 391.508 822.771 392.228 823.117 392.748" stroke="black" stroke-linecap="square"/>
<path d="M823.117 394.73C824.182 396.251 821.475 397.563 823.338 398.841C825.549 400.359 827.586 398.802 828.77 396.859C828.878 396.681 830.923 391.567 829.063 392.895C825.735 395.272 837.143 400.473 828.403 402.658" stroke="black" stroke-linecap="square"/>
<defs>
<filter id="filter0_bd_1218_4899" x="-20" y="-20" width="1073" height="456" filterUnits="userSpaceOnUse" color-interpolation-filters="sRGB">
<feFlood flood-opacity="0" result="BackgroundImageFix"/>
<feGaussianBlur in="BackgroundImageFix" stdDeviation="10"/>
<feComposite in2="SourceAlpha" operator="in" result="effect1_backgroundBlur_1218_4899"/>
<feColorMatrix in="SourceAlpha" type="matrix" values="0 0 0 0 0 0 0 0 0 0 0 0 0 0 0 0 0 0 127 0" result="hardAlpha"/>
<feOffset dy="0.5"/>
<feColorMatrix type="matrix" values="0 0 0 0 0 0 0 0 0 0 0 0 0 0 0 0 0 0 0.3 0"/>
<feBlend mode="normal" in2="effect1_backgroundBlur_1218_4899" result="effect2_dropShadow_1218_4899"/>
<feBlend mode="normal" in="SourceGraphic" in2="effect2_dropShadow_1218_4899" result="shape"/>
</filter>
</defs>
</svg>
