<svg width="1518" height="370" viewBox="0 0 1518 370" fill="none" xmlns="http://www.w3.org/2000/svg">
<rect width="1518" height="370" fill="white"/>
<path d="M691.415 279.968C691.415 273.375 695.31 256.571 691.034 251.226C685.439 244.232 678.521 238.582 672.951 231.62C665.53 222.344 660.432 207.031 656.772 195.645C653.695 186.072 653.401 176.043 650.681 166.522C647.942 156.935 653.056 146.794 653.727 137.4C654.887 121.154 666.324 105.706 677.71 94.9529C686.983 86.1946 701.432 82.9612 713.685 82.9612C729.5 82.9612 744.809 81.3142 759.939 88.4811C773.63 94.9664 784.292 103.497 791.155 117.223C805.053 145.018 781.436 182.574 766.791 204.972C758.826 217.155 752.917 231.15 745.853 243.993C738.692 257.012 739.382 267.103 739.382 281.681C739.382 285.902 740.837 293.524 737.288 296.718C734.34 299.371 725.773 300.556 721.87 301.857C716.38 303.687 707.444 305.984 701.693 305.664C694.681 305.275 695.798 297.973 694.46 293.292C691.836 284.108 691.415 272.413 691.415 262.837C691.415 258.241 688.864 248.462 693.509 252.177C704.553 261.013 721.768 255.984 734.242 255.984" stroke="black" stroke-width="3" stroke-linecap="square"/>
<path d="M689.702 262.837C689.702 261.838 702.027 269.459 704.168 270.07C713.084 272.618 722.945 268.486 730.816 264.55" stroke="black" stroke-width="3" stroke-linecap="square"/>
<path d="M689.702 274.829C679.386 276.303 710.652 283.264 720.537 279.968" stroke="black" stroke-width="3" stroke-linecap="square"/>
<path d="M581.776 189.174C587.819 194.545 597.826 197.469 605.76 199.452" stroke="black" stroke-width="3" stroke-linecap="square"/>
<path d="M590.342 89.8138C590.528 88.3261 613.063 100.243 617.751 101.805" stroke="black" stroke-width="3" stroke-linecap="square"/>
<path d="M715.398 31.5684C719.227 32.047 717.111 52.4557 717.111 55.5518" stroke="black" stroke-width="3" stroke-linecap="square"/>
<path d="M818.184 40.1337C818.672 36.2367 818.683 42.2442 818.089 44.3212C816.64 49.3942 813.617 55.5503 811.332 60.6909" stroke="black" stroke-width="3" stroke-linecap="square"/>
<path d="M895.274 100.093C895.02 102.124 891.541 102.511 889.754 103.138C879.225 106.838 868.114 110.172 859.299 117.224" stroke="black" stroke-width="3" stroke-linecap="square"/>
<path d="M879.856 175.469C879.03 182.078 858.123 183.043 854.159 184.034" stroke="black" stroke-width="3" stroke-linecap="square"/>
<path d="M711.972 250.845C696.405 250.845 711.972 223.527 711.972 216.583C711.972 209.587 710.242 202.577 705.12 197.739C701.039 193.885 691.834 192.207 689.321 187.461C681.255 172.225 683.777 153.926 691.796 139.494C695.508 132.811 702.501 133.366 707.213 129.596C709.465 127.795 725.319 128.812 720.157 133.974C716.472 137.659 706.562 138.883 701.693 141.588C698.674 143.265 695.598 146.853 696.649 150.534C697.239 152.597 701.904 149.856 703.407 149.772C706.829 149.582 709.283 146.346 712.829 146.346C714.118 146.346 721.522 145.971 718.444 149.392C713.971 154.362 704.856 151.749 699.98 156.625C691.965 164.64 709.811 160.051 711.972 160.051C723.853 160.051 709.494 166.101 706.833 167.284C703.542 168.747 700.782 167.776 697.506 168.712C694.584 169.547 698.343 173.659 699.98 173.756C701.344 173.836 708.355 170.924 708.355 172.994C708.355 176.461 702.059 175.469 699.98 175.469" stroke="black" stroke-width="3" stroke-linecap="square"/>
</svg>
