<svg width="1518" height="370" viewBox="0 0 1518 370" fill="none" xmlns="http://www.w3.org/2000/svg">
<rect width="1518" height="370" fill="white"/>
<path d="M680.272 201.496C681.486 201.648 682.982 203.436 683.747 204.392C685.149 206.144 691.836 209.005 694.238 209.606C710.144 213.582 726.295 213.954 742.574 211.665C758.784 209.386 778.77 206.808 789.236 192.679C796.97 182.238 800.161 174.438 800.242 160.691C800.302 150.477 796.952 140.441 793.806 130.827C786.505 108.518 766.621 96.6967 743.99 92.8537C731.534 90.7385 715.423 92.5432 704.15 98.3888C689.821 105.818 680.524 113.929 672.227 127.931C659.056 150.156 668.043 186.856 687.352 202.655C702.344 214.921 728.466 219.699 747.465 220.032C761.397 220.277 774.268 216.98 785.117 207.739C807.339 188.809 811.122 155.582 794.385 131.406C789.521 124.38 783.927 119.564 777.844 113.707C773.564 109.585 770.957 105.34 764.843 105.34" stroke="black" stroke-width="3" stroke-linecap="square"/>
<path d="M789.172 200.338C790.387 200.49 792.164 202.148 792.647 203.234C795.255 209.101 803.839 213.97 808.352 218.359C818.162 227.9 828.143 236.859 834.933 248.931C836.577 251.854 851.506 271.458 852.89 268.69" stroke="black" stroke-width="3" stroke-linecap="square"/>
<path d="M783.379 208.447C783.379 217.403 796.432 228.45 802.495 234.514C811.627 243.646 818.699 254.641 826.823 264.571C830.288 268.805 833.555 273.441 837.572 277.057C840.647 279.825 848.904 275.641 852.89 275.641" stroke="black" stroke-width="3" stroke-linecap="square"/>
<path d="M694.174 174.85C702.705 182.433 711.79 179.54 720.562 173.692C726.699 169.601 728.312 157.499 723.394 152.581C717.765 146.953 712.689 145.888 704.6 145.888C695.122 145.888 692.736 152.414 688.961 159.211C685.525 165.395 691.899 173.455 695.332 177.747C700.232 183.872 711.524 181.751 717.344 178.841C726.044 174.491 722.635 164.743 719.661 158.052C718.067 154.466 715.364 152.897 712.131 151.101C709.593 149.691 700.539 151.68 703.442 151.68" stroke="black" stroke-width="3" stroke-linecap="square"/>
<path d="M699.966 180.643C693.271 180.643 693.015 183.149 693.015 189.331C693.015 194.635 691.857 199.519 691.857 204.971" stroke="black" stroke-width="3" stroke-linecap="square"/>
<path d="M715.027 180.643C714.391 181.37 722.563 178.618 724.553 181.801C726.825 185.437 730.114 188.734 732.405 192.743C735.713 198.532 738.708 204.834 741.673 210.764" stroke="black" stroke-width="3" stroke-linecap="square"/>
<path d="M733.563 177.167C733.76 178.744 739.204 180.583 740.772 180.643C745.756 180.835 749.985 179.793 751.842 174.593C754.441 167.316 752.914 154.009 742.252 156.379C734.428 158.117 728.569 165.571 730.989 173.434C732.16 177.242 733.001 180.222 737.296 181.544C739.257 182.147 749.167 182.49 746.886 181.222C740.914 177.904 731.24 183.224 728.993 173.113C727.539 166.569 734.898 159.837 739.098 156.057C744.929 150.809 753.258 157.577 753.258 164.424C753.258 169.13 753.211 171.393 750.941 175.365C749.166 178.471 743.044 177.9 741.673 180.643" stroke="black" stroke-width="3" stroke-linecap="square"/>
<path d="M741.673 182.96C739.741 183.201 738.197 184.524 738.197 186.435C738.197 187.606 739.356 192.133 739.356 191.07" stroke="black" stroke-width="3" stroke-linecap="square"/>
<path d="M745.148 181.802C752.269 181.802 754.886 182.757 756.476 189.911C757.893 196.288 758.561 203.992 761.368 209.606" stroke="black" stroke-width="3" stroke-linecap="square"/>
<path d="M766.001 181.802C766.718 187.538 773.971 179.897 774.111 176.267C774.256 172.498 769.423 170.112 766.001 171.632C755.181 176.442 762.534 185.273 771.794 180.643" stroke="black" stroke-width="3" stroke-linecap="square"/>
<path d="M766.002 185.277C760.375 190.904 760.612 191.522 762.526 199.179" stroke="black" stroke-width="3" stroke-linecap="square"/>
<path d="M768.318 185.277C778.425 186.4 775.269 197.005 775.269 204.972" stroke="black" stroke-width="3" stroke-linecap="square"/>
<path d="M701.125 194.545C702.843 194.76 698.808 202.986 698.808 204.972" stroke="black" stroke-width="3" stroke-linecap="square"/>
<path d="M718.502 196.862C718.688 198.345 726.255 204.214 727.771 204.972" stroke="black" stroke-width="3" stroke-linecap="square"/>
<path d="M712.71 118.083C712.385 121.013 711.127 124.415 710.393 127.351" stroke="black" stroke-width="3" stroke-linecap="square"/>
<path d="M712.71 118.084C716.244 118.084 717.874 119.074 721.721 118.341C725.373 117.645 727.771 117.262 727.771 121.302C727.771 127.384 726.167 130.348 719.661 127.609C713.336 124.946 710.334 129.938 714.77 121.559C717.318 116.746 721.268 118.084 726.612 118.084" stroke="black" stroke-width="3" stroke-linecap="square"/>
<path d="M737.039 118.083C733.996 118.463 734.722 124.075 734.722 126.193" stroke="black" stroke-width="3" stroke-linecap="square"/>
<path d="M733.563 118.084C735.756 118.084 743.805 117.261 743.99 120.401C744.4 127.37 742.367 127.352 735.88 127.352" stroke="black" stroke-width="3" stroke-linecap="square"/>
<path d="M749.782 119.242C749.782 118.791 750.941 125.261 750.941 127.352" stroke="black" stroke-width="3" stroke-linecap="square"/>
<path d="M749.782 120.401C750.313 115.627 761.367 116.657 761.367 119.5C761.367 122.074 760.866 126.501 760.144 129.025C759.745 130.423 754.516 129.669 753.258 129.669" stroke="black" stroke-width="3" stroke-linecap="square"/>
<path d="M726.612 138.937V145.888" stroke="black" stroke-width="3" stroke-linecap="square"/>
<path d="M727.771 136.62C728.064 134.274 737.924 136.567 738.261 138.422C739.622 145.903 738.078 147.046 731.246 147.046" stroke="black" stroke-width="3" stroke-linecap="square"/>
<path d="M747.465 137.778V144.729" stroke="black" stroke-width="3" stroke-linecap="square"/>
<path d="M747.465 138.936C747.465 134.408 758.458 136.169 758.857 140.159C759.73 148.886 755.485 148.204 748.624 148.204" stroke="black" stroke-width="3" stroke-linecap="square"/>
</svg>
